# Blender 4.3.2
# www.blender.org
mtllib Big-Tree-low-poly.mtl
o Cube
v 1.412113 3.166964 -1.111415
v 2.733307 1.000000 -2.727209
v 0.707616 3.095417 0.614114
v 3.473183 1.000000 3.022533
v -1.228402 2.837114 -0.909611
v -3.162533 1.000000 -3.613182
v -1.031405 2.888067 1.751298
v -3.162533 1.000000 3.022533
v -0.022791 1.000000 -2.727209
v 0.041021 3.012146 0.665059
v 0.120179 1.000000 3.022533
v 0.077870 3.000292 -1.009444
v 0.223286 5.970049 -1.533187
v 0.560220 5.991651 -0.243357
v -1.066485 6.001411 -1.196795
v -0.729551 6.023014 0.093036
v -0.091497 6.007499 -0.073379
v -0.428431 5.985896 -1.363209
v 0.498747 11.393713 0.484233
v 0.969045 11.406726 1.728066
v -0.741964 12.054176 1.340929
v -0.390284 12.066844 2.269711
v 0.368174 11.600609 1.963103
v -0.298982 11.921288 1.175008
v 2.062729 15.582603 -0.626101
v 2.846681 15.397680 0.551267
v 0.877611 16.110128 -0.681020
v 1.619062 15.947930 0.526835
v 2.232378 15.673853 0.535811
v 1.490154 15.868484 -0.642987
v 2.347133 19.125978 -1.013572
v 2.785865 19.332846 0.555429
v 1.371863 19.820234 -1.072987
v 1.622776 19.827551 0.020583
v 2.151044 19.571096 0.320933
v 1.893498 19.418398 -1.034617
v 1.688284 20.542273 -8.196577
v 0.748148 21.290819 -7.619105
v 1.213236 20.920509 -7.904782
v -0.625736 20.974293 5.458977
v -2.200581 21.437931 3.976539
v -1.826964 21.364643 5.031975
v -1.232712 21.171534 5.243216
v -1.620381 21.131178 3.910831
v 1.907863 13.402203 1.139666
v 1.300276 13.637231 1.249457
v 0.286667 13.631618 1.677783
v 0.057874 13.957734 0.169391
v 0.661886 13.716767 0.041478
v 1.269473 13.481739 -0.068312
v 1.662559 17.673834 -0.851770
v 2.290200 17.347080 -0.860185
v 2.522956 17.985775 0.342910
v 2.224772 17.617443 0.408859
v 1.634841 17.856354 0.281470
v 1.076799 17.974026 -0.842482
v 2.165061 16.463202 -0.735129
v 1.256998 16.591721 0.675741
v 0.950258 16.722851 0.639046
v 0.951881 17.038076 -0.759201
v 1.557841 16.781326 -0.733858
v 0.623342 16.853310 0.611395
v 1.984960 14.818962 0.470457
v 1.168190 14.905787 0.938812
v 1.766327 14.655542 0.892634
v 0.457020 15.038014 -0.253861
v 1.055156 14.787771 -0.300040
v 1.666101 14.532171 -0.347207
v -0.869525 12.540536 2.764880
v -1.594351 13.215476 3.160512
v -1.368204 13.220491 3.637801
v -1.326630 12.667572 2.928551
v -1.047950 13.974453 3.365765
v -1.295971 13.997311 2.907905
v -3.276631 15.631647 5.938103
v -3.220349 15.633533 6.093294
v -3.108063 15.894676 5.997434
v -3.182744 15.905404 5.845689
v 4.918844 15.760633 -2.584565
v 5.540133 16.058880 -1.711338
v 5.339676 16.372238 -2.089652
v 5.537288 16.349403 -1.713145
v 6.292091 18.753937 -2.781713
v 6.552190 18.817457 -2.143023
v 6.401418 18.008699 -2.794524
v 6.752417 18.019039 -2.272223
v 10.542486 20.064346 -5.899911
v 10.680840 20.090670 -5.603315
v 10.627064 19.718590 -5.929202
v 10.807220 19.726933 -5.691487
v -1.382694 16.720760 0.707419
v -0.934525 16.623266 1.261365
v -1.086771 16.570219 0.688954
v -1.308663 17.181173 0.641437
v -1.628713 17.364906 0.572145
v -0.917673 17.103018 1.187138
v -3.330006 17.984989 3.024346
v -3.121345 17.929432 3.210806
v -3.225300 17.908516 3.000072
v -3.281397 18.160208 2.981428
v -3.400108 18.249723 2.972376
v -3.094369 18.115419 3.168231
v -1.775333 15.093225 4.108521
v -1.411357 14.339556 4.307718
v -2.310578 14.411989 3.965558
v -1.627626 13.832004 4.491666
v 8.514240 18.863644 -4.361863
v 8.779819 18.872986 -3.981855
v 8.417289 19.409142 -4.340812
v 8.616514 19.454063 -3.873169
v 1.027372 20.554855 -4.323690
v 1.544964 20.204700 -4.483382
v 2.017708 19.834126 -4.605074
v -2.514410 17.807314 1.772261
v -2.295030 17.670691 1.811433
v -2.006021 17.609219 2.177685
v -2.027935 17.276348 2.236085
v -2.356350 17.352875 1.865882
v -2.156035 17.239368 1.844513
v -5.299668 14.675827 1.739154
v -5.196073 14.918571 1.662311
v -5.438783 15.222449 2.151577
v -5.508720 15.059026 2.203579
v 0.262869 1.474262 -0.809012
v 0.951058 2.000000 0.309013
v -0.162456 1.149346 -0.499995
v -0.688189 1.474264 -0.499997
v 0.000000 3.000000 0.000000
v 0.894426 2.447216 0.000000
v 0.262869 1.474262 0.809012
v -0.525730 1.149348 0.000000
v 0.276388 2.447220 -0.850649
v -0.723607 2.447220 -0.525725
v -0.688189 1.474264 0.499997
v 0.425323 1.149346 0.309011
v 0.850648 1.474264 0.000000
v 0.425323 1.149346 -0.309011
v -0.162456 1.149346 0.499995
v 0.162456 2.850654 -0.499995
v 0.525730 2.850652 0.000000
v 0.688189 2.525736 -0.499997
v -0.425323 2.850654 0.309011
v -0.723607 2.447220 0.525725
v 0.276388 2.447220 0.850649
v 0.723607 1.552781 -0.525725
v -0.951058 2.000000 0.309013
v 0.000000 2.000000 -1.000000
v 0.951058 2.000000 -0.309013
v -0.587786 2.000000 0.809017
v 0.688189 2.525736 0.499997
v -0.262869 2.525738 0.809012
v -0.276388 1.552780 -0.850649
v -0.894426 1.552784 0.000000
v -0.276388 1.552780 0.850649
v 0.723607 1.552781 0.525725
v 0.162456 2.850654 0.499995
v -0.425323 2.850654 -0.309011
v 0.000000 2.000000 1.000000
v 0.000000 1.000000 0.000000
v 0.587786 2.000000 0.809017
v -0.951058 2.000000 -0.309013
v -0.587786 2.000000 -0.809017
v -0.850648 2.525736 0.000000
v 0.587786 2.000000 -0.809017
v -0.262869 2.525738 -0.809012
v 2.721824 23.547403 -4.028053
v 2.898654 23.624256 -2.922734
v 3.366731 23.331451 -2.561880
v 3.181141 23.087530 -3.915845
vn 0.5534 0.2900 0.7808
vn 0.1731 0.6205 0.7648
vn -0.6775 0.7354 0.0103
vn -0.0000 -1.0000 -0.0000
vn 0.7215 0.6924 0.0032
vn -0.0447 0.6160 -0.7865
vn 0.0928 0.7304 -0.6767
vn -0.0073 0.7553 0.6553
vn -0.1213 -0.1666 -0.9785
vn -0.3746 0.3566 -0.8559
vn -0.2219 0.3873 -0.8948
vn -0.1267 -0.1098 -0.9858
vn 0.1462 0.2651 0.9531
vn -0.9849 0.1130 0.1310
vn 0.9600 0.2523 0.1212
vn -0.7170 0.4917 0.4942
vn 0.4105 -0.1870 0.8925
vn 0.9513 0.0517 -0.3038
vn 0.2349 -0.3489 0.9073
vn -0.9529 -0.0634 0.2967
vn 0.1919 -0.3457 0.9185
vn -0.4151 -0.0592 -0.9078
vn -0.0408 -0.0916 -0.9950
vn 0.1525 0.2852 0.9463
vn -0.1242 -0.2901 -0.9489
vn -0.1302 -0.2306 -0.9643
vn 0.7149 -0.5965 -0.3647
vn 0.2682 0.9542 -0.1329
vn 0.4685 0.8565 -0.2168
vn -0.1740 -0.0272 0.9844
vn -0.9315 0.1135 0.3455
vn -0.3264 0.0766 0.9421
vn -0.0425 -0.1081 -0.9932
vn -0.6200 -0.7767 -0.1115
vn 0.6421 0.7608 0.0940
vn 0.4011 0.9088 -0.1153
vn -0.3512 -0.9340 0.0653
vn -0.3281 -0.9423 0.0664
vn -0.3827 -0.9234 0.0284
vn 0.5398 0.8353 0.1044
vn 0.8112 -0.4455 -0.3789
vn -0.5401 -0.1208 -0.8329
vn -0.3688 -0.3588 -0.8575
vn 0.4106 0.1430 0.9005
vn 0.3210 0.1529 0.9347
vn -0.5690 -0.7854 0.2437
vn -0.0356 -0.1049 -0.9938
vn -0.0320 0.3182 0.9475
vn -0.8408 0.5228 0.1407
vn -0.0804 0.3213 0.9436
vn -0.0735 -0.1258 -0.9893
vn 0.8307 -0.4383 0.3433
vn 0.0187 0.9985 -0.0516
vn -0.0415 -0.1068 -0.9934
vn -0.2122 -0.3638 0.9070
vn -0.2804 -0.9044 -0.3215
vn -0.1531 -0.2698 0.9507
vn -0.4469 -0.2293 -0.8647
vn 0.8707 -0.3130 -0.3794
vn -0.2053 -0.2035 -0.9573
vn -0.2369 -0.2468 -0.9397
vn 0.3086 0.2564 0.9160
vn 0.5414 0.2210 0.8112
vn -0.7370 0.5757 0.3542
vn 0.7638 0.5739 0.2954
vn 0.7704 -0.0965 0.6302
vn 0.2951 0.9505 0.0971
vn -0.6823 -0.7304 0.0309
vn -0.3115 -0.9179 0.2457
vn -0.8813 0.1177 -0.4576
vn -0.8197 0.4435 0.3625
vn -0.6237 0.4449 -0.6427
vn 0.6904 -0.0320 0.7227
vn -0.6798 -0.7228 0.1243
vn 0.8422 -0.1007 -0.5297
vn 0.1260 -0.9915 -0.0315
vn -0.4517 0.3685 -0.8125
vn 0.4769 0.4492 0.7555
vn 0.2635 -0.9508 -0.1629
vn 0.0369 0.9904 -0.1330
vn 0.5412 -0.1477 0.8278
vn 0.2275 -0.9343 0.2745
vn 0.8039 0.3218 -0.5001
vn -0.5756 -0.0712 -0.8146
vn 0.6358 0.0343 0.7711
vn -0.2724 0.9617 0.0307
vn 0.6892 0.0753 0.7207
vn 0.5431 0.8335 0.1012
vn 0.1679 0.9774 0.1286
vn -0.2479 -0.9685 0.0246
vn 0.3442 0.2365 0.9086
vn 0.3798 0.8920 0.2450
vn -0.6128 0.3012 0.7306
vn -0.9298 -0.1836 0.3189
vn -0.3929 -0.9048 0.1644
vn 0.3355 0.9357 -0.1090
vn -0.7689 -0.4954 -0.4043
vn 0.5273 0.8496 -0.0122
vn -0.7142 -0.6417 0.2794
vn 0.8783 -0.2202 0.4244
vn -0.4632 -0.7040 0.5384
vn 0.8128 0.5778 -0.0743
vn -0.2790 0.9601 0.0217
vn 0.6357 0.0345 0.7712
vn -0.5757 -0.0706 -0.8146
vn 0.2653 -0.9507 -0.1606
vn 0.5864 0.8020 0.1138
vn -0.5911 -0.7976 -0.1199
vn 0.4624 0.8823 -0.0879
vn -0.7523 -0.5478 -0.3659
vn 0.3367 0.9354 -0.1078
vn -0.3952 -0.9042 0.1618
vn 0.5014 0.8634 0.0565
vn 0.6912 0.0842 0.7177
vn -0.8289 0.1869 -0.5273
vn 0.3282 0.7916 -0.5155
vn 0.2018 -0.3707 -0.9066
vn -0.4445 0.2251 0.8671
vn -0.3035 0.1876 0.9342
vn 0.8897 0.3304 0.3151
vn -0.0247 0.3304 0.9435
vn -0.5346 0.3304 0.7779
vn -0.5746 -0.3304 0.7488
vn 0.7947 0.1876 0.5773
vn -0.0247 0.3304 -0.9435
vn -0.6071 0.7947 -0.0000
vn -0.3066 -0.1256 0.9435
vn -0.8897 -0.3304 0.3151
vn 0.5746 0.3304 0.7488
vn 0.0385 0.6617 0.7488
vn -0.3313 0.9435 -0.0000
vn 0.8026 -0.1256 0.5831
vn -0.4911 -0.7947 0.3568
vn 0.4911 0.7947 0.3568
vn -0.4713 0.6617 -0.5831
vn -0.9050 0.3304 -0.2680
vn -0.3066 -0.1256 -0.9435
vn -0.4089 -0.6617 -0.6284
vn 0.9050 -0.3304 -0.2680
vn -0.4713 0.6617 0.5831
vn -0.7002 0.6617 -0.2680
vn -0.0385 -0.6617 -0.7488
vn 0.8026 -0.1256 -0.5831
vn 0.4089 0.6617 0.6284
vn 0.9921 0.1256 -0.0000
vn 0.7240 0.6617 -0.1947
vn -0.1876 0.7947 -0.5773
vn 0.9822 -0.1876 -0.0000
vn -0.9050 0.3304 0.2680
vn 0.2680 0.9435 0.1947
vn -0.0385 -0.6617 0.7488
vn 0.3066 0.1256 -0.9435
vn 0.1876 -0.7947 0.5773
vn -0.4911 -0.7947 -0.3568
vn -0.7240 -0.6617 0.1947
vn 0.0385 0.6617 -0.7488
vn -0.2680 -0.9435 -0.1947
vn 0.1024 -0.9435 0.3151
vn 0.9050 -0.3304 0.2680
vn -0.9822 0.1876 -0.0000
vn 0.3035 -0.1876 -0.9342
vn -0.1024 0.9435 -0.3151
vn 0.2680 0.9435 -0.1947
vn 0.0247 -0.3304 -0.9435
vn 0.4089 0.6617 -0.6284
vn 0.7240 0.6617 0.1947
vn -0.4089 -0.6617 0.6284
vn 0.4713 -0.6617 0.5831
vn 0.1024 -0.9435 -0.3151
vn 0.7002 -0.6617 0.2680
vn -0.5746 -0.3304 -0.7488
vn 0.0247 -0.3304 0.9435
vn -0.2680 -0.9435 0.1947
vn 0.7947 0.1876 -0.5773
vn 0.4911 0.7947 -0.3568
vn 0.3066 0.1256 0.9435
vn -0.1024 0.9435 0.3151
vn 0.8897 0.3304 -0.3151
vn 0.6071 -0.7947 -0.0000
vn -0.5346 0.3304 -0.7779
vn -0.7240 -0.6617 -0.1947
vn -0.7947 -0.1876 -0.5773
vn -0.8897 -0.3304 -0.3151
vn -0.8026 0.1256 -0.5831
vn 0.5346 -0.3304 0.7779
vn 0.5346 -0.3304 -0.7779
vn -0.9921 -0.1256 -0.0000
vn 0.3035 -0.1876 0.9342
vn 0.5746 0.3304 -0.7488
vn -0.7002 0.6617 0.2680
vn 0.1876 -0.7947 -0.5773
vn -0.1876 0.7947 0.5773
vn 0.7002 -0.6617 -0.2680
vn 0.3313 -0.9435 -0.0000
vn -0.7947 -0.1876 0.5773
vn -0.3035 0.1876 -0.9342
vn 0.4713 -0.6617 -0.5831
vn -0.8026 0.1256 0.5831
vn 0.9190 -0.3828 -0.0943
vn 0.8881 -0.4324 -0.1562
vn 0.1530 -0.6345 -0.7576
vn 0.3267 0.5109 0.7951
vt 0.774203 0.758832
vt 0.776259 0.759385
vt 0.776211 0.764565
vt 0.775112 0.764567
vt 0.775831 0.755125
vt 0.770289 0.755323
vt 0.774560 0.759734
vt 0.772216 0.757928
vt 0.776913 0.757441
vt 0.781290 0.757297
vt 0.781561 0.754921
vt 0.778897 0.760204
vt 0.777378 0.759506
vt 0.776702 0.759966
vt 0.775958 0.764925
vt 0.777060 0.764922
vt 0.775548 0.774332
vt 0.777081 0.773521
vt 0.774877 0.764928
vt 0.774742 0.774546
vt 0.777332 0.764562
vt 0.777189 0.779993
vt 0.778150 0.779617
vt 0.779033 0.781518
vt 0.778009 0.781916
vt 0.779201 0.779166
vt 0.779669 0.779502
vt 0.781165 0.780514
vt 0.780098 0.781018
vt 0.777608 0.773290
vt 0.776508 0.773602
vt 0.775108 0.774391
vt 0.780486 0.784108
vt 0.780640 0.787297
vt 0.787674 0.786649
vt 0.787832 0.785336
vt 0.779407 0.784693
vt 0.779862 0.787824
vt 0.778223 0.779549
vt 0.779050 0.781479
vt 0.779278 0.779095
vt 0.780026 0.780967
vt 0.780050 0.788101
vt 0.772344 0.791116
vt 0.772641 0.791259
vt 0.781125 0.787662
vt 0.780136 0.784532
vt 0.780678 0.785202
vt 0.778398 0.785232
vt 0.779130 0.784974
vt 0.779183 0.788570
vt 0.778971 0.788548
vt 0.779936 0.789188
vt 0.779050 0.789797
vt 0.779236 0.790951
vt 0.780026 0.790326
vt 0.780737 0.788547
vt 0.780826 0.789692
vt 0.771251 0.791711
vt 0.771595 0.791626
vt 0.773718 0.790881
vt 0.778531 0.777227
vt 0.779385 0.776898
vt 0.777468 0.777635
vt 0.776404 0.778051
vt 0.778304 0.777312
vt 0.776436 0.777261
vt 0.772993 0.776254
vt 0.772734 0.776327
vt 0.779193 0.783101
vt 0.778159 0.783563
vt 0.777283 0.783151
vt 0.777847 0.782910
vt 0.778374 0.782668
vt 0.780235 0.782531
vt 0.786181 0.782367
vt 0.785885 0.782437
vt 0.773376 0.784094
vt 0.773913 0.783756
vt 0.774290 0.782652
vt 0.772700 0.778212
vt 0.772094 0.779643
vt 0.768927 0.781006
vt 0.769009 0.780969
vt 0.773634 0.777664
vt 0.773326 0.777776
vt 0.773281 0.775371
vt 0.774132 0.775160
vt 0.768728 0.780475
vt 0.768774 0.780461
vt 0.771191 0.778409
vt 0.772261 0.777250
vt 0.786176 0.781856
vt 0.785206 0.781416
vt 0.792008 0.786872
vt 0.791569 0.786862
vt 0.795206 0.788347
vt 0.795512 0.788363
vt 0.788069 0.786751
vt 0.788393 0.785335
vt 0.795086 0.788943
vt 0.795324 0.788993
vt 0.791432 0.787812
vt 0.791757 0.787890
vt 0.772189 0.783845
vt 0.772240 0.784461
vt 0.769975 0.785365
vt 0.769917 0.785016
vt 0.771842 0.784593
vt 0.771466 0.784847
vt 0.769493 0.785625
vt 0.769704 0.785457
vt 0.774446 0.783580
vt 0.774399 0.782705
vt 0.773771 0.782924
vt 0.769607 0.785128
vt 0.769804 0.784986
vt 0.771723 0.784008
vt 0.772083 0.783800
vt 0.766171 0.779855
vt 0.766720 0.779219
vt 0.766919 0.779659
vt 0.766306 0.780154
vt 0.775186 0.757714
vt 0.776113 0.757608
vt 0.775722 0.758553
vt 0.777843 0.757824
vt 0.777817 0.758668
vt 0.777369 0.758619
vt 0.776607 0.758380
vt 0.775030 0.758556
vt 0.775099 0.756989
vt 0.775692 0.756955
vt 0.777133 0.757650
vt 0.776573 0.758369
vt 0.776103 0.759151
vt 0.776989 0.759013
vt 0.775721 0.759501
vt 0.774951 0.758886
vt 0.775573 0.759276
vt 0.774884 0.757322
vt 0.774712 0.757926
vt 0.776499 0.759176
vt 0.776346 0.759610
vt 0.777419 0.757028
vt 0.775487 0.756656
vt 0.775964 0.756436
vt 0.777211 0.759341
vt 0.775287 0.758946
vt 0.774866 0.758160
vt 0.776091 0.757616
vt 0.775577 0.758328
vt 0.776196 0.756832
vt 0.775342 0.757379
vt 0.777740 0.757101
vt 0.777644 0.757438
vt 0.777973 0.758060
vt 0.776956 0.757446
vt 0.777485 0.758267
vt 0.777585 0.758990
vt 0.776726 0.759540
vt 0.776593 0.756814
vt 0.776973 0.756480
vt 0.776346 0.756388
vt 0.777110 0.756725
vt 0.782635 0.794292
vt 0.782749 0.794851
vt 0.781883 0.795097
vt 0.782005 0.795343
s 0
usemtl Material
f 7/1/1 10/2/1 17/3/1 16/4/1
f 11/5/2 10/2/2 7/1/2 8/6/2
f 8/6/3 7/1/3 5/7/3 6/8/3
f 9/9/4 2/10/4 4/11/4 11/5/4
f 2/10/5 1/12/5 3/13/5 4/11/5
f 9/9/6 12/14/6 1/12/6 2/10/6
f 6/8/7 5/7/7 12/14/7 9/9/7
f 6/8/4 9/9/4 11/5/4 8/6/4
f 4/11/8 3/13/8 10/2/8 11/5/8
f 1/12/9 12/14/9 18/15/9 13/16/9
f 13/16/10 18/15/10 24/17/10 19/18/10
f 18/15/11 15/19/11 21/20/11 24/17/11
f 12/14/12 5/7/12 15/19/12 18/15/12
f 10/2/13 3/13/13 14/21/13 17/3/13
f 5/7/14 7/1/14 16/4/14 15/19/14
f 3/13/15 1/12/15 13/16/15 14/21/15
f 66/22/16 64/23/16 28/24/16 27/25/16
f 65/26/17 63/27/17 26/28/17 29/29/17
f 14/21/18 13/16/18 19/18/18 20/30/18
f 17/3/19 14/21/19 20/30/19 23/31/19
f 15/19/20 16/4/20 22/32/20 21/20/20
f 16/4/21 17/3/21 23/31/21 22/32/21
f 52/33/22 31/34/22 83/35/22 85/36/22
f 52/33/23 51/37/23 36/38/23 31/34/23
f 64/23/24 65/26/24 29/29/24 28/24/24
f 67/39/25 66/22/25 27/25/25 30/40/25
f 68/41/26 67/39/26 30/40/26 25/42/26
f 63/27/27 68/41/27 25/42/27 26/28/27
f 35/43/28 36/38/28 44/44/28 43/45/28
f 31/34/29 36/38/29 35/43/29 32/46/29
f 54/47/30 53/48/30 32/46/30 35/43/30
f 56/49/31 55/50/31 34/51/31 33/52/31
f 55/50/32 54/47/32 35/43/32 34/51/32
f 51/37/33 56/49/33 33/52/33 36/38/33
f 112/53/34 111/54/34 38/55/34 39/56/34
f 112/53/35 113/57/35 37/58/35 39/56/35
f 44/44/36 41/59/36 42/60/36 43/45/36
f 35/43/37 32/46/37 40/61/37 43/45/37
f 33/52/38 34/51/38 42/60/38 41/59/38
f 34/51/39 35/43/39 43/45/39 42/60/39
f 36/38/40 33/52/40 41/59/40 44/44/40
f 20/30/41 19/18/41 50/62/41 45/63/41
f 19/18/42 24/17/42 49/64/42 50/62/42
f 24/17/43 21/20/43 48/65/43 49/64/43
f 22/32/44 23/31/44 46/66/44 47/67/44
f 23/31/45 20/30/45 45/63/45 46/66/45
f 21/20/46 22/32/46 71/68/46 70/69/46
f 61/70/47 60/71/47 56/49/47 51/37/47
f 62/72/48 59/73/48 54/47/48 55/50/48
f 60/71/49 62/72/49 55/50/49 56/49/49
f 59/73/50 58/74/50 53/48/50 54/47/50
f 57/75/51 61/70/51 51/37/51 52/33/51
f 58/74/52 57/75/52 52/33/52 53/48/52
f 57/75/53 58/74/53 82/76/53 81/77/53
f 25/42/54 30/40/54 61/70/54 57/75/54
f 29/29/55 26/28/55 58/74/55 59/73/55
f 60/71/56 61/70/56 95/78/56 94/79/56
f 28/24/57 29/29/57 59/73/57 62/72/57
f 61/70/58 30/40/58 93/80/58 95/78/58
f 45/63/59 50/62/59 68/41/59 63/27/59
f 50/62/60 49/64/60 67/39/60 68/41/60
f 49/64/61 48/65/61 66/22/61 67/39/61
f 47/67/62 46/66/62 65/26/62 64/23/62
f 46/66/63 45/63/63 63/27/63 65/26/63
f 48/65/64 47/67/64 64/23/64 66/22/64
f 104/81/65 103/82/65 78/83/65 77/84/65
f 22/32/66 47/67/66 73/85/66 71/68/66
f 47/67/67 48/65/67 74/86/67 73/85/67
f 21/20/68 24/17/68 72/87/68 70/69/68
f 24/17/69 19/18/69 69/88/69 72/87/69
f 48/65/70 21/20/70 70/69/70 74/86/70
f 75/89/71 76/90/71 77/84/71 78/83/71
f 103/82/72 105/91/72 75/89/72 78/83/72
f 106/92/73 104/81/73 77/84/73 76/90/73
f 105/91/74 106/92/74 76/90/74 75/89/74
f 80/93/75 79/94/75 81/77/75 82/76/75
f 26/28/76 25/42/76 79/94/76 80/93/76
f 25/42/77 57/75/77 81/77/77 79/94/77
f 58/74/78 26/28/78 80/93/78 82/76/78
f 108/95/79 107/96/79 89/97/79 90/98/79
f 31/34/80 32/46/80 84/99/80 83/35/80
f 32/46/81 53/48/81 86/100/81 84/99/81
f 53/48/82 52/33/82 85/36/82 86/100/82
f 90/98/83 89/97/83 87/101/83 88/102/83
f 107/96/84 109/103/84 87/101/84 89/97/84
f 110/104/85 108/95/85 90/98/85 88/102/85
f 109/103/86 110/104/86 88/102/86 87/101/86
f 117/105/87 116/106/87 102/107/87 98/108/87
f 115/109/88 114/110/88 101/111/88 100/112/88
f 62/72/89 60/71/89 94/79/89 96/113/89
f 27/25/90 28/24/90 92/114/90 91/115/90
f 28/24/91 62/72/91 96/113/91 92/114/91
f 30/40/92 27/25/92 91/115/92 93/80/92
f 97/116/93 98/108/93 102/107/93 100/112/93
f 99/117/94 97/116/94 100/112/94 101/111/94
f 118/118/95 117/105/95 98/108/95 97/116/95
f 116/106/96 115/109/96 100/112/96 102/107/96
f 114/110/97 119/119/97 99/117/97 101/111/97
f 119/119/98 118/118/98 97/116/98 99/117/98
f 70/69/99 71/68/99 106/92/99 105/91/99
f 71/68/100 73/85/100 104/81/100 106/92/100
f 70/69/101 105/91/101 123/120/101 120/121/101
f 73/85/102 74/86/102 103/82/102 104/81/102
f 83/35/103 84/99/103 110/104/103 109/103/103
f 84/99/104 86/100/104 108/95/104 110/104/104
f 85/36/105 83/35/105 109/103/105 107/96/105
f 86/100/106 85/36/106 107/96/106 108/95/106
f 36/38/107 31/34/107 113/57/107 112/53/107
f 36/38/108 33/52/108 111/54/108 112/53/108
f 93/80/109 91/115/109 118/118/109 119/119/109
f 95/78/110 93/80/110 119/119/110 114/110/110
f 96/113/111 94/79/111 115/109/111 116/106/111
f 91/115/112 92/114/112 117/105/112 118/118/112
f 94/79/113 95/78/113 114/110/113 115/109/113
f 92/114/114 96/113/114 116/106/114 117/105/114
f 121/122/115 120/121/115 123/120/115 122/123/115
f 103/82/116 74/86/116 121/122/116 122/123/116
f 74/86/117 70/69/117 120/121/117 121/122/117
f 105/91/118 103/82/118 122/123/118 123/120/118
f 149/124/119 158/125/119 151/126/119
f 125/127/120 129/128/120 150/129/120
f 158/125/121 144/130/121 151/126/121
f 149/124/122 151/126/122 143/131/122
f 134/132/123 154/133/123 149/124/123
f 160/134/124 125/127/124 150/129/124
f 147/135/125 165/136/125 132/137/125
f 157/138/126 163/139/126 142/140/126
f 154/133/127 158/125/127 149/124/127
f 153/141/128 134/132/128 146/142/128
f 160/134/129 150/129/129 144/130/129
f 151/126/130 144/130/130 156/143/130
f 157/138/131 142/140/131 128/144/131
f 155/145/132 125/127/132 160/134/132
f 131/146/133 138/147/133 134/132/133
f 156/143/134 150/129/134 140/148/134
f 165/136/135 133/149/135 157/138/135
f 161/150/136 163/139/136 133/149/136
f 152/151/137 162/152/137 147/135/137
f 126/153/138 127/154/138 152/151/138
f 136/155/139 145/156/139 148/157/139
f 143/131/140 151/126/140 142/140/140
f 133/149/141 163/139/141 157/138/141
f 126/153/142 152/151/142 124/158/142
f 145/156/143 164/159/143 148/157/143
f 144/130/144 150/129/144 156/143/144
f 125/127/145 148/157/145 129/128/145
f 129/128/146 141/160/146 140/148/146
f 139/161/147 165/136/147 157/138/147
f 125/127/148 136/155/148 148/157/148
f 146/142/149 143/131/149 163/139/149
f 156/143/150 140/148/150 128/144/150
f 138/147/151 130/162/151 154/133/151
f 164/159/152 147/135/152 132/137/152
f 138/147/153 135/163/153 130/162/153
f 126/153/154 131/146/154 127/154/154
f 131/146/155 134/132/155 153/141/155
f 132/137/156 165/136/156 139/161/156
f 159/164/157 131/146/157 126/153/157
f 159/164/158 135/163/158 138/147/158
f 155/145/159 136/155/159 125/127/159
f 161/150/160 146/142/160 163/139/160
f 164/159/161 124/158/161 147/135/161
f 139/161/162 157/138/162 128/144/162
f 140/148/163 139/161/163 128/144/163
f 124/158/164 152/151/164 147/135/164
f 141/160/165 132/137/165 139/161/165
f 150/129/166 129/128/166 140/148/166
f 138/147/167 154/133/167 134/132/167
f 135/163/168 155/145/168 130/162/168
f 159/164/169 126/153/169 137/165/169
f 155/145/170 135/163/170 136/155/170
f 152/151/171 127/154/171 162/152/171
f 154/133/172 130/162/172 158/125/172
f 159/164/173 138/147/173 131/146/173
f 148/157/174 164/159/174 141/160/174
f 140/148/175 141/160/175 139/161/175
f 158/125/176 160/134/176 144/130/176
f 142/140/177 156/143/177 128/144/177
f 148/157/178 141/160/178 129/128/178
f 136/155/179 135/163/179 137/165/179
f 162/152/180 133/149/180 165/136/180
f 131/146/181 153/141/181 127/154/181
f 162/152/182 127/154/182 161/150/182
f 127/154/183 153/141/183 161/150/183
f 162/152/184 161/150/184 133/149/184
f 130/162/185 155/145/185 160/134/185
f 145/156/186 124/158/186 164/159/186
f 153/141/187 146/142/187 161/150/187
f 158/125/188 130/162/188 160/134/188
f 164/159/189 132/137/189 141/160/189
f 163/139/190 143/131/190 142/140/190
f 137/165/191 126/153/191 124/158/191
f 142/140/192 151/126/192 156/143/192
f 136/155/193 137/165/193 145/156/193
f 135/163/194 159/164/194 137/165/194
f 146/142/195 134/132/195 149/124/195
f 147/135/196 162/152/196 165/136/196
f 137/165/197 124/158/197 145/156/197
f 146/142/198 149/124/198 143/131/198
f 35/43/199 36/38/199 169/166/199 168/167/199
f 34/51/200 33/52/200 166/168/200 167/169/200
f 35/43/201 34/51/201 167/169/201 168/167/201
f 33/52/202 36/38/202 169/166/202 166/168/202
o Icosphere.007
v -1.790986 18.742001 4.317628
v 1.837807 20.405851 6.954070
v -3.177035 20.405851 8.583520
v -6.276413 20.405863 4.317628
v -3.177035 20.405851 0.051736
v 1.837807 20.405851 1.681186
v -0.404937 23.098085 8.583520
v -5.419780 23.098085 6.954070
v -5.419780 23.098085 1.681186
v -0.404937 23.098085 0.051736
v 2.694441 23.098074 4.317628
v -1.790986 24.761936 4.317628
v -2.605679 19.191525 6.825037
v 0.341950 19.191526 5.867279
v -0.472734 20.169516 8.374713
v 2.474899 20.169519 4.317628
v 0.341950 19.191526 2.767977
v -4.427450 19.191534 4.317628
v -5.242164 20.169519 6.825046
v -2.605679 19.191525 1.810219
v -5.242164 20.169519 1.810210
v -0.472734 20.169516 0.260543
v 2.978442 21.751968 5.867285
v 2.978442 21.751968 2.767971
v -1.790986 21.751968 9.332493
v 1.156680 21.751968 8.374739
v -6.560414 21.751968 5.867285
v -4.738652 21.751968 8.374739
v -4.738652 21.751968 0.260518
v -6.560414 21.751968 2.767971
v 1.156680 21.751968 0.260518
v -1.790986 21.751968 -0.697237
v 1.660191 23.334417 6.825046
v -3.109238 23.334421 8.374713
v -6.056871 23.334417 4.317628
v -3.109238 23.334421 0.260543
v 1.660191 23.334417 1.810210
v -0.976293 24.312410 6.825037
v 0.845478 24.312403 4.317628
v -3.923922 24.312410 5.867279
v -3.923922 24.312410 2.767977
v -0.976293 24.312410 1.810219
v -5.301766 12.694953 2.844013
v -3.702219 13.820332 3.752484
v -5.912727 13.820330 4.313964
v -7.278912 13.820339 2.844013
v -5.912727 13.820330 1.374062
v -3.702219 13.820332 1.935541
v -4.690806 15.641275 4.313964
v -6.901314 15.641274 3.752484
v -6.901314 15.641274 1.935541
v -4.690806 15.641275 1.374062
v -3.324621 15.641266 2.844013
v -5.301766 16.766653 2.844013
v -5.660877 12.998998 3.708022
v -4.361583 12.998998 3.377995
v -4.720690 13.660480 4.242013
v -3.421394 13.660483 2.844013
v -4.361583 12.998998 2.310030
v -6.463902 12.999003 2.844013
v -6.823022 13.660482 3.708025
v -5.660877 12.998998 1.980004
v -6.823022 13.660482 1.980001
v -4.720690 13.660480 1.446013
v -3.199436 14.730803 3.377997
v -3.199436 14.730803 2.310028
v -5.301766 14.730803 4.572047
v -4.002456 14.730803 4.242022
v -7.404098 14.730803 3.377997
v -6.601078 14.730803 4.242022
v -6.601078 14.730803 1.446004
v -7.404098 14.730803 2.310028
v -4.002456 14.730803 1.446004
v -5.301766 14.730803 1.115978
v -3.780512 15.801123 3.708025
v -5.882843 15.801126 4.242013
v -7.182139 15.801123 2.844013
v -5.882843 15.801126 1.446013
v -3.780512 15.801123 1.980001
v -4.942656 16.462608 3.708022
v -4.139631 16.462603 2.844013
v -6.241950 16.462606 3.377995
v -6.241950 16.462606 2.310030
v -4.942656 16.462608 1.980004
v 6.231483 14.919840 -2.160777
v 8.151437 15.699139 -1.419619
v 5.498139 15.699139 -0.961547
v 3.858292 15.699144 -2.160777
v 5.498139 15.699139 -3.360007
v 8.151437 15.699139 -2.901935
v 6.964826 16.960104 -0.961547
v 4.311528 16.960104 -1.419619
v 4.311528 16.960104 -2.901935
v 6.964826 16.960104 -3.360007
v 8.604672 16.960098 -2.160777
v 6.231483 17.739403 -2.160777
v 5.800437 15.130384 -1.455893
v 7.359996 15.130384 -1.725138
v 6.928955 15.588446 -1.020247
v 8.488516 15.588449 -2.160777
v 7.359996 15.130384 -2.596416
v 4.836558 15.130387 -2.160777
v 4.405502 15.588448 -1.455890
v 5.800437 15.130384 -2.865661
v 4.405502 15.588448 -2.865664
v 6.928955 15.588446 -3.301307
v 8.754933 16.329620 -1.725136
v 8.754933 16.329620 -2.596417
v 6.231483 16.329620 -0.750995
v 7.791059 16.329620 -1.020239
v 3.708031 16.329620 -1.725136
v 4.671905 16.329620 -1.020239
v 4.671905 16.329620 -3.301314
v 3.708031 16.329620 -2.596417
v 7.791059 16.329620 -3.301314
v 6.231483 16.329620 -3.570559
v 8.057463 17.070795 -1.455890
v 5.534010 17.070797 -1.020247
v 3.974450 17.070795 -2.160777
v 5.534010 17.070797 -3.301307
v 8.057463 17.070795 -2.865664
v 6.662528 17.528858 -1.455893
v 7.626407 17.528854 -2.160777
v 5.102970 17.528858 -1.725138
v 5.102970 17.528858 -2.596416
v 6.662528 17.528858 -2.865661
v 10.614206 16.605494 -5.817461
v 14.399594 18.317608 -4.189143
v 9.168345 18.317608 -3.182763
v 5.935218 18.317621 -5.817461
v 9.168345 18.317608 -8.452159
v 14.399594 18.317608 -7.445779
v 12.060068 21.087936 -3.182763
v 6.828818 21.087936 -4.189143
v 6.828818 21.087936 -7.445779
v 12.060068 21.087936 -8.452159
v 15.293195 21.087923 -5.817461
v 10.614206 22.800051 -5.817461
v 9.764358 17.068058 -4.268836
v 12.839186 17.068058 -4.860367
v 11.989345 18.074417 -3.311727
v 15.064178 18.074421 -5.817461
v 12.839186 17.068058 -6.774555
v 7.863970 17.068066 -5.817461
v 7.014099 18.074421 -4.268831
v 9.764358 17.068058 -7.366086
v 7.014099 18.074421 -7.366091
v 11.989345 18.074417 -8.323196
v 15.589450 19.702772 -4.860363
v 15.589450 19.702772 -6.774559
v 10.614206 19.702772 -2.720182
v 13.689075 19.702772 -3.311711
v 5.638963 19.702772 -4.860363
v 7.539339 19.702772 -3.311711
v 7.539339 19.702772 -8.323212
v 5.638963 19.702772 -6.774559
v 13.689075 19.702772 -8.323212
v 10.614206 19.702772 -8.914740
v 14.214313 21.331123 -4.268831
v 9.239068 21.331127 -3.311727
v 6.164235 21.331123 -5.817461
v 9.239068 21.331127 -8.323196
v 14.214313 21.331123 -7.366091
v 11.464056 22.337486 -4.268836
v 13.364443 22.337477 -5.817461
v 8.389228 22.337484 -4.860367
v 8.389228 22.337484 -6.774555
v 11.464056 22.337486 -7.366086
v -2.982427 14.360026 6.481447
v -1.894352 15.191233 7.708765
v -3.398026 15.191231 8.467308
v -4.327359 15.191238 6.481447
v -3.398026 15.191231 4.495588
v -1.894352 15.191233 5.254130
v -2.566828 16.536182 8.467308
v -4.070502 16.536182 7.708765
v -4.070502 16.536182 5.254130
v -2.566828 16.536182 4.495588
v -1.637495 16.536177 6.481447
v -2.982427 17.367390 6.481447
v -3.226708 14.584595 7.648698
v -2.342877 14.584595 7.202842
v -2.587156 15.073166 8.370104
v -1.703324 15.073168 6.481447
v -2.342877 14.584595 5.760054
v -3.772957 14.584599 6.481447
v -4.017244 15.073168 7.648702
v -3.226708 14.584595 5.314198
v -4.017244 15.073168 5.314193
v -2.587156 15.073166 4.592792
v -1.552339 15.863708 7.202845
v -1.552339 15.863708 5.760051
v -2.982427 15.863708 8.815969
v -2.098585 15.863708 8.370115
v -4.412515 15.863708 7.202845
v -3.866269 15.863708 8.370115
v -3.866269 15.863708 4.592780
v -4.412515 15.863708 5.760051
v -2.098585 15.863708 4.592780
v -2.982427 15.863708 4.146925
v -1.947610 16.654247 7.648702
v -3.377698 16.654249 8.370104
v -4.261530 16.654247 6.481447
v -3.377698 16.654249 4.592792
v -1.947610 16.654247 5.314193
v -2.738146 17.142820 7.648698
v -2.191897 17.142817 6.481447
v -3.621977 17.142820 7.202842
v -3.621977 17.142820 5.760054
v -2.738146 17.142820 5.314198
v 3.407228 21.165695 -3.593604
v 5.796311 22.990770 -1.109581
v 2.494697 22.990770 0.425666
v 0.454163 22.990784 -3.593604
v 2.494697 22.990770 -7.612873
v 5.796311 22.990770 -6.077627
v 4.319759 25.943878 0.425666
v 1.018144 25.943878 -1.109581
v 1.018144 25.943878 -6.077627
v 4.319759 25.943878 -7.612873
v 6.360292 25.943865 -3.593604
v 3.407228 27.768955 -3.593604
v 2.870860 21.658777 -1.231154
v 4.811486 21.658779 -2.133543
v 4.275124 22.731533 0.228930
v 6.215753 22.731539 -3.593604
v 4.811486 21.658779 -5.053665
v 1.671463 21.658787 -3.593604
v 1.135081 22.731537 -1.231147
v 2.870860 21.658777 -5.956054
v 1.135081 22.731537 -5.956061
v 4.275124 22.731533 -7.416138
v 6.547270 24.467323 -2.133537
v 6.547270 24.467323 -5.053671
v 3.407228 24.467323 1.131339
v 5.347878 24.467323 0.228954
v 0.267186 24.467323 -2.133537
v 1.466577 24.467323 0.228954
v 1.466577 24.467323 -7.416162
v 0.267186 24.467323 -5.053671
v 5.347878 24.467323 -7.416162
v 3.407228 24.467323 -8.318547
v 5.679374 26.203110 -1.231147
v 2.539332 26.203115 0.228930
v 0.598703 26.203110 -3.593604
v 2.539332 26.203115 -7.416138
v 5.679374 26.203110 -5.956061
v 3.943596 27.275871 -1.231154
v 5.142993 27.275860 -3.593604
v 2.002970 27.275869 -2.133543
v 2.002970 27.275869 -5.053665
v 3.943596 27.275871 -5.956054
v -0.791420 16.751961 -7.031810
v 1.696812 18.572918 -4.394207
v -1.741821 18.572916 -2.764039
v -3.867038 18.572929 -7.031810
v -1.741821 18.572916 -11.299582
v 1.696812 18.572918 -9.669413
v 0.158982 21.519360 -2.764039
v -3.279652 21.519358 -4.394207
v -3.279652 21.519358 -9.669413
v 0.158982 21.519360 -11.299582
v 2.284199 21.519344 -7.031810
v -0.791420 23.340315 -7.031810
v -1.350047 17.243931 -4.523296
v 0.671116 17.243933 -5.481476
v 0.112494 18.314264 -2.972937
v 2.133660 18.314270 -7.031810
v 0.671116 17.243933 -8.582144
v -2.599220 17.243940 -7.031810
v -3.157862 18.314270 -4.523288
v -1.350047 17.243931 -9.540323
v -3.157862 18.314270 -9.540332
v 0.112494 18.314264 -11.090683
v 2.478935 20.046137 -5.481470
v 2.478935 20.046137 -8.582150
v -0.791420 20.046137 -2.014735
v 1.229769 20.046137 -2.972912
v -4.061774 20.046137 -5.481470
v -2.812608 20.046137 -2.972912
v -2.812608 20.046137 -11.090708
v -4.061774 20.046137 -8.582150
v 1.229769 20.046137 -11.090708
v -0.791420 20.046137 -12.048884
v 1.575023 21.778006 -4.523288
v -1.695333 21.778009 -2.972937
v -3.716500 21.778004 -7.031810
v -1.695333 21.778009 -11.090683
v 1.575023 21.778006 -9.540332
v -0.232792 22.848343 -4.523296
v 1.016381 22.848335 -7.031810
v -2.253955 22.848343 -5.481476
v -2.253955 22.848343 -8.582144
v -0.232792 22.848343 -9.540323
v -2.676589 15.746678 2.456884
v -0.961794 16.784286 3.702741
v -3.331569 16.784286 4.472742
v -4.796187 16.784294 2.456884
v -3.331569 16.784286 0.441027
v -0.961794 16.784286 1.211028
v -2.021608 18.463213 4.472742
v -4.391383 18.463211 3.702741
v -4.391383 18.463211 1.211028
v -2.021608 18.463213 0.441027
v -0.556989 18.463205 2.456884
v -2.676589 19.500820 2.456884
v -3.061574 16.027010 3.641767
v -1.668664 16.027012 3.189176
v -2.053645 16.636902 4.374069
v -0.660735 16.636906 2.456884
v -1.668664 16.027012 1.724593
v -3.922456 16.027016 2.456884
v -4.307450 16.636906 3.641770
v -3.061574 16.027010 1.272002
v -4.307450 16.636906 1.271998
v -2.053645 16.636902 0.539700
v -0.422784 17.623749 3.189178
v -0.422784 17.623749 1.724590
v -2.676589 17.623749 4.826671
v -1.283662 17.623749 4.374081
v -4.930392 17.623749 3.189178
v -4.069515 17.623749 4.374081
v -4.069515 17.623749 0.539688
v -4.930392 17.623749 1.724590
v -1.283662 17.623749 0.539688
v -2.676589 17.623749 0.087098
v -1.045726 18.610594 3.641770
v -3.299531 18.610596 4.374069
v -4.692442 18.610594 2.456884
v -3.299531 18.610596 0.539700
v -1.045726 18.610594 1.271998
v -2.291603 19.220488 3.641767
v -1.430721 19.220484 2.456884
v -3.684512 19.220488 3.189176
v -3.684512 19.220488 1.724593
v -2.291603 19.220488 1.272002
vn 0.0637 -0.9785 0.1961
vn 0.5252 -0.8269 0.2010
vn -0.1668 -0.9785 0.1212
vn -0.1668 -0.9785 -0.1212
vn 0.0637 -0.9785 -0.1961
vn 0.8283 -0.5038 0.2453
vn 0.0226 -0.5038 0.8635
vn -0.8143 -0.5038 0.2884
vn -0.5259 -0.5038 -0.6853
vn 0.4893 -0.5038 -0.7119
vn 0.7916 -0.2064 0.5751
vn -0.3024 -0.2064 0.9306
vn -0.9785 -0.2064 -0.0000
vn -0.3024 -0.2064 -0.9306
vn 0.7916 -0.2064 -0.5751
vn 0.3067 0.8269 0.4713
vn -0.3535 0.8269 0.4374
vn -0.5252 0.8269 -0.2010
vn 0.0289 0.8269 -0.5616
vn 0.5431 0.8269 -0.1461
vn 0.1668 0.9785 -0.1212
vn 0.3372 0.9090 -0.2450
vn 0.3067 0.8269 -0.4713
vn -0.0637 0.9785 -0.1961
vn -0.1288 0.9090 -0.3964
vn -0.3535 0.8269 -0.4374
vn -0.2062 0.9785 -0.0000
vn -0.4168 0.9090 -0.0000
vn -0.5252 0.8269 0.2010
vn -0.0637 0.9785 0.1961
vn -0.1288 0.9090 0.3964
vn 0.0289 0.8269 0.5616
vn 0.1668 0.9785 0.1212
vn 0.3372 0.9090 0.2450
vn 0.5431 0.8269 0.1461
vn 0.8143 0.5038 -0.2884
vn 0.7709 0.3032 -0.5601
vn 0.5259 0.5038 -0.6853
vn -0.0226 0.5038 -0.8635
vn -0.2945 0.3032 -0.9063
vn -0.4893 0.5038 -0.7119
vn -0.8283 0.5038 -0.2453
vn -0.9529 0.3032 -0.0000
vn -0.8283 0.5038 0.2453
vn -0.4893 0.5038 0.7119
vn -0.2945 0.3032 0.9063
vn -0.0226 0.5038 0.8635
vn 0.5259 0.5038 0.6853
vn 0.7709 0.3032 0.5601
vn 0.8143 0.5038 0.2884
vn 0.3024 0.2064 -0.9306
vn 0.2945 -0.3032 -0.9063
vn 0.0226 -0.5038 -0.8635
vn -0.7916 0.2064 -0.5751
vn -0.7709 -0.3032 -0.5601
vn -0.8143 -0.5038 -0.2884
vn -0.7916 0.2064 0.5751
vn -0.7709 -0.3032 0.5601
vn -0.5259 -0.5038 0.6853
vn 0.3024 0.2064 0.9306
vn 0.2945 -0.3032 0.9063
vn 0.4893 -0.5038 0.7119
vn 0.9785 0.2064 -0.0000
vn 0.9529 -0.3032 -0.0000
vn 0.8283 -0.5038 -0.2453
vn 0.3535 -0.8269 -0.4374
vn 0.1288 -0.9090 -0.3964
vn -0.0289 -0.8269 -0.5616
vn -0.3067 -0.8269 -0.4713
vn -0.3372 -0.9090 -0.2450
vn -0.5431 -0.8269 -0.1461
vn -0.5431 -0.8269 0.1461
vn -0.3372 -0.9090 0.2450
vn -0.3067 -0.8269 0.4713
vn 0.5252 -0.8269 -0.2010
vn 0.4168 -0.9090 -0.0000
vn 0.2062 -0.9785 -0.0000
vn -0.0289 -0.8269 0.5616
vn 0.1288 -0.9090 0.3964
vn 0.3535 -0.8269 0.4374
vn 0.0926 -0.9266 0.3645
vn 0.6604 -0.6777 0.3234
vn -0.2464 -0.9417 0.2290
vn -0.2464 -0.9417 -0.2290
vn 0.0926 -0.9266 -0.3645
vn 0.8768 -0.3476 0.3322
vn 0.0196 -0.2848 0.9584
vn -0.8550 -0.3448 0.3874
vn -0.4898 -0.3058 -0.8165
vn 0.4511 -0.3027 -0.8396
vn 0.7269 -0.1235 0.6756
vn -0.2447 -0.1089 0.9635
vn -0.9907 -0.1362 -0.0000
vn -0.2447 -0.1089 -0.9635
vn 0.7269 -0.1235 -0.6756
vn 0.3546 0.6231 0.6971
vn -0.4142 0.6314 0.6556
vn -0.6605 0.6777 -0.3234
vn 0.0322 0.5997 -0.7996
vn 0.6896 0.6843 -0.2372
vn 0.2464 0.9417 -0.2290
vn 0.4494 0.7896 -0.4177
vn 0.3546 0.6231 -0.6971
vn -0.0926 0.9266 -0.3645
vn -0.1630 0.7495 -0.6416
vn -0.4142 0.6314 -0.6556
vn -0.3077 0.9515 -0.0000
vn -0.5754 0.8179 -0.0000
vn -0.6605 0.6777 0.3234
vn -0.0926 0.9266 0.3645
vn -0.1630 0.7495 0.6416
vn 0.0322 0.5997 0.7996
vn 0.2464 0.9417 0.2290
vn 0.4494 0.7896 0.4177
vn 0.6896 0.6843 0.2372
vn 0.8550 0.3448 -0.3874
vn 0.7199 0.1845 -0.6691
vn 0.4898 0.3058 -0.8165
vn -0.0196 0.2848 -0.9584
vn -0.2429 0.1630 -0.9563
vn -0.4511 0.3027 -0.8396
vn -0.8768 0.3476 -0.3322
vn -0.9792 0.2031 -0.0000
vn -0.8768 0.3476 0.3322
vn -0.4511 0.3027 0.8396
vn -0.2429 0.1630 0.9563
vn -0.0196 0.2848 0.9584
vn 0.4898 0.3058 0.8165
vn 0.7199 0.1845 0.6691
vn 0.8550 0.3448 0.3874
vn 0.2447 0.1089 -0.9635
vn 0.2429 -0.1630 -0.9563
vn 0.0196 -0.2848 -0.9584
vn -0.7269 0.1235 -0.6756
vn -0.7199 -0.1845 -0.6691
vn -0.8550 -0.3448 -0.3874
vn -0.7269 0.1235 0.6756
vn -0.7199 -0.1845 0.6691
vn -0.4898 -0.3058 0.8165
vn 0.2447 0.1089 0.9635
vn 0.2429 -0.1630 0.9563
vn 0.4511 -0.3027 0.8396
vn 0.9907 0.1362 -0.0000
vn 0.9792 -0.2031 -0.0000
vn 0.8768 -0.3476 -0.3322
vn 0.4142 -0.6314 -0.6556
vn 0.1630 -0.7495 -0.6416
vn -0.0322 -0.5997 -0.7996
vn -0.3546 -0.6231 -0.6971
vn -0.4494 -0.7896 -0.4177
vn -0.6896 -0.6843 -0.2372
vn -0.6896 -0.6843 0.2372
vn -0.4494 -0.7896 0.4177
vn -0.3546 -0.6231 0.6971
vn 0.6605 -0.6777 -0.3234
vn 0.5754 -0.8179 -0.0000
vn 0.3077 -0.9515 -0.0000
vn -0.0322 -0.5997 0.7996
vn 0.1630 -0.7495 0.6416
vn 0.4142 -0.6314 0.6556
vn 0.0546 -0.9471 0.3163
vn 0.4621 -0.8219 0.3329
vn -0.1462 -0.9688 0.2000
vn -0.1462 -0.9688 -0.2000
vn 0.0546 -0.9471 -0.3163
vn 0.7489 -0.5146 0.4175
vn 0.0132 -0.3305 0.9437
vn -0.7193 -0.5027 0.4795
vn -0.3495 -0.3782 -0.8572
vn 0.3186 -0.3706 -0.8725
vn 0.5816 -0.1713 0.7952
vn -0.1687 -0.1301 0.9770
vn -0.9728 -0.2318 -0.0000
vn -0.1687 -0.1301 -0.9770
vn 0.5816 -0.1713 -0.7952
vn 0.2316 0.7054 0.6699
vn -0.2731 0.7217 0.6360
vn -0.4621 0.8219 -0.3329
vn 0.0205 0.6621 -0.7492
vn 0.4871 0.8378 -0.2466
vn 0.1462 0.9688 -0.2000
vn 0.2870 0.8739 -0.3924
vn 0.2316 0.7054 -0.6699
vn -0.0546 0.9471 -0.3163
vn -0.1010 0.8049 -0.5848
vn -0.2731 0.7217 -0.6360
vn -0.1834 0.9830 -0.0000
vn -0.3761 0.9266 -0.0000
vn -0.4621 0.8219 0.3329
vn -0.0546 0.9471 0.3163
vn -0.1010 0.8049 0.5848
vn 0.0205 0.6621 0.7492
vn 0.1462 0.9688 0.2000
vn 0.2870 0.8739 0.3924
vn 0.4871 0.8378 0.2466
vn 0.7193 0.5027 -0.4795
vn 0.5710 0.2537 -0.7808
vn 0.3495 0.3782 -0.8572
vn -0.0132 0.3305 -0.9437
vn -0.1669 0.1941 -0.9667
vn -0.3186 0.3706 -0.8725
vn -0.7489 0.5146 -0.4175
vn -0.9411 0.3383 -0.0000
vn -0.7489 0.5146 0.4175
vn -0.3186 0.3706 0.8725
vn -0.1669 0.1941 0.9667
vn -0.0132 0.3305 0.9437
vn 0.3495 0.3782 0.8572
vn 0.5710 0.2537 0.7808
vn 0.7193 0.5027 0.4795
vn 0.1687 0.1301 -0.9770
vn 0.1669 -0.1941 -0.9667
vn 0.0132 -0.3305 -0.9437
vn -0.5816 0.1713 -0.7952
vn -0.5710 -0.2537 -0.7808
vn -0.7193 -0.5027 -0.4795
vn -0.5816 0.1713 0.7952
vn -0.5710 -0.2537 0.7808
vn -0.3495 -0.3782 0.8572
vn 0.1687 0.1301 0.9770
vn 0.1669 -0.1941 0.9667
vn 0.3186 -0.3706 0.8725
vn 0.9728 0.2318 -0.0000
vn 0.9411 -0.3383 -0.0000
vn 0.7489 -0.5146 -0.4175
vn 0.2731 -0.7217 -0.6360
vn 0.1010 -0.8049 -0.5848
vn -0.0205 -0.6621 -0.7492
vn -0.2316 -0.7054 -0.6699
vn -0.2870 -0.8739 -0.3924
vn -0.4871 -0.8378 -0.2466
vn -0.4871 -0.8378 0.2466
vn -0.2870 -0.8739 0.3924
vn -0.2316 -0.7054 0.6699
vn 0.4621 -0.8219 -0.3329
vn 0.3761 -0.9266 -0.0000
vn 0.1834 -0.9830 -0.0000
vn -0.0205 -0.6621 0.7492
vn 0.1010 -0.8049 0.5848
vn 0.2731 -0.7217 0.6360
vn 0.0608 -0.9468 0.3162
vn 0.5022 -0.8015 0.3247
vn -0.1625 -0.9663 0.1994
vn -0.1625 -0.9663 -0.1994
vn 0.0608 -0.9468 -0.3162
vn 0.7832 -0.4829 0.3918
vn 0.0147 -0.3305 0.9437
vn -0.7557 -0.4740 0.4520
vn -0.3838 -0.3728 -0.8448
vn 0.3507 -0.3661 -0.8620
vn 0.6231 -0.1647 0.7646
vn -0.1873 -0.1296 0.9737
vn -0.9779 -0.2091 -0.0000
vn -0.1873 -0.1296 -0.9737
vn 0.6231 -0.1647 -0.7646
vn 0.2565 0.7009 0.6656
vn -0.3016 0.7153 0.6304
vn -0.5022 0.8015 -0.3247
vn 0.0228 0.6620 -0.7491
vn 0.5279 0.8148 -0.2398
vn 0.1625 0.9663 -0.1994
vn 0.3166 0.8653 -0.3885
vn 0.2565 0.7009 -0.6656
vn -0.0608 0.9468 -0.3162
vn -0.1124 0.8039 -0.5841
vn -0.3016 0.7153 -0.6304
vn -0.2035 0.9791 -0.0000
vn -0.4121 0.9111 -0.0000
vn -0.5022 0.8015 0.3247
vn -0.0608 0.9468 0.3162
vn -0.1124 0.8039 0.5841
vn 0.0228 0.6620 0.7491
vn 0.1625 0.9663 0.1994
vn 0.3166 0.8653 0.3885
vn 0.5279 0.8148 0.2398
vn 0.7557 0.4740 -0.4520
vn 0.6126 0.2443 -0.7517
vn 0.3838 0.3728 -0.8448
vn -0.0147 0.3305 -0.9437
vn -0.1853 0.1935 -0.9634
vn -0.3507 0.3661 -0.8620
vn -0.7832 0.4829 -0.3918
vn -0.9517 0.3070 -0.0000
vn -0.7832 0.4829 0.3918
vn -0.3507 0.3661 0.8620
vn -0.1853 0.1935 0.9634
vn -0.0147 0.3305 0.9437
vn 0.3838 0.3728 0.8448
vn 0.6126 0.2443 0.7517
vn 0.7557 0.4740 0.4520
vn 0.1873 0.1296 -0.9737
vn 0.1853 -0.1935 -0.9634
vn 0.0147 -0.3305 -0.9437
vn -0.6231 0.1647 -0.7646
vn -0.6126 -0.2443 -0.7517
vn -0.7557 -0.4740 -0.4520
vn -0.6231 0.1647 0.7646
vn -0.6126 -0.2443 0.7517
vn -0.3838 -0.3728 0.8448
vn 0.1873 0.1296 0.9737
vn 0.1853 -0.1935 0.9634
vn 0.3507 -0.3661 0.8620
vn 0.9779 0.2091 -0.0000
vn 0.9517 -0.3070 -0.0000
vn 0.7832 -0.4829 -0.3918
vn 0.3016 -0.7153 -0.6304
vn 0.1124 -0.8039 -0.5841
vn -0.0228 -0.6620 -0.7491
vn -0.2565 -0.7009 -0.6656
vn -0.3166 -0.8653 -0.3885
vn -0.5279 -0.8148 -0.2398
vn -0.5279 -0.8148 0.2398
vn -0.3166 -0.8653 0.3885
vn -0.2565 -0.7009 0.6656
vn 0.5022 -0.8015 -0.3247
vn 0.4121 -0.9111 -0.0000
vn 0.2035 -0.9791 -0.0000
vn -0.0228 -0.6620 0.7491
vn 0.1124 -0.8039 0.5841
vn 0.3016 -0.7153 0.6304
vn 0.1055 -0.9722 0.2091
vn 0.7154 -0.6761 0.1764
vn -0.2711 -0.9542 0.1268
vn -0.2711 -0.9542 -0.1268
vn 0.1055 -0.9722 -0.2091
vn 0.9246 -0.3376 0.1764
vn 0.0358 -0.4773 0.8780
vn -0.9167 -0.3404 0.2091
vn -0.7010 -0.4031 -0.5884
vn 0.6651 -0.4111 -0.6234
vn 0.8968 -0.1404 0.4197
vn -0.4429 -0.1815 0.8780
vn -0.9921 -0.1256 -0.0000
vn -0.4429 -0.1815 -0.8780
vn 0.8968 -0.1404 -0.4197
vn 0.4664 0.7546 0.4616
vn -0.5266 0.7393 0.4197
vn -0.7154 0.6761 -0.1764
vn 0.0470 0.8072 -0.5884
vn 0.7322 0.6692 -0.1268
vn 0.2711 0.9542 -0.1268
vn 0.5105 0.8260 -0.2389
vn 0.4664 0.7546 -0.4616
vn -0.1055 0.9722 -0.2091
vn -0.2091 0.8857 -0.4145
vn -0.5266 0.7393 -0.4197
vn -0.3313 0.9435 -0.0000
vn -0.6071 0.7947 -0.0000
vn -0.7154 0.6761 0.1764
vn -0.1055 0.9722 0.2091
vn -0.2091 0.8857 0.4145
vn 0.0470 0.8072 0.5884
vn 0.2711 0.9542 0.1268
vn 0.5105 0.8260 0.2389
vn 0.7322 0.6692 0.1268
vn 0.9167 0.3404 -0.2091
vn 0.8857 0.2091 -0.4145
vn 0.7010 0.4031 -0.5884
vn -0.0358 0.4773 -0.8780
vn -0.4339 0.2682 -0.8601
vn -0.6651 0.4111 -0.6234
vn -0.9246 0.3376 -0.1764
vn -0.9822 0.1876 -0.0000
vn -0.9246 0.3376 0.1764
vn -0.6651 0.4111 0.6234
vn -0.4339 0.2682 0.8601
vn -0.0358 0.4773 0.8780
vn 0.7010 0.4031 0.5884
vn 0.8857 0.2091 0.4145
vn 0.9167 0.3404 0.2091
vn 0.4429 0.1815 -0.8780
vn 0.4339 -0.2682 -0.8601
vn 0.0358 -0.4773 -0.8780
vn -0.8968 0.1404 -0.4197
vn -0.8857 -0.2091 -0.4145
vn -0.9167 -0.3404 -0.2091
vn -0.8968 0.1404 0.4197
vn -0.8857 -0.2091 0.4145
vn -0.7010 -0.4031 0.5884
vn 0.4429 0.1815 0.8780
vn 0.4339 -0.2682 0.8601
vn 0.6651 -0.4111 0.6234
vn 0.9921 0.1256 -0.0000
vn 0.9822 -0.1876 -0.0000
vn 0.9246 -0.3376 -0.1764
vn 0.5266 -0.7393 -0.4197
vn 0.2091 -0.8857 -0.4145
vn -0.0470 -0.8072 -0.5884
vn -0.4664 -0.7546 -0.4616
vn -0.5105 -0.8260 -0.2389
vn -0.7322 -0.6692 -0.1268
vn -0.7322 -0.6692 0.1268
vn -0.5105 -0.8260 0.2389
vn -0.4664 -0.7546 0.4616
vn 0.7154 -0.6761 -0.1764
vn 0.6071 -0.7947 -0.0000
vn 0.3313 -0.9435 -0.0000
vn -0.0470 -0.8072 0.5884
vn 0.2091 -0.8857 0.4145
vn 0.5266 -0.7393 0.4197
vn 0.1051 -0.9684 0.2260
vn 0.7135 -0.6742 0.1908
vn -0.2707 -0.9528 0.1374
vn -0.2707 -0.9528 -0.1374
vn 0.1051 -0.9684 -0.2260
vn 0.9221 -0.3366 0.1908
vn 0.0335 -0.4478 0.8935
vn -0.9132 -0.3391 0.2260
vn -0.6804 -0.3912 -0.6196
vn 0.6434 -0.3976 -0.6542
vn 0.8831 -0.1382 0.4483
vn -0.4155 -0.1703 0.8935
vn -0.4155 -0.1703 -0.8935
vn 0.8831 -0.1382 -0.4483
vn 0.4578 0.7408 0.4916
vn -0.5186 0.7281 0.4483
vn -0.7135 0.6742 -0.1908
vn 0.0456 0.7836 -0.6196
vn 0.7312 0.6682 -0.1374
vn 0.2707 0.9528 -0.1374
vn 0.5079 0.8219 -0.2579
vn 0.4578 0.7408 -0.4916
vn -0.1051 0.9684 -0.2260
vn -0.2060 0.8726 -0.4430
vn -0.5186 0.7281 -0.4483
vn -0.7135 0.6742 0.1908
vn -0.1051 0.9684 0.2260
vn -0.2060 0.8726 0.4430
vn 0.0456 0.7836 0.6196
vn 0.2707 0.9528 0.1374
vn 0.5079 0.8219 0.2579
vn 0.7312 0.6682 0.1374
vn 0.9132 0.3391 -0.2260
vn 0.8725 0.2060 -0.4430
vn 0.6804 0.3912 -0.6196
vn -0.0335 0.4478 -0.8935
vn -0.4080 0.2522 -0.8775
vn -0.6434 0.3976 -0.6542
vn -0.9221 0.3366 -0.1908
vn -0.9221 0.3366 0.1908
vn -0.6434 0.3976 0.6542
vn -0.4080 0.2522 0.8775
vn -0.0335 0.4478 0.8935
vn 0.6804 0.3912 0.6196
vn 0.8725 0.2060 0.4430
vn 0.9132 0.3391 0.2260
vn 0.4155 0.1703 -0.8935
vn 0.4080 -0.2522 -0.8775
vn 0.0335 -0.4478 -0.8935
vn -0.8831 0.1382 -0.4483
vn -0.8725 -0.2060 -0.4430
vn -0.9132 -0.3391 -0.2260
vn -0.8831 0.1382 0.4483
vn -0.8725 -0.2060 0.4430
vn -0.6804 -0.3912 0.6196
vn 0.4155 0.1703 0.8935
vn 0.4080 -0.2522 0.8775
vn 0.6434 -0.3976 0.6542
vn 0.9221 -0.3366 -0.1908
vn 0.5186 -0.7281 -0.4483
vn 0.2060 -0.8726 -0.4430
vn -0.0456 -0.7836 -0.6196
vn -0.4578 -0.7408 -0.4916
vn -0.5079 -0.8219 -0.2579
vn -0.7312 -0.6682 -0.1374
vn -0.7312 -0.6682 0.1374
vn -0.5079 -0.8219 0.2579
vn -0.4578 -0.7408 0.4916
vn 0.7135 -0.6742 -0.1908
vn -0.0456 -0.7836 0.6196
vn 0.2060 -0.8726 0.4430
vn 0.5186 -0.7281 0.4483
vn 0.1010 -0.9718 0.2131
vn 0.6998 -0.6903 0.1836
vn -0.2604 -0.9568 0.1297
vn -0.2604 -0.9568 -0.1297
vn 0.1010 -0.9718 -0.2131
vn 0.9181 -0.3499 0.1864
vn 0.0337 -0.4703 0.8819
vn -0.9094 -0.3525 0.2207
vn -0.6807 -0.4086 -0.6080
vn 0.6440 -0.4155 -0.6423
vn 0.8857 -0.1447 0.4411
vn -0.4214 -0.1802 0.8888
vn -0.9914 -0.1310 -0.0000
vn -0.4214 -0.1802 -0.8888
vn 0.8857 -0.1447 -0.4411
vn 0.4489 0.7582 0.4728
vn -0.5085 0.7453 0.4312
vn -0.6998 0.6903 -0.1836
vn 0.0447 0.8019 -0.5958
vn 0.7172 0.6842 -0.1322
vn 0.2604 0.9568 -0.1297
vn 0.4938 0.8341 -0.2459
vn 0.4489 0.7582 -0.4728
vn -0.1010 0.9718 -0.2131
vn -0.2000 0.8843 -0.4219
vn -0.5085 0.7453 -0.4312
vn -0.3188 0.9478 -0.0000
vn -0.5906 0.8070 -0.0000
vn -0.6998 0.6903 0.1836
vn -0.1010 0.9718 0.2131
vn -0.2000 0.8843 0.4219
vn 0.0447 0.8019 0.5958
vn 0.2604 0.9568 0.1297
vn 0.4938 0.8341 0.2459
vn 0.7172 0.6842 0.1322
vn 0.9094 0.3525 -0.2207
vn 0.8741 0.2154 -0.4353
vn 0.6807 0.4086 -0.6080
vn -0.0337 0.4703 -0.8819
vn -0.4129 0.2664 -0.8710
vn -0.6440 0.4155 -0.6423
vn -0.9181 0.3499 -0.1864
vn -0.9807 0.1955 -0.0000
vn -0.9181 0.3499 0.1864
vn -0.6440 0.4155 0.6423
vn -0.4129 0.2664 0.8710
vn -0.0337 0.4703 0.8819
vn 0.6807 0.4086 0.6080
vn 0.8741 0.2154 0.4353
vn 0.9094 0.3525 0.2207
vn 0.4214 0.1802 -0.8888
vn 0.4129 -0.2664 -0.8710
vn 0.0337 -0.4703 -0.8819
vn -0.8857 0.1447 -0.4411
vn -0.8741 -0.2154 -0.4353
vn -0.9094 -0.3525 -0.2207
vn -0.8857 0.1447 0.4411
vn -0.8741 -0.2154 0.4353
vn -0.6807 -0.4086 0.6080
vn 0.4214 0.1802 0.8888
vn 0.4129 -0.2664 0.8710
vn 0.6440 -0.4155 0.6423
vn 0.9914 0.1310 -0.0000
vn 0.9807 -0.1955 -0.0000
vn 0.9181 -0.3499 -0.1864
vn 0.5085 -0.7453 -0.4312
vn 0.2000 -0.8843 -0.4219
vn -0.0447 -0.8019 -0.5958
vn -0.4489 -0.7582 -0.4728
vn -0.4938 -0.8341 -0.2459
vn -0.7172 -0.6842 -0.1322
vn -0.7172 -0.6842 0.1322
vn -0.4938 -0.8341 0.2459
vn -0.4489 -0.7582 0.4728
vn 0.6998 -0.6903 -0.1836
vn 0.5906 -0.8070 -0.0000
vn 0.3188 -0.9478 -0.0000
vn -0.0447 -0.8019 0.5958
vn 0.2000 -0.8843 0.4219
vn 0.5085 -0.7453 0.4312
vn 0.0828 -0.9634 0.2548
vn 0.6238 -0.7442 0.2388
vn -0.2168 -0.9634 0.1575
vn -0.2168 -0.9634 -0.1575
vn 0.0828 -0.9634 -0.2548
vn 0.8770 -0.4042 0.2597
vn 0.0240 -0.4042 0.9144
vn -0.8622 -0.4042 0.3054
vn -0.5568 -0.4042 -0.7256
vn 0.5180 -0.4042 -0.7538
vn 0.7989 -0.1579 0.5804
vn -0.3051 -0.1579 0.9391
vn -0.9875 -0.1579 -0.0000
vn -0.3051 -0.1579 -0.9391
vn 0.7989 -0.1579 -0.5804
vn 0.3643 0.7442 0.5598
vn -0.4199 0.7442 0.5195
vn -0.6238 0.7442 -0.2388
vn 0.0343 0.7442 -0.6671
vn 0.6450 0.7442 -0.1735
vn 0.2168 0.9634 -0.1575
vn 0.4188 0.8556 -0.3043
vn 0.3643 0.7442 -0.5598
vn -0.0828 0.9634 -0.2548
vn -0.1600 0.8556 -0.4924
vn -0.4199 0.7442 -0.5195
vn -0.2680 0.9634 -0.0000
vn -0.5177 0.8556 -0.0000
vn -0.6238 0.7442 0.2388
vn -0.0828 0.9634 0.2548
vn -0.1600 0.8556 0.4924
vn 0.0343 0.7442 0.6671
vn 0.2168 0.9634 0.1575
vn 0.4188 0.8556 0.3043
vn 0.6450 0.7442 0.1735
vn 0.8622 0.4042 -0.3054
vn 0.7865 0.2344 -0.5714
vn 0.5568 0.4042 -0.7256
vn -0.0240 0.4042 -0.9144
vn -0.3004 0.2344 -0.9246
vn -0.5180 0.4042 -0.7538
vn -0.8770 0.4042 -0.2597
vn -0.9721 0.2344 -0.0000
vn -0.8770 0.4042 0.2597
vn -0.5180 0.4042 0.7538
vn -0.3004 0.2344 0.9246
vn -0.0240 0.4042 0.9144
vn 0.5568 0.4042 0.7256
vn 0.7865 0.2344 0.5714
vn 0.8622 0.4042 0.3054
vn 0.3051 0.1579 -0.9391
vn 0.3004 -0.2344 -0.9246
vn 0.0240 -0.4042 -0.9144
vn -0.7989 0.1579 -0.5804
vn -0.7865 -0.2344 -0.5714
vn -0.8622 -0.4042 -0.3054
vn -0.7989 0.1579 0.5804
vn -0.7865 -0.2344 0.5714
vn -0.5568 -0.4042 0.7256
vn 0.3051 0.1579 0.9391
vn 0.3004 -0.2344 0.9246
vn 0.5180 -0.4042 0.7538
vn 0.9875 0.1579 -0.0000
vn 0.9721 -0.2344 -0.0000
vn 0.8770 -0.4042 -0.2597
vn 0.4199 -0.7442 -0.5195
vn 0.1600 -0.8556 -0.4924
vn -0.0343 -0.7442 -0.6671
vn -0.3643 -0.7442 -0.5598
vn -0.4188 -0.8556 -0.3043
vn -0.6450 -0.7442 -0.1735
vn -0.6450 -0.7442 0.1735
vn -0.4188 -0.8556 0.3043
vn -0.3643 -0.7442 0.5598
vn 0.6238 -0.7442 -0.2388
vn 0.5177 -0.8556 -0.0000
vn 0.2680 -0.9634 -0.0000
vn -0.0343 -0.7442 0.6671
vn 0.1600 -0.8556 0.4924
vn 0.4199 -0.7442 0.5195
vt 0.527246 0.709226
vt 0.529994 0.709572
vt 0.526608 0.709356
vt 0.532008 0.710946
vt 0.532204 0.711024
vt 0.524147 0.709712
vt 0.525992 0.710115
vt 0.529465 0.710035
vt 0.533165 0.712790
vt 0.526114 0.710615
vt 0.529461 0.710395
vt 0.527966 0.712307
vt 0.521911 0.711157
vt 0.523358 0.710531
vt 0.521605 0.712646
vt 0.525141 0.711739
vt 0.522963 0.711215
vt 0.523373 0.713264
vt 0.530972 0.711626
vt 0.528171 0.711485
vt 0.529979 0.713340
vt 0.531500 0.712473
vt 0.524085 0.712377
vt 0.521432 0.712986
vt 0.526578 0.713393
vt 0.532494 0.713118
vt 0.529599 0.714204
vt 0.531821 0.714698
vt 0.528578 0.715951
vt 0.523053 0.714293
vt 0.526128 0.714506
vt 0.524786 0.715988
vt 0.522654 0.714744
vt 0.522064 0.714820
vt 0.524470 0.716182
vt 0.528210 0.714920
vt 0.525184 0.715159
vt 0.527807 0.716262
vt 0.532521 0.714619
vt 0.530831 0.715093
vt 0.530355 0.716127
vt 0.527197 0.716680
vt 0.523197 0.702474
vt 0.524288 0.702713
vt 0.522846 0.702590
vt 0.525051 0.703567
vt 0.525277 0.703604
vt 0.521883 0.702773
vt 0.522726 0.703002
vt 0.524193 0.702966
vt 0.525564 0.704695
vt 0.522573 0.703366
vt 0.523941 0.703239
vt 0.523269 0.704371
vt 0.520930 0.703665
vt 0.521498 0.703299
vt 0.520772 0.704573
vt 0.522381 0.704034
vt 0.521409 0.703696
vt 0.521589 0.705007
vt 0.524871 0.703976
vt 0.523707 0.703878
vt 0.524474 0.705078
vt 0.524738 0.704483
vt 0.521741 0.704406
vt 0.520727 0.704803
vt 0.523011 0.705110
vt 0.525450 0.704922
vt 0.523930 0.705500
vt 0.524917 0.705834
vt 0.523565 0.706569
vt 0.521331 0.705555
vt 0.522537 0.705667
vt 0.522042 0.706599
vt 0.521241 0.705921
vt 0.520958 0.705916
vt 0.521978 0.706801
vt 0.523683 0.706088
vt 0.522353 0.706223
vt 0.523427 0.706895
vt 0.525350 0.705836
vt 0.524748 0.706174
vt 0.524410 0.706754
vt 0.523076 0.707076
vt 0.534775 0.706231
vt 0.536031 0.706402
vt 0.534490 0.706317
vt 0.536937 0.706967
vt 0.537095 0.706984
vt 0.533354 0.706419
vt 0.534194 0.706564
vt 0.535831 0.706554
vt 0.537506 0.707700
vt 0.534299 0.706827
vt 0.535768 0.706753
vt 0.535129 0.707486
vt 0.532360 0.706995
vt 0.533059 0.706770
vt 0.532297 0.707590
vt 0.533803 0.707232
vt 0.532787 0.707010
vt 0.532991 0.707863
vt 0.536581 0.707215
vt 0.535255 0.707138
vt 0.536149 0.707928
vt 0.536689 0.707564
vt 0.533441 0.707496
vt 0.532136 0.707731
vt 0.534517 0.707937
vt 0.537290 0.707838
vt 0.535868 0.708216
vt 0.536888 0.708434
vt 0.535459 0.708900
vt 0.532998 0.708232
vt 0.534363 0.708315
vt 0.533777 0.708909
vt 0.532711 0.708459
vt 0.532506 0.708458
vt 0.533599 0.709035
vt 0.535323 0.708580
vt 0.533886 0.708660
vt 0.535143 0.709104
vt 0.537271 0.708434
vt 0.536548 0.708645
vt 0.536292 0.709021
vt 0.534861 0.709220
vt 0.538347 0.708639
vt 0.540789 0.709018
vt 0.537920 0.708878
vt 0.542593 0.710247
vt 0.542729 0.710208
vt 0.535683 0.709058
vt 0.537176 0.709299
vt 0.540263 0.709275
vt 0.543648 0.711788
vt 0.537649 0.710031
vt 0.540445 0.709839
vt 0.539310 0.711483
vt 0.533817 0.710308
vt 0.535210 0.709877
vt 0.533745 0.711646
vt 0.536409 0.710671
vt 0.534560 0.710265
vt 0.534920 0.712031
vt 0.541634 0.710636
vt 0.539105 0.710458
vt 0.540797 0.712112
vt 0.542250 0.711595
vt 0.536014 0.711503
vt 0.533370 0.711849
vt 0.537732 0.712129
vt 0.543053 0.711984
vt 0.540731 0.713052
vt 0.542590 0.713438
vt 0.539888 0.714495
vt 0.535136 0.713081
vt 0.537825 0.713295
vt 0.536617 0.714508
vt 0.534446 0.713368
vt 0.534123 0.713478
vt 0.536172 0.714645
vt 0.539287 0.713509
vt 0.536616 0.713718
vt 0.539054 0.714715
vt 0.543156 0.713325
vt 0.541663 0.713695
vt 0.541345 0.714625
vt 0.538640 0.715094
vt 0.526176 0.703568
vt 0.527023 0.703680
vt 0.526025 0.703543
vt 0.527624 0.704299
vt 0.527674 0.704448
vt 0.525240 0.703807
vt 0.525750 0.704096
vt 0.526832 0.704021
vt 0.527955 0.705234
vt 0.525908 0.704071
vt 0.526883 0.703977
vt 0.526451 0.704826
vt 0.524570 0.704508
vt 0.525065 0.704104
vt 0.524524 0.705149
vt 0.525451 0.704976
vt 0.524821 0.704641
vt 0.524907 0.705724
vt 0.527280 0.704855
vt 0.526397 0.704842
vt 0.526951 0.705772
vt 0.527469 0.704956
vt 0.525312 0.704902
vt 0.524383 0.705464
vt 0.525879 0.705839
vt 0.527744 0.705545
vt 0.526906 0.705748
vt 0.527542 0.706086
vt 0.526580 0.706664
vt 0.524976 0.705868
vt 0.525897 0.705891
vt 0.525453 0.706730
vt 0.524721 0.706376
vt 0.524615 0.706264
vt 0.525291 0.707013
vt 0.526390 0.706565
vt 0.525459 0.706663
vt 0.526283 0.707121
vt 0.527744 0.706193
vt 0.527215 0.706560
vt 0.527081 0.706910
vt 0.526134 0.707162
vt 0.531722 0.713068
vt 0.533491 0.713499
vt 0.531591 0.713394
vt 0.534803 0.714940
vt 0.534685 0.714828
vt 0.529910 0.713591
vt 0.530771 0.713803
vt 0.532910 0.713750
vt 0.535422 0.716707
vt 0.531508 0.714794
vt 0.533434 0.714523
vt 0.532698 0.716521
vt 0.528626 0.715064
vt 0.529717 0.714604
vt 0.528635 0.716666
vt 0.530141 0.715343
vt 0.529002 0.714945
vt 0.529137 0.716915
vt 0.533742 0.715275
vt 0.531955 0.715070
vt 0.533063 0.716937
vt 0.534668 0.716581
vt 0.530341 0.716555
vt 0.528224 0.716804
vt 0.530958 0.716964
vt 0.534764 0.716842
vt 0.533610 0.718344
vt 0.534752 0.718701
vt 0.532870 0.719982
vt 0.529625 0.718374
vt 0.531571 0.718658
vt 0.530554 0.719985
vt 0.528868 0.718498
vt 0.528782 0.718737
vt 0.530066 0.719998
vt 0.532017 0.718544
vt 0.530241 0.718819
vt 0.531951 0.720004
vt 0.534938 0.718456
vt 0.533728 0.718799
vt 0.533682 0.719994
vt 0.531828 0.720571
vt 0.526939 0.708743
vt 0.528591 0.709059
vt 0.526652 0.708885
vt 0.529794 0.710329
vt 0.529838 0.710391
vt 0.525131 0.709212
vt 0.526122 0.709563
vt 0.528190 0.709475
vt 0.530434 0.712032
vt 0.526426 0.710059
vt 0.528356 0.709839
vt 0.527518 0.711607
vt 0.523829 0.710561
vt 0.524768 0.709987
vt 0.523711 0.711940
vt 0.525561 0.711079
vt 0.524346 0.710603
vt 0.524525 0.712510
vt 0.529042 0.710951
vt 0.527352 0.710828
vt 0.528411 0.712560
vt 0.529532 0.711745
vt 0.525245 0.711685
vt 0.523485 0.712256
vt 0.526377 0.712621
vt 0.529960 0.712341
vt 0.528430 0.713343
vt 0.529665 0.713800
vt 0.527773 0.714963
vt 0.524587 0.713449
vt 0.526416 0.713630
vt 0.525541 0.715010
vt 0.524150 0.713886
vt 0.523908 0.713947
vt 0.525243 0.715212
vt 0.527354 0.714045
vt 0.525579 0.714274
vt 0.527163 0.715289
vt 0.530008 0.713736
vt 0.528946 0.714193
vt 0.528731 0.715142
vt 0.526884 0.715658
vt 0.526035 0.706049
vt 0.527256 0.706252
vt 0.525729 0.706127
vt 0.528125 0.707045
vt 0.528285 0.707111
vt 0.524629 0.706335
vt 0.525473 0.706580
vt 0.527067 0.706531
vt 0.528660 0.708123
vt 0.525497 0.706841
vt 0.526967 0.706719
vt 0.526289 0.707785
vt 0.523622 0.707179
vt 0.524287 0.706801
vt 0.523504 0.708020
vt 0.525077 0.707568
vt 0.524076 0.707235
vt 0.524253 0.708478
vt 0.527776 0.707490
vt 0.526492 0.707416
vt 0.527328 0.708538
vt 0.527849 0.707899
vt 0.524610 0.707833
vt 0.523388 0.708267
vt 0.525746 0.708580
vt 0.528442 0.708366
vt 0.527000 0.708863
vt 0.528014 0.709192
vt 0.526571 0.709891
vt 0.524151 0.708936
vt 0.525491 0.709028
vt 0.524905 0.709930
vt 0.523932 0.709324
vt 0.523691 0.709300
vt 0.524760 0.710140
vt 0.526495 0.709486
vt 0.525088 0.709614
vt 0.526283 0.710230
vt 0.528398 0.709213
vt 0.527682 0.709551
vt 0.527405 0.710079
vt 0.525981 0.710386
s 0
usemtl Material.001
f 170/170/203 183/171/203 182/172/203
f 171/173/204 183/171/204 185/174/204
f 170/170/205 182/172/205 187/175/205
f 170/170/206 187/175/206 189/176/206
f 170/170/207 189/176/207 186/177/207
f 171/173/208 185/174/208 192/178/208
f 172/179/209 184/180/209 194/181/209
f 173/182/210 188/183/210 196/184/210
f 174/185/211 190/186/211 198/187/211
f 175/188/212 191/189/212 200/190/212
f 171/173/213 192/178/213 195/191/213
f 172/179/214 194/181/214 197/192/214
f 173/182/215 196/184/215 199/193/215
f 174/185/216 198/187/216 201/194/216
f 175/188/217 200/190/217 193/195/217
f 176/196/218 202/197/218 207/198/218
f 177/199/219 203/200/219 209/201/219
f 178/202/220 204/203/220 210/204/220
f 179/205/221 205/206/221 211/207/221
f 180/208/222 206/209/222 208/210/222
f 208/210/223 211/207/223 181/211/223
f 208/210/224 206/209/224 211/207/224
f 206/209/225 179/205/225 211/207/225
f 211/207/226 210/204/226 181/211/226
f 211/207/227 205/206/227 210/204/227
f 205/206/228 178/202/228 210/204/228
f 210/204/229 209/201/229 181/211/229
f 210/204/230 204/203/230 209/201/230
f 204/203/231 177/199/231 209/201/231
f 209/201/232 207/198/232 181/211/232
f 209/201/233 203/200/233 207/198/233
f 203/200/234 176/196/234 207/198/234
f 207/198/235 208/210/235 181/211/235
f 207/198/236 202/197/236 208/210/236
f 202/197/237 180/208/237 208/210/237
f 193/195/238 206/209/238 180/208/238
f 193/195/239 200/190/239 206/209/239
f 200/190/240 179/205/240 206/209/240
f 201/194/241 205/206/241 179/205/241
f 201/194/242 198/187/242 205/206/242
f 198/187/243 178/202/243 205/206/243
f 199/193/244 204/203/244 178/202/244
f 199/193/245 196/184/245 204/203/245
f 196/184/246 177/199/246 204/203/246
f 197/192/247 203/200/247 177/199/247
f 197/192/248 194/181/248 203/200/248
f 194/181/249 176/196/249 203/200/249
f 195/191/250 202/197/250 176/196/250
f 195/191/251 192/178/251 202/197/251
f 192/178/252 180/208/252 202/197/252
f 200/190/253 201/194/253 179/205/253
f 200/190/254 191/189/254 201/194/254
f 191/189/255 174/185/255 201/194/255
f 198/187/256 199/193/256 178/202/256
f 198/187/257 190/186/257 199/193/257
f 190/186/258 173/182/258 199/193/258
f 196/184/259 197/192/259 177/199/259
f 196/184/260 188/183/260 197/192/260
f 188/183/261 172/179/261 197/192/261
f 194/181/262 195/191/262 176/196/262
f 194/181/263 184/180/263 195/191/263
f 184/180/264 171/173/264 195/191/264
f 192/178/265 193/195/265 180/208/265
f 192/178/266 185/174/266 193/195/266
f 185/174/267 175/188/267 193/195/267
f 186/177/268 191/189/268 175/188/268
f 186/177/269 189/176/269 191/189/269
f 189/176/270 174/185/270 191/189/270
f 189/176/271 190/186/271 174/185/271
f 189/176/272 187/175/272 190/186/272
f 187/175/273 173/182/273 190/186/273
f 187/175/274 188/183/274 173/182/274
f 187/175/275 182/172/275 188/183/275
f 182/172/276 172/179/276 188/183/276
f 185/174/277 186/177/277 175/188/277
f 185/174/278 183/171/278 186/177/278
f 183/171/279 170/170/279 186/177/279
f 182/172/280 184/180/280 172/179/280
f 182/172/281 183/171/281 184/180/281
f 183/171/282 171/173/282 184/180/282
f 212/212/283 225/213/283 224/214/283
f 213/215/284 225/213/284 227/216/284
f 212/212/285 224/214/285 229/217/285
f 212/212/286 229/217/286 231/218/286
f 212/212/287 231/218/287 228/219/287
f 213/215/288 227/216/288 234/220/288
f 214/221/289 226/222/289 236/223/289
f 215/224/290 230/225/290 238/226/290
f 216/227/291 232/228/291 240/229/291
f 217/230/292 233/231/292 242/232/292
f 213/215/293 234/220/293 237/233/293
f 214/221/294 236/223/294 239/234/294
f 215/224/295 238/226/295 241/235/295
f 216/227/296 240/229/296 243/236/296
f 217/230/297 242/232/297 235/237/297
f 218/238/298 244/239/298 249/240/298
f 219/241/299 245/242/299 251/243/299
f 220/244/300 246/245/300 252/246/300
f 221/247/301 247/248/301 253/249/301
f 222/250/302 248/251/302 250/252/302
f 250/252/303 253/249/303 223/253/303
f 250/252/304 248/251/304 253/249/304
f 248/251/305 221/247/305 253/249/305
f 253/249/306 252/246/306 223/253/306
f 253/249/307 247/248/307 252/246/307
f 247/248/308 220/244/308 252/246/308
f 252/246/309 251/243/309 223/253/309
f 252/246/310 246/245/310 251/243/310
f 246/245/311 219/241/311 251/243/311
f 251/243/312 249/240/312 223/253/312
f 251/243/313 245/242/313 249/240/313
f 245/242/314 218/238/314 249/240/314
f 249/240/315 250/252/315 223/253/315
f 249/240/316 244/239/316 250/252/316
f 244/239/317 222/250/317 250/252/317
f 235/237/318 248/251/318 222/250/318
f 235/237/319 242/232/319 248/251/319
f 242/232/320 221/247/320 248/251/320
f 243/236/321 247/248/321 221/247/321
f 243/236/322 240/229/322 247/248/322
f 240/229/323 220/244/323 247/248/323
f 241/235/324 246/245/324 220/244/324
f 241/235/325 238/226/325 246/245/325
f 238/226/326 219/241/326 246/245/326
f 239/234/327 245/242/327 219/241/327
f 239/234/328 236/223/328 245/242/328
f 236/223/329 218/238/329 245/242/329
f 237/233/330 244/239/330 218/238/330
f 237/233/331 234/220/331 244/239/331
f 234/220/332 222/250/332 244/239/332
f 242/232/333 243/236/333 221/247/333
f 242/232/334 233/231/334 243/236/334
f 233/231/335 216/227/335 243/236/335
f 240/229/336 241/235/336 220/244/336
f 240/229/337 232/228/337 241/235/337
f 232/228/338 215/224/338 241/235/338
f 238/226/339 239/234/339 219/241/339
f 238/226/340 230/225/340 239/234/340
f 230/225/341 214/221/341 239/234/341
f 236/223/342 237/233/342 218/238/342
f 236/223/343 226/222/343 237/233/343
f 226/222/344 213/215/344 237/233/344
f 234/220/345 235/237/345 222/250/345
f 234/220/346 227/216/346 235/237/346
f 227/216/347 217/230/347 235/237/347
f 228/219/348 233/231/348 217/230/348
f 228/219/349 231/218/349 233/231/349
f 231/218/350 216/227/350 233/231/350
f 231/218/351 232/228/351 216/227/351
f 231/218/352 229/217/352 232/228/352
f 229/217/353 215/224/353 232/228/353
f 229/217/354 230/225/354 215/224/354
f 229/217/355 224/214/355 230/225/355
f 224/214/356 214/221/356 230/225/356
f 227/216/357 228/219/357 217/230/357
f 227/216/358 225/213/358 228/219/358
f 225/213/359 212/212/359 228/219/359
f 224/214/360 226/222/360 214/221/360
f 224/214/361 225/213/361 226/222/361
f 225/213/362 213/215/362 226/222/362
f 254/254/363 267/255/363 266/256/363
f 255/257/364 267/255/364 269/258/364
f 254/254/365 266/256/365 271/259/365
f 254/254/366 271/259/366 273/260/366
f 254/254/367 273/260/367 270/261/367
f 255/257/368 269/258/368 276/262/368
f 256/263/369 268/264/369 278/265/369
f 257/266/370 272/267/370 280/268/370
f 258/269/371 274/270/371 282/271/371
f 259/272/372 275/273/372 284/274/372
f 255/257/373 276/262/373 279/275/373
f 256/263/374 278/265/374 281/276/374
f 257/266/375 280/268/375 283/277/375
f 258/269/376 282/271/376 285/278/376
f 259/272/377 284/274/377 277/279/377
f 260/280/378 286/281/378 291/282/378
f 261/283/379 287/284/379 293/285/379
f 262/286/380 288/287/380 294/288/380
f 263/289/381 289/290/381 295/291/381
f 264/292/382 290/293/382 292/294/382
f 292/294/383 295/291/383 265/295/383
f 292/294/384 290/293/384 295/291/384
f 290/293/385 263/289/385 295/291/385
f 295/291/386 294/288/386 265/295/386
f 295/291/387 289/290/387 294/288/387
f 289/290/388 262/286/388 294/288/388
f 294/288/389 293/285/389 265/295/389
f 294/288/390 288/287/390 293/285/390
f 288/287/391 261/283/391 293/285/391
f 293/285/392 291/282/392 265/295/392
f 293/285/393 287/284/393 291/282/393
f 287/284/394 260/280/394 291/282/394
f 291/282/395 292/294/395 265/295/395
f 291/282/396 286/281/396 292/294/396
f 286/281/397 264/292/397 292/294/397
f 277/279/398 290/293/398 264/292/398
f 277/279/399 284/274/399 290/293/399
f 284/274/400 263/289/400 290/293/400
f 285/278/401 289/290/401 263/289/401
f 285/278/402 282/271/402 289/290/402
f 282/271/403 262/286/403 289/290/403
f 283/277/404 288/287/404 262/286/404
f 283/277/405 280/268/405 288/287/405
f 280/268/406 261/283/406 288/287/406
f 281/276/407 287/284/407 261/283/407
f 281/276/408 278/265/408 287/284/408
f 278/265/409 260/280/409 287/284/409
f 279/275/410 286/281/410 260/280/410
f 279/275/411 276/262/411 286/281/411
f 276/262/412 264/292/412 286/281/412
f 284/274/413 285/278/413 263/289/413
f 284/274/414 275/273/414 285/278/414
f 275/273/415 258/269/415 285/278/415
f 282/271/416 283/277/416 262/286/416
f 282/271/417 274/270/417 283/277/417
f 274/270/418 257/266/418 283/277/418
f 280/268/419 281/276/419 261/283/419
f 280/268/420 272/267/420 281/276/420
f 272/267/421 256/263/421 281/276/421
f 278/265/422 279/275/422 260/280/422
f 278/265/423 268/264/423 279/275/423
f 268/264/424 255/257/424 279/275/424
f 276/262/425 277/279/425 264/292/425
f 276/262/426 269/258/426 277/279/426
f 269/258/427 259/272/427 277/279/427
f 270/261/428 275/273/428 259/272/428
f 270/261/429 273/260/429 275/273/429
f 273/260/430 258/269/430 275/273/430
f 273/260/431 274/270/431 258/269/431
f 273/260/432 271/259/432 274/270/432
f 271/259/433 257/266/433 274/270/433
f 271/259/434 272/267/434 257/266/434
f 271/259/435 266/256/435 272/267/435
f 266/256/436 256/263/436 272/267/436
f 269/258/437 270/261/437 259/272/437
f 269/258/438 267/255/438 270/261/438
f 267/255/439 254/254/439 270/261/439
f 266/256/440 268/264/440 256/263/440
f 266/256/441 267/255/441 268/264/441
f 267/255/442 255/257/442 268/264/442
f 296/296/443 309/297/443 308/298/443
f 297/299/444 309/297/444 311/300/444
f 296/296/445 308/298/445 313/301/445
f 296/296/446 313/301/446 315/302/446
f 296/296/447 315/302/447 312/303/447
f 297/299/448 311/300/448 318/304/448
f 298/305/449 310/306/449 320/307/449
f 299/308/450 314/309/450 322/310/450
f 300/311/451 316/312/451 324/313/451
f 301/314/452 317/315/452 326/316/452
f 297/299/453 318/304/453 321/317/453
f 298/305/454 320/307/454 323/318/454
f 299/308/455 322/310/455 325/319/455
f 300/311/456 324/313/456 327/320/456
f 301/314/457 326/316/457 319/321/457
f 302/322/458 328/323/458 333/324/458
f 303/325/459 329/326/459 335/327/459
f 304/328/460 330/329/460 336/330/460
f 305/331/461 331/332/461 337/333/461
f 306/334/462 332/335/462 334/336/462
f 334/336/463 337/333/463 307/337/463
f 334/336/464 332/335/464 337/333/464
f 332/335/465 305/331/465 337/333/465
f 337/333/466 336/330/466 307/337/466
f 337/333/467 331/332/467 336/330/467
f 331/332/468 304/328/468 336/330/468
f 336/330/469 335/327/469 307/337/469
f 336/330/470 330/329/470 335/327/470
f 330/329/471 303/325/471 335/327/471
f 335/327/472 333/324/472 307/337/472
f 335/327/473 329/326/473 333/324/473
f 329/326/474 302/322/474 333/324/474
f 333/324/475 334/336/475 307/337/475
f 333/324/476 328/323/476 334/336/476
f 328/323/477 306/334/477 334/336/477
f 319/321/478 332/335/478 306/334/478
f 319/321/479 326/316/479 332/335/479
f 326/316/480 305/331/480 332/335/480
f 327/320/481 331/332/481 305/331/481
f 327/320/482 324/313/482 331/332/482
f 324/313/483 304/328/483 331/332/483
f 325/319/484 330/329/484 304/328/484
f 325/319/485 322/310/485 330/329/485
f 322/310/486 303/325/486 330/329/486
f 323/318/487 329/326/487 303/325/487
f 323/318/488 320/307/488 329/326/488
f 320/307/489 302/322/489 329/326/489
f 321/317/490 328/323/490 302/322/490
f 321/317/491 318/304/491 328/323/491
f 318/304/492 306/334/492 328/323/492
f 326/316/493 327/320/493 305/331/493
f 326/316/494 317/315/494 327/320/494
f 317/315/495 300/311/495 327/320/495
f 324/313/496 325/319/496 304/328/496
f 324/313/497 316/312/497 325/319/497
f 316/312/498 299/308/498 325/319/498
f 322/310/499 323/318/499 303/325/499
f 322/310/500 314/309/500 323/318/500
f 314/309/501 298/305/501 323/318/501
f 320/307/502 321/317/502 302/322/502
f 320/307/503 310/306/503 321/317/503
f 310/306/504 297/299/504 321/317/504
f 318/304/505 319/321/505 306/334/505
f 318/304/506 311/300/506 319/321/506
f 311/300/507 301/314/507 319/321/507
f 312/303/508 317/315/508 301/314/508
f 312/303/509 315/302/509 317/315/509
f 315/302/510 300/311/510 317/315/510
f 315/302/511 316/312/511 300/311/511
f 315/302/512 313/301/512 316/312/512
f 313/301/513 299/308/513 316/312/513
f 313/301/514 314/309/514 299/308/514
f 313/301/515 308/298/515 314/309/515
f 308/298/516 298/305/516 314/309/516
f 311/300/517 312/303/517 301/314/517
f 311/300/518 309/297/518 312/303/518
f 309/297/519 296/296/519 312/303/519
f 308/298/520 310/306/520 298/305/520
f 308/298/521 309/297/521 310/306/521
f 309/297/522 297/299/522 310/306/522
f 338/338/523 351/339/523 350/340/523
f 339/341/524 351/339/524 353/342/524
f 338/338/525 350/340/525 355/343/525
f 338/338/526 355/343/526 357/344/526
f 338/338/527 357/344/527 354/345/527
f 339/341/528 353/342/528 360/346/528
f 340/347/529 352/348/529 362/349/529
f 341/350/530 356/351/530 364/352/530
f 342/353/531 358/354/531 366/355/531
f 343/356/532 359/357/532 368/358/532
f 339/341/533 360/346/533 363/359/533
f 340/347/534 362/349/534 365/360/534
f 341/350/535 364/352/535 367/361/535
f 342/353/536 366/355/536 369/362/536
f 343/356/537 368/358/537 361/363/537
f 344/364/538 370/365/538 375/366/538
f 345/367/539 371/368/539 377/369/539
f 346/370/540 372/371/540 378/372/540
f 347/373/541 373/374/541 379/375/541
f 348/376/542 374/377/542 376/378/542
f 376/378/543 379/375/543 349/379/543
f 376/378/544 374/377/544 379/375/544
f 374/377/545 347/373/545 379/375/545
f 379/375/546 378/372/546 349/379/546
f 379/375/547 373/374/547 378/372/547
f 373/374/548 346/370/548 378/372/548
f 378/372/549 377/369/549 349/379/549
f 378/372/550 372/371/550 377/369/550
f 372/371/551 345/367/551 377/369/551
f 377/369/552 375/366/552 349/379/552
f 377/369/553 371/368/553 375/366/553
f 371/368/554 344/364/554 375/366/554
f 375/366/555 376/378/555 349/379/555
f 375/366/556 370/365/556 376/378/556
f 370/365/557 348/376/557 376/378/557
f 361/363/558 374/377/558 348/376/558
f 361/363/559 368/358/559 374/377/559
f 368/358/560 347/373/560 374/377/560
f 369/362/561 373/374/561 347/373/561
f 369/362/562 366/355/562 373/374/562
f 366/355/563 346/370/563 373/374/563
f 367/361/564 372/371/564 346/370/564
f 367/361/565 364/352/565 372/371/565
f 364/352/566 345/367/566 372/371/566
f 365/360/567 371/368/567 345/367/567
f 365/360/568 362/349/568 371/368/568
f 362/349/569 344/364/569 371/368/569
f 363/359/570 370/365/570 344/364/570
f 363/359/571 360/346/571 370/365/571
f 360/346/572 348/376/572 370/365/572
f 368/358/573 369/362/573 347/373/573
f 368/358/574 359/357/574 369/362/574
f 359/357/575 342/353/575 369/362/575
f 366/355/576 367/361/576 346/370/576
f 366/355/577 358/354/577 367/361/577
f 358/354/578 341/350/578 367/361/578
f 364/352/579 365/360/579 345/367/579
f 364/352/580 356/351/580 365/360/580
f 356/351/581 340/347/581 365/360/581
f 362/349/582 363/359/582 344/364/582
f 362/349/583 352/348/583 363/359/583
f 352/348/584 339/341/584 363/359/584
f 360/346/585 361/363/585 348/376/585
f 360/346/586 353/342/586 361/363/586
f 353/342/587 343/356/587 361/363/587
f 354/345/588 359/357/588 343/356/588
f 354/345/589 357/344/589 359/357/589
f 357/344/590 342/353/590 359/357/590
f 357/344/591 358/354/591 342/353/591
f 357/344/592 355/343/592 358/354/592
f 355/343/593 341/350/593 358/354/593
f 355/343/594 356/351/594 341/350/594
f 355/343/595 350/340/595 356/351/595
f 350/340/596 340/347/596 356/351/596
f 353/342/597 354/345/597 343/356/597
f 353/342/598 351/339/598 354/345/598
f 351/339/599 338/338/599 354/345/599
f 350/340/600 352/348/600 340/347/600
f 350/340/601 351/339/601 352/348/601
f 351/339/602 339/341/602 352/348/602
f 380/380/603 393/381/603 392/382/603
f 381/383/604 393/381/604 395/384/604
f 380/380/605 392/382/605 397/385/605
f 380/380/606 397/385/606 399/386/606
f 380/380/607 399/386/607 396/387/607
f 381/383/608 395/384/608 402/388/608
f 382/389/609 394/390/609 404/391/609
f 383/392/610 398/393/610 406/394/610
f 384/395/611 400/396/611 408/397/611
f 385/398/612 401/399/612 410/400/612
f 381/383/613 402/388/613 405/401/613
f 382/389/614 404/391/614 407/402/614
f 383/392/535 406/394/535 409/403/535
f 384/395/615 408/397/615 411/404/615
f 385/398/616 410/400/616 403/405/616
f 386/406/617 412/407/617 417/408/617
f 387/409/618 413/410/618 419/411/618
f 388/412/619 414/413/619 420/414/619
f 389/415/620 415/416/620 421/417/620
f 390/418/621 416/419/621 418/420/621
f 418/420/622 421/417/622 391/421/622
f 418/420/623 416/419/623 421/417/623
f 416/419/624 389/415/624 421/417/624
f 421/417/625 420/414/625 391/421/625
f 421/417/626 415/416/626 420/414/626
f 415/416/627 388/412/627 420/414/627
f 420/414/549 419/411/549 391/421/549
f 420/414/550 414/413/550 419/411/550
f 414/413/628 387/409/628 419/411/628
f 419/411/629 417/408/629 391/421/629
f 419/411/630 413/410/630 417/408/630
f 413/410/631 386/406/631 417/408/631
f 417/408/632 418/420/632 391/421/632
f 417/408/633 412/407/633 418/420/633
f 412/407/634 390/418/634 418/420/634
f 403/405/635 416/419/635 390/418/635
f 403/405/636 410/400/636 416/419/636
f 410/400/637 389/415/637 416/419/637
f 411/404/638 415/416/638 389/415/638
f 411/404/639 408/397/639 415/416/639
f 408/397/640 388/412/640 415/416/640
f 409/403/641 414/413/641 388/412/641
f 409/403/565 406/394/565 414/413/565
f 406/394/642 387/409/642 414/413/642
f 407/402/643 413/410/643 387/409/643
f 407/402/644 404/391/644 413/410/644
f 404/391/645 386/406/645 413/410/645
f 405/401/646 412/407/646 386/406/646
f 405/401/647 402/388/647 412/407/647
f 402/388/648 390/418/648 412/407/648
f 410/400/649 411/404/649 389/415/649
f 410/400/650 401/399/650 411/404/650
f 401/399/651 384/395/651 411/404/651
f 408/397/652 409/403/652 388/412/652
f 408/397/653 400/396/653 409/403/653
f 400/396/654 383/392/654 409/403/654
f 406/394/655 407/402/655 387/409/655
f 406/394/656 398/393/656 407/402/656
f 398/393/657 382/389/657 407/402/657
f 404/391/658 405/401/658 386/406/658
f 404/391/659 394/390/659 405/401/659
f 394/390/660 381/383/660 405/401/660
f 402/388/585 403/405/585 390/418/585
f 402/388/586 395/384/586 403/405/586
f 395/384/661 385/398/661 403/405/661
f 396/387/662 401/399/662 385/398/662
f 396/387/663 399/386/663 401/399/663
f 399/386/664 384/395/664 401/399/664
f 399/386/665 400/396/665 384/395/665
f 399/386/666 397/385/666 400/396/666
f 397/385/667 383/392/667 400/396/667
f 397/385/668 398/393/668 383/392/668
f 397/385/669 392/382/669 398/393/669
f 392/382/670 382/389/670 398/393/670
f 395/384/671 396/387/671 385/398/671
f 395/384/598 393/381/598 396/387/598
f 393/381/599 380/380/599 396/387/599
f 392/382/672 394/390/672 382/389/672
f 392/382/673 393/381/673 394/390/673
f 393/381/674 381/383/674 394/390/674
f 422/422/675 435/423/675 434/424/675
f 423/425/676 435/423/676 437/426/676
f 422/422/677 434/424/677 439/427/677
f 422/422/678 439/427/678 441/428/678
f 422/422/679 441/428/679 438/429/679
f 423/425/680 437/426/680 444/430/680
f 424/431/681 436/432/681 446/433/681
f 425/434/682 440/435/682 448/436/682
f 426/437/683 442/438/683 450/439/683
f 427/440/684 443/441/684 452/442/684
f 423/425/685 444/430/685 447/443/685
f 424/431/686 446/433/686 449/444/686
f 425/434/687 448/436/687 451/445/687
f 426/437/688 450/439/688 453/446/688
f 427/440/689 452/442/689 445/447/689
f 428/448/690 454/449/690 459/450/690
f 429/451/691 455/452/691 461/453/691
f 430/454/692 456/455/692 462/456/692
f 431/457/693 457/458/693 463/459/693
f 432/460/694 458/461/694 460/462/694
f 460/462/695 463/459/695 433/463/695
f 460/462/696 458/461/696 463/459/696
f 458/461/697 431/457/697 463/459/697
f 463/459/698 462/456/698 433/463/698
f 463/459/699 457/458/699 462/456/699
f 457/458/700 430/454/700 462/456/700
f 462/456/701 461/453/701 433/463/701
f 462/456/702 456/455/702 461/453/702
f 456/455/703 429/451/703 461/453/703
f 461/453/704 459/450/704 433/463/704
f 461/453/705 455/452/705 459/450/705
f 455/452/706 428/448/706 459/450/706
f 459/450/707 460/462/707 433/463/707
f 459/450/708 454/449/708 460/462/708
f 454/449/709 432/460/709 460/462/709
f 445/447/710 458/461/710 432/460/710
f 445/447/711 452/442/711 458/461/711
f 452/442/712 431/457/712 458/461/712
f 453/446/713 457/458/713 431/457/713
f 453/446/714 450/439/714 457/458/714
f 450/439/715 430/454/715 457/458/715
f 451/445/716 456/455/716 430/454/716
f 451/445/717 448/436/717 456/455/717
f 448/436/718 429/451/718 456/455/718
f 449/444/719 455/452/719 429/451/719
f 449/444/720 446/433/720 455/452/720
f 446/433/721 428/448/721 455/452/721
f 447/443/722 454/449/722 428/448/722
f 447/443/723 444/430/723 454/449/723
f 444/430/724 432/460/724 454/449/724
f 452/442/725 453/446/725 431/457/725
f 452/442/726 443/441/726 453/446/726
f 443/441/727 426/437/727 453/446/727
f 450/439/728 451/445/728 430/454/728
f 450/439/729 442/438/729 451/445/729
f 442/438/730 425/434/730 451/445/730
f 448/436/731 449/444/731 429/451/731
f 448/436/732 440/435/732 449/444/732
f 440/435/733 424/431/733 449/444/733
f 446/433/734 447/443/734 428/448/734
f 446/433/735 436/432/735 447/443/735
f 436/432/736 423/425/736 447/443/736
f 444/430/737 445/447/737 432/460/737
f 444/430/738 437/426/738 445/447/738
f 437/426/739 427/440/739 445/447/739
f 438/429/740 443/441/740 427/440/740
f 438/429/741 441/428/741 443/441/741
f 441/428/742 426/437/742 443/441/742
f 441/428/743 442/438/743 426/437/743
f 441/428/744 439/427/744 442/438/744
f 439/427/745 425/434/745 442/438/745
f 439/427/746 440/435/746 425/434/746
f 439/427/747 434/424/747 440/435/747
f 434/424/748 424/431/748 440/435/748
f 437/426/749 438/429/749 427/440/749
f 437/426/750 435/423/750 438/429/750
f 435/423/751 422/422/751 438/429/751
f 434/424/752 436/432/752 424/431/752
f 434/424/753 435/423/753 436/432/753
f 435/423/754 423/425/754 436/432/754
f 464/464/755 477/465/755 476/466/755
f 465/467/756 477/465/756 479/468/756
f 464/464/757 476/466/757 481/469/757
f 464/464/758 481/469/758 483/470/758
f 464/464/759 483/470/759 480/471/759
f 465/467/760 479/468/760 486/472/760
f 466/473/761 478/474/761 488/475/761
f 467/476/762 482/477/762 490/478/762
f 468/479/763 484/480/763 492/481/763
f 469/482/764 485/483/764 494/484/764
f 465/467/765 486/472/765 489/485/765
f 466/473/766 488/475/766 491/486/766
f 467/476/767 490/478/767 493/487/767
f 468/479/768 492/481/768 495/488/768
f 469/482/769 494/484/769 487/489/769
f 470/490/770 496/491/770 501/492/770
f 471/493/771 497/494/771 503/495/771
f 472/496/772 498/497/772 504/498/772
f 473/499/773 499/500/773 505/501/773
f 474/502/774 500/503/774 502/504/774
f 502/504/775 505/501/775 475/505/775
f 502/504/776 500/503/776 505/501/776
f 500/503/777 473/499/777 505/501/777
f 505/501/778 504/498/778 475/505/778
f 505/501/779 499/500/779 504/498/779
f 499/500/780 472/496/780 504/498/780
f 504/498/781 503/495/781 475/505/781
f 504/498/782 498/497/782 503/495/782
f 498/497/783 471/493/783 503/495/783
f 503/495/784 501/492/784 475/505/784
f 503/495/785 497/494/785 501/492/785
f 497/494/786 470/490/786 501/492/786
f 501/492/787 502/504/787 475/505/787
f 501/492/788 496/491/788 502/504/788
f 496/491/789 474/502/789 502/504/789
f 487/489/790 500/503/790 474/502/790
f 487/489/791 494/484/791 500/503/791
f 494/484/792 473/499/792 500/503/792
f 495/488/793 499/500/793 473/499/793
f 495/488/794 492/481/794 499/500/794
f 492/481/795 472/496/795 499/500/795
f 493/487/796 498/497/796 472/496/796
f 493/487/797 490/478/797 498/497/797
f 490/478/798 471/493/798 498/497/798
f 491/486/799 497/494/799 471/493/799
f 491/486/800 488/475/800 497/494/800
f 488/475/801 470/490/801 497/494/801
f 489/485/802 496/491/802 470/490/802
f 489/485/803 486/472/803 496/491/803
f 486/472/804 474/502/804 496/491/804
f 494/484/805 495/488/805 473/499/805
f 494/484/806 485/483/806 495/488/806
f 485/483/807 468/479/807 495/488/807
f 492/481/808 493/487/808 472/496/808
f 492/481/809 484/480/809 493/487/809
f 484/480/810 467/476/810 493/487/810
f 490/478/811 491/486/811 471/493/811
f 490/478/812 482/477/812 491/486/812
f 482/477/813 466/473/813 491/486/813
f 488/475/814 489/485/814 470/490/814
f 488/475/815 478/474/815 489/485/815
f 478/474/816 465/467/816 489/485/816
f 486/472/817 487/489/817 474/502/817
f 486/472/818 479/468/818 487/489/818
f 479/468/819 469/482/819 487/489/819
f 480/471/820 485/483/820 469/482/820
f 480/471/821 483/470/821 485/483/821
f 483/470/822 468/479/822 485/483/822
f 483/470/823 484/480/823 468/479/823
f 483/470/824 481/469/824 484/480/824
f 481/469/825 467/476/825 484/480/825
f 481/469/826 482/477/826 467/476/826
f 481/469/827 476/466/827 482/477/827
f 476/466/828 466/473/828 482/477/828
f 479/468/829 480/471/829 469/482/829
f 479/468/830 477/465/830 480/471/830
f 477/465/831 464/464/831 480/471/831
f 476/466/832 478/474/832 466/473/832
f 476/466/833 477/465/833 478/474/833
f 477/465/834 465/467/834 478/474/834
