# Blender 4.3.2
# www.blender.org
mtllib BirdAnimationOndrej0013.mtl
o Cube
v -0.284552 1.410269 0.049498
v -0.289446 1.436365 0.430458
v -0.292059 -1.172666 0.221303
v -0.304960 -1.301173 0.724692
v 0.246683 1.406184 0.069504
v 0.229036 1.430094 0.454394
v 0.304266 -1.178185 0.255359
v 0.253811 -1.306483 0.757689
v -0.026016 1.557854 0.488069
v 0.356430 -1.528766 0.606800
v -0.386679 -1.520846 0.559665
v 0.305748 1.540344 0.268176
v -0.353048 1.545211 0.243764
v -0.000173 1.532415 0.021812
v -0.000072 1.858602 0.260867
v 0.378513 0.890238 0.727345
v 0.395684 -0.650105 0.781101
v -0.490810 0.904090 0.687793
v -0.422679 -0.649056 0.758805
v 0.405115 0.788162 0.007715
v 0.446088 -0.698560 0.021803
v -0.423948 0.788188 -0.014594
v -0.426896 -0.697293 0.004687
v -0.655408 0.848247 0.385383
v -0.620498 -0.468866 0.390570
v 0.605200 0.839206 0.401939
v 0.620246 -0.469313 0.410726
v -0.382664 0.068494 0.011037
v -0.519187 0.241854 0.569678
v -0.532017 0.193928 0.815417
v -0.934003 -2.385253 0.261700
v 0.406377 0.067935 0.012482
v -1.632596 -0.039367 -1.723108
v -1.977022 -1.306828 -1.751155
v 0.518283 0.247168 0.544186
v 0.445160 0.198173 0.834733
v -1.768173 -0.566913 -1.757163
v -1.269898 0.252286 -0.059265
v -1.333609 0.986324 -0.069893
v 0.920042 -2.406151 0.382734
v -1.258025 -0.295032 0.067715
v -1.482593 0.611347 -0.903145
v -1.601660 -0.441454 -0.739476
v -1.479273 0.051045 -0.936130
v 1.718747 -0.038751 -1.648961
v 2.057531 -1.307041 -1.666254
v 1.855659 -0.566300 -1.677110
v 1.274894 0.264466 0.001648
v 1.379355 0.991998 0.010267
v 1.276000 -0.293272 0.130967
v 1.547555 0.614284 -0.822560
v 1.639590 -0.441670 -0.670753
v 1.518398 0.053909 -0.821209
v -1.533327 0.064349 -0.927030
v -0.001181 -1.443018 0.406094
v -0.025924 -1.425050 0.714068
v -0.019023 -1.689998 0.608550
v 0.010089 -1.008327 0.043468
v -0.003997 0.709433 -0.176041
v -0.033524 0.867872 0.801627
v -0.016936 -0.632241 0.912852
v -0.063843 0.169074 0.906029
v 0.009534 0.037568 -0.167744
v -0.018782 -3.101633 0.364741
vn -0.5252 0.3975 -0.7524
vn -0.5366 0.5296 0.6569
vn -0.3585 -0.5535 -0.7517
vn -0.4396 -0.2952 0.8483
vn 0.5837 0.3873 -0.7137
vn 0.5057 0.5181 0.6898
vn 0.4317 -0.5635 -0.7044
vn 0.3233 -0.2927 0.8999
vn -0.0261 0.5641 0.8253
vn 0.6230 -0.6543 -0.4286
vn -0.5713 -0.6510 -0.4998
vn 0.7841 0.6206 -0.0005
vn -0.7597 0.6476 -0.0593
vn 0.0531 0.4926 -0.8686
vn 0.0407 0.9992 -0.0016
vn 0.5369 0.3127 0.7836
vn 0.6253 -0.0922 0.7749
vn -0.6176 0.3125 0.7218
vn -0.6629 -0.1160 0.7397
vn 0.7106 0.0822 -0.6988
vn 0.6320 -0.2349 -0.7385
vn -0.6816 0.0341 -0.7309
vn -0.5981 -0.2183 -0.7711
vn -0.8843 0.0812 -0.4598
vn -0.9444 -0.0167 -0.3283
vn 0.9194 0.1373 -0.3686
vn 0.9654 -0.0292 -0.2590
vn -0.7390 0.0339 -0.6728
vn -0.8673 0.0313 -0.4968
vn -0.7476 0.0631 0.6611
vn 0.2328 0.1712 -0.9573
vn 0.7515 0.0456 -0.6582
vn 0.9696 -0.1775 -0.1685
vn 0.9548 -0.2705 -0.1229
vn 0.9263 0.0477 -0.3736
vn 0.6407 0.0700 0.7646
vn 0.9555 -0.2637 -0.1324
vn 0.8392 -0.0632 -0.5401
vn 0.8147 0.0624 -0.5766
vn -0.1026 0.1742 -0.9793
vn 0.7595 -0.0532 -0.6483
vn 0.9756 0.0363 -0.2167
vn 0.9514 -0.2534 -0.1747
vn 0.9741 -0.1390 -0.1784
vn -0.9620 -0.1697 -0.2139
vn -0.9499 -0.2614 -0.1716
vn -0.9493 -0.2576 -0.1799
vn -0.8002 -0.0524 -0.5975
vn -0.7626 0.1170 -0.6362
vn -0.7251 -0.0813 -0.6838
vn -0.9607 0.0748 -0.2672
vn -0.9432 -0.2523 -0.2161
vn -0.9655 -0.1236 -0.2292
vn 0.0421 -0.6551 -0.7543
vn -0.0621 -0.3678 0.9278
vn 0.0539 -0.4332 -0.8997
vn 0.0292 -0.4508 -0.8922
vn 0.0195 0.0743 -0.9970
vn -0.0249 0.3086 0.9509
vn -0.0222 -0.0669 0.9975
vn -0.0319 0.0425 0.9986
vn 0.0051 -0.0343 -0.9994
vn 0.0662 0.1698 -0.9832
vt 0.700998 0.694997
vt 0.670437 0.545092
vt 0.621369 0.696438
vt 0.596471 0.578742
vt 0.541111 0.718945
vt 0.138103 0.398168
vt 0.174242 0.485498
vt 0.141975 0.497302
vt 0.107983 0.069452
vt 0.182907 0.197303
vt 0.129397 0.224081
vt 0.266355 0.190592
vt 0.352815 0.085994
vt 0.336442 0.195691
vt 0.429904 0.482460
vt 0.397402 0.392113
vt 0.443947 0.409050
vt 0.187795 0.044971
vt 0.138934 0.000171
vt 0.029842 0.060616
vt 0.071695 0.093735
vt 0.109596 0.492315
vt 0.088287 0.419477
vt 0.252567 0.185666
vt 0.154320 0.089942
vt 0.256922 0.409277
vt 0.199316 0.524593
vt 0.332726 0.306368
vt 0.392947 0.217683
vt 0.396959 0.314734
vt 0.066944 0.205988
vt 0.671843 0.984949
vt 0.719603 0.831796
vt 0.635445 0.834117
vt 0.582411 0.999829
vt 0.347575 0.403624
vt 0.400194 0.490316
vt 0.344346 0.521423
vt 0.367501 0.480626
vt 0.281259 0.411059
vt 0.397994 0.314878
vt 0.455542 0.312752
vt 0.088496 0.533105
vt 0.144340 0.569183
vt 0.394674 0.059371
vt 0.526466 0.850433
vt 0.195602 0.307039
vt 0.133577 0.321124
vt 0.072563 0.325020
vt 0.264425 0.306045
vt 0.506972 0.417769
vt 0.435776 0.078231
vt 0.522325 0.182320
vt 0.454382 0.192081
vt 0.453767 0.523114
vt 0.315671 0.623505
vt 0.490372 0.575963
vt 0.329526 0.564775
vt 0.189868 0.406845
vt 0.134879 0.320995
vt 0.526123 0.309994
vt 0.680022 0.199832
vt 0.706638 0.075165
vt 0.632603 0.041659
vt 0.602287 0.191619
vt 0.630764 0.487654
vt 0.583604 0.328340
vt 0.526466 0.470722
vt 0.717963 0.503084
vt 0.669158 0.332480
vt 0.761904 0.215417
vt 0.000171 0.329918
vt 0.022178 0.436299
vt 0.264082 0.301679
vt 0.326316 0.804247
vt 0.264425 0.655364
vt 0.315859 0.046880
vt 0.356403 0.000171
vt 0.000171 0.204454
vt 0.475026 0.037472
vt 0.442065 0.000171
vt 0.776497 0.503426
vt 0.055669 0.023589
vt 0.776497 0.974365
vt 0.400695 0.564433
vt 0.490372 0.749054
vt 0.526466 0.000171
vt 0.776791 0.346878
s 1
usemtl Bird
f 43/1/43 37/2/37 44/3/44
f 44/3/44 33/4/33 42/5/42
f 26/6/26 5/7/5 12/8/12
f 10/9/10 21/10/21 27/11/27
f 58/12/57 3/13/3 23/14/23
f 2/15/2 24/16/24 18/17/18
f 55/18/54 10/9/10 57/19/56
f 56/20/55 10/9/10 8/21/8
f 26/6/26 6/22/6 16/23/16
f 58/24/57 7/25/7 55/18/54
f 5/7/5 59/26/58 14/27/14
f 28/28/28 25/29/25 29/30/29
f 10/9/10 17/31/17 8/21/8
f 29/32/29 41/33/41 38/34/38
f 38/34/38 24/35/24 29/32/29
f 22/36/22 29/30/29 24/16/24
f 13/37/13 14/38/14 1/39/1
f 59/40/58 1/39/1 14/38/14
f 18/17/18 29/41/29 30/42/30
f 12/8/12 9/43/9 6/22/6
f 12/8/12 14/27/14 15/44/15
f 11/45/11 23/14/23 3/13/3
f 24/16/24 1/39/1 22/36/22
f 38/34/38 42/5/42 39/46/39
f 32/47/32 27/11/27 21/10/21
f 35/48/35 16/23/16 36/49/36
f 23/14/23 63/50/62 58/12/57
f 30/42/30 60/51/59 18/17/18
f 4/52/4 61/53/60 19/54/19
f 30/42/30 25/29/25 19/54/19
f 2/15/2 60/51/59 9/55/9
f 57/56/56 31/57/31 11/58/11
f 28/28/28 59/40/58 63/50/62
f 27/11/27 36/49/36 17/31/17
f 20/59/20 35/60/35 32/47/32
f 19/54/19 62/61/61 30/42/30
f 38/34/38 43/1/43 44/3/44
f 53/62/53 45/63/45 47/64/47
f 47/64/47 52/65/52 53/62/53
f 35/66/35 50/67/50 27/68/27
f 26/69/26 48/70/48 35/66/35
f 48/70/48 52/65/52 50/67/50
f 48/70/48 51/71/51 53/62/53
f 62/72/61 17/31/17 36/49/36
f 60/73/59 36/49/36 16/23/16
f 32/47/32 59/26/58 20/59/20
f 21/10/21 63/74/62 32/47/32
f 40/75/40 57/56/56 10/76/10
f 9/55/9 13/37/13 2/15/2
f 11/45/11 55/77/54 57/78/56
f 61/79/60 8/21/8 17/31/17
f 56/80/55 11/45/11 57/81/56
f 19/54/19 11/45/11 4/52/4
f 6/22/6 60/73/59 16/23/16
f 43/1/43 34/82/34 37/2/37
f 44/3/44 37/2/37 33/4/33
f 26/6/26 20/59/20 5/7/5
f 10/9/10 7/25/7 21/10/21
f 58/12/57 55/77/54 3/13/3
f 2/15/2 13/37/13 24/16/24
f 55/18/54 7/25/7 10/9/10
f 56/20/55 57/83/56 10/9/10
f 26/6/26 12/8/12 6/22/6
f 58/24/57 21/10/21 7/25/7
f 5/7/5 20/59/20 59/26/58
f 28/28/28 23/14/23 25/29/25
f 10/9/10 27/11/27 17/31/17
f 29/32/29 25/84/25 41/33/41
f 38/34/38 39/46/39 24/35/24
f 22/36/22 28/28/28 29/30/29
f 13/37/13 15/85/15 14/38/14
f 59/40/58 22/36/22 1/39/1
f 18/17/18 24/16/24 29/41/29
f 12/8/12 15/44/15 9/43/9
f 12/8/12 5/7/5 14/27/14
f 11/45/11 25/29/25 23/14/23
f 24/16/24 13/37/13 1/39/1
f 38/34/38 44/3/44 42/5/42
f 32/47/32 35/60/35 27/11/27
f 35/48/35 26/6/26 16/23/16
f 23/14/23 28/28/28 63/50/62
f 30/42/30 62/61/61 60/51/59
f 4/52/4 56/80/55 61/53/60
f 30/42/30 29/41/29 25/29/25
f 2/15/2 18/17/18 60/51/59
f 57/56/56 64/86/63 31/57/31
f 28/28/28 22/36/22 59/40/58
f 27/11/27 35/48/35 36/49/36
f 20/59/20 26/6/26 35/60/35
f 19/54/19 61/53/60 62/61/61
f 38/34/38 41/33/41 43/1/43
f 53/62/53 51/71/51 45/63/45
f 47/64/47 46/87/46 52/65/52
f 35/66/35 48/70/48 50/67/50
f 26/69/26 49/88/49 48/70/48
f 48/70/48 53/62/53 52/65/52
f 48/70/48 49/88/49 51/71/51
f 62/72/61 61/79/60 17/31/17
f 60/73/59 62/72/61 36/49/36
f 32/47/32 63/74/62 59/26/58
f 21/10/21 58/24/57 63/74/62
f 40/75/40 64/86/63 57/56/56
f 9/55/9 15/85/15 13/37/13
f 11/45/11 3/13/3 55/77/54
f 61/79/60 56/20/55 8/21/8
f 56/80/55 4/52/4 11/45/11
f 19/54/19 25/29/25 11/45/11
f 6/22/6 9/43/9 60/73/59
l 44 54
