# Blender 4.3.2
# www.blender.org
mtllib BirdAnimationOndrej0015.mtl
o Cube
v -0.284552 1.410269 0.008190
v -0.289446 1.436365 0.389150
v -0.292059 -1.173166 0.172747
v -0.304963 -1.292791 0.678334
v 0.246683 1.406184 0.028195
v 0.229036 1.430094 0.413086
v 0.304266 -1.177994 0.206942
v 0.253808 -1.297435 0.711453
v -0.026016 1.557854 0.446761
v 0.356428 -1.521896 0.564203
v -0.386681 -1.514970 0.516892
v 0.305748 1.540344 0.226867
v -0.353048 1.545211 0.202455
v -0.000173 1.532415 -0.019496
v -0.000072 1.858602 0.219559
v 0.371373 0.891032 0.683246
v 0.395684 -0.648383 0.737744
v -0.477436 0.905548 0.642520
v -0.422679 -0.647471 0.715425
v 0.407084 0.787347 -0.040712
v 0.446091 -0.698682 -0.021571
v -0.428797 0.786442 -0.069249
v -0.427648 -0.697785 -0.040376
v -0.654371 0.847911 0.340178
v -0.616843 -0.468323 0.348077
v 0.601461 0.839203 0.353624
v 0.617878 -0.468859 0.368616
v -0.392459 0.065282 -0.053398
v -0.501789 0.242997 0.514064
v -0.485802 0.200017 0.773156
v -0.934003 -2.385401 0.236772
v 0.412173 0.066078 -0.042614
v -1.531538 0.035996 -1.440448
v -1.840279 -1.238651 -1.545919
v 0.504723 0.247912 0.487485
v 0.419620 0.201578 0.790928
v -1.639918 -0.493126 -1.518737
v -1.453317 0.256935 0.252873
v -1.490646 0.992304 0.193626
v 0.920041 -2.403684 0.358232
v -1.413044 -0.291210 0.333404
v -1.585959 0.650337 -0.515624
v -1.675498 -0.412106 -0.439543
v -1.512479 0.093124 -0.635844
v 1.420975 0.051726 -1.466549
v 1.700323 -1.224017 -1.612411
v 1.521108 -0.477246 -1.556036
v 1.417038 0.264995 0.231962
v 1.498619 0.993404 0.196431
v 1.396081 -0.293554 0.320148
v 1.544071 0.656394 -0.522262
v 1.599196 -0.409374 -0.487154
v 1.441534 0.099271 -0.611437
v -1.567752 0.104355 -0.635237
v -0.001182 -1.440177 0.361758
v -0.025928 -1.416030 0.669400
v -0.019026 -1.682843 0.569187
v 0.010090 -1.008466 0.001291
v -0.003997 0.709433 -0.217350
v -0.033524 0.867872 0.760318
v -0.016937 -0.630550 0.869836
v -0.049783 0.171020 0.855805
v 0.009534 0.037568 -0.209053
v -0.018784 -3.099260 0.356035
vn -0.5235 0.4015 -0.7515
vn -0.5389 0.5266 0.6574
vn -0.3634 -0.5554 -0.7480
vn -0.4349 -0.2932 0.8514
vn 0.5831 0.3891 -0.7132
vn 0.5095 0.5149 0.6894
vn 0.4399 -0.5639 -0.6989
vn 0.3181 -0.2903 0.9025
vn -0.0261 0.5641 0.8253
vn 0.6209 -0.6635 -0.4173
vn -0.5696 -0.6607 -0.4890
vn 0.7852 0.6192 0.0005
vn -0.7600 0.6473 -0.0588
vn 0.0531 0.4926 -0.8686
vn 0.0407 0.9992 -0.0016
vn 0.5428 0.3030 0.7833
vn 0.6277 -0.0867 0.7736
vn -0.6143 0.2989 0.7303
vn -0.6673 -0.1040 0.7375
vn 0.7100 0.0881 -0.6987
vn 0.6322 -0.2379 -0.7374
vn -0.6796 0.0453 -0.7321
vn -0.5978 -0.2244 -0.7696
vn -0.9061 0.0105 -0.4229
vn -0.9568 0.0102 -0.2906
vn 0.9322 0.0772 -0.3537
vn 0.9699 -0.0105 -0.2433
vn -0.7330 0.0289 -0.6796
vn -0.9012 0.0088 -0.4334
vn -0.7098 0.0565 0.7022
vn 0.2334 0.1506 -0.9607
vn 0.7492 0.0434 -0.6609
vn 0.9921 -0.1247 -0.0146
vn 0.9640 -0.2609 0.0514
vn 0.9312 0.0354 -0.3629
vn 0.6275 0.0694 0.7755
vn 0.9679 -0.2490 0.0352
vn 0.7355 -0.0784 -0.6730
vn 0.6848 -0.0239 -0.7284
vn -0.1031 0.1532 -0.9828
vn 0.6129 0.0197 -0.7899
vn 0.9890 0.1127 -0.0956
vn 0.9697 -0.2427 -0.0291
vn 0.9966 -0.0798 -0.0187
vn -0.9936 -0.1093 0.0300
vn -0.9673 -0.2386 0.0858
vn -0.9702 -0.2317 0.0717
vn -0.7503 -0.0531 -0.6590
vn -0.7046 0.0444 -0.7082
vn -0.6490 -0.0155 -0.7606
vn -0.9852 0.1615 -0.0578
vn -0.9729 -0.2307 0.0154
vn -0.9984 -0.0541 0.0187
vn 0.0423 -0.6660 -0.7448
vn -0.0620 -0.3587 0.9314
vn 0.0538 -0.4526 -0.8901
vn 0.0309 -0.4478 -0.8936
vn 0.0274 0.0832 -0.9962
vn -0.0276 0.3034 0.9525
vn -0.0242 -0.0650 0.9976
vn -0.0289 0.0400 0.9988
vn 0.0149 -0.0427 -0.9990
vn 0.0662 0.1485 -0.9867
vt 0.700998 0.694997
vt 0.670437 0.545092
vt 0.621369 0.696438
vt 0.596471 0.578742
vt 0.541111 0.718945
vt 0.138103 0.398168
vt 0.174242 0.485498
vt 0.141975 0.497302
vt 0.107983 0.069452
vt 0.182907 0.197303
vt 0.129397 0.224081
vt 0.266355 0.190592
vt 0.352815 0.085994
vt 0.336442 0.195691
vt 0.429904 0.482460
vt 0.397402 0.392113
vt 0.443947 0.409050
vt 0.187795 0.044971
vt 0.138934 0.000171
vt 0.029842 0.060616
vt 0.071695 0.093735
vt 0.109596 0.492315
vt 0.088287 0.419477
vt 0.252567 0.185666
vt 0.154320 0.089942
vt 0.256922 0.409277
vt 0.199316 0.524593
vt 0.332726 0.306368
vt 0.392947 0.217683
vt 0.396959 0.314734
vt 0.066944 0.205988
vt 0.671843 0.984949
vt 0.719603 0.831796
vt 0.635445 0.834117
vt 0.582411 0.999829
vt 0.347575 0.403624
vt 0.400194 0.490316
vt 0.344346 0.521423
vt 0.367501 0.480626
vt 0.281259 0.411059
vt 0.397994 0.314878
vt 0.455542 0.312752
vt 0.088496 0.533105
vt 0.144340 0.569183
vt 0.394674 0.059371
vt 0.526466 0.850433
vt 0.195602 0.307039
vt 0.133577 0.321124
vt 0.072563 0.325020
vt 0.264425 0.306045
vt 0.506972 0.417769
vt 0.435776 0.078231
vt 0.522325 0.182320
vt 0.454382 0.192081
vt 0.453767 0.523114
vt 0.315671 0.623505
vt 0.490372 0.575963
vt 0.329526 0.564775
vt 0.189868 0.406845
vt 0.134879 0.320995
vt 0.526123 0.309994
vt 0.680022 0.199832
vt 0.706638 0.075165
vt 0.632603 0.041659
vt 0.602287 0.191619
vt 0.630764 0.487654
vt 0.583604 0.328340
vt 0.526466 0.470722
vt 0.717963 0.503084
vt 0.669158 0.332480
vt 0.761904 0.215417
vt 0.000171 0.329918
vt 0.022178 0.436299
vt 0.264082 0.301679
vt 0.326316 0.804247
vt 0.264425 0.655364
vt 0.315859 0.046880
vt 0.356403 0.000171
vt 0.000171 0.204454
vt 0.475026 0.037472
vt 0.442065 0.000171
vt 0.776497 0.503426
vt 0.055669 0.023589
vt 0.776497 0.974365
vt 0.400695 0.564433
vt 0.490372 0.749054
vt 0.526466 0.000171
vt 0.776791 0.346878
s 1
usemtl Bird
f 43/1/43 37/2/37 44/3/44
f 44/3/44 33/4/33 42/5/42
f 26/6/26 5/7/5 12/8/12
f 10/9/10 21/10/21 27/11/27
f 58/12/57 3/13/3 23/14/23
f 2/15/2 24/16/24 18/17/18
f 55/18/54 10/9/10 57/19/56
f 56/20/55 10/9/10 8/21/8
f 26/6/26 6/22/6 16/23/16
f 58/24/57 7/25/7 55/18/54
f 5/7/5 59/26/58 14/27/14
f 28/28/28 25/29/25 29/30/29
f 10/9/10 17/31/17 8/21/8
f 29/32/29 41/33/41 38/34/38
f 38/34/38 24/35/24 29/32/29
f 22/36/22 29/30/29 24/16/24
f 13/37/13 14/38/14 1/39/1
f 59/40/58 1/39/1 14/38/14
f 18/17/18 29/41/29 30/42/30
f 12/8/12 9/43/9 6/22/6
f 12/8/12 14/27/14 15/44/15
f 11/45/11 23/14/23 3/13/3
f 24/16/24 1/39/1 22/36/22
f 38/34/38 42/5/42 39/46/39
f 32/47/32 27/11/27 21/10/21
f 35/48/35 16/23/16 36/49/36
f 23/14/23 63/50/62 58/12/57
f 30/42/30 60/51/59 18/17/18
f 4/52/4 61/53/60 19/54/19
f 30/42/30 25/29/25 19/54/19
f 2/15/2 60/51/59 9/55/9
f 57/56/56 31/57/31 11/58/11
f 28/28/28 59/40/58 63/50/62
f 27/11/27 36/49/36 17/31/17
f 20/59/20 35/60/35 32/47/32
f 19/54/19 62/61/61 30/42/30
f 38/34/38 43/1/43 44/3/44
f 53/62/53 45/63/45 47/64/47
f 47/64/47 52/65/52 53/62/53
f 35/66/35 50/67/50 27/68/27
f 26/69/26 48/70/48 35/66/35
f 48/70/48 52/65/52 50/67/50
f 48/70/48 51/71/51 53/62/53
f 62/72/61 17/31/17 36/49/36
f 60/73/59 36/49/36 16/23/16
f 32/47/32 59/26/58 20/59/20
f 21/10/21 63/74/62 32/47/32
f 40/75/40 57/56/56 10/76/10
f 9/55/9 13/37/13 2/15/2
f 11/45/11 55/77/54 57/78/56
f 61/79/60 8/21/8 17/31/17
f 56/80/55 11/45/11 57/81/56
f 19/54/19 11/45/11 4/52/4
f 6/22/6 60/73/59 16/23/16
f 43/1/43 34/82/34 37/2/37
f 44/3/44 37/2/37 33/4/33
f 26/6/26 20/59/20 5/7/5
f 10/9/10 7/25/7 21/10/21
f 58/12/57 55/77/54 3/13/3
f 2/15/2 13/37/13 24/16/24
f 55/18/54 7/25/7 10/9/10
f 56/20/55 57/83/56 10/9/10
f 26/6/26 12/8/12 6/22/6
f 58/24/57 21/10/21 7/25/7
f 5/7/5 20/59/20 59/26/58
f 28/28/28 23/14/23 25/29/25
f 10/9/10 27/11/27 17/31/17
f 29/32/29 25/84/25 41/33/41
f 38/34/38 39/46/39 24/35/24
f 22/36/22 28/28/28 29/30/29
f 13/37/13 15/85/15 14/38/14
f 59/40/58 22/36/22 1/39/1
f 18/17/18 24/16/24 29/41/29
f 12/8/12 15/44/15 9/43/9
f 12/8/12 5/7/5 14/27/14
f 11/45/11 25/29/25 23/14/23
f 24/16/24 13/37/13 1/39/1
f 38/34/38 44/3/44 42/5/42
f 32/47/32 35/60/35 27/11/27
f 35/48/35 26/6/26 16/23/16
f 23/14/23 28/28/28 63/50/62
f 30/42/30 62/61/61 60/51/59
f 4/52/4 56/80/55 61/53/60
f 30/42/30 29/41/29 25/29/25
f 2/15/2 18/17/18 60/51/59
f 57/56/56 64/86/63 31/57/31
f 28/28/28 22/36/22 59/40/58
f 27/11/27 35/48/35 36/49/36
f 20/59/20 26/6/26 35/60/35
f 19/54/19 61/53/60 62/61/61
f 38/34/38 41/33/41 43/1/43
f 53/62/53 51/71/51 45/63/45
f 47/64/47 46/87/46 52/65/52
f 35/66/35 48/70/48 50/67/50
f 26/69/26 49/88/49 48/70/48
f 48/70/48 53/62/53 52/65/52
f 48/70/48 49/88/49 51/71/51
f 62/72/61 61/79/60 17/31/17
f 60/73/59 62/72/61 36/49/36
f 32/47/32 63/74/62 59/26/58
f 21/10/21 58/24/57 63/74/62
f 40/75/40 64/86/63 57/56/56
f 9/55/9 15/85/15 13/37/13
f 11/45/11 3/13/3 55/77/54
f 61/79/60 56/20/55 8/21/8
f 56/80/55 4/52/4 11/45/11
f 19/54/19 25/29/25 11/45/11
f 6/22/6 9/43/9 60/73/59
l 44 54
