# Blender 4.3.2
# www.blender.org
mtllib BirdCoastEndOndrej0001.mtl
o Cube
v -0.284552 1.410269 -0.091412
v -0.289446 1.436365 0.289548
v -0.292059 -1.174566 0.059336
v -0.304960 -1.277089 0.568577
v 0.246683 1.406184 -0.071406
v 0.229036 1.430094 0.313485
v 0.304266 -1.178063 0.093743
v 0.253812 -1.280452 0.601880
v -0.026016 1.557854 0.347159
v 0.356431 -1.508851 0.461712
v -0.386679 -1.503835 0.414143
v 0.305748 1.540344 0.127266
v -0.353048 1.545211 0.102854
v -0.000173 1.532415 -0.119097
v -0.000072 1.858602 0.119958
v 0.359219 0.890764 0.568105
v 0.395684 -0.645220 0.634124
v -0.460168 0.905390 0.524035
v -0.422679 -0.644569 0.611771
v 0.419071 0.783519 -0.152721
v 0.446112 -0.699043 -0.125104
v -0.446016 0.781210 -0.184094
v -0.430686 -0.699086 -0.145125
v -0.642428 0.844920 0.222855
v -0.616718 -0.468161 0.247288
v 0.599176 0.836386 0.232351
v 0.617272 -0.468545 0.267859
v -0.427867 0.056005 -0.174980
v -0.492243 0.239377 0.381688
v -0.422260 0.203902 0.632313
v -0.934004 -2.384677 0.168494
v 0.442187 0.058268 -0.161245
v -2.946071 0.462475 0.047350
v -3.393018 -0.769543 0.141036
v 0.498095 0.242231 0.341899
v 0.371425 0.204208 0.654725
v -3.148108 -0.044429 0.055975
v -1.404148 0.367584 0.801916
v -1.451890 1.082737 0.601965
v 0.920041 -2.397941 0.290566
v -1.362733 -0.195933 0.807601
v -2.128341 0.905257 0.488619
v -2.232730 -0.154981 0.594181
v -2.233704 0.372784 0.415458
v 2.945887 0.461995 0.163126
v 3.390647 -0.769284 0.261741
v 3.147327 -0.044921 0.180548
v 1.367832 0.379030 0.849610
v 1.457542 1.083208 0.644418
v 1.342335 -0.195905 0.848617
v 2.116656 0.904708 0.576443
v 2.213269 -0.153876 0.671646
v 2.174787 0.364462 0.523392
v -2.258004 0.383317 0.465260
v -0.001181 -1.434934 0.256200
v -0.025924 -1.399005 0.562827
v -0.019023 -1.669054 0.472863
v 0.010090 -1.008785 -0.099959
v -0.003997 0.709433 -0.316951
v -0.033524 0.867872 0.660717
v -0.016936 -0.627424 0.766868
v -0.036613 0.169597 0.724686
v 0.009534 0.037568 -0.308654
v -0.018784 -3.092724 0.318572
vn -0.5222 0.4071 -0.7494
vn -0.5504 0.5155 0.6567
vn -0.3706 -0.5586 -0.7420
vn -0.4246 -0.2898 0.8578
vn 0.5786 0.3950 -0.7136
vn 0.5180 0.5063 0.6895
vn 0.4525 -0.5649 -0.6900
vn 0.3069 -0.2862 0.9077
vn -0.0261 0.5641 0.8253
vn 0.6165 -0.6812 -0.3949
vn -0.5656 -0.6798 -0.4669
vn 0.7861 0.6181 0.0035
vn -0.7638 0.6430 -0.0562
vn 0.0531 0.4926 -0.8686
vn 0.0407 0.9992 -0.0016
vn 0.5574 0.2721 0.7844
vn 0.6279 -0.0663 0.7754
vn -0.6260 0.2674 0.7326
vn -0.6680 -0.0777 0.7401
vn 0.7038 0.1061 -0.7024
vn 0.6283 -0.2483 -0.7373
vn -0.6822 0.0683 -0.7279
vn -0.5947 -0.2364 -0.7684
vn -0.9650 -0.0348 -0.2600
vn -0.9872 0.0145 -0.1586
vn 0.9769 0.0119 -0.2132
vn 0.9931 -0.0025 -0.1170
vn -0.7329 0.0211 -0.6800
vn -0.9695 -0.0075 -0.2448
vn -0.6626 0.0476 0.7475
vn 0.2343 0.1111 -0.9658
vn 0.7480 0.0356 -0.6627
vn 0.4412 -0.1362 -0.8870
vn 0.4666 -0.2569 -0.8463
vn 0.9792 0.0261 -0.2014
vn 0.6016 0.0654 0.7961
vn 0.4565 -0.2428 -0.8559
vn -0.0720 -0.1562 -0.9851
vn -0.1252 -0.2749 -0.9533
vn -0.1042 0.1129 -0.9881
vn -0.1735 0.0453 -0.9838
vn 0.3804 -0.0487 -0.9236
vn 0.4108 -0.2368 -0.8804
vn 0.4427 -0.1257 -0.8878
vn -0.4055 -0.1338 -0.9042
vn -0.4293 -0.2418 -0.8702
vn -0.4190 -0.2329 -0.8776
vn 0.1366 -0.1471 -0.9796
vn 0.1509 -0.2942 -0.9437
vn 0.2290 0.0380 -0.9727
vn -0.3360 -0.0428 -0.9409
vn -0.3732 -0.2275 -0.8995
vn -0.4012 -0.1179 -0.9083
vn 0.0428 -0.6862 -0.7262
vn -0.0618 -0.3413 0.9379
vn 0.0538 -0.4892 -0.8705
vn 0.0333 -0.4414 -0.8967
vn 0.0312 0.0960 -0.9949
vn -0.0331 0.2744 0.9610
vn -0.0260 -0.0525 0.9983
vn -0.0338 0.0428 0.9985
vn 0.0188 -0.0545 -0.9983
vn 0.0662 0.1075 -0.9920
vt 0.700998 0.694997
vt 0.670437 0.545092
vt 0.621369 0.696438
vt 0.596471 0.578742
vt 0.541111 0.718945
vt 0.138103 0.398168
vt 0.174242 0.485498
vt 0.141975 0.497302
vt 0.107983 0.069452
vt 0.182907 0.197303
vt 0.129397 0.224081
vt 0.266355 0.190592
vt 0.352815 0.085994
vt 0.336442 0.195691
vt 0.429904 0.482460
vt 0.397402 0.392113
vt 0.443947 0.409050
vt 0.187795 0.044971
vt 0.138934 0.000171
vt 0.029842 0.060616
vt 0.071695 0.093735
vt 0.109596 0.492315
vt 0.088287 0.419477
vt 0.252567 0.185666
vt 0.154320 0.089942
vt 0.256922 0.409277
vt 0.199316 0.524593
vt 0.332726 0.306368
vt 0.392947 0.217683
vt 0.396959 0.314734
vt 0.066944 0.205988
vt 0.671843 0.984949
vt 0.719603 0.831796
vt 0.635445 0.834117
vt 0.582411 0.999829
vt 0.347575 0.403624
vt 0.400194 0.490316
vt 0.344346 0.521423
vt 0.367501 0.480626
vt 0.281259 0.411059
vt 0.397994 0.314878
vt 0.455542 0.312752
vt 0.088496 0.533105
vt 0.144340 0.569183
vt 0.394674 0.059371
vt 0.526466 0.850433
vt 0.195602 0.307039
vt 0.133577 0.321124
vt 0.072563 0.325020
vt 0.264425 0.306045
vt 0.506972 0.417769
vt 0.435776 0.078231
vt 0.522325 0.182320
vt 0.454382 0.192081
vt 0.453767 0.523114
vt 0.315671 0.623505
vt 0.490372 0.575963
vt 0.329526 0.564775
vt 0.189868 0.406845
vt 0.134879 0.320995
vt 0.526123 0.309994
vt 0.680022 0.199832
vt 0.706638 0.075165
vt 0.632603 0.041659
vt 0.602287 0.191619
vt 0.630764 0.487654
vt 0.583604 0.328340
vt 0.526466 0.470722
vt 0.717963 0.503084
vt 0.669158 0.332480
vt 0.761904 0.215417
vt 0.000171 0.329918
vt 0.022178 0.436299
vt 0.264082 0.301679
vt 0.326316 0.804247
vt 0.264425 0.655364
vt 0.315859 0.046880
vt 0.356403 0.000171
vt 0.000171 0.204454
vt 0.475026 0.037472
vt 0.442065 0.000171
vt 0.776497 0.503426
vt 0.055669 0.023589
vt 0.776497 0.974365
vt 0.400695 0.564433
vt 0.490372 0.749054
vt 0.526466 0.000171
vt 0.776791 0.346878
s 1
usemtl Bird
f 43/1/43 37/2/37 44/3/44
f 44/3/44 33/4/33 42/5/42
f 26/6/26 5/7/5 12/8/12
f 10/9/10 21/10/21 27/11/27
f 58/12/57 3/13/3 23/14/23
f 2/15/2 24/16/24 18/17/18
f 55/18/54 10/9/10 57/19/56
f 56/20/55 10/9/10 8/21/8
f 26/6/26 6/22/6 16/23/16
f 58/24/57 7/25/7 55/18/54
f 5/7/5 59/26/58 14/27/14
f 28/28/28 25/29/25 29/30/29
f 10/9/10 17/31/17 8/21/8
f 29/32/29 41/33/41 38/34/38
f 38/34/38 24/35/24 29/32/29
f 22/36/22 29/30/29 24/16/24
f 13/37/13 14/38/14 1/39/1
f 59/40/58 1/39/1 14/38/14
f 18/17/18 29/41/29 30/42/30
f 12/8/12 9/43/9 6/22/6
f 12/8/12 14/27/14 15/44/15
f 11/45/11 23/14/23 3/13/3
f 24/16/24 1/39/1 22/36/22
f 38/34/38 42/5/42 39/46/39
f 32/47/32 27/11/27 21/10/21
f 35/48/35 16/23/16 36/49/36
f 23/14/23 63/50/62 58/12/57
f 30/42/30 60/51/59 18/17/18
f 4/52/4 61/53/60 19/54/19
f 30/42/30 25/29/25 19/54/19
f 2/15/2 60/51/59 9/55/9
f 57/56/56 31/57/31 11/58/11
f 28/28/28 59/40/58 63/50/62
f 27/11/27 36/49/36 17/31/17
f 20/59/20 35/60/35 32/47/32
f 19/54/19 62/61/61 30/42/30
f 38/34/38 43/1/43 44/3/44
f 53/62/53 45/63/45 47/64/47
f 47/64/47 52/65/52 53/62/53
f 35/66/35 50/67/50 27/68/27
f 26/69/26 48/70/48 35/66/35
f 48/70/48 52/65/52 50/67/50
f 48/70/48 51/71/51 53/62/53
f 62/72/61 17/31/17 36/49/36
f 60/73/59 36/49/36 16/23/16
f 32/47/32 59/26/58 20/59/20
f 21/10/21 63/74/62 32/47/32
f 40/75/40 57/56/56 10/76/10
f 9/55/9 13/37/13 2/15/2
f 11/45/11 55/77/54 57/78/56
f 61/79/60 8/21/8 17/31/17
f 56/80/55 11/45/11 57/81/56
f 19/54/19 11/45/11 4/52/4
f 6/22/6 60/73/59 16/23/16
f 43/1/43 34/82/34 37/2/37
f 44/3/44 37/2/37 33/4/33
f 26/6/26 20/59/20 5/7/5
f 10/9/10 7/25/7 21/10/21
f 58/12/57 55/77/54 3/13/3
f 2/15/2 13/37/13 24/16/24
f 55/18/54 7/25/7 10/9/10
f 56/20/55 57/83/56 10/9/10
f 26/6/26 12/8/12 6/22/6
f 58/24/57 21/10/21 7/25/7
f 5/7/5 20/59/20 59/26/58
f 28/28/28 23/14/23 25/29/25
f 10/9/10 27/11/27 17/31/17
f 29/32/29 25/84/25 41/33/41
f 38/34/38 39/46/39 24/35/24
f 22/36/22 28/28/28 29/30/29
f 13/37/13 15/85/15 14/38/14
f 59/40/58 22/36/22 1/39/1
f 18/17/18 24/16/24 29/41/29
f 12/8/12 15/44/15 9/43/9
f 12/8/12 5/7/5 14/27/14
f 11/45/11 25/29/25 23/14/23
f 24/16/24 13/37/13 1/39/1
f 38/34/38 44/3/44 42/5/42
f 32/47/32 35/60/35 27/11/27
f 35/48/35 26/6/26 16/23/16
f 23/14/23 28/28/28 63/50/62
f 30/42/30 62/61/61 60/51/59
f 4/52/4 56/80/55 61/53/60
f 30/42/30 29/41/29 25/29/25
f 2/15/2 18/17/18 60/51/59
f 57/56/56 64/86/63 31/57/31
f 28/28/28 22/36/22 59/40/58
f 27/11/27 35/48/35 36/49/36
f 20/59/20 26/6/26 35/60/35
f 19/54/19 61/53/60 62/61/61
f 38/34/38 41/33/41 43/1/43
f 53/62/53 51/71/51 45/63/45
f 47/64/47 46/87/46 52/65/52
f 35/66/35 48/70/48 50/67/50
f 26/69/26 49/88/49 48/70/48
f 48/70/48 53/62/53 52/65/52
f 48/70/48 49/88/49 51/71/51
f 62/72/61 61/79/60 17/31/17
f 60/73/59 62/72/61 36/49/36
f 32/47/32 63/74/62 59/26/58
f 21/10/21 58/24/57 63/74/62
f 40/75/40 64/86/63 57/56/56
f 9/55/9 15/85/15 13/37/13
f 11/45/11 3/13/3 55/77/54
f 61/79/60 56/20/55 8/21/8
f 56/80/55 4/52/4 11/45/11
f 19/54/19 25/29/25 11/45/11
f 6/22/6 9/43/9 60/73/59
l 44 54
