# Blender 4.3.2
# www.blender.org
mtllib BirdCoastStartOndrej0081.mtl
o Cube
v -0.284552 1.410269 -0.063917
v -0.289446 1.436365 0.317043
v -0.292059 -1.174129 0.090570
v -0.304959 -1.281304 0.598892
v 0.246683 1.406184 -0.043911
v 0.229036 1.430094 0.340980
v 0.304266 -1.177988 0.124924
v 0.253812 -1.285015 0.632149
v -0.026016 1.557854 0.374654
v 0.356431 -1.512376 0.490043
v -0.386678 -1.506841 0.442539
v 0.305748 1.540344 0.154761
v -0.353048 1.545211 0.130349
v -0.000173 1.532415 -0.091602
v -0.000072 1.858602 0.147452
v 0.361021 0.890836 0.601250
v 0.395685 -0.646061 0.662722
v -0.463275 0.905440 0.558695
v -0.422679 -0.645339 0.640377
v 0.413306 0.783960 -0.122582
v 0.446107 -0.698930 -0.096544
v -0.437321 0.781680 -0.153155
v -0.429918 -0.698858 -0.116047
v -0.639259 0.845662 0.252389
v -0.620708 -0.468309 0.277917
v 0.595369 0.836802 0.265456
v 0.620364 -0.468732 0.297769
v -0.414378 0.056755 -0.141324
v -0.495339 0.239616 0.423607
v -0.442920 0.203539 0.680598
v -0.934003 -2.385005 0.187503
v 0.431354 0.059078 -0.129395
v -3.047188 0.366482 -0.123345
v -3.417107 -0.890970 -0.062835
v 0.497607 0.242810 0.386317
v 0.384686 0.203933 0.698966
v -3.214473 -0.152996 -0.121219
v -1.475486 0.358362 0.594643
v -1.512668 1.078274 0.436443
v 0.920041 -2.399631 0.309423
v -1.435251 -0.204502 0.634001
v -2.248635 0.864973 0.266090
v -2.291878 -0.207993 0.368499
v -2.320440 0.317294 0.223689
v 3.049750 0.361850 -0.023890
v 3.414442 -0.896730 0.034710
v 3.215693 -0.158027 -0.017869
v 1.447686 0.366457 0.641279
v 1.514568 1.075418 0.481729
v 1.420656 -0.207526 0.675197
v 2.244889 0.861092 0.347443
v 2.278364 -0.211972 0.435883
v 2.266999 0.307591 0.319994
v -2.343996 0.325087 0.274345
v -0.001181 -1.436331 0.285332
v -0.025923 -1.403592 0.592283
v -0.019023 -1.672806 0.499527
v 0.010090 -1.008692 -0.072018
v -0.003997 0.709433 -0.289456
v -0.033524 0.867872 0.688212
v -0.016936 -0.628257 0.795288
v -0.040241 0.169714 0.765448
v 0.009534 0.037568 -0.281159
v -0.018784 -3.094755 0.329247
vn -0.5246 0.4042 -0.7493
vn -0.5505 0.5169 0.6556
vn -0.3690 -0.5577 -0.7435
vn -0.4275 -0.2907 0.8560
vn 0.5815 0.3923 -0.7127
vn 0.5175 0.5077 0.6888
vn 0.4495 -0.5646 -0.6922
vn 0.3101 -0.2872 0.9063
vn -0.0261 0.5641 0.8253
vn 0.6173 -0.6770 -0.4008
vn -0.5662 -0.6754 -0.4725
vn 0.7872 0.6166 0.0029
vn -0.7648 0.6418 -0.0564
vn 0.0531 0.4926 -0.8686
vn 0.0407 0.9992 -0.0016
vn 0.5551 0.2840 0.7818
vn 0.6252 -0.0747 0.7769
vn -0.6272 0.2815 0.7262
vn -0.6639 -0.0891 0.7425
vn 0.7069 0.1008 -0.7001
vn 0.6282 -0.2452 -0.7384
vn -0.6817 0.0614 -0.7291
vn -0.5942 -0.2324 -0.7700
vn -0.9438 -0.0286 -0.3292
vn -0.9786 0.0146 -0.2053
vn 0.9618 0.0217 -0.2728
vn 0.9869 -0.0026 -0.1611
vn -0.7305 0.0251 -0.6824
vn -0.9467 -0.0000 -0.3222
vn -0.6735 0.0519 0.7374
vn 0.2341 0.1219 -0.9646
vn 0.7470 0.0393 -0.6636
vn 0.4230 -0.1020 -0.9004
vn 0.4511 -0.1928 -0.8714
vn 0.9627 0.0302 -0.2690
vn 0.6076 0.0684 0.7913
vn 0.4421 -0.1820 -0.8783
vn 0.0627 -0.1487 -0.9869
vn 0.0171 -0.2138 -0.9767
vn -0.1039 0.1239 -0.9868
vn -0.0046 0.0053 -1.0000
vn 0.3768 -0.0439 -0.9252
vn 0.4110 -0.1873 -0.8922
vn 0.4229 -0.0999 -0.9006
vn -0.3948 -0.0953 -0.9138
vn -0.4206 -0.1765 -0.8899
vn -0.4118 -0.1700 -0.8953
vn -0.0068 -0.1382 -0.9904
vn 0.0119 -0.2206 -0.9753
vn 0.0544 -0.0053 -0.9985
vn -0.3425 -0.0327 -0.9389
vn -0.3815 -0.1770 -0.9073
vn -0.3900 -0.0889 -0.9165
vn 0.0426 -0.6808 -0.7313
vn -0.0618 -0.3460 0.9362
vn 0.0538 -0.4794 -0.8760
vn 0.0326 -0.4431 -0.8959
vn 0.0298 0.0924 -0.9953
vn -0.0303 0.2876 0.9573
vn -0.0255 -0.0588 0.9979
vn -0.0288 0.0402 0.9988
vn 0.0167 -0.0512 -0.9985
vn 0.0662 0.1187 -0.9907
vt 0.700998 0.694997
vt 0.670437 0.545092
vt 0.621369 0.696438
vt 0.596471 0.578742
vt 0.541111 0.718945
vt 0.138103 0.398168
vt 0.174242 0.485498
vt 0.141975 0.497302
vt 0.107983 0.069452
vt 0.182907 0.197303
vt 0.129397 0.224081
vt 0.266355 0.190592
vt 0.352815 0.085994
vt 0.336442 0.195691
vt 0.429904 0.482460
vt 0.397402 0.392113
vt 0.443947 0.409050
vt 0.187795 0.044971
vt 0.138934 0.000171
vt 0.029842 0.060616
vt 0.071695 0.093735
vt 0.109596 0.492315
vt 0.088287 0.419477
vt 0.252567 0.185666
vt 0.154320 0.089942
vt 0.256922 0.409277
vt 0.199316 0.524593
vt 0.332726 0.306368
vt 0.392947 0.217683
vt 0.396959 0.314734
vt 0.066944 0.205988
vt 0.671843 0.984949
vt 0.719603 0.831796
vt 0.635445 0.834117
vt 0.582411 0.999829
vt 0.347575 0.403624
vt 0.400194 0.490316
vt 0.344346 0.521423
vt 0.367501 0.480626
vt 0.281259 0.411059
vt 0.397994 0.314878
vt 0.455542 0.312752
vt 0.088496 0.533105
vt 0.144340 0.569183
vt 0.394674 0.059371
vt 0.526466 0.850433
vt 0.195602 0.307039
vt 0.133577 0.321124
vt 0.072563 0.325020
vt 0.264425 0.306045
vt 0.506972 0.417769
vt 0.435776 0.078231
vt 0.522325 0.182320
vt 0.454382 0.192081
vt 0.453767 0.523114
vt 0.315671 0.623505
vt 0.490372 0.575963
vt 0.329526 0.564775
vt 0.189868 0.406845
vt 0.134879 0.320995
vt 0.526123 0.309994
vt 0.680022 0.199832
vt 0.706638 0.075165
vt 0.632603 0.041659
vt 0.602287 0.191619
vt 0.630764 0.487654
vt 0.583604 0.328340
vt 0.526466 0.470722
vt 0.717963 0.503084
vt 0.669158 0.332480
vt 0.761904 0.215417
vt 0.000171 0.329918
vt 0.022178 0.436299
vt 0.264082 0.301679
vt 0.326316 0.804247
vt 0.264425 0.655364
vt 0.315859 0.046880
vt 0.356403 0.000171
vt 0.000171 0.204454
vt 0.475026 0.037472
vt 0.442065 0.000171
vt 0.776497 0.503426
vt 0.055669 0.023589
vt 0.776497 0.974365
vt 0.400695 0.564433
vt 0.490372 0.749054
vt 0.526466 0.000171
vt 0.776791 0.346878
s 1
usemtl Bird
f 43/1/43 37/2/37 44/3/44
f 44/3/44 33/4/33 42/5/42
f 26/6/26 5/7/5 12/8/12
f 10/9/10 21/10/21 27/11/27
f 58/12/57 3/13/3 23/14/23
f 2/15/2 24/16/24 18/17/18
f 55/18/54 10/9/10 57/19/56
f 56/20/55 10/9/10 8/21/8
f 26/6/26 6/22/6 16/23/16
f 58/24/57 7/25/7 55/18/54
f 5/7/5 59/26/58 14/27/14
f 28/28/28 25/29/25 29/30/29
f 10/9/10 17/31/17 8/21/8
f 29/32/29 41/33/41 38/34/38
f 38/34/38 24/35/24 29/32/29
f 22/36/22 29/30/29 24/16/24
f 13/37/13 14/38/14 1/39/1
f 59/40/58 1/39/1 14/38/14
f 18/17/18 29/41/29 30/42/30
f 12/8/12 9/43/9 6/22/6
f 12/8/12 14/27/14 15/44/15
f 11/45/11 23/14/23 3/13/3
f 24/16/24 1/39/1 22/36/22
f 38/34/38 42/5/42 39/46/39
f 32/47/32 27/11/27 21/10/21
f 35/48/35 16/23/16 36/49/36
f 23/14/23 63/50/62 58/12/57
f 30/42/30 60/51/59 18/17/18
f 4/52/4 61/53/60 19/54/19
f 30/42/30 25/29/25 19/54/19
f 2/15/2 60/51/59 9/55/9
f 57/56/56 31/57/31 11/58/11
f 28/28/28 59/40/58 63/50/62
f 27/11/27 36/49/36 17/31/17
f 20/59/20 35/60/35 32/47/32
f 19/54/19 62/61/61 30/42/30
f 38/34/38 43/1/43 44/3/44
f 53/62/53 45/63/45 47/64/47
f 47/64/47 52/65/52 53/62/53
f 35/66/35 50/67/50 27/68/27
f 26/69/26 48/70/48 35/66/35
f 48/70/48 52/65/52 50/67/50
f 48/70/48 51/71/51 53/62/53
f 62/72/61 17/31/17 36/49/36
f 60/73/59 36/49/36 16/23/16
f 32/47/32 59/26/58 20/59/20
f 21/10/21 63/74/62 32/47/32
f 40/75/40 57/56/56 10/76/10
f 9/55/9 13/37/13 2/15/2
f 11/45/11 55/77/54 57/78/56
f 61/79/60 8/21/8 17/31/17
f 56/80/55 11/45/11 57/81/56
f 19/54/19 11/45/11 4/52/4
f 6/22/6 60/73/59 16/23/16
f 43/1/43 34/82/34 37/2/37
f 44/3/44 37/2/37 33/4/33
f 26/6/26 20/59/20 5/7/5
f 10/9/10 7/25/7 21/10/21
f 58/12/57 55/77/54 3/13/3
f 2/15/2 13/37/13 24/16/24
f 55/18/54 7/25/7 10/9/10
f 56/20/55 57/83/56 10/9/10
f 26/6/26 12/8/12 6/22/6
f 58/24/57 21/10/21 7/25/7
f 5/7/5 20/59/20 59/26/58
f 28/28/28 23/14/23 25/29/25
f 10/9/10 27/11/27 17/31/17
f 29/32/29 25/84/25 41/33/41
f 38/34/38 39/46/39 24/35/24
f 22/36/22 28/28/28 29/30/29
f 13/37/13 15/85/15 14/38/14
f 59/40/58 22/36/22 1/39/1
f 18/17/18 24/16/24 29/41/29
f 12/8/12 15/44/15 9/43/9
f 12/8/12 5/7/5 14/27/14
f 11/45/11 25/29/25 23/14/23
f 24/16/24 13/37/13 1/39/1
f 38/34/38 44/3/44 42/5/42
f 32/47/32 35/60/35 27/11/27
f 35/48/35 26/6/26 16/23/16
f 23/14/23 28/28/28 63/50/62
f 30/42/30 62/61/61 60/51/59
f 4/52/4 56/80/55 61/53/60
f 30/42/30 29/41/29 25/29/25
f 2/15/2 18/17/18 60/51/59
f 57/56/56 64/86/63 31/57/31
f 28/28/28 22/36/22 59/40/58
f 27/11/27 35/48/35 36/49/36
f 20/59/20 26/6/26 35/60/35
f 19/54/19 61/53/60 62/61/61
f 38/34/38 41/33/41 43/1/43
f 53/62/53 51/71/51 45/63/45
f 47/64/47 46/87/46 52/65/52
f 35/66/35 48/70/48 50/67/50
f 26/69/26 49/88/49 48/70/48
f 48/70/48 53/62/53 52/65/52
f 48/70/48 49/88/49 51/71/51
f 62/72/61 61/79/60 17/31/17
f 60/73/59 62/72/61 36/49/36
f 32/47/32 63/74/62 59/26/58
f 21/10/21 58/24/57 63/74/62
f 40/75/40 64/86/63 57/56/56
f 9/55/9 15/85/15 13/37/13
f 11/45/11 3/13/3 55/77/54
f 61/79/60 56/20/55 8/21/8
f 56/80/55 4/52/4 11/45/11
f 19/54/19 25/29/25 11/45/11
f 6/22/6 9/43/9 60/73/59
l 44 54
