# Blender 4.3.2
# www.blender.org
mtllib BirdAnimationOndrej0014.mtl
o Cube
v -0.284552 1.410269 0.038138
v -0.289446 1.436365 0.419098
v -0.292059 -1.172822 0.207416
v -0.304962 -1.298239 0.711593
v 0.246683 1.406184 0.058144
v 0.229036 1.430094 0.443035
v 0.304266 -1.178101 0.241522
v 0.253810 -1.303316 0.744634
v -0.026016 1.557854 0.476709
v 0.356429 -1.526368 0.595008
v -0.386680 -1.518794 0.547809
v 0.305748 1.540344 0.256816
v -0.353048 1.545211 0.232404
v -0.000173 1.532415 0.010452
v -0.000072 1.858602 0.249507
v 0.376607 0.890509 0.715445
v 0.395684 -0.649500 0.769031
v -0.486832 0.904611 0.675823
v -0.422679 -0.648498 0.746727
v 0.405380 0.787956 -0.005553
v 0.446088 -0.698598 0.009723
v -0.424726 0.787715 -0.029987
v -0.427045 -0.697441 -0.007887
v -0.657372 0.848301 0.373219
v -0.619515 -0.468674 0.379146
v 0.603988 0.839252 0.388755
v 0.619695 -0.469155 0.399375
v -0.384471 0.067613 -0.007253
v -0.513713 0.242357 0.555092
v -0.518945 0.195974 0.805798
v -0.934003 -2.385346 0.256049
v 0.407434 0.067453 -0.002501
v -1.176588 -0.030868 -1.662512
v -1.435748 -1.314613 -1.772126
v 0.514414 0.247521 0.529428
v 0.438643 0.199269 0.823559
v -1.261702 -0.565097 -1.734628
v -1.336728 0.250884 0.021705
v -1.393636 0.988202 0.009006
v 0.920041 -2.405333 0.377240
v -1.317716 -0.296815 0.134759
v -1.359500 0.619714 -0.786612
v -1.440758 -0.445451 -0.690038
v -1.269354 0.054693 -0.865587
v 1.182196 -0.023151 -1.635638
v 1.424899 -1.308040 -1.755222
v 1.266183 -0.557347 -1.709303
v 1.319131 0.262601 0.054748
v 1.417469 0.992077 0.058524
v 1.316679 -0.295639 0.172306
v 1.378888 0.625278 -0.740931
v 1.426038 -0.443442 -0.667538
v 1.272189 0.060558 -0.787821
v -1.324418 0.064460 -0.872950
v -0.001182 -1.442020 0.393686
v -0.025926 -1.421897 0.701560
v -0.019025 -1.687509 0.597886
v 0.010090 -1.008373 0.031805
v -0.003997 0.709433 -0.187401
v -0.033524 0.867872 0.790267
v -0.016936 -0.631647 0.900901
v -0.059517 0.169793 0.893012
v 0.009534 0.037568 -0.179104
v -0.018783 -3.100888 0.364752
vn -0.5240 0.3990 -0.7525
vn -0.5363 0.5294 0.6574
vn -0.3605 -0.5540 -0.7504
vn -0.4380 -0.2945 0.8494
vn 0.5836 0.3877 -0.7135
vn 0.5068 0.5172 0.6897
vn 0.4347 -0.5636 -0.7024
vn 0.3215 -0.2919 0.9008
vn -0.0261 0.5641 0.8253
vn 0.6223 -0.6576 -0.4247
vn -0.5706 -0.6544 -0.4961
vn 0.7845 0.6202 -0.0002
vn -0.7590 0.6484 -0.0592
vn 0.0531 0.4926 -0.8686
vn 0.0407 0.9992 -0.0016
vn 0.5385 0.3106 0.7833
vn 0.6258 -0.0914 0.7746
vn -0.6145 0.3092 0.7258
vn -0.6640 -0.1133 0.7391
vn 0.7105 0.0835 -0.6987
vn 0.6321 -0.2354 -0.7382
vn -0.6798 0.0363 -0.7325
vn -0.5981 -0.2197 -0.7707
vn -0.8856 0.0589 -0.4607
vn -0.9462 -0.0066 -0.3235
vn 0.9213 0.1204 -0.3698
vn 0.9657 -0.0234 -0.2588
vn -0.7371 0.0328 -0.6749
vn -0.8751 0.0242 -0.4834
vn -0.7363 0.0612 0.6739
vn 0.2330 0.1640 -0.9585
vn 0.7509 0.0453 -0.6589
vn 0.9868 -0.1020 0.1258
vn 0.9542 -0.2311 0.1900
vn 0.9256 0.0442 -0.3758
vn 0.6375 0.0700 0.7673
vn 0.9597 -0.2201 0.1747
vn 0.8771 -0.0458 -0.4781
vn 0.8270 0.0542 -0.5596
vn -0.1028 0.1669 -0.9806
vn 0.7867 -0.0124 -0.6173
vn 0.9907 0.1276 0.0468
vn 0.9683 -0.2196 0.1191
vn 0.9908 -0.0618 0.1206
vn -0.9892 -0.0919 0.1141
vn -0.9618 -0.2138 0.1710
vn -0.9655 -0.2077 0.1574
vn -0.8602 -0.0309 -0.5090
vn -0.7996 0.1109 -0.5902
vn -0.7793 -0.0450 -0.6250
vn -0.9855 0.1679 0.0253
vn -0.9711 -0.2124 0.1087
vn -0.9940 -0.0421 0.1011
vn 0.0421 -0.6589 -0.7510
vn -0.0621 -0.3646 0.9291
vn 0.0539 -0.4400 -0.8964
vn 0.0298 -0.4497 -0.8927
vn 0.0221 0.0768 -0.9968
vn -0.0253 0.3080 0.9511
vn -0.0228 -0.0671 0.9975
vn -0.0300 0.0416 0.9987
vn 0.0083 -0.0365 -0.9993
vn 0.0662 0.1624 -0.9845
vt 0.700998 0.694997
vt 0.670437 0.545092
vt 0.621369 0.696438
vt 0.596471 0.578742
vt 0.541111 0.718945
vt 0.138103 0.398168
vt 0.174242 0.485498
vt 0.141975 0.497302
vt 0.107983 0.069452
vt 0.182907 0.197303
vt 0.129397 0.224081
vt 0.266355 0.190592
vt 0.352815 0.085994
vt 0.336442 0.195691
vt 0.429904 0.482460
vt 0.397402 0.392113
vt 0.443947 0.409050
vt 0.187795 0.044971
vt 0.138934 0.000171
vt 0.029842 0.060616
vt 0.071695 0.093735
vt 0.109596 0.492315
vt 0.088287 0.419477
vt 0.252567 0.185666
vt 0.154320 0.089942
vt 0.256922 0.409277
vt 0.199316 0.524593
vt 0.332726 0.306368
vt 0.392947 0.217683
vt 0.396959 0.314734
vt 0.066944 0.205988
vt 0.671843 0.984949
vt 0.719603 0.831796
vt 0.635445 0.834117
vt 0.582411 0.999829
vt 0.347575 0.403624
vt 0.400194 0.490316
vt 0.344346 0.521423
vt 0.367501 0.480626
vt 0.281259 0.411059
vt 0.397994 0.314878
vt 0.455542 0.312752
vt 0.088496 0.533105
vt 0.144340 0.569183
vt 0.394674 0.059371
vt 0.526466 0.850433
vt 0.195602 0.307039
vt 0.133577 0.321124
vt 0.072563 0.325020
vt 0.264425 0.306045
vt 0.506972 0.417769
vt 0.435776 0.078231
vt 0.522325 0.182320
vt 0.454382 0.192081
vt 0.453767 0.523114
vt 0.315671 0.623505
vt 0.490372 0.575963
vt 0.329526 0.564775
vt 0.189868 0.406845
vt 0.134879 0.320995
vt 0.526123 0.309994
vt 0.680022 0.199832
vt 0.706638 0.075165
vt 0.632603 0.041659
vt 0.602287 0.191619
vt 0.630764 0.487654
vt 0.583604 0.328340
vt 0.526466 0.470722
vt 0.717963 0.503084
vt 0.669158 0.332480
vt 0.761904 0.215417
vt 0.000171 0.329918
vt 0.022178 0.436299
vt 0.264082 0.301679
vt 0.326316 0.804247
vt 0.264425 0.655364
vt 0.315859 0.046880
vt 0.356403 0.000171
vt 0.000171 0.204454
vt 0.475026 0.037472
vt 0.442065 0.000171
vt 0.776497 0.503426
vt 0.055669 0.023589
vt 0.776497 0.974365
vt 0.400695 0.564433
vt 0.490372 0.749054
vt 0.526466 0.000171
vt 0.776791 0.346878
s 1
usemtl Bird
f 43/1/43 37/2/37 44/3/44
f 44/3/44 33/4/33 42/5/42
f 26/6/26 5/7/5 12/8/12
f 10/9/10 21/10/21 27/11/27
f 58/12/57 3/13/3 23/14/23
f 2/15/2 24/16/24 18/17/18
f 55/18/54 10/9/10 57/19/56
f 56/20/55 10/9/10 8/21/8
f 26/6/26 6/22/6 16/23/16
f 58/24/57 7/25/7 55/18/54
f 5/7/5 59/26/58 14/27/14
f 28/28/28 25/29/25 29/30/29
f 10/9/10 17/31/17 8/21/8
f 29/32/29 41/33/41 38/34/38
f 38/34/38 24/35/24 29/32/29
f 22/36/22 29/30/29 24/16/24
f 13/37/13 14/38/14 1/39/1
f 59/40/58 1/39/1 14/38/14
f 18/17/18 29/41/29 30/42/30
f 12/8/12 9/43/9 6/22/6
f 12/8/12 14/27/14 15/44/15
f 11/45/11 23/14/23 3/13/3
f 24/16/24 1/39/1 22/36/22
f 38/34/38 42/5/42 39/46/39
f 32/47/32 27/11/27 21/10/21
f 35/48/35 16/23/16 36/49/36
f 23/14/23 63/50/62 58/12/57
f 30/42/30 60/51/59 18/17/18
f 4/52/4 61/53/60 19/54/19
f 30/42/30 25/29/25 19/54/19
f 2/15/2 60/51/59 9/55/9
f 57/56/56 31/57/31 11/58/11
f 28/28/28 59/40/58 63/50/62
f 27/11/27 36/49/36 17/31/17
f 20/59/20 35/60/35 32/47/32
f 19/54/19 62/61/61 30/42/30
f 38/34/38 43/1/43 44/3/44
f 53/62/53 45/63/45 47/64/47
f 47/64/47 52/65/52 53/62/53
f 35/66/35 50/67/50 27/68/27
f 26/69/26 48/70/48 35/66/35
f 48/70/48 52/65/52 50/67/50
f 48/70/48 51/71/51 53/62/53
f 62/72/61 17/31/17 36/49/36
f 60/73/59 36/49/36 16/23/16
f 32/47/32 59/26/58 20/59/20
f 21/10/21 63/74/62 32/47/32
f 40/75/40 57/56/56 10/76/10
f 9/55/9 13/37/13 2/15/2
f 11/45/11 55/77/54 57/78/56
f 61/79/60 8/21/8 17/31/17
f 56/80/55 11/45/11 57/81/56
f 19/54/19 11/45/11 4/52/4
f 6/22/6 60/73/59 16/23/16
f 43/1/43 34/82/34 37/2/37
f 44/3/44 37/2/37 33/4/33
f 26/6/26 20/59/20 5/7/5
f 10/9/10 7/25/7 21/10/21
f 58/12/57 55/77/54 3/13/3
f 2/15/2 13/37/13 24/16/24
f 55/18/54 7/25/7 10/9/10
f 56/20/55 57/83/56 10/9/10
f 26/6/26 12/8/12 6/22/6
f 58/24/57 21/10/21 7/25/7
f 5/7/5 20/59/20 59/26/58
f 28/28/28 23/14/23 25/29/25
f 10/9/10 27/11/27 17/31/17
f 29/32/29 25/84/25 41/33/41
f 38/34/38 39/46/39 24/35/24
f 22/36/22 28/28/28 29/30/29
f 13/37/13 15/85/15 14/38/14
f 59/40/58 22/36/22 1/39/1
f 18/17/18 24/16/24 29/41/29
f 12/8/12 15/44/15 9/43/9
f 12/8/12 5/7/5 14/27/14
f 11/45/11 25/29/25 23/14/23
f 24/16/24 13/37/13 1/39/1
f 38/34/38 44/3/44 42/5/42
f 32/47/32 35/60/35 27/11/27
f 35/48/35 26/6/26 16/23/16
f 23/14/23 28/28/28 63/50/62
f 30/42/30 62/61/61 60/51/59
f 4/52/4 56/80/55 61/53/60
f 30/42/30 29/41/29 25/29/25
f 2/15/2 18/17/18 60/51/59
f 57/56/56 64/86/63 31/57/31
f 28/28/28 22/36/22 59/40/58
f 27/11/27 35/48/35 36/49/36
f 20/59/20 26/6/26 35/60/35
f 19/54/19 61/53/60 62/61/61
f 38/34/38 41/33/41 43/1/43
f 53/62/53 51/71/51 45/63/45
f 47/64/47 46/87/46 52/65/52
f 35/66/35 48/70/48 50/67/50
f 26/69/26 49/88/49 48/70/48
f 48/70/48 53/62/53 52/65/52
f 48/70/48 49/88/49 51/71/51
f 62/72/61 61/79/60 17/31/17
f 60/73/59 62/72/61 36/49/36
f 32/47/32 63/74/62 59/26/58
f 21/10/21 58/24/57 63/74/62
f 40/75/40 64/86/63 57/56/56
f 9/55/9 15/85/15 13/37/13
f 11/45/11 3/13/3 55/77/54
f 61/79/60 56/20/55 8/21/8
f 56/80/55 4/52/4 11/45/11
f 19/54/19 25/29/25 11/45/11
f 6/22/6 9/43/9 60/73/59
l 44 54
