# Blender 4.3.2
# www.blender.org
mtllib BirdCoastEndOndrej0000.mtl
o Cube
v -0.284552 1.410269 -0.077081
v -0.289446 1.436365 0.303879
v -0.292059 -1.174333 0.075612
v -0.304959 -1.279278 0.584381
v 0.246683 1.406184 -0.057075
v 0.229036 1.430094 0.327815
v 0.304266 -1.178019 0.109991
v 0.253813 -1.282822 0.617660
v -0.026016 1.557854 0.361490
v 0.356431 -1.510684 0.476482
v -0.386678 -1.505398 0.428948
v 0.305748 1.540344 0.141597
v -0.353048 1.545211 0.117185
v -0.000173 1.532415 -0.104767
v -0.000072 1.858602 0.134288
v 0.359872 0.890636 0.585885
v 0.395685 -0.645656 0.649030
v -0.461574 0.905238 0.543001
v -0.422679 -0.644968 0.626681
v 0.415065 0.783477 -0.137017
v 0.446110 -0.698983 -0.110219
v -0.439620 0.781079 -0.167853
v -0.430289 -0.699010 -0.129797
v -0.638308 0.845045 0.235024
v -0.620629 -0.468256 0.264744
v 0.595582 0.836291 0.249477
v 0.620283 -0.468670 0.284593
v -0.418889 0.055766 -0.156423
v -0.494706 0.239023 0.406568
v -0.436081 0.203500 0.661652
v -0.934003 -2.384860 0.178412
v 0.435480 0.058182 -0.144151
v -3.177266 0.453354 0.440160
v -3.557582 -0.799925 0.510556
v 0.497810 0.241818 0.367500
v 0.379554 0.203776 0.680309
v -3.352777 -0.063168 0.455849
v -1.459144 0.373863 0.655970
v -1.501081 1.091872 0.491814
v 0.920042 -2.398833 0.300404
v -1.420125 -0.191336 0.680865
v -2.291777 0.913497 0.557607
v -2.335446 -0.162051 0.628686
v -2.382041 0.370920 0.548962
v 3.160613 0.453803 0.580512
v 3.538912 -0.799233 0.660383
v 3.335319 -0.062699 0.603942
v 1.425587 0.384403 0.713965
v 1.497385 1.089903 0.538969
v 1.400885 -0.192376 0.731124
v 2.273442 0.912761 0.658277
v 2.312362 -0.161554 0.725985
v 2.312208 0.363176 0.657296
v -2.389154 0.375032 0.604767
v -0.001181 -1.435659 0.271384
v -0.025923 -1.401388 0.578185
v -0.019022 -1.671007 0.486767
v 0.010090 -1.008736 -0.085397
v -0.003997 0.709433 -0.302620
v -0.033524 0.867872 0.675048
v -0.016936 -0.627856 0.781681
v -0.038968 0.169292 0.748233
v 0.009534 0.037568 -0.294323
v -0.018784 -3.093805 0.324155
vn -0.5239 0.4051 -0.7493
vn -0.5522 0.5154 0.6553
vn -0.3699 -0.5580 -0.7428
vn -0.4261 -0.2902 0.8568
vn 0.5808 0.3931 -0.7129
vn 0.5184 0.5066 0.6889
vn 0.4510 -0.5647 -0.6911
vn 0.3086 -0.2867 0.9070
vn -0.0261 0.5641 0.8253
vn 0.6167 -0.6793 -0.3978
vn -0.5657 -0.6778 -0.4697
vn 0.7872 0.6166 0.0032
vn -0.7651 0.6415 -0.0558
vn 0.0531 0.4926 -0.8686
vn 0.0407 0.9992 -0.0016
vn 0.5568 0.2800 0.7820
vn 0.6251 -0.0721 0.7772
vn -0.6294 0.2775 0.7258
vn -0.6638 -0.0860 0.7429
vn 0.7059 0.1030 -0.7008
vn 0.6277 -0.2464 -0.7384
vn -0.6814 0.0636 -0.7291
vn -0.5940 -0.2337 -0.7698
vn -0.9504 -0.0308 -0.3096
vn -0.9817 0.0143 -0.1901
vn 0.9674 0.0177 -0.2527
vn 0.9894 -0.0028 -0.1450
vn -0.7310 0.0242 -0.6819
vn -0.9543 -0.0010 -0.2988
vn -0.6685 0.0508 0.7419
vn 0.2342 0.1167 -0.9652
vn 0.7473 0.0383 -0.6634
vn 0.1295 -0.0572 -0.9899
vn 0.1554 -0.1160 -0.9810
vn 0.9687 0.0306 -0.2462
vn 0.6049 0.0678 0.7934
vn 0.1476 -0.1075 -0.9832
vn -0.1199 -0.1416 -0.9826
vn -0.1818 -0.2292 -0.9562
vn -0.1040 0.1186 -0.9875
vn -0.1533 0.0154 -0.9881
vn 0.0813 -0.0669 -0.9944
vn 0.1264 -0.1169 -0.9851
vn 0.1291 -0.0674 -0.9893
vn -0.0840 -0.0561 -0.9949
vn -0.1077 -0.1055 -0.9886
vn -0.1003 -0.1003 -0.9899
vn 0.1863 -0.1358 -0.9731
vn 0.2223 -0.2560 -0.9408
vn 0.2210 0.0107 -0.9752
vn -0.0302 -0.0720 -0.9969
vn -0.0786 -0.1096 -0.9909
vn -0.0802 -0.0648 -0.9947
vn 0.0427 -0.6834 -0.7288
vn -0.0618 -0.3438 0.9370
vn 0.0538 -0.4841 -0.8734
vn 0.0328 -0.4423 -0.8963
vn 0.0301 0.0936 -0.9952
vn -0.0308 0.2837 0.9584
vn -0.0257 -0.0572 0.9980
vn -0.0292 0.0408 0.9987
vn 0.0171 -0.0523 -0.9985
vn 0.0662 0.1133 -0.9914
vt 0.700998 0.694997
vt 0.670437 0.545092
vt 0.621369 0.696438
vt 0.596471 0.578742
vt 0.541111 0.718945
vt 0.138103 0.398168
vt 0.174242 0.485498
vt 0.141975 0.497302
vt 0.107983 0.069452
vt 0.182907 0.197303
vt 0.129397 0.224081
vt 0.266355 0.190592
vt 0.352815 0.085994
vt 0.336442 0.195691
vt 0.429904 0.482460
vt 0.397402 0.392113
vt 0.443947 0.409050
vt 0.187795 0.044971
vt 0.138934 0.000171
vt 0.029842 0.060616
vt 0.071695 0.093735
vt 0.109596 0.492315
vt 0.088287 0.419477
vt 0.252567 0.185666
vt 0.154320 0.089942
vt 0.256922 0.409277
vt 0.199316 0.524593
vt 0.332726 0.306368
vt 0.392947 0.217683
vt 0.396959 0.314734
vt 0.066944 0.205988
vt 0.671843 0.984949
vt 0.719603 0.831796
vt 0.635445 0.834117
vt 0.582411 0.999829
vt 0.347575 0.403624
vt 0.400194 0.490316
vt 0.344346 0.521423
vt 0.367501 0.480626
vt 0.281259 0.411059
vt 0.397994 0.314878
vt 0.455542 0.312752
vt 0.088496 0.533105
vt 0.144340 0.569183
vt 0.394674 0.059371
vt 0.526466 0.850433
vt 0.195602 0.307039
vt 0.133577 0.321124
vt 0.072563 0.325020
vt 0.264425 0.306045
vt 0.506972 0.417769
vt 0.435776 0.078231
vt 0.522325 0.182320
vt 0.454382 0.192081
vt 0.453767 0.523114
vt 0.315671 0.623505
vt 0.490372 0.575963
vt 0.329526 0.564775
vt 0.189868 0.406845
vt 0.134879 0.320995
vt 0.526123 0.309994
vt 0.680022 0.199832
vt 0.706638 0.075165
vt 0.632603 0.041659
vt 0.602287 0.191619
vt 0.630764 0.487654
vt 0.583604 0.328340
vt 0.526466 0.470722
vt 0.717963 0.503084
vt 0.669158 0.332480
vt 0.761904 0.215417
vt 0.000171 0.329918
vt 0.022178 0.436299
vt 0.264082 0.301679
vt 0.326316 0.804247
vt 0.264425 0.655364
vt 0.315859 0.046880
vt 0.356403 0.000171
vt 0.000171 0.204454
vt 0.475026 0.037472
vt 0.442065 0.000171
vt 0.776497 0.503426
vt 0.055669 0.023589
vt 0.776497 0.974365
vt 0.400695 0.564433
vt 0.490372 0.749054
vt 0.526466 0.000171
vt 0.776791 0.346878
s 1
usemtl Bird
f 43/1/43 37/2/37 44/3/44
f 44/3/44 33/4/33 42/5/42
f 26/6/26 5/7/5 12/8/12
f 10/9/10 21/10/21 27/11/27
f 58/12/57 3/13/3 23/14/23
f 2/15/2 24/16/24 18/17/18
f 55/18/54 10/9/10 57/19/56
f 56/20/55 10/9/10 8/21/8
f 26/6/26 6/22/6 16/23/16
f 58/24/57 7/25/7 55/18/54
f 5/7/5 59/26/58 14/27/14
f 28/28/28 25/29/25 29/30/29
f 10/9/10 17/31/17 8/21/8
f 29/32/29 41/33/41 38/34/38
f 38/34/38 24/35/24 29/32/29
f 22/36/22 29/30/29 24/16/24
f 13/37/13 14/38/14 1/39/1
f 59/40/58 1/39/1 14/38/14
f 18/17/18 29/41/29 30/42/30
f 12/8/12 9/43/9 6/22/6
f 12/8/12 14/27/14 15/44/15
f 11/45/11 23/14/23 3/13/3
f 24/16/24 1/39/1 22/36/22
f 38/34/38 42/5/42 39/46/39
f 32/47/32 27/11/27 21/10/21
f 35/48/35 16/23/16 36/49/36
f 23/14/23 63/50/62 58/12/57
f 30/42/30 60/51/59 18/17/18
f 4/52/4 61/53/60 19/54/19
f 30/42/30 25/29/25 19/54/19
f 2/15/2 60/51/59 9/55/9
f 57/56/56 31/57/31 11/58/11
f 28/28/28 59/40/58 63/50/62
f 27/11/27 36/49/36 17/31/17
f 20/59/20 35/60/35 32/47/32
f 19/54/19 62/61/61 30/42/30
f 38/34/38 43/1/43 44/3/44
f 53/62/53 45/63/45 47/64/47
f 47/64/47 52/65/52 53/62/53
f 35/66/35 50/67/50 27/68/27
f 26/69/26 48/70/48 35/66/35
f 48/70/48 52/65/52 50/67/50
f 48/70/48 51/71/51 53/62/53
f 62/72/61 17/31/17 36/49/36
f 60/73/59 36/49/36 16/23/16
f 32/47/32 59/26/58 20/59/20
f 21/10/21 63/74/62 32/47/32
f 40/75/40 57/56/56 10/76/10
f 9/55/9 13/37/13 2/15/2
f 11/45/11 55/77/54 57/78/56
f 61/79/60 8/21/8 17/31/17
f 56/80/55 11/45/11 57/81/56
f 19/54/19 11/45/11 4/52/4
f 6/22/6 60/73/59 16/23/16
f 43/1/43 34/82/34 37/2/37
f 44/3/44 37/2/37 33/4/33
f 26/6/26 20/59/20 5/7/5
f 10/9/10 7/25/7 21/10/21
f 58/12/57 55/77/54 3/13/3
f 2/15/2 13/37/13 24/16/24
f 55/18/54 7/25/7 10/9/10
f 56/20/55 57/83/56 10/9/10
f 26/6/26 12/8/12 6/22/6
f 58/24/57 21/10/21 7/25/7
f 5/7/5 20/59/20 59/26/58
f 28/28/28 23/14/23 25/29/25
f 10/9/10 27/11/27 17/31/17
f 29/32/29 25/84/25 41/33/41
f 38/34/38 39/46/39 24/35/24
f 22/36/22 28/28/28 29/30/29
f 13/37/13 15/85/15 14/38/14
f 59/40/58 22/36/22 1/39/1
f 18/17/18 24/16/24 29/41/29
f 12/8/12 15/44/15 9/43/9
f 12/8/12 5/7/5 14/27/14
f 11/45/11 25/29/25 23/14/23
f 24/16/24 13/37/13 1/39/1
f 38/34/38 44/3/44 42/5/42
f 32/47/32 35/60/35 27/11/27
f 35/48/35 26/6/26 16/23/16
f 23/14/23 28/28/28 63/50/62
f 30/42/30 62/61/61 60/51/59
f 4/52/4 56/80/55 61/53/60
f 30/42/30 29/41/29 25/29/25
f 2/15/2 18/17/18 60/51/59
f 57/56/56 64/86/63 31/57/31
f 28/28/28 22/36/22 59/40/58
f 27/11/27 35/48/35 36/49/36
f 20/59/20 26/6/26 35/60/35
f 19/54/19 61/53/60 62/61/61
f 38/34/38 41/33/41 43/1/43
f 53/62/53 51/71/51 45/63/45
f 47/64/47 46/87/46 52/65/52
f 35/66/35 48/70/48 50/67/50
f 26/69/26 49/88/49 48/70/48
f 48/70/48 53/62/53 52/65/52
f 48/70/48 49/88/49 51/71/51
f 62/72/61 61/79/60 17/31/17
f 60/73/59 62/72/61 36/49/36
f 32/47/32 63/74/62 59/26/58
f 21/10/21 58/24/57 63/74/62
f 40/75/40 64/86/63 57/56/56
f 9/55/9 15/85/15 13/37/13
f 11/45/11 3/13/3 55/77/54
f 61/79/60 56/20/55 8/21/8
f 56/80/55 4/52/4 11/45/11
f 19/54/19 25/29/25 11/45/11
f 6/22/6 9/43/9 60/73/59
l 44 54
