# Blender 4.3.2
# www.blender.org
mtllib Bird.mtl
o Cube
v -0.284552 -0.998218 -1.410269
v -0.289446 -0.617258 -1.436365
v -0.290277 -1.019782 1.359645
v -0.304751 -0.480915 1.244697
v 0.246683 -0.978213 -1.406184
v 0.229036 -0.593322 -1.430094
v 0.306042 -0.986940 1.348006
v 0.254020 -0.449316 1.233552
v -0.026016 -0.559647 -1.557854
v 0.363919 -0.706321 1.411082
v -0.379172 -0.751236 1.427779
v 0.305748 -0.779541 -1.540344
v -0.353048 -0.803953 -1.545211
v -0.000173 -1.025904 -1.532415
v -0.000072 -0.786849 -1.858602
v 0.372753 -0.361827 -0.891238
v 0.395681 -0.328385 0.620935
v -0.479134 -0.418060 -0.906007
v -0.422682 -0.350355 0.623250
v 0.446370 -1.067175 -0.784081
v 0.446144 -1.076107 0.712986
v -0.486840 -1.102818 -0.781924
v -0.435604 -1.099046 0.715636
v -0.712683 -0.738997 -0.846853
v -0.640325 -0.721069 0.468064
v 0.652102 -0.711019 -0.837071
v 0.638349 -0.690577 0.467747
v -0.496275 -1.113162 -0.057311
v -0.693590 -0.766440 -0.240967
v -0.449960 -0.403420 -0.205398
v -0.924434 -0.621402 2.355533
v 0.495902 -1.089904 -0.059359
v -0.994914 1.850961 -0.116936
v -0.706339 1.973644 1.140258
v 0.664783 -0.745244 -0.244152
v 0.396118 -0.341236 -0.205331
v -0.858024 1.917334 0.407186
v -1.175882 0.130989 -0.338296
v -1.391111 -0.007241 -1.055307
v 0.929596 -0.507106 2.312095
v -1.120018 0.008886 0.217675
v -1.314423 0.998967 -0.739559
v -1.015216 0.904242 0.316621
v -1.075818 1.050363 -0.176217
v 0.877426 1.892483 -0.117643
v 0.573256 2.001389 1.141253
v 0.737655 1.952860 0.406444
v 1.133164 0.171598 -0.349256
v 1.356688 0.014721 -1.057426
v 1.097631 0.039204 0.217815
v 1.250046 1.039873 -0.741831
v 0.931713 0.946679 0.317475
v 1.001559 1.046939 -0.177198
v 0.929589 -0.488701 2.308156
v -1.021284 1.045768 -0.189878
v -0.924209 -0.607960 2.354385
v 0.009805 -0.982637 1.508224
v -0.024784 -0.477113 1.339433
v -0.011184 -0.630755 1.547182
v 0.010659 -1.231001 0.690268
v -0.003997 -1.223758 -0.709433
v -0.033524 -0.246090 -0.867872
v -0.016939 -0.187997 0.601893
v -0.046912 -0.234540 -0.170854
v 0.009534 -1.215460 -0.037568
v -0.008784 -0.152375 2.912739
v -0.008880 -0.144045 2.910255
vn -0.4913 -0.7781 -0.3915
vn -0.5461 0.6792 -0.4904
vn -0.5374 -0.6636 0.5204
vn -0.5635 0.7136 0.4161
vn 0.5585 -0.7405 -0.3738
vn 0.5146 0.7150 -0.4733
vn 0.6000 -0.6080 0.5199
vn 0.4921 0.7645 0.4163
vn -0.0270 0.8220 -0.5689
vn 0.6396 -0.1814 0.7470
vn -0.5978 -0.2526 0.7608
vn 0.7830 0.0008 -0.6220
vn -0.7537 -0.0591 -0.6545
vn 0.0514 -0.8710 -0.4887
vn 0.0359 -0.0043 -0.9993
vn 0.5517 0.7996 -0.2371
vn 0.5871 0.7945 0.1555
vn -0.6148 0.7545 -0.2298
vn -0.6374 0.7548 0.1549
vn 0.6193 -0.7663 -0.1712
vn 0.6742 -0.7169 0.1771
vn -0.5790 -0.8010 -0.1524
vn -0.6297 -0.7574 0.1729
vn -0.9854 -0.1372 -0.1011
vn -0.9917 -0.0547 0.1162
vn 0.9864 -0.1070 -0.1246
vn 0.9947 -0.0160 0.1020
vn -0.6150 -0.7879 0.0313
vn -0.9806 -0.1859 0.0619
vn -0.6352 0.7724 -0.0026
vn 0.2602 -0.9162 0.3046
vn 0.6541 -0.7564 0.0071
vn -0.9452 0.0719 0.3186
vn -0.9746 0.1352 0.1787
vn 0.9856 -0.1673 0.0239
vn 0.5783 0.8155 -0.0240
vn -0.9690 0.1185 0.2168
vn -0.9539 -0.2225 0.2014
vn -0.9120 -0.3120 0.2661
vn -0.1318 -0.9402 0.3141
vn -0.9598 -0.2676 0.0850
vn -0.9439 0.0235 0.3294
vn -0.9808 0.1151 0.1574
vn -0.9649 0.0757 0.2516
vn 0.9379 0.1146 0.3274
vn 0.9668 0.1695 0.1913
vn 0.9609 0.1547 0.2295
vn 0.9601 -0.1969 0.1985
vn 0.9138 -0.3055 0.2677
vn 0.9687 -0.2400 0.0641
vn 0.9390 0.0560 0.3392
vn 0.9737 0.1583 0.1638
vn 0.9596 0.1150 0.2568
vn 0.0428 -0.6039 0.7959
vn -0.0353 0.8322 0.5533
vn 0.0424 -0.3622 0.9311
vn 0.0331 -0.9923 0.1197
vn 0.0369 -0.9932 -0.1102
vn -0.0475 0.9759 -0.2132
vn -0.0390 0.9912 0.1269
vn -0.0645 0.9974 -0.0330
vn 0.0321 -0.9995 -0.0014
vn 0.0655 -0.9467 0.3155
vt 0.621369 0.696438
vt 0.700998 0.694997
vt 0.776497 0.503426
vt 0.670437 0.545092
vt 0.596471 0.578742
vt 0.541111 0.718945
vt 0.138103 0.398168
vt 0.189868 0.406845
vt 0.174242 0.485498
vt 0.141975 0.497302
vt 0.107983 0.069452
vt 0.154320 0.089942
vt 0.182907 0.197303
vt 0.129397 0.224081
vt 0.266355 0.190592
vt 0.315859 0.046880
vt 0.352815 0.085994
vt 0.336442 0.195691
vt 0.443947 0.409050
vt 0.429904 0.482460
vt 0.400194 0.490316
vt 0.397402 0.392113
vt 0.138934 0.000171
vt 0.187795 0.044971
vt 0.029842 0.060616
vt 0.055669 0.023589
vt 0.071695 0.093735
vt 0.088287 0.419477
vt 0.109596 0.492315
vt 0.252567 0.185666
vt 0.199316 0.524593
vt 0.256922 0.409277
vt 0.332726 0.306368
vt 0.392947 0.217683
vt 0.396959 0.314734
vt 0.066944 0.205988
vt 0.671843 0.984949
vt 0.776497 0.974365
vt 0.719603 0.831796
vt 0.635445 0.834117
vt 0.526466 0.850433
vt 0.582411 0.999829
vt 0.347575 0.403624
vt 0.400695 0.564433
vt 0.344346 0.521423
vt 0.367501 0.480626
vt 0.281259 0.411059
vt 0.455542 0.312752
vt 0.397994 0.314878
vt 0.144340 0.569183
vt 0.088496 0.533105
vt 0.394674 0.059371
vt 0.195602 0.307039
vt 0.134879 0.320995
vt 0.072563 0.325020
vt 0.133577 0.321124
vt 0.264425 0.306045
vt 0.526123 0.309994
vt 0.506972 0.417769
vt 0.454382 0.192081
vt 0.435776 0.078231
vt 0.475026 0.037472
vt 0.522325 0.182320
vt 0.453767 0.523114
vt 0.329526 0.564775
vt 0.315671 0.623505
vt 0.490372 0.749054
vt 0.490372 0.575963
vt 0.680022 0.199832
vt 0.761904 0.215417
vt 0.706638 0.075165
vt 0.632603 0.041659
vt 0.526466 0.000171
vt 0.602287 0.191619
vt 0.630764 0.487654
vt 0.669158 0.332480
vt 0.583604 0.328340
vt 0.526466 0.470722
vt 0.717963 0.503084
vt 0.776791 0.346878
vt 0.000171 0.329918
vt 0.000171 0.204454
vt 0.022178 0.436299
vt 0.264082 0.301679
vt 0.264425 0.655364
vt 0.326316 0.804247
vt 0.356403 0.000171
vt 0.442065 0.000171
s 1
usemtl Bird
f 44/1/44 43/2/43 34/3/34 37/4/37
f 44/1/44 37/4/37 33/5/33 42/6/42
f 26/7/26 20/8/20 5/9/5 12/10/12
f 10/11/10 7/12/7 21/13/21 27/14/27
f 60/15/57 57/16/54 3/17/3 23/18/23
f 18/19/18 2/20/2 13/21/13 24/22/24
f 59/23/56 57/24/54 7/12/7 10/11/10
f 58/25/55 59/26/56 10/11/10 8/27/8
f 16/28/16 26/7/26 12/10/12 6/29/6
f 60/30/57 21/13/21 7/12/7 57/24/54
f 14/31/14 5/9/5 20/8/20 61/32/58
f 28/33/28 23/18/23 25/34/25 29/35/29
f 8/27/8 10/11/10 27/14/27 17/36/17
f 29/37/29 25/38/25 41/39/41 38/40/38
f 29/37/29 38/40/38 39/41/39 24/42/24
f 22/43/22 28/33/28 29/35/29 24/22/24
f 13/21/13 15/44/15 14/45/14 1/46/1
f 14/45/14 61/47/58 22/43/22 1/46/1
f 30/48/30 18/19/18 24/22/24 29/49/29
f 6/29/6 12/10/12 15/50/15 9/51/9
f 12/10/12 5/9/5 14/31/14 15/50/15
f 11/52/11 25/34/25 23/18/23 3/17/3
f 24/22/24 13/21/13 1/46/1 22/43/22
f 38/40/38 44/1/44 42/6/42 39/41/39
f 32/53/32 35/54/35 27/14/27 21/13/21
f 36/55/36 35/56/35 26/7/26 16/28/16
f 23/18/23 28/33/28 65/57/62 60/15/57
f 18/19/18 30/48/30 64/58/61 62/59/59
f 19/60/19 4/61/4 58/62/55 63/63/60
f 19/60/19 30/48/30 29/49/29 25/34/25
f 2/20/2 18/19/18 62/59/59 9/64/9
f 11/65/11 59/66/56 66/67/63 31/68/31
f 28/33/28 22/43/22 61/47/58 65/57/62
f 17/36/17 27/14/27 35/56/35 36/55/36
f 20/8/20 26/7/26 35/54/35 32/53/32
f 30/48/30 19/60/19 63/63/60 64/58/61
f 38/40/38 41/39/41 43/2/43 44/1/44
f 53/69/53 51/70/51 45/71/45 47/72/47
f 53/69/53 47/72/47 46/73/46 52/74/52
f 35/75/35 48/76/48 50/77/50 27/78/27
f 35/75/35 26/79/26 49/80/49 48/76/48
f 48/76/48 53/69/53 52/74/52 50/77/50
f 48/76/48 49/80/49 51/70/51 53/69/53
f 36/55/36 64/81/61 63/82/60 17/36/17
f 16/28/16 62/83/59 64/81/61 36/55/36
f 32/53/32 65/84/62 61/32/58 20/8/20
f 21/13/21 60/30/57 65/84/62 32/53/32
f 10/85/10 40/86/40 66/67/63 59/66/56
f 2/20/2 9/64/9 15/44/15 13/21/13
f 59/87/56 11/52/11 3/17/3 57/16/54
f 17/36/17 63/82/60 58/25/55 8/27/8
f 58/62/55 4/61/4 11/52/11 59/88/56
f 4/61/4 19/60/19 25/34/25 11/52/11
f 6/29/6 9/51/9 62/83/59 16/28/16
l 44 55
l 54 67
l 56 67
