# Blender 4.3.2
# www.blender.org
mtllib BirdAnimationOndrej0008.mtl
o Cube
v -0.284552 1.410269 -0.131227
v -0.289446 1.436365 0.249733
v -0.292057 -1.174791 0.017719
v -0.304964 -1.275071 0.527384
v 0.246683 1.406184 -0.111221
v 0.229036 1.430094 0.273670
v 0.304267 -1.178115 0.052157
v 0.253807 -1.278266 0.560714
v -0.026016 1.557854 0.307344
v 0.356427 -1.507158 0.421484
v -0.386682 -1.502391 0.373877
v 0.305748 1.540344 0.087451
v -0.353048 1.545211 0.063039
v -0.000173 1.532415 -0.158913
v -0.000072 1.858602 0.080142
v 0.359100 0.890808 0.526717
v 0.395684 -0.644819 0.593775
v -0.459115 0.905258 0.479471
v -0.422680 -0.644203 0.571417
v 0.421548 0.783995 -0.192693
v 0.446114 -0.699102 -0.165432
v -0.452352 0.781324 -0.224639
v -0.431286 -0.699174 -0.185830
v -0.646717 0.845083 0.173247
v -0.614520 -0.468272 0.203623
v 0.601497 0.836820 0.192683
v 0.615709 -0.468672 0.224648
v -0.437860 0.056150 -0.217415
v -0.492324 0.239126 0.331026
v -0.411456 0.203280 0.575337
v -0.934005 -2.384484 0.132752
v 0.446399 0.059140 -0.202773
v -2.806717 0.411403 1.814861
v -2.890766 -0.784253 2.346267
v 0.499194 0.242756 0.294594
v 0.367520 0.203782 0.607439
v -2.855348 -0.081243 2.044600
v -1.321541 0.369318 0.909865
v -1.456750 1.076528 0.653523
v 0.920038 -2.397093 0.254914
v -1.264259 -0.192329 0.885281
v -2.132777 0.871363 1.209927
v -1.975619 -0.158896 1.520810
v -2.111801 0.347362 1.409884
v 2.847058 0.374681 1.751777
v 2.941257 -0.828346 2.264291
v 2.900429 -0.121444 1.972812
v 1.321465 0.366631 0.895134
v 1.461890 1.070402 0.668802
v 1.277225 -0.204942 0.867713
v 2.157615 0.848035 1.175162
v 2.000640 -0.184993 1.482459
v 2.093429 0.314869 1.348830
v -2.083610 0.365698 1.455170
v -0.001182 -1.434269 0.215591
v -0.025929 -1.396804 0.522049
v -0.019028 -1.667244 0.433433
v 0.010090 -1.008832 -0.139988
v -0.003997 0.709433 -0.356766
v -0.033524 0.867872 0.620902
v -0.016937 -0.627026 0.726603
v -0.035350 0.169403 0.675925
v 0.009534 0.037568 -0.348469
v -0.018789 -3.091678 0.286846
vn -0.5180 0.4100 -0.7507
vn -0.5514 0.5142 0.6570
vn -0.3710 -0.5592 -0.7414
vn -0.4231 -0.2894 0.8586
vn 0.5775 0.3959 -0.7140
vn 0.5171 0.5065 0.6900
vn 0.4539 -0.5650 -0.6890
vn 0.3054 -0.2857 0.9084
vn -0.0261 0.5641 0.8253
vn 0.6161 -0.6832 -0.3921
vn -0.5653 -0.6819 -0.4641
vn 0.7854 0.6190 0.0034
vn -0.7622 0.6449 -0.0550
vn 0.0531 0.4926 -0.8686
vn 0.0407 0.9992 -0.0016
vn 0.5564 0.2671 0.7868
vn 0.6297 -0.0623 0.7744
vn -0.6272 0.2576 0.7350
vn -0.6709 -0.0699 0.7382
vn 0.7031 0.1087 -0.7027
vn 0.6280 -0.2496 -0.7371
vn -0.6801 0.0711 -0.7296
vn -0.5943 -0.2394 -0.7678
vn -0.9743 -0.0485 -0.2199
vn -0.9921 0.0122 -0.1251
vn 0.9822 0.0073 -0.1878
vn 0.9950 -0.0031 -0.1001
vn -0.7353 0.0188 -0.6775
vn -0.9823 -0.0150 -0.1865
vn -0.6589 0.0450 0.7509
vn 0.2345 0.1060 -0.9663
vn 0.7481 0.0341 -0.6627
vn -0.4983 -0.3258 -0.8035
vn -0.5055 -0.3186 -0.8018
vn 0.9846 0.0237 -0.1730
vn 0.5979 0.0627 0.7991
vn -0.5037 -0.3194 -0.8027
vn -0.5730 -0.2290 -0.7869
vn -0.5343 -0.3765 -0.7569
vn -0.1043 0.1076 -0.9887
vn -0.6348 0.0290 -0.7721
vn -0.5042 -0.3409 -0.7934
vn -0.5336 -0.2719 -0.8009
vn -0.5008 -0.3201 -0.8042
vn 0.4664 -0.3192 -0.8249
vn 0.4715 -0.3128 -0.8246
vn 0.4702 -0.3134 -0.8251
vn 0.5567 -0.2039 -0.8053
vn 0.4997 -0.3540 -0.7906
vn 0.6296 0.0298 -0.7764
vn 0.4671 -0.3326 -0.8193
vn 0.5020 -0.2650 -0.8233
vn 0.4666 -0.3167 -0.8258
vn 0.0428 -0.6888 -0.7237
vn -0.0618 -0.3391 0.9387
vn 0.0538 -0.4939 -0.8678
vn 0.0337 -0.4406 -0.8971
vn 0.0328 0.0978 -0.9947
vn -0.0385 0.2657 0.9633
vn -0.0261 -0.0478 0.9985
vn -0.0451 0.0444 0.9980
vn 0.0210 -0.0560 -0.9982
vn 0.0662 0.1022 -0.9926
vt 0.700998 0.694997
vt 0.670437 0.545092
vt 0.621369 0.696438
vt 0.596471 0.578742
vt 0.541111 0.718945
vt 0.138103 0.398168
vt 0.174242 0.485498
vt 0.141975 0.497302
vt 0.107983 0.069452
vt 0.182907 0.197303
vt 0.129397 0.224081
vt 0.266355 0.190592
vt 0.352815 0.085994
vt 0.336442 0.195691
vt 0.429904 0.482460
vt 0.397402 0.392113
vt 0.443947 0.409050
vt 0.187795 0.044971
vt 0.138934 0.000171
vt 0.029842 0.060616
vt 0.071695 0.093735
vt 0.109596 0.492315
vt 0.088287 0.419477
vt 0.252567 0.185666
vt 0.154320 0.089942
vt 0.256922 0.409277
vt 0.199316 0.524593
vt 0.332726 0.306368
vt 0.392947 0.217683
vt 0.396959 0.314734
vt 0.066944 0.205988
vt 0.671843 0.984949
vt 0.719603 0.831796
vt 0.635445 0.834117
vt 0.582411 0.999829
vt 0.347575 0.403624
vt 0.400194 0.490316
vt 0.344346 0.521423
vt 0.367501 0.480626
vt 0.281259 0.411059
vt 0.397994 0.314878
vt 0.455542 0.312752
vt 0.088496 0.533105
vt 0.144340 0.569183
vt 0.394674 0.059371
vt 0.526466 0.850433
vt 0.195602 0.307039
vt 0.133577 0.321124
vt 0.072563 0.325020
vt 0.264425 0.306045
vt 0.506972 0.417769
vt 0.435776 0.078231
vt 0.522325 0.182320
vt 0.454382 0.192081
vt 0.453767 0.523114
vt 0.315671 0.623505
vt 0.490372 0.575963
vt 0.329526 0.564775
vt 0.189868 0.406845
vt 0.134879 0.320995
vt 0.526123 0.309994
vt 0.680022 0.199832
vt 0.706638 0.075165
vt 0.632603 0.041659
vt 0.602287 0.191619
vt 0.630764 0.487654
vt 0.583604 0.328340
vt 0.526466 0.470722
vt 0.717963 0.503084
vt 0.669158 0.332480
vt 0.761904 0.215417
vt 0.000171 0.329918
vt 0.022178 0.436299
vt 0.264082 0.301679
vt 0.326316 0.804247
vt 0.264425 0.655364
vt 0.315859 0.046880
vt 0.356403 0.000171
vt 0.000171 0.204454
vt 0.475026 0.037472
vt 0.442065 0.000171
vt 0.776497 0.503426
vt 0.055669 0.023589
vt 0.776497 0.974365
vt 0.400695 0.564433
vt 0.490372 0.749054
vt 0.526466 0.000171
vt 0.776791 0.346878
s 1
usemtl Bird
f 43/1/43 37/2/37 44/3/44
f 44/3/44 33/4/33 42/5/42
f 26/6/26 5/7/5 12/8/12
f 10/9/10 21/10/21 27/11/27
f 58/12/57 3/13/3 23/14/23
f 2/15/2 24/16/24 18/17/18
f 55/18/54 10/9/10 57/19/56
f 56/20/55 10/9/10 8/21/8
f 26/6/26 6/22/6 16/23/16
f 58/24/57 7/25/7 55/18/54
f 5/7/5 59/26/58 14/27/14
f 28/28/28 25/29/25 29/30/29
f 10/9/10 17/31/17 8/21/8
f 29/32/29 41/33/41 38/34/38
f 38/34/38 24/35/24 29/32/29
f 22/36/22 29/30/29 24/16/24
f 13/37/13 14/38/14 1/39/1
f 59/40/58 1/39/1 14/38/14
f 18/17/18 29/41/29 30/42/30
f 12/8/12 9/43/9 6/22/6
f 12/8/12 14/27/14 15/44/15
f 11/45/11 23/14/23 3/13/3
f 24/16/24 1/39/1 22/36/22
f 38/34/38 42/5/42 39/46/39
f 32/47/32 27/11/27 21/10/21
f 35/48/35 16/23/16 36/49/36
f 23/14/23 63/50/62 58/12/57
f 30/42/30 60/51/59 18/17/18
f 4/52/4 61/53/60 19/54/19
f 30/42/30 25/29/25 19/54/19
f 2/15/2 60/51/59 9/55/9
f 57/56/56 31/57/31 11/58/11
f 28/28/28 59/40/58 63/50/62
f 27/11/27 36/49/36 17/31/17
f 20/59/20 35/60/35 32/47/32
f 19/54/19 62/61/61 30/42/30
f 38/34/38 43/1/43 44/3/44
f 53/62/53 45/63/45 47/64/47
f 47/64/47 52/65/52 53/62/53
f 35/66/35 50/67/50 27/68/27
f 26/69/26 48/70/48 35/66/35
f 48/70/48 52/65/52 50/67/50
f 48/70/48 51/71/51 53/62/53
f 62/72/61 17/31/17 36/49/36
f 60/73/59 36/49/36 16/23/16
f 32/47/32 59/26/58 20/59/20
f 21/10/21 63/74/62 32/47/32
f 40/75/40 57/56/56 10/76/10
f 9/55/9 13/37/13 2/15/2
f 11/45/11 55/77/54 57/78/56
f 61/79/60 8/21/8 17/31/17
f 56/80/55 11/45/11 57/81/56
f 19/54/19 11/45/11 4/52/4
f 6/22/6 60/73/59 16/23/16
f 43/1/43 34/82/34 37/2/37
f 44/3/44 37/2/37 33/4/33
f 26/6/26 20/59/20 5/7/5
f 10/9/10 7/25/7 21/10/21
f 58/12/57 55/77/54 3/13/3
f 2/15/2 13/37/13 24/16/24
f 55/18/54 7/25/7 10/9/10
f 56/20/55 57/83/56 10/9/10
f 26/6/26 12/8/12 6/22/6
f 58/24/57 21/10/21 7/25/7
f 5/7/5 20/59/20 59/26/58
f 28/28/28 23/14/23 25/29/25
f 10/9/10 27/11/27 17/31/17
f 29/32/29 25/84/25 41/33/41
f 38/34/38 39/46/39 24/35/24
f 22/36/22 28/28/28 29/30/29
f 13/37/13 15/85/15 14/38/14
f 59/40/58 22/36/22 1/39/1
f 18/17/18 24/16/24 29/41/29
f 12/8/12 15/44/15 9/43/9
f 12/8/12 5/7/5 14/27/14
f 11/45/11 25/29/25 23/14/23
f 24/16/24 13/37/13 1/39/1
f 38/34/38 44/3/44 42/5/42
f 32/47/32 35/60/35 27/11/27
f 35/48/35 26/6/26 16/23/16
f 23/14/23 28/28/28 63/50/62
f 30/42/30 62/61/61 60/51/59
f 4/52/4 56/80/55 61/53/60
f 30/42/30 29/41/29 25/29/25
f 2/15/2 18/17/18 60/51/59
f 57/56/56 64/86/63 31/57/31
f 28/28/28 22/36/22 59/40/58
f 27/11/27 35/48/35 36/49/36
f 20/59/20 26/6/26 35/60/35
f 19/54/19 61/53/60 62/61/61
f 38/34/38 41/33/41 43/1/43
f 53/62/53 51/71/51 45/63/45
f 47/64/47 46/87/46 52/65/52
f 35/66/35 48/70/48 50/67/50
f 26/69/26 49/88/49 48/70/48
f 48/70/48 53/62/53 52/65/52
f 48/70/48 49/88/49 51/71/51
f 62/72/61 61/79/60 17/31/17
f 60/73/59 62/72/61 36/49/36
f 32/47/32 63/74/62 59/26/58
f 21/10/21 58/24/57 63/74/62
f 40/75/40 64/86/63 57/56/56
f 9/55/9 15/85/15 13/37/13
f 11/45/11 3/13/3 55/77/54
f 61/79/60 56/20/55 8/21/8
f 56/80/55 4/52/4 11/45/11
f 19/54/19 25/29/25 11/45/11
f 6/22/6 9/43/9 60/73/59
l 44 54
