# Blender 4.3.2
# www.blender.org
mtllib BirdCoastStartOndrej0080.mtl
o Cube
v -0.284552 1.410269 -0.032525
v -0.289446 1.436365 0.348435
v -0.292059 -1.173674 0.126319
v -0.304960 -1.286250 0.633503
v 0.246683 1.406184 -0.012520
v 0.229036 1.430094 0.372371
v 0.304266 -1.177953 0.160606
v 0.253812 -1.290365 0.666703
v -0.026016 1.557854 0.406046
v 0.356431 -1.516490 0.522359
v -0.386678 -1.510352 0.474935
v 0.305748 1.540344 0.186152
v -0.353048 1.545211 0.161741
v -0.000173 1.532415 -0.060211
v -0.000072 1.858602 0.178844
v 0.364679 0.891109 0.637518
v 0.395684 -0.647055 0.695385
v -0.468591 0.905711 0.595964
v -0.422679 -0.646251 0.673051
v 0.409595 0.785172 -0.087396
v 0.446101 -0.698812 -0.063913
v -0.432036 0.783297 -0.116942
v -0.429000 -0.698470 -0.083082
v -0.644134 0.847086 0.292047
v -0.620862 -0.468448 0.309261
v 0.596007 0.837885 0.303775
v 0.620508 -0.468884 0.329134
v -0.403587 0.059497 -0.103255
v -0.498435 0.240888 0.464719
v -0.462603 0.202867 0.724281
v -0.934003 -2.385262 0.209011
v 0.422081 0.061431 -0.092487
v -2.318388 0.156662 -1.064770
v -2.686020 -1.104800 -1.056094
v 0.499409 0.244881 0.431481
v 0.399252 0.203627 0.741596
v -2.467314 -0.367409 -1.096650
v -1.488767 0.321432 0.428122
v -1.508297 1.044967 0.302844
v 0.920041 -2.401474 0.330742
v -1.455570 -0.235308 0.496739
v -1.936336 0.746483 -0.256251
v -2.023366 -0.315535 -0.125007
v -1.943693 0.188575 -0.350906
v 2.314961 0.154037 -1.029762
v 2.667283 -1.110639 -1.039192
v 2.460738 -0.370797 -1.063587
v 1.465930 0.326715 0.455670
v 1.522400 1.042732 0.343029
v 1.445618 -0.240486 0.523476
v 1.942096 0.743131 -0.207383
v 2.004840 -0.322203 -0.104951
v 1.911193 0.183028 -0.274759
v -1.992605 0.200940 -0.325679
v -0.001181 -1.437980 0.318608
v -0.025924 -1.408958 0.625891
v -0.019023 -1.677160 0.529898
v 0.010090 -1.008589 -0.040107
v -0.003997 0.709433 -0.258064
v -0.033524 0.867872 0.719604
v -0.016936 -0.629240 0.827745
v -0.044405 0.170427 0.806374
v 0.009534 0.037568 -0.249767
v -0.018784 -3.096876 0.341036
vn -0.5251 0.4024 -0.7499
vn -0.5457 0.5211 0.6563
vn -0.3667 -0.5567 -0.7454
vn -0.4309 -0.2917 0.8540
vn 0.5829 0.3905 -0.7125
vn 0.5148 0.5104 0.6888
vn 0.4456 -0.5643 -0.6950
vn 0.3137 -0.2885 0.9046
vn -0.0261 0.5641 0.8253
vn 0.6187 -0.6714 -0.4078
vn -0.5674 -0.6694 -0.4795
vn 0.7870 0.6170 0.0019
vn -0.7632 0.6436 -0.0576
vn 0.0531 0.4926 -0.8686
vn 0.0407 0.9992 -0.0016
vn 0.5505 0.2935 0.7815
vn 0.6253 -0.0808 0.7762
vn -0.6213 0.2911 0.7275
vn -0.6637 -0.0970 0.7416
vn 0.7089 0.0954 -0.6989
vn 0.6293 -0.2421 -0.7385
vn -0.6811 0.0544 -0.7302
vn -0.5950 -0.2289 -0.7705
vn -0.9255 -0.0170 -0.3784
vn -0.9695 0.0134 -0.2449
vn 0.9477 0.0387 -0.3167
vn 0.9799 -0.0043 -0.1996
vn -0.7305 0.0276 -0.6824
vn -0.9255 0.0041 -0.3788
vn -0.6883 0.0547 0.7234
vn 0.2338 0.1343 -0.9630
vn 0.7472 0.0417 -0.6633
vn 0.8777 -0.1537 -0.4538
vn 0.8783 -0.2817 -0.3863
vn 0.9472 0.0312 -0.3190
vn 0.6154 0.0697 0.7851
vn 0.8750 -0.2697 -0.4020
vn 0.4571 -0.1417 -0.8780
vn 0.4325 -0.1425 -0.8903
vn -0.1036 0.1366 -0.9852
vn 0.3411 -0.0074 -0.9400
vn 0.8529 0.0274 -0.5213
vn 0.8506 -0.2686 -0.4519
vn 0.8803 -0.1248 -0.4577
vn -0.8756 -0.1381 -0.4629
vn -0.8774 -0.2583 -0.4042
vn -0.8732 -0.2513 -0.4176
vn -0.4238 -0.1216 -0.8975
vn -0.4242 -0.1080 -0.8991
vn -0.3264 -0.0294 -0.9448
vn -0.8423 0.0671 -0.5348
vn -0.8496 -0.2545 -0.4619
vn -0.8748 -0.1008 -0.4738
vn 0.0425 -0.6744 -0.7372
vn -0.0619 -0.3515 0.9341
vn 0.0538 -0.4678 -0.8822
vn 0.0319 -0.4452 -0.8949
vn 0.0284 0.0886 -0.9957
vn -0.0287 0.2964 0.9546
vn -0.0249 -0.0625 0.9977
vn -0.0278 0.0394 0.9988
vn 0.0153 -0.0477 -0.9987
vn 0.0662 0.1316 -0.9891
vt 0.700998 0.694997
vt 0.670437 0.545092
vt 0.621369 0.696438
vt 0.596471 0.578742
vt 0.541111 0.718945
vt 0.138103 0.398168
vt 0.174242 0.485498
vt 0.141975 0.497302
vt 0.107983 0.069452
vt 0.182907 0.197303
vt 0.129397 0.224081
vt 0.266355 0.190592
vt 0.352815 0.085994
vt 0.336442 0.195691
vt 0.429904 0.482460
vt 0.397402 0.392113
vt 0.443947 0.409050
vt 0.187795 0.044971
vt 0.138934 0.000171
vt 0.029842 0.060616
vt 0.071695 0.093735
vt 0.109596 0.492315
vt 0.088287 0.419477
vt 0.252567 0.185666
vt 0.154320 0.089942
vt 0.256922 0.409277
vt 0.199316 0.524593
vt 0.332726 0.306368
vt 0.392947 0.217683
vt 0.396959 0.314734
vt 0.066944 0.205988
vt 0.671843 0.984949
vt 0.719603 0.831796
vt 0.635445 0.834117
vt 0.582411 0.999829
vt 0.347575 0.403624
vt 0.400194 0.490316
vt 0.344346 0.521423
vt 0.367501 0.480626
vt 0.281259 0.411059
vt 0.397994 0.314878
vt 0.455542 0.312752
vt 0.088496 0.533105
vt 0.144340 0.569183
vt 0.394674 0.059371
vt 0.526466 0.850433
vt 0.195602 0.307039
vt 0.133577 0.321124
vt 0.072563 0.325020
vt 0.264425 0.306045
vt 0.506972 0.417769
vt 0.435776 0.078231
vt 0.522325 0.182320
vt 0.454382 0.192081
vt 0.453767 0.523114
vt 0.315671 0.623505
vt 0.490372 0.575963
vt 0.329526 0.564775
vt 0.189868 0.406845
vt 0.134879 0.320995
vt 0.526123 0.309994
vt 0.680022 0.199832
vt 0.706638 0.075165
vt 0.632603 0.041659
vt 0.602287 0.191619
vt 0.630764 0.487654
vt 0.583604 0.328340
vt 0.526466 0.470722
vt 0.717963 0.503084
vt 0.669158 0.332480
vt 0.761904 0.215417
vt 0.000171 0.329918
vt 0.022178 0.436299
vt 0.264082 0.301679
vt 0.326316 0.804247
vt 0.264425 0.655364
vt 0.315859 0.046880
vt 0.356403 0.000171
vt 0.000171 0.204454
vt 0.475026 0.037472
vt 0.442065 0.000171
vt 0.776497 0.503426
vt 0.055669 0.023589
vt 0.776497 0.974365
vt 0.400695 0.564433
vt 0.490372 0.749054
vt 0.526466 0.000171
vt 0.776791 0.346878
s 1
usemtl Bird
f 43/1/43 37/2/37 44/3/44
f 44/3/44 33/4/33 42/5/42
f 26/6/26 5/7/5 12/8/12
f 10/9/10 21/10/21 27/11/27
f 58/12/57 3/13/3 23/14/23
f 2/15/2 24/16/24 18/17/18
f 55/18/54 10/9/10 57/19/56
f 56/20/55 10/9/10 8/21/8
f 26/6/26 6/22/6 16/23/16
f 58/24/57 7/25/7 55/18/54
f 5/7/5 59/26/58 14/27/14
f 28/28/28 25/29/25 29/30/29
f 10/9/10 17/31/17 8/21/8
f 29/32/29 41/33/41 38/34/38
f 38/34/38 24/35/24 29/32/29
f 22/36/22 29/30/29 24/16/24
f 13/37/13 14/38/14 1/39/1
f 59/40/58 1/39/1 14/38/14
f 18/17/18 29/41/29 30/42/30
f 12/8/12 9/43/9 6/22/6
f 12/8/12 14/27/14 15/44/15
f 11/45/11 23/14/23 3/13/3
f 24/16/24 1/39/1 22/36/22
f 38/34/38 42/5/42 39/46/39
f 32/47/32 27/11/27 21/10/21
f 35/48/35 16/23/16 36/49/36
f 23/14/23 63/50/62 58/12/57
f 30/42/30 60/51/59 18/17/18
f 4/52/4 61/53/60 19/54/19
f 30/42/30 25/29/25 19/54/19
f 2/15/2 60/51/59 9/55/9
f 57/56/56 31/57/31 11/58/11
f 28/28/28 59/40/58 63/50/62
f 27/11/27 36/49/36 17/31/17
f 20/59/20 35/60/35 32/47/32
f 19/54/19 62/61/61 30/42/30
f 38/34/38 43/1/43 44/3/44
f 53/62/53 45/63/45 47/64/47
f 47/64/47 52/65/52 53/62/53
f 35/66/35 50/67/50 27/68/27
f 26/69/26 48/70/48 35/66/35
f 48/70/48 52/65/52 50/67/50
f 48/70/48 51/71/51 53/62/53
f 62/72/61 17/31/17 36/49/36
f 60/73/59 36/49/36 16/23/16
f 32/47/32 59/26/58 20/59/20
f 21/10/21 63/74/62 32/47/32
f 40/75/40 57/56/56 10/76/10
f 9/55/9 13/37/13 2/15/2
f 11/45/11 55/77/54 57/78/56
f 61/79/60 8/21/8 17/31/17
f 56/80/55 11/45/11 57/81/56
f 19/54/19 11/45/11 4/52/4
f 6/22/6 60/73/59 16/23/16
f 43/1/43 34/82/34 37/2/37
f 44/3/44 37/2/37 33/4/33
f 26/6/26 20/59/20 5/7/5
f 10/9/10 7/25/7 21/10/21
f 58/12/57 55/77/54 3/13/3
f 2/15/2 13/37/13 24/16/24
f 55/18/54 7/25/7 10/9/10
f 56/20/55 57/83/56 10/9/10
f 26/6/26 12/8/12 6/22/6
f 58/24/57 21/10/21 7/25/7
f 5/7/5 20/59/20 59/26/58
f 28/28/28 23/14/23 25/29/25
f 10/9/10 27/11/27 17/31/17
f 29/32/29 25/84/25 41/33/41
f 38/34/38 39/46/39 24/35/24
f 22/36/22 28/28/28 29/30/29
f 13/37/13 15/85/15 14/38/14
f 59/40/58 22/36/22 1/39/1
f 18/17/18 24/16/24 29/41/29
f 12/8/12 15/44/15 9/43/9
f 12/8/12 5/7/5 14/27/14
f 11/45/11 25/29/25 23/14/23
f 24/16/24 13/37/13 1/39/1
f 38/34/38 44/3/44 42/5/42
f 32/47/32 35/60/35 27/11/27
f 35/48/35 26/6/26 16/23/16
f 23/14/23 28/28/28 63/50/62
f 30/42/30 62/61/61 60/51/59
f 4/52/4 56/80/55 61/53/60
f 30/42/30 29/41/29 25/29/25
f 2/15/2 18/17/18 60/51/59
f 57/56/56 64/86/63 31/57/31
f 28/28/28 22/36/22 59/40/58
f 27/11/27 35/48/35 36/49/36
f 20/59/20 26/6/26 35/60/35
f 19/54/19 61/53/60 62/61/61
f 38/34/38 41/33/41 43/1/43
f 53/62/53 51/71/51 45/63/45
f 47/64/47 46/87/46 52/65/52
f 35/66/35 48/70/48 50/67/50
f 26/69/26 49/88/49 48/70/48
f 48/70/48 53/62/53 52/65/52
f 48/70/48 49/88/49 51/71/51
f 62/72/61 61/79/60 17/31/17
f 60/73/59 62/72/61 36/49/36
f 32/47/32 63/74/62 59/26/58
f 21/10/21 58/24/57 63/74/62
f 40/75/40 64/86/63 57/56/56
f 9/55/9 15/85/15 13/37/13
f 11/45/11 3/13/3 55/77/54
f 61/79/60 56/20/55 8/21/8
f 56/80/55 4/52/4 11/45/11
f 19/54/19 25/29/25 11/45/11
f 6/22/6 9/43/9 60/73/59
l 44 54
