# Blender 4.3.2
# www.blender.org
mtllib BirdAnimationOndrej0016.mtl
o Cube
v -0.284552 1.410269 -0.034152
v -0.289446 1.436365 0.346808
v -0.292058 -1.173714 0.124281
v -0.304965 -1.285785 0.631575
v 0.246683 1.406184 -0.014146
v 0.229036 1.430094 0.370745
v 0.304266 -1.177954 0.158581
v 0.253806 -1.289862 0.664786
v -0.026016 1.557854 0.404419
v 0.356427 -1.516104 0.520653
v -0.386682 -1.510023 0.473212
v 0.305748 1.540344 0.184526
v -0.353048 1.545211 0.160114
v -0.000173 1.532415 -0.061837
v -0.000072 1.858602 0.177218
v 0.364827 0.891444 0.635372
v 0.395683 -0.646961 0.693640
v -0.467494 0.906139 0.592192
v -0.422680 -0.646165 0.671304
v 0.411799 0.786219 -0.089693
v 0.446099 -0.698821 -0.065659
v -0.437559 0.784534 -0.120956
v -0.428897 -0.698292 -0.085629
v -0.650747 0.847147 0.292712
v -0.614146 -0.468071 0.303214
v 0.600003 0.838730 0.302829
v 0.615658 -0.468580 0.324281
v -0.408925 0.061840 -0.111654
v -0.492229 0.242668 0.453438
v -0.447165 0.203473 0.713511
v -0.934004 -2.385243 0.208299
v 0.423509 0.063649 -0.097316
v -2.062987 0.145286 -1.027334
v -2.454576 -1.110574 -1.070103
v 0.496230 0.247331 0.423699
v 0.393583 0.203970 0.736233
v -2.217462 -0.374698 -1.087333
v -1.483411 0.283608 0.571339
v -1.516413 1.012315 0.441550
v 0.920040 -2.401307 0.330071
v -1.430217 -0.267531 0.605730
v -1.815841 0.711543 -0.113931
v -1.929458 -0.344277 -0.031844
v -1.806745 0.164153 -0.262481
v 1.943806 0.153759 -1.104538
v 2.309496 -1.104456 -1.207819
v 2.088699 -0.366653 -1.182143
v 1.465463 0.285242 0.528373
v 1.540925 1.008371 0.423707
v 1.428752 -0.275737 0.569249
v 1.779855 0.709817 -0.151798
v 1.865537 -0.348929 -0.121632
v 1.726494 0.161102 -0.275912
v -1.858752 0.177620 -0.245290
v -0.001183 -1.437824 0.316806
v -0.025929 -1.408454 0.624060
v -0.019027 -1.676753 0.528369
v 0.010090 -1.008599 -0.041782
v -0.003997 0.709433 -0.259691
v -0.033524 0.867872 0.717977
v -0.016937 -0.629148 0.826020
v -0.040634 0.171586 0.798545
v 0.009534 0.037568 -0.251394
v -0.018786 -3.096688 0.341246
vn -0.5225 0.4049 -0.7504
vn -0.5427 0.5224 0.6577
vn -0.3666 -0.5571 -0.7452
vn -0.4306 -0.2916 0.8542
vn 0.5813 0.3918 -0.7131
vn 0.5129 0.5114 0.6894
vn 0.4460 -0.5643 -0.6947
vn 0.3133 -0.2884 0.9048
vn -0.0261 0.5641 0.8253
vn 0.6192 -0.6711 -0.4076
vn -0.5681 -0.6688 -0.4795
vn 0.7856 0.6187 0.0017
vn -0.7611 0.6460 -0.0580
vn 0.0531 0.4926 -0.8686
vn 0.0407 0.9992 -0.0016
vn 0.5488 0.2889 0.7845
vn 0.6302 -0.0771 0.7726
vn -0.6160 0.2818 0.7356
vn -0.6709 -0.0892 0.7362
vn 0.7080 0.0962 -0.6996
vn 0.6315 -0.2426 -0.7364
vn -0.6807 0.0577 -0.7303
vn -0.5969 -0.2312 -0.7683
vn -0.9406 -0.0233 -0.3388
vn -0.9741 0.0180 -0.2255
vn 0.9539 0.0361 -0.2978
vn 0.9808 -0.0011 -0.1952
vn -0.7307 0.0237 -0.6822
vn -0.9400 -0.0050 -0.3412
vn -0.6823 0.0508 0.7293
vn 0.2338 0.1332 -0.9631
vn 0.7474 0.0396 -0.6632
vn 0.9366 -0.1641 -0.3097
vn 0.9217 -0.3027 -0.2428
vn 0.9520 0.0267 -0.3049
vn 0.6134 0.0671 0.7869
vn 0.9213 -0.2901 -0.2591
vn 0.4482 -0.1213 -0.8857
vn 0.4139 -0.1414 -0.8993
vn -0.1036 0.1354 -0.9854
vn 0.2959 0.0524 -0.9538
vn 0.9198 0.0634 -0.3872
vn 0.9037 -0.2749 -0.3282
vn 0.9422 -0.1183 -0.3134
vn -0.9577 -0.1429 -0.2499
vn -0.9417 -0.2751 -0.1936
vn -0.9409 -0.2675 -0.2078
vn -0.4798 -0.0906 -0.8727
vn -0.4792 -0.0766 -0.8744
vn -0.3570 0.0229 -0.9338
vn -0.9361 0.1207 -0.3303
vn -0.9278 -0.2579 -0.2697
vn -0.9617 -0.0866 -0.2600
vn 0.0425 -0.6750 -0.7366
vn -0.0619 -0.3510 0.9343
vn 0.0538 -0.4689 -0.8816
vn 0.0323 -0.4452 -0.8948
vn 0.0315 0.0910 -0.9953
vn -0.0320 0.2909 0.9562
vn -0.0255 -0.0588 0.9979
vn -0.0334 0.0400 0.9986
vn 0.0197 -0.0502 -0.9985
vn 0.0662 0.1304 -0.9893
vt 0.700998 0.694997
vt 0.670437 0.545092
vt 0.621369 0.696438
vt 0.596471 0.578742
vt 0.541111 0.718945
vt 0.138103 0.398168
vt 0.174242 0.485498
vt 0.141975 0.497302
vt 0.107983 0.069452
vt 0.182907 0.197303
vt 0.129397 0.224081
vt 0.266355 0.190592
vt 0.352815 0.085994
vt 0.336442 0.195691
vt 0.429904 0.482460
vt 0.397402 0.392113
vt 0.443947 0.409050
vt 0.187795 0.044971
vt 0.138934 0.000171
vt 0.029842 0.060616
vt 0.071695 0.093735
vt 0.109596 0.492315
vt 0.088287 0.419477
vt 0.252567 0.185666
vt 0.154320 0.089942
vt 0.256922 0.409277
vt 0.199316 0.524593
vt 0.332726 0.306368
vt 0.392947 0.217683
vt 0.396959 0.314734
vt 0.066944 0.205988
vt 0.671843 0.984949
vt 0.719603 0.831796
vt 0.635445 0.834117
vt 0.582411 0.999829
vt 0.347575 0.403624
vt 0.400194 0.490316
vt 0.344346 0.521423
vt 0.367501 0.480626
vt 0.281259 0.411059
vt 0.397994 0.314878
vt 0.455542 0.312752
vt 0.088496 0.533105
vt 0.144340 0.569183
vt 0.394674 0.059371
vt 0.526466 0.850433
vt 0.195602 0.307039
vt 0.133577 0.321124
vt 0.072563 0.325020
vt 0.264425 0.306045
vt 0.506972 0.417769
vt 0.435776 0.078231
vt 0.522325 0.182320
vt 0.454382 0.192081
vt 0.453767 0.523114
vt 0.315671 0.623505
vt 0.490372 0.575963
vt 0.329526 0.564775
vt 0.189868 0.406845
vt 0.134879 0.320995
vt 0.526123 0.309994
vt 0.680022 0.199832
vt 0.706638 0.075165
vt 0.632603 0.041659
vt 0.602287 0.191619
vt 0.630764 0.487654
vt 0.583604 0.328340
vt 0.526466 0.470722
vt 0.717963 0.503084
vt 0.669158 0.332480
vt 0.761904 0.215417
vt 0.000171 0.329918
vt 0.022178 0.436299
vt 0.264082 0.301679
vt 0.326316 0.804247
vt 0.264425 0.655364
vt 0.315859 0.046880
vt 0.356403 0.000171
vt 0.000171 0.204454
vt 0.475026 0.037472
vt 0.442065 0.000171
vt 0.776497 0.503426
vt 0.055669 0.023589
vt 0.776497 0.974365
vt 0.400695 0.564433
vt 0.490372 0.749054
vt 0.526466 0.000171
vt 0.776791 0.346878
s 1
usemtl Bird
f 43/1/43 37/2/37 44/3/44
f 44/3/44 33/4/33 42/5/42
f 26/6/26 5/7/5 12/8/12
f 10/9/10 21/10/21 27/11/27
f 58/12/57 3/13/3 23/14/23
f 2/15/2 24/16/24 18/17/18
f 55/18/54 10/9/10 57/19/56
f 56/20/55 10/9/10 8/21/8
f 26/6/26 6/22/6 16/23/16
f 58/24/57 7/25/7 55/18/54
f 5/7/5 59/26/58 14/27/14
f 28/28/28 25/29/25 29/30/29
f 10/9/10 17/31/17 8/21/8
f 29/32/29 41/33/41 38/34/38
f 38/34/38 24/35/24 29/32/29
f 22/36/22 29/30/29 24/16/24
f 13/37/13 14/38/14 1/39/1
f 59/40/58 1/39/1 14/38/14
f 18/17/18 29/41/29 30/42/30
f 12/8/12 9/43/9 6/22/6
f 12/8/12 14/27/14 15/44/15
f 11/45/11 23/14/23 3/13/3
f 24/16/24 1/39/1 22/36/22
f 38/34/38 42/5/42 39/46/39
f 32/47/32 27/11/27 21/10/21
f 35/48/35 16/23/16 36/49/36
f 23/14/23 63/50/62 58/12/57
f 30/42/30 60/51/59 18/17/18
f 4/52/4 61/53/60 19/54/19
f 30/42/30 25/29/25 19/54/19
f 2/15/2 60/51/59 9/55/9
f 57/56/56 31/57/31 11/58/11
f 28/28/28 59/40/58 63/50/62
f 27/11/27 36/49/36 17/31/17
f 20/59/20 35/60/35 32/47/32
f 19/54/19 62/61/61 30/42/30
f 38/34/38 43/1/43 44/3/44
f 53/62/53 45/63/45 47/64/47
f 47/64/47 52/65/52 53/62/53
f 35/66/35 50/67/50 27/68/27
f 26/69/26 48/70/48 35/66/35
f 48/70/48 52/65/52 50/67/50
f 48/70/48 51/71/51 53/62/53
f 62/72/61 17/31/17 36/49/36
f 60/73/59 36/49/36 16/23/16
f 32/47/32 59/26/58 20/59/20
f 21/10/21 63/74/62 32/47/32
f 40/75/40 57/56/56 10/76/10
f 9/55/9 13/37/13 2/15/2
f 11/45/11 55/77/54 57/78/56
f 61/79/60 8/21/8 17/31/17
f 56/80/55 11/45/11 57/81/56
f 19/54/19 11/45/11 4/52/4
f 6/22/6 60/73/59 16/23/16
f 43/1/43 34/82/34 37/2/37
f 44/3/44 37/2/37 33/4/33
f 26/6/26 20/59/20 5/7/5
f 10/9/10 7/25/7 21/10/21
f 58/12/57 55/77/54 3/13/3
f 2/15/2 13/37/13 24/16/24
f 55/18/54 7/25/7 10/9/10
f 56/20/55 57/83/56 10/9/10
f 26/6/26 12/8/12 6/22/6
f 58/24/57 21/10/21 7/25/7
f 5/7/5 20/59/20 59/26/58
f 28/28/28 23/14/23 25/29/25
f 10/9/10 27/11/27 17/31/17
f 29/32/29 25/84/25 41/33/41
f 38/34/38 39/46/39 24/35/24
f 22/36/22 28/28/28 29/30/29
f 13/37/13 15/85/15 14/38/14
f 59/40/58 22/36/22 1/39/1
f 18/17/18 24/16/24 29/41/29
f 12/8/12 15/44/15 9/43/9
f 12/8/12 5/7/5 14/27/14
f 11/45/11 25/29/25 23/14/23
f 24/16/24 13/37/13 1/39/1
f 38/34/38 44/3/44 42/5/42
f 32/47/32 35/60/35 27/11/27
f 35/48/35 26/6/26 16/23/16
f 23/14/23 28/28/28 63/50/62
f 30/42/30 62/61/61 60/51/59
f 4/52/4 56/80/55 61/53/60
f 30/42/30 29/41/29 25/29/25
f 2/15/2 18/17/18 60/51/59
f 57/56/56 64/86/63 31/57/31
f 28/28/28 22/36/22 59/40/58
f 27/11/27 35/48/35 36/49/36
f 20/59/20 26/6/26 35/60/35
f 19/54/19 61/53/60 62/61/61
f 38/34/38 41/33/41 43/1/43
f 53/62/53 51/71/51 45/63/45
f 47/64/47 46/87/46 52/65/52
f 35/66/35 48/70/48 50/67/50
f 26/69/26 49/88/49 48/70/48
f 48/70/48 53/62/53 52/65/52
f 48/70/48 49/88/49 51/71/51
f 62/72/61 61/79/60 17/31/17
f 60/73/59 62/72/61 36/49/36
f 32/47/32 63/74/62 59/26/58
f 21/10/21 58/24/57 63/74/62
f 40/75/40 64/86/63 57/56/56
f 9/55/9 15/85/15 13/37/13
f 11/45/11 3/13/3 55/77/54
f 61/79/60 56/20/55 8/21/8
f 56/80/55 4/52/4 11/45/11
f 19/54/19 25/29/25 11/45/11
f 6/22/6 9/43/9 60/73/59
l 44 54
