# Blender 4.3.2
# www.blender.org
mtllib BirdCoastEndOndrej0004.mtl
o Cube
v -0.284552 1.410269 -0.200546
v -0.289446 1.436365 0.180414
v -0.292057 -1.176717 -0.064564
v -0.304968 -1.260712 0.447796
v 0.246683 1.406184 -0.180540
v 0.229036 1.430094 0.204350
v 0.304267 -1.178776 -0.029975
v 0.253803 -1.262690 0.481251
v -0.026016 1.557854 0.238025
v 0.356423 -1.494984 0.348873
v -0.386685 -1.492031 0.301095
v 0.305748 1.540344 0.018132
v -0.353048 1.545211 -0.006280
v -0.000173 1.532415 -0.228232
v -0.000072 1.858602 0.010823
v 0.360827 0.889252 0.443524
v 0.395683 -0.642013 0.520529
v -0.459764 0.903461 0.393321
v -0.422680 -0.641646 0.498149
v 0.434571 0.782210 -0.261638
v 0.446130 -0.699611 -0.238429
v -0.468932 0.779335 -0.292245
v -0.433423 -0.700141 -0.258254
v -0.652175 0.843462 0.097270
v -0.614192 -0.468407 0.130318
v 0.611838 0.834382 0.112891
v 0.615423 -0.468688 0.151753
v -0.466917 0.052925 -0.281177
v -0.503440 0.235345 0.238790
v -0.399079 0.199522 0.453182
v -0.934005 -2.382431 0.092919
v 0.472536 0.055983 -0.266841
v -2.287489 0.569108 2.266914
v -2.295054 -0.597607 2.872742
v 0.519885 0.237150 0.196638
v 0.360974 0.200436 0.493136
v -2.309905 0.088416 2.524359
v -0.973855 0.445371 1.142396
v -1.182371 1.135797 0.827347
v 0.920037 -2.390275 0.215469
v -0.954497 -0.125258 1.077586
v -1.675161 0.986980 1.568436
v -1.501794 -0.033861 1.890616
v -1.666095 0.468073 1.762257
v 2.171092 0.573496 2.377600
v 2.152925 -0.592629 2.981999
v 2.180687 0.093099 2.636391
v 0.915907 0.456414 1.175049
v 1.149395 1.139576 0.876022
v 0.919698 -0.126583 1.097203
v 1.600387 0.988954 1.638343
v 1.410019 -0.030889 1.959959
v 1.540729 0.461614 1.808368
v -1.630779 0.487547 1.801693
v -0.001184 -1.429587 0.140425
v -0.025933 -1.381057 0.445409
v -0.019031 -1.654099 0.366599
v 0.010090 -1.009205 -0.210848
v -0.003997 0.709433 -0.426085
v -0.033524 0.867872 0.551583
v -0.016938 -0.624227 0.653973
v -0.037639 0.166077 0.579776
v 0.009534 0.037568 -0.417788
v -0.018790 -3.082791 0.275828
vn -0.5138 0.4135 -0.7517
vn -0.5521 0.5109 0.6589
vn -0.3770 -0.5608 -0.7371
vn -0.4111 -0.2868 0.8653
vn 0.5713 0.4005 -0.7164
vn 0.5171 0.5042 0.6916
vn 0.4621 -0.5662 -0.6826
vn 0.2931 -0.2824 0.9134
vn -0.0261 0.5641 0.8253
vn 0.6118 -0.6990 -0.3703
vn -0.5616 -0.6989 -0.4430
vn 0.7825 0.6226 0.0045
vn -0.7606 0.6469 -0.0542
vn 0.0531 0.4926 -0.8686
vn 0.0407 0.9992 -0.0016
vn 0.5590 0.2464 0.7917
vn 0.6277 -0.0498 0.7769
vn -0.6284 0.2353 0.7414
vn -0.6701 -0.0556 0.7402
vn 0.6952 0.1188 -0.7090
vn 0.6247 -0.2535 -0.7386
vn -0.6820 0.0805 -0.7269
vn -0.5927 -0.2431 -0.7679
vn -0.9955 -0.0360 -0.0875
vn -0.9995 -0.0026 -0.0323
vn 0.9988 0.0120 -0.0477
vn 0.9998 -0.0178 0.0047
vn -0.7475 0.0160 -0.6640
vn -0.9998 -0.0173 -0.0118
vn -0.6507 0.0386 0.7584
vn 0.2354 0.0686 -0.9695
vn 0.7535 0.0281 -0.6569
vn -0.6268 -0.3302 -0.7057
vn -0.6073 -0.3701 -0.7030
vn 0.9997 0.0236 0.0039
vn 0.5908 0.0556 0.8049
vn -0.6119 -0.3649 -0.7018
vn -0.8075 -0.2291 -0.5436
vn -0.7560 -0.4467 -0.4785
vn -0.1053 0.0693 -0.9920
vn -0.8682 0.0656 -0.4918
vn -0.6597 -0.3340 -0.6732
vn -0.6572 -0.3164 -0.6841
vn -0.6283 -0.3282 -0.7053
vn 0.6638 -0.3332 -0.6696
vn 0.6468 -0.3640 -0.6702
vn 0.6507 -0.3607 -0.6681
vn 0.8429 -0.2114 -0.4949
vn 0.7663 -0.4588 -0.4498
vn 0.9013 0.0820 -0.4253
vn 0.6912 -0.3472 -0.6337
vn 0.6975 -0.3079 -0.6471
vn 0.6653 -0.3347 -0.6673
vn 0.0433 -0.7072 -0.7057
vn -0.0616 -0.3230 0.9444
vn 0.0537 -0.5276 -0.8478
vn 0.0347 -0.4334 -0.9005
vn 0.0316 0.0989 -0.9946
vn -0.0423 0.2359 0.9709
vn -0.0257 -0.0385 0.9989
vn -0.0585 0.0529 0.9969
vn 0.0206 -0.0554 -0.9983
vn 0.0662 0.0633 -0.9958
vt 0.700998 0.694997
vt 0.670437 0.545092
vt 0.621369 0.696438
vt 0.596471 0.578742
vt 0.541111 0.718945
vt 0.138103 0.398168
vt 0.174242 0.485498
vt 0.141975 0.497302
vt 0.107983 0.069452
vt 0.182907 0.197303
vt 0.129397 0.224081
vt 0.266355 0.190592
vt 0.352815 0.085994
vt 0.336442 0.195691
vt 0.429904 0.482460
vt 0.397402 0.392113
vt 0.443947 0.409050
vt 0.187795 0.044971
vt 0.138934 0.000171
vt 0.029842 0.060616
vt 0.071695 0.093735
vt 0.109596 0.492315
vt 0.088287 0.419477
vt 0.252567 0.185666
vt 0.154320 0.089942
vt 0.256922 0.409277
vt 0.199316 0.524593
vt 0.332726 0.306368
vt 0.392947 0.217683
vt 0.396959 0.314734
vt 0.066944 0.205988
vt 0.671843 0.984949
vt 0.719603 0.831796
vt 0.635445 0.834117
vt 0.582411 0.999829
vt 0.347575 0.403624
vt 0.400194 0.490316
vt 0.344346 0.521423
vt 0.367501 0.480626
vt 0.281259 0.411059
vt 0.397994 0.314878
vt 0.455542 0.312752
vt 0.088496 0.533105
vt 0.144340 0.569183
vt 0.394674 0.059371
vt 0.526466 0.850433
vt 0.195602 0.307039
vt 0.133577 0.321124
vt 0.072563 0.325020
vt 0.264425 0.306045
vt 0.506972 0.417769
vt 0.435776 0.078231
vt 0.522325 0.182320
vt 0.454382 0.192081
vt 0.453767 0.523114
vt 0.315671 0.623505
vt 0.490372 0.575963
vt 0.329526 0.564775
vt 0.189868 0.406845
vt 0.134879 0.320995
vt 0.526123 0.309994
vt 0.680022 0.199832
vt 0.706638 0.075165
vt 0.632603 0.041659
vt 0.602287 0.191619
vt 0.630764 0.487654
vt 0.583604 0.328340
vt 0.526466 0.470722
vt 0.717963 0.503084
vt 0.669158 0.332480
vt 0.761904 0.215417
vt 0.000171 0.329918
vt 0.022178 0.436299
vt 0.264082 0.301679
vt 0.326316 0.804247
vt 0.264425 0.655364
vt 0.315859 0.046880
vt 0.356403 0.000171
vt 0.000171 0.204454
vt 0.475026 0.037472
vt 0.442065 0.000171
vt 0.776497 0.503426
vt 0.055669 0.023589
vt 0.776497 0.974365
vt 0.400695 0.564433
vt 0.490372 0.749054
vt 0.526466 0.000171
vt 0.776791 0.346878
s 1
usemtl Bird
f 43/1/43 37/2/37 44/3/44
f 44/3/44 33/4/33 42/5/42
f 26/6/26 5/7/5 12/8/12
f 10/9/10 21/10/21 27/11/27
f 58/12/57 3/13/3 23/14/23
f 2/15/2 24/16/24 18/17/18
f 55/18/54 10/9/10 57/19/56
f 56/20/55 10/9/10 8/21/8
f 26/6/26 6/22/6 16/23/16
f 58/24/57 7/25/7 55/18/54
f 5/7/5 59/26/58 14/27/14
f 28/28/28 25/29/25 29/30/29
f 10/9/10 17/31/17 8/21/8
f 29/32/29 41/33/41 38/34/38
f 38/34/38 24/35/24 29/32/29
f 22/36/22 29/30/29 24/16/24
f 13/37/13 14/38/14 1/39/1
f 59/40/58 1/39/1 14/38/14
f 18/17/18 29/41/29 30/42/30
f 12/8/12 9/43/9 6/22/6
f 12/8/12 14/27/14 15/44/15
f 11/45/11 23/14/23 3/13/3
f 24/16/24 1/39/1 22/36/22
f 38/34/38 42/5/42 39/46/39
f 32/47/32 27/11/27 21/10/21
f 35/48/35 16/23/16 36/49/36
f 23/14/23 63/50/62 58/12/57
f 30/42/30 60/51/59 18/17/18
f 4/52/4 61/53/60 19/54/19
f 30/42/30 25/29/25 19/54/19
f 2/15/2 60/51/59 9/55/9
f 57/56/56 31/57/31 11/58/11
f 28/28/28 59/40/58 63/50/62
f 27/11/27 36/49/36 17/31/17
f 20/59/20 35/60/35 32/47/32
f 19/54/19 62/61/61 30/42/30
f 38/34/38 43/1/43 44/3/44
f 53/62/53 45/63/45 47/64/47
f 47/64/47 52/65/52 53/62/53
f 35/66/35 50/67/50 27/68/27
f 26/69/26 48/70/48 35/66/35
f 48/70/48 52/65/52 50/67/50
f 48/70/48 51/71/51 53/62/53
f 62/72/61 17/31/17 36/49/36
f 60/73/59 36/49/36 16/23/16
f 32/47/32 59/26/58 20/59/20
f 21/10/21 63/74/62 32/47/32
f 40/75/40 57/56/56 10/76/10
f 9/55/9 13/37/13 2/15/2
f 11/45/11 55/77/54 57/78/56
f 61/79/60 8/21/8 17/31/17
f 56/80/55 11/45/11 57/81/56
f 19/54/19 11/45/11 4/52/4
f 6/22/6 60/73/59 16/23/16
f 43/1/43 34/82/34 37/2/37
f 44/3/44 37/2/37 33/4/33
f 26/6/26 20/59/20 5/7/5
f 10/9/10 7/25/7 21/10/21
f 58/12/57 55/77/54 3/13/3
f 2/15/2 13/37/13 24/16/24
f 55/18/54 7/25/7 10/9/10
f 56/20/55 57/83/56 10/9/10
f 26/6/26 12/8/12 6/22/6
f 58/24/57 21/10/21 7/25/7
f 5/7/5 20/59/20 59/26/58
f 28/28/28 23/14/23 25/29/25
f 10/9/10 27/11/27 17/31/17
f 29/32/29 25/84/25 41/33/41
f 38/34/38 39/46/39 24/35/24
f 22/36/22 28/28/28 29/30/29
f 13/37/13 15/85/15 14/38/14
f 59/40/58 22/36/22 1/39/1
f 18/17/18 24/16/24 29/41/29
f 12/8/12 15/44/15 9/43/9
f 12/8/12 5/7/5 14/27/14
f 11/45/11 25/29/25 23/14/23
f 24/16/24 13/37/13 1/39/1
f 38/34/38 44/3/44 42/5/42
f 32/47/32 35/60/35 27/11/27
f 35/48/35 26/6/26 16/23/16
f 23/14/23 28/28/28 63/50/62
f 30/42/30 62/61/61 60/51/59
f 4/52/4 56/80/55 61/53/60
f 30/42/30 29/41/29 25/29/25
f 2/15/2 18/17/18 60/51/59
f 57/56/56 64/86/63 31/57/31
f 28/28/28 22/36/22 59/40/58
f 27/11/27 35/48/35 36/49/36
f 20/59/20 26/6/26 35/60/35
f 19/54/19 61/53/60 62/61/61
f 38/34/38 41/33/41 43/1/43
f 53/62/53 51/71/51 45/63/45
f 47/64/47 46/87/46 52/65/52
f 35/66/35 48/70/48 50/67/50
f 26/69/26 49/88/49 48/70/48
f 48/70/48 53/62/53 52/65/52
f 48/70/48 49/88/49 51/71/51
f 62/72/61 61/79/60 17/31/17
f 60/73/59 62/72/61 36/49/36
f 32/47/32 63/74/62 59/26/58
f 21/10/21 58/24/57 63/74/62
f 40/75/40 64/86/63 57/56/56
f 9/55/9 15/85/15 13/37/13
f 11/45/11 3/13/3 55/77/54
f 61/79/60 56/20/55 8/21/8
f 56/80/55 4/52/4 11/45/11
f 19/54/19 25/29/25 11/45/11
f 6/22/6 9/43/9 60/73/59
l 44 54
