# Blender 4.3.2
# www.blender.org
mtllib BirdAnimationOndrej0011.mtl
o Cube
v -0.284552 1.410269 0.008190
v -0.289446 1.436365 0.389150
v -0.292057 -1.172777 0.178160
v -0.304965 -1.299044 0.682123
v 0.246683 1.406184 0.028195
v 0.229036 1.430094 0.413086
v 0.304267 -1.178123 0.212258
v 0.253807 -1.304188 0.715157
v -0.026016 1.557854 0.446761
v 0.356426 -1.527029 0.565184
v -0.386682 -1.519357 0.517994
v 0.305748 1.540344 0.226867
v -0.353048 1.545211 0.202455
v -0.000173 1.532415 -0.019496
v -0.000072 1.858602 0.219559
v 0.374182 0.890519 0.684966
v 0.395684 -0.649666 0.739279
v -0.483798 0.904590 0.645681
v -0.422680 -0.648651 0.716976
v 0.406089 0.787863 -0.037703
v 0.446090 -0.698587 -0.020031
v -0.425874 0.787618 -0.062708
v -0.427160 -0.697438 -0.038209
v -0.648675 0.847294 0.339053
v -0.618227 -0.468750 0.347658
v 0.602914 0.839218 0.357549
v 0.618547 -0.469207 0.368100
v -0.386451 0.067400 -0.043205
v -0.509218 0.242187 0.521116
v -0.507894 0.195921 0.775800
v -0.934006 -2.385321 0.224519
v 0.409267 0.067231 -0.037664
v -2.840662 0.158558 -0.870495
v -3.187483 -1.105747 -0.794117
v 0.509404 0.247362 0.493650
v 0.429638 0.199350 0.792774
v -2.999323 -0.363145 -0.848183
v -1.383419 0.254111 0.073048
v -1.456183 0.991591 0.031212
v 0.920037 -2.405566 0.345687
v -1.336766 -0.295946 0.168016
v -2.100061 0.698944 -0.460305
v -2.139361 -0.363933 -0.282706
v -2.169112 0.156094 -0.423246
v 2.857729 0.157495 -0.795042
v 3.201023 -1.106797 -0.713954
v 3.014839 -0.364575 -0.770450
v 1.370920 0.265495 0.118051
v 1.474037 0.994813 0.098539
v 1.338552 -0.294998 0.214698
v 2.114021 0.699012 -0.392264
v 2.142927 -0.364392 -0.224468
v 2.133693 0.151978 -0.337176
v -2.199643 0.167349 -0.377172
v -0.001182 -1.442294 0.364026
v -0.025929 -1.422764 0.671930
v -0.019028 -1.688194 0.567748
v 0.010090 -1.008360 0.001940
v -0.003997 0.709433 -0.217350
v -0.033524 0.867872 0.760318
v -0.016937 -0.631810 0.871116
v -0.056437 0.169707 0.860911
v 0.009534 0.037568 -0.209053
v -0.018790 -3.101102 0.331674
vn -0.5260 0.3988 -0.7512
vn -0.5411 0.5264 0.6558
vn -0.3591 -0.5544 -0.7508
vn -0.4384 -0.2947 0.8491
vn 0.5835 0.3883 -0.7133
vn 0.5077 0.5164 0.6896
vn 0.4339 -0.5636 -0.7030
vn 0.3220 -0.2921 0.9006
vn -0.0261 0.5641 0.8253
vn 0.6226 -0.6565 -0.4259
vn -0.5710 -0.6533 -0.4972
vn 0.7848 0.6198 -0.0000
vn -0.7618 0.6451 -0.0585
vn 0.0531 0.4926 -0.8686
vn 0.0407 0.9992 -0.0016
vn 0.5399 0.3068 0.7839
vn 0.6279 -0.0884 0.7733
vn -0.6220 0.3064 0.7206
vn -0.6661 -0.1097 0.7377
vn 0.7107 0.0858 -0.6983
vn 0.6322 -0.2372 -0.7376
vn -0.6829 0.0409 -0.7294
vn -0.5978 -0.2218 -0.7703
vn -0.8928 0.0384 -0.4489
vn -0.9485 -0.0004 -0.3167
vn 0.9260 0.0988 -0.3643
vn 0.9669 -0.0172 -0.2545
vn -0.7353 0.0313 -0.6770
vn -0.8819 0.0201 -0.4710
vn -0.7275 0.0594 0.6835
vn 0.2330 0.1660 -0.9582
vn 0.7498 0.0441 -0.6602
vn 0.5446 -0.1821 -0.8187
vn 0.5386 -0.1961 -0.8194
vn 0.9267 0.0421 -0.3734
vn 0.6337 0.0699 0.7704
vn 0.5398 -0.1963 -0.8186
vn 0.4851 -0.0902 -0.8698
vn 0.4850 -0.0018 -0.8745
vn -0.1027 0.1689 -0.9803
vn 0.4361 -0.0434 -0.8988
vn 0.5622 -0.0872 -0.8224
vn 0.5330 -0.1786 -0.8270
vn 0.5433 -0.1603 -0.8241
vn -0.5254 -0.1739 -0.8329
vn -0.5207 -0.1939 -0.8314
vn -0.5214 -0.1941 -0.8310
vn -0.4478 -0.0795 -0.8906
vn -0.4501 0.0398 -0.8921
vn -0.4017 -0.0677 -0.9133
vn -0.5451 -0.0586 -0.8363
vn -0.5162 -0.1805 -0.8373
vn -0.5249 -0.1498 -0.8379
vn 0.0421 -0.6579 -0.7519
vn -0.0621 -0.3655 0.9287
vn 0.0539 -0.4381 -0.8973
vn 0.0300 -0.4502 -0.8924
vn 0.0228 0.0794 -0.9966
vn -0.0253 0.3065 0.9515
vn -0.0233 -0.0654 0.9976
vn -0.0287 0.0414 0.9987
vn 0.0091 -0.0394 -0.9992
vn 0.0662 0.1644 -0.9842
vt 0.700998 0.694997
vt 0.670437 0.545092
vt 0.621369 0.696438
vt 0.596471 0.578742
vt 0.541111 0.718945
vt 0.138103 0.398168
vt 0.174242 0.485498
vt 0.141975 0.497302
vt 0.107983 0.069452
vt 0.182907 0.197303
vt 0.129397 0.224081
vt 0.266355 0.190592
vt 0.352815 0.085994
vt 0.336442 0.195691
vt 0.429904 0.482460
vt 0.397402 0.392113
vt 0.443947 0.409050
vt 0.187795 0.044971
vt 0.138934 0.000171
vt 0.029842 0.060616
vt 0.071695 0.093735
vt 0.109596 0.492315
vt 0.088287 0.419477
vt 0.252567 0.185666
vt 0.154320 0.089942
vt 0.256922 0.409277
vt 0.199316 0.524593
vt 0.332726 0.306368
vt 0.392947 0.217683
vt 0.396959 0.314734
vt 0.066944 0.205988
vt 0.671843 0.984949
vt 0.719603 0.831796
vt 0.635445 0.834117
vt 0.582411 0.999829
vt 0.347575 0.403624
vt 0.400194 0.490316
vt 0.344346 0.521423
vt 0.367501 0.480626
vt 0.281259 0.411059
vt 0.397994 0.314878
vt 0.455542 0.312752
vt 0.088496 0.533105
vt 0.144340 0.569183
vt 0.394674 0.059371
vt 0.526466 0.850433
vt 0.195602 0.307039
vt 0.133577 0.321124
vt 0.072563 0.325020
vt 0.264425 0.306045
vt 0.506972 0.417769
vt 0.435776 0.078231
vt 0.522325 0.182320
vt 0.454382 0.192081
vt 0.453767 0.523114
vt 0.315671 0.623505
vt 0.490372 0.575963
vt 0.329526 0.564775
vt 0.189868 0.406845
vt 0.134879 0.320995
vt 0.526123 0.309994
vt 0.680022 0.199832
vt 0.706638 0.075165
vt 0.632603 0.041659
vt 0.602287 0.191619
vt 0.630764 0.487654
vt 0.583604 0.328340
vt 0.526466 0.470722
vt 0.717963 0.503084
vt 0.669158 0.332480
vt 0.761904 0.215417
vt 0.000171 0.329918
vt 0.022178 0.436299
vt 0.264082 0.301679
vt 0.326316 0.804247
vt 0.264425 0.655364
vt 0.315859 0.046880
vt 0.356403 0.000171
vt 0.000171 0.204454
vt 0.475026 0.037472
vt 0.442065 0.000171
vt 0.776497 0.503426
vt 0.055669 0.023589
vt 0.776497 0.974365
vt 0.400695 0.564433
vt 0.490372 0.749054
vt 0.526466 0.000171
vt 0.776791 0.346878
s 1
usemtl Bird
f 43/1/43 37/2/37 44/3/44
f 44/3/44 33/4/33 42/5/42
f 26/6/26 5/7/5 12/8/12
f 10/9/10 21/10/21 27/11/27
f 58/12/57 3/13/3 23/14/23
f 2/15/2 24/16/24 18/17/18
f 55/18/54 10/9/10 57/19/56
f 56/20/55 10/9/10 8/21/8
f 26/6/26 6/22/6 16/23/16
f 58/24/57 7/25/7 55/18/54
f 5/7/5 59/26/58 14/27/14
f 28/28/28 25/29/25 29/30/29
f 10/9/10 17/31/17 8/21/8
f 29/32/29 41/33/41 38/34/38
f 38/34/38 24/35/24 29/32/29
f 22/36/22 29/30/29 24/16/24
f 13/37/13 14/38/14 1/39/1
f 59/40/58 1/39/1 14/38/14
f 18/17/18 29/41/29 30/42/30
f 12/8/12 9/43/9 6/22/6
f 12/8/12 14/27/14 15/44/15
f 11/45/11 23/14/23 3/13/3
f 24/16/24 1/39/1 22/36/22
f 38/34/38 42/5/42 39/46/39
f 32/47/32 27/11/27 21/10/21
f 35/48/35 16/23/16 36/49/36
f 23/14/23 63/50/62 58/12/57
f 30/42/30 60/51/59 18/17/18
f 4/52/4 61/53/60 19/54/19
f 30/42/30 25/29/25 19/54/19
f 2/15/2 60/51/59 9/55/9
f 57/56/56 31/57/31 11/58/11
f 28/28/28 59/40/58 63/50/62
f 27/11/27 36/49/36 17/31/17
f 20/59/20 35/60/35 32/47/32
f 19/54/19 62/61/61 30/42/30
f 38/34/38 43/1/43 44/3/44
f 53/62/53 45/63/45 47/64/47
f 47/64/47 52/65/52 53/62/53
f 35/66/35 50/67/50 27/68/27
f 26/69/26 48/70/48 35/66/35
f 48/70/48 52/65/52 50/67/50
f 48/70/48 51/71/51 53/62/53
f 62/72/61 17/31/17 36/49/36
f 60/73/59 36/49/36 16/23/16
f 32/47/32 59/26/58 20/59/20
f 21/10/21 63/74/62 32/47/32
f 40/75/40 57/56/56 10/76/10
f 9/55/9 13/37/13 2/15/2
f 11/45/11 55/77/54 57/78/56
f 61/79/60 8/21/8 17/31/17
f 56/80/55 11/45/11 57/81/56
f 19/54/19 11/45/11 4/52/4
f 6/22/6 60/73/59 16/23/16
f 43/1/43 34/82/34 37/2/37
f 44/3/44 37/2/37 33/4/33
f 26/6/26 20/59/20 5/7/5
f 10/9/10 7/25/7 21/10/21
f 58/12/57 55/77/54 3/13/3
f 2/15/2 13/37/13 24/16/24
f 55/18/54 7/25/7 10/9/10
f 56/20/55 57/83/56 10/9/10
f 26/6/26 12/8/12 6/22/6
f 58/24/57 21/10/21 7/25/7
f 5/7/5 20/59/20 59/26/58
f 28/28/28 23/14/23 25/29/25
f 10/9/10 27/11/27 17/31/17
f 29/32/29 25/84/25 41/33/41
f 38/34/38 39/46/39 24/35/24
f 22/36/22 28/28/28 29/30/29
f 13/37/13 15/85/15 14/38/14
f 59/40/58 22/36/22 1/39/1
f 18/17/18 24/16/24 29/41/29
f 12/8/12 15/44/15 9/43/9
f 12/8/12 5/7/5 14/27/14
f 11/45/11 25/29/25 23/14/23
f 24/16/24 13/37/13 1/39/1
f 38/34/38 44/3/44 42/5/42
f 32/47/32 35/60/35 27/11/27
f 35/48/35 26/6/26 16/23/16
f 23/14/23 28/28/28 63/50/62
f 30/42/30 62/61/61 60/51/59
f 4/52/4 56/80/55 61/53/60
f 30/42/30 29/41/29 25/29/25
f 2/15/2 18/17/18 60/51/59
f 57/56/56 64/86/63 31/57/31
f 28/28/28 22/36/22 59/40/58
f 27/11/27 35/48/35 36/49/36
f 20/59/20 26/6/26 35/60/35
f 19/54/19 61/53/60 62/61/61
f 38/34/38 41/33/41 43/1/43
f 53/62/53 51/71/51 45/63/45
f 47/64/47 46/87/46 52/65/52
f 35/66/35 48/70/48 50/67/50
f 26/69/26 49/88/49 48/70/48
f 48/70/48 53/62/53 52/65/52
f 48/70/48 49/88/49 51/71/51
f 62/72/61 61/79/60 17/31/17
f 60/73/59 62/72/61 36/49/36
f 32/47/32 63/74/62 59/26/58
f 21/10/21 58/24/57 63/74/62
f 40/75/40 64/86/63 57/56/56
f 9/55/9 15/85/15 13/37/13
f 11/45/11 3/13/3 55/77/54
f 61/79/60 56/20/55 8/21/8
f 56/80/55 4/52/4 11/45/11
f 19/54/19 25/29/25 11/45/11
f 6/22/6 9/43/9 60/73/59
l 44 54
