# Blender 4.3.2
# www.blender.org
mtllib BirdCoastStartOndrej0078.mtl
o Cube
v -0.284552 1.410269 0.036334
v -0.289446 1.436365 0.417294
v -0.292059 -1.172837 0.205397
v -0.304961 -1.297990 0.709640
v 0.246683 1.406184 0.056339
v 0.229036 1.430094 0.441230
v 0.304266 -1.178095 0.239506
v 0.253811 -1.303048 0.742684
v -0.026016 1.557854 0.474905
v 0.356430 -1.526164 0.593166
v -0.386679 -1.518620 0.545962
v 0.305748 1.540344 0.255011
v -0.353048 1.545211 0.230600
v -0.000173 1.532415 0.008648
v -0.000072 1.858602 0.247703
v 0.376064 0.890551 0.713497
v 0.395684 -0.649448 0.767166
v -0.486570 0.904667 0.673925
v -0.422679 -0.648451 0.744862
v 0.405229 0.787720 -0.007683
v 0.446089 -0.698601 0.007858
v -0.424295 0.787379 -0.031645
v -0.427165 -0.697511 -0.009684
v -0.656493 0.848187 0.371258
v -0.620776 -0.468784 0.377668
v 0.603041 0.839170 0.386519
v 0.620450 -0.469229 0.397736
v -0.384678 0.066919 -0.008528
v -0.514713 0.242062 0.553701
v -0.520009 0.196283 0.803997
v -0.934003 -2.385352 0.254732
v 0.407846 0.066894 -0.004804
v -1.117079 0.000411 -1.666664
v -1.392417 -1.278021 -1.804243
v 0.514219 0.247170 0.527150
v 0.437770 0.199540 0.821758
v -1.207679 -0.531198 -1.750504
v -1.333497 0.258310 0.014036
v -1.382534 0.994243 0.006280
v 0.920042 -2.405262 0.375933
v -1.321588 -0.290816 0.127590
v -1.324773 0.637164 -0.784518
v -1.423459 -0.426351 -0.708171
v -1.237246 0.074846 -0.872286
v 1.164315 0.004743 -1.627006
v 1.426201 -1.274800 -1.767441
v 1.255654 -0.526914 -1.709736
v 1.325839 0.269352 0.063121
v 1.416438 0.997614 0.065747
v 1.327865 -0.290208 0.179134
v 1.369311 0.640652 -0.723997
v 1.432500 -0.425978 -0.666721
v 1.267665 0.078023 -0.779747
v -1.291853 0.085598 -0.881458
v -0.001181 -1.441936 0.391792
v -0.025925 -1.421630 0.699657
v -0.019024 -1.687296 0.596140
v 0.010090 -1.008377 0.029975
v -0.003997 0.709433 -0.189206
v -0.033524 0.867872 0.788463
v -0.016936 -0.631597 0.899046
v -0.059987 0.169725 0.891279
v 0.009534 0.037568 -0.180908
v -0.018783 -3.100820 0.363915
vn -0.5244 0.3987 -0.7524
vn -0.5367 0.5291 0.6573
vn -0.3606 -0.5541 -0.7503
vn -0.4379 -0.2944 0.8495
vn 0.5839 0.3876 -0.7133
vn 0.5073 0.5169 0.6896
vn 0.4349 -0.5636 -0.7023
vn 0.3213 -0.2918 0.9009
vn -0.0261 0.5641 0.8253
vn 0.6221 -0.6580 -0.4243
vn -0.5704 -0.6550 -0.4956
vn 0.7848 0.6198 -0.0001
vn -0.7593 0.6480 -0.0592
vn 0.0531 0.4926 -0.8686
vn 0.0407 0.9992 -0.0016
vn 0.5391 0.3105 0.7829
vn 0.6252 -0.0913 0.7751
vn -0.6148 0.3099 0.7252
vn -0.6628 -0.1138 0.7401
vn 0.7107 0.0840 -0.6985
vn 0.6316 -0.2357 -0.7386
vn -0.6800 0.0364 -0.7323
vn -0.5975 -0.2198 -0.7712
vn -0.8848 0.0603 -0.4621
vn -0.9464 -0.0077 -0.3229
vn 0.9214 0.1175 -0.3704
vn 0.9660 -0.0230 -0.2577
vn -0.7370 0.0333 -0.6751
vn -0.8747 0.0253 -0.4841
vn -0.7364 0.0617 0.6737
vn 0.2330 0.1634 -0.9586
vn 0.7506 0.0454 -0.6592
vn 0.9801 -0.1187 0.1594
vn 0.9431 -0.2491 0.2203
vn 0.9256 0.0441 -0.3760
vn 0.6368 0.0703 0.7678
vn 0.9493 -0.2380 0.2054
vn 0.8868 -0.0541 -0.4589
vn 0.8381 0.0501 -0.5433
vn -0.1028 0.1663 -0.9807
vn 0.7951 -0.0188 -0.6062
vn 0.9897 0.1169 0.0830
vn 0.9604 -0.2357 0.1487
vn 0.9850 -0.0766 0.1548
vn -0.9856 -0.1088 0.1296
vn -0.9551 -0.2320 0.1844
vn -0.9591 -0.2257 0.1710
vn -0.8600 -0.0404 -0.5087
vn -0.8025 0.1020 -0.5879
vn -0.7753 -0.0490 -0.6297
vn -0.9866 0.1575 0.0430
vn -0.9661 -0.2284 0.1205
vn -0.9915 -0.0569 0.1172
vn 0.0422 -0.6593 -0.7507
vn -0.0621 -0.3643 0.9292
vn 0.0539 -0.4406 -0.8961
vn 0.0298 -0.4496 -0.8927
vn 0.0214 0.0768 -0.9968
vn -0.0251 0.3080 0.9510
vn -0.0228 -0.0673 0.9975
vn -0.0299 0.0415 0.9987
vn 0.0073 -0.0365 -0.9993
vn 0.0662 0.1618 -0.9846
vt 0.700998 0.694997
vt 0.670437 0.545092
vt 0.621369 0.696438
vt 0.596471 0.578742
vt 0.541111 0.718945
vt 0.138103 0.398168
vt 0.174242 0.485498
vt 0.141975 0.497302
vt 0.107983 0.069452
vt 0.182907 0.197303
vt 0.129397 0.224081
vt 0.266355 0.190592
vt 0.352815 0.085994
vt 0.336442 0.195691
vt 0.429904 0.482460
vt 0.397402 0.392113
vt 0.443947 0.409050
vt 0.187795 0.044971
vt 0.138934 0.000171
vt 0.029842 0.060616
vt 0.071695 0.093735
vt 0.109596 0.492315
vt 0.088287 0.419477
vt 0.252567 0.185666
vt 0.154320 0.089942
vt 0.256922 0.409277
vt 0.199316 0.524593
vt 0.332726 0.306368
vt 0.392947 0.217683
vt 0.396959 0.314734
vt 0.066944 0.205988
vt 0.671843 0.984949
vt 0.719603 0.831796
vt 0.635445 0.834117
vt 0.582411 0.999829
vt 0.347575 0.403624
vt 0.400194 0.490316
vt 0.344346 0.521423
vt 0.367501 0.480626
vt 0.281259 0.411059
vt 0.397994 0.314878
vt 0.455542 0.312752
vt 0.088496 0.533105
vt 0.144340 0.569183
vt 0.394674 0.059371
vt 0.526466 0.850433
vt 0.195602 0.307039
vt 0.133577 0.321124
vt 0.072563 0.325020
vt 0.264425 0.306045
vt 0.506972 0.417769
vt 0.435776 0.078231
vt 0.522325 0.182320
vt 0.454382 0.192081
vt 0.453767 0.523114
vt 0.315671 0.623505
vt 0.490372 0.575963
vt 0.329526 0.564775
vt 0.189868 0.406845
vt 0.134879 0.320995
vt 0.526123 0.309994
vt 0.680022 0.199832
vt 0.706638 0.075165
vt 0.632603 0.041659
vt 0.602287 0.191619
vt 0.630764 0.487654
vt 0.583604 0.328340
vt 0.526466 0.470722
vt 0.717963 0.503084
vt 0.669158 0.332480
vt 0.761904 0.215417
vt 0.000171 0.329918
vt 0.022178 0.436299
vt 0.264082 0.301679
vt 0.326316 0.804247
vt 0.264425 0.655364
vt 0.315859 0.046880
vt 0.356403 0.000171
vt 0.000171 0.204454
vt 0.475026 0.037472
vt 0.442065 0.000171
vt 0.776497 0.503426
vt 0.055669 0.023589
vt 0.776497 0.974365
vt 0.400695 0.564433
vt 0.490372 0.749054
vt 0.526466 0.000171
vt 0.776791 0.346878
s 1
usemtl Bird
f 43/1/43 37/2/37 44/3/44
f 44/3/44 33/4/33 42/5/42
f 26/6/26 5/7/5 12/8/12
f 10/9/10 21/10/21 27/11/27
f 58/12/57 3/13/3 23/14/23
f 2/15/2 24/16/24 18/17/18
f 55/18/54 10/9/10 57/19/56
f 56/20/55 10/9/10 8/21/8
f 26/6/26 6/22/6 16/23/16
f 58/24/57 7/25/7 55/18/54
f 5/7/5 59/26/58 14/27/14
f 28/28/28 25/29/25 29/30/29
f 10/9/10 17/31/17 8/21/8
f 29/32/29 41/33/41 38/34/38
f 38/34/38 24/35/24 29/32/29
f 22/36/22 29/30/29 24/16/24
f 13/37/13 14/38/14 1/39/1
f 59/40/58 1/39/1 14/38/14
f 18/17/18 29/41/29 30/42/30
f 12/8/12 9/43/9 6/22/6
f 12/8/12 14/27/14 15/44/15
f 11/45/11 23/14/23 3/13/3
f 24/16/24 1/39/1 22/36/22
f 38/34/38 42/5/42 39/46/39
f 32/47/32 27/11/27 21/10/21
f 35/48/35 16/23/16 36/49/36
f 23/14/23 63/50/62 58/12/57
f 30/42/30 60/51/59 18/17/18
f 4/52/4 61/53/60 19/54/19
f 30/42/30 25/29/25 19/54/19
f 2/15/2 60/51/59 9/55/9
f 57/56/56 31/57/31 11/58/11
f 28/28/28 59/40/58 63/50/62
f 27/11/27 36/49/36 17/31/17
f 20/59/20 35/60/35 32/47/32
f 19/54/19 62/61/61 30/42/30
f 38/34/38 43/1/43 44/3/44
f 53/62/53 45/63/45 47/64/47
f 47/64/47 52/65/52 53/62/53
f 35/66/35 50/67/50 27/68/27
f 26/69/26 48/70/48 35/66/35
f 48/70/48 52/65/52 50/67/50
f 48/70/48 51/71/51 53/62/53
f 62/72/61 17/31/17 36/49/36
f 60/73/59 36/49/36 16/23/16
f 32/47/32 59/26/58 20/59/20
f 21/10/21 63/74/62 32/47/32
f 40/75/40 57/56/56 10/76/10
f 9/55/9 13/37/13 2/15/2
f 11/45/11 55/77/54 57/78/56
f 61/79/60 8/21/8 17/31/17
f 56/80/55 11/45/11 57/81/56
f 19/54/19 11/45/11 4/52/4
f 6/22/6 60/73/59 16/23/16
f 43/1/43 34/82/34 37/2/37
f 44/3/44 37/2/37 33/4/33
f 26/6/26 20/59/20 5/7/5
f 10/9/10 7/25/7 21/10/21
f 58/12/57 55/77/54 3/13/3
f 2/15/2 13/37/13 24/16/24
f 55/18/54 7/25/7 10/9/10
f 56/20/55 57/83/56 10/9/10
f 26/6/26 12/8/12 6/22/6
f 58/24/57 21/10/21 7/25/7
f 5/7/5 20/59/20 59/26/58
f 28/28/28 23/14/23 25/29/25
f 10/9/10 27/11/27 17/31/17
f 29/32/29 25/84/25 41/33/41
f 38/34/38 39/46/39 24/35/24
f 22/36/22 28/28/28 29/30/29
f 13/37/13 15/85/15 14/38/14
f 59/40/58 22/36/22 1/39/1
f 18/17/18 24/16/24 29/41/29
f 12/8/12 15/44/15 9/43/9
f 12/8/12 5/7/5 14/27/14
f 11/45/11 25/29/25 23/14/23
f 24/16/24 13/37/13 1/39/1
f 38/34/38 44/3/44 42/5/42
f 32/47/32 35/60/35 27/11/27
f 35/48/35 26/6/26 16/23/16
f 23/14/23 28/28/28 63/50/62
f 30/42/30 62/61/61 60/51/59
f 4/52/4 56/80/55 61/53/60
f 30/42/30 29/41/29 25/29/25
f 2/15/2 18/17/18 60/51/59
f 57/56/56 64/86/63 31/57/31
f 28/28/28 22/36/22 59/40/58
f 27/11/27 35/48/35 36/49/36
f 20/59/20 26/6/26 35/60/35
f 19/54/19 61/53/60 62/61/61
f 38/34/38 41/33/41 43/1/43
f 53/62/53 51/71/51 45/63/45
f 47/64/47 46/87/46 52/65/52
f 35/66/35 48/70/48 50/67/50
f 26/69/26 49/88/49 48/70/48
f 48/70/48 53/62/53 52/65/52
f 48/70/48 49/88/49 51/71/51
f 62/72/61 61/79/60 17/31/17
f 60/73/59 62/72/61 36/49/36
f 32/47/32 63/74/62 59/26/58
f 21/10/21 58/24/57 63/74/62
f 40/75/40 64/86/63 57/56/56
f 9/55/9 15/85/15 13/37/13
f 11/45/11 3/13/3 55/77/54
f 61/79/60 56/20/55 8/21/8
f 56/80/55 4/52/4 11/45/11
f 19/54/19 25/29/25 11/45/11
f 6/22/6 9/43/9 60/73/59
l 44 54
