# Blender 4.3.2
# www.blender.org
mtllib BirdCoastStartOndrej0079.mtl
o Cube
v -0.284552 1.410269 0.004942
v -0.289446 1.436365 0.385902
v -0.292059 -1.173194 0.169163
v -0.304961 -1.292403 0.674848
v 0.246683 1.406184 0.024948
v 0.229036 1.430094 0.409839
v 0.304266 -1.177989 0.203361
v 0.253811 -1.297015 0.707970
v -0.026016 1.557854 0.443513
v 0.356430 -1.521576 0.560890
v -0.386679 -1.514697 0.513576
v 0.305748 1.540344 0.223620
v -0.353048 1.545211 0.199208
v -0.000173 1.532415 -0.022744
v -0.000072 1.858602 0.216311
v 0.370473 0.891005 0.679606
v 0.395684 -0.648304 0.734400
v -0.477388 0.905479 0.639376
v -0.422679 -0.647398 0.712081
v 0.406476 0.786619 -0.044285
v 0.446094 -0.698690 -0.024914
v -0.426835 0.785484 -0.071449
v -0.427928 -0.697963 -0.043354
v -0.651323 0.847912 0.336026
v -0.620923 -0.468628 0.346546
v 0.598948 0.838801 0.349252
v 0.620560 -0.469071 0.366494
v -0.391897 0.063379 -0.053573
v -0.505613 0.241902 0.513814
v -0.491988 0.200264 0.771322
v -0.934003 -2.385399 0.234296
v 0.413022 0.064435 -0.045631
v -1.439511 0.047150 -1.489971
v -1.780653 -1.218761 -1.600705
v 0.505823 0.246569 0.484601
v 0.419722 0.201953 0.787757
v -1.559630 -0.479262 -1.569393
v -1.440467 0.281915 0.203297
v -1.458788 1.011934 0.147519
v 0.920041 -2.403560 0.355763
v -1.420487 -0.269706 0.295761
v -1.522697 0.670733 -0.572350
v -1.647318 -0.386875 -0.494095
v -1.459480 0.111406 -0.685926
v 1.434408 0.053232 -1.463838
v 1.753893 -1.215005 -1.591646
v 1.551274 -0.473511 -1.545875
v 1.418959 0.289229 0.231598
v 1.482175 1.012757 0.187684
v 1.412983 -0.272718 0.325999
v 1.536242 0.672680 -0.527530
v 1.624150 -0.388778 -0.477829
v 1.451029 0.112959 -0.609405
v -1.514351 0.124273 -0.688222
v -0.001181 -1.440046 0.358368
v -0.025925 -1.415610 0.665991
v -0.019024 -1.682507 0.566027
v 0.010090 -1.008473 -0.001996
v -0.003997 0.709433 -0.220597
v -0.033524 0.867872 0.757071
v -0.016936 -0.630471 0.866508
v -0.051790 0.170508 0.853886
v 0.009534 0.037568 -0.212300
v -0.018783 -3.099131 0.354310
vn -0.5247 0.4005 -0.7512
vn -0.5403 0.5259 0.6569
vn -0.3637 -0.5554 -0.7479
vn -0.4347 -0.2931 0.8516
vn 0.5838 0.3887 -0.7128
vn 0.5109 0.5140 0.6891
vn 0.4403 -0.5639 -0.6987
vn 0.3178 -0.2902 0.9027
vn -0.0261 0.5641 0.8253
vn 0.6205 -0.6645 -0.4165
vn -0.5690 -0.6619 -0.4880
vn 0.7860 0.6182 0.0008
vn -0.7609 0.6462 -0.0586
vn 0.0531 0.4926 -0.8686
vn 0.0407 0.9992 -0.0016
vn 0.5443 0.3037 0.7819
vn 0.6253 -0.0873 0.7755
vn -0.6162 0.3022 0.7273
vn -0.6633 -0.1067 0.7407
vn 0.7104 0.0889 -0.6982
vn 0.6306 -0.2384 -0.7386
vn -0.6800 0.0445 -0.7319
vn -0.5962 -0.2239 -0.7710
vn -0.9008 0.0151 -0.4339
vn -0.9561 0.0064 -0.2931
vn 0.9315 0.0745 -0.3560
vn 0.9709 -0.0116 -0.2392
vn -0.7329 0.0308 -0.6796
vn -0.8968 0.0133 -0.4423
vn -0.7120 0.0584 0.6998
vn 0.2334 0.1496 -0.9608
vn 0.7487 0.0441 -0.6615
vn 0.9874 -0.1540 0.0368
vn 0.9519 -0.2888 0.1024
vn 0.9313 0.0366 -0.3624
vn 0.6269 0.0705 0.7759
vn 0.9569 -0.2772 0.0864
vn 0.7690 -0.1008 -0.6312
vn 0.7235 -0.0345 -0.6895
vn -0.1032 0.1523 -0.9829
vn 0.6505 -0.0090 -0.7594
vn 0.9952 0.0867 -0.0447
vn 0.9622 -0.2714 0.0221
vn 0.9935 -0.1089 0.0326
vn -0.9898 -0.1398 0.0290
vn -0.9596 -0.2676 0.0867
vn -0.9626 -0.2609 0.0725
vn -0.7468 -0.0794 -0.6603
vn -0.7087 0.0191 -0.7053
vn -0.6438 -0.0380 -0.7643
vn -0.9892 0.1328 -0.0615
vn -0.9655 -0.2599 0.0152
vn -0.9963 -0.0845 0.0170
vn 0.0423 -0.6665 -0.7443
vn -0.0620 -0.3582 0.9316
vn 0.0538 -0.4535 -0.8896
vn 0.0309 -0.4476 -0.8937
vn 0.0254 0.0826 -0.9963
vn -0.0264 0.3044 0.9522
vn -0.0239 -0.0660 0.9975
vn -0.0276 0.0399 0.9988
vn 0.0119 -0.0421 -0.9990
vn 0.0662 0.1475 -0.9868
vt 0.700998 0.694997
vt 0.670437 0.545092
vt 0.621369 0.696438
vt 0.596471 0.578742
vt 0.541111 0.718945
vt 0.138103 0.398168
vt 0.174242 0.485498
vt 0.141975 0.497302
vt 0.107983 0.069452
vt 0.182907 0.197303
vt 0.129397 0.224081
vt 0.266355 0.190592
vt 0.352815 0.085994
vt 0.336442 0.195691
vt 0.429904 0.482460
vt 0.397402 0.392113
vt 0.443947 0.409050
vt 0.187795 0.044971
vt 0.138934 0.000171
vt 0.029842 0.060616
vt 0.071695 0.093735
vt 0.109596 0.492315
vt 0.088287 0.419477
vt 0.252567 0.185666
vt 0.154320 0.089942
vt 0.256922 0.409277
vt 0.199316 0.524593
vt 0.332726 0.306368
vt 0.392947 0.217683
vt 0.396959 0.314734
vt 0.066944 0.205988
vt 0.671843 0.984949
vt 0.719603 0.831796
vt 0.635445 0.834117
vt 0.582411 0.999829
vt 0.347575 0.403624
vt 0.400194 0.490316
vt 0.344346 0.521423
vt 0.367501 0.480626
vt 0.281259 0.411059
vt 0.397994 0.314878
vt 0.455542 0.312752
vt 0.088496 0.533105
vt 0.144340 0.569183
vt 0.394674 0.059371
vt 0.526466 0.850433
vt 0.195602 0.307039
vt 0.133577 0.321124
vt 0.072563 0.325020
vt 0.264425 0.306045
vt 0.506972 0.417769
vt 0.435776 0.078231
vt 0.522325 0.182320
vt 0.454382 0.192081
vt 0.453767 0.523114
vt 0.315671 0.623505
vt 0.490372 0.575963
vt 0.329526 0.564775
vt 0.189868 0.406845
vt 0.134879 0.320995
vt 0.526123 0.309994
vt 0.680022 0.199832
vt 0.706638 0.075165
vt 0.632603 0.041659
vt 0.602287 0.191619
vt 0.630764 0.487654
vt 0.583604 0.328340
vt 0.526466 0.470722
vt 0.717963 0.503084
vt 0.669158 0.332480
vt 0.761904 0.215417
vt 0.000171 0.329918
vt 0.022178 0.436299
vt 0.264082 0.301679
vt 0.326316 0.804247
vt 0.264425 0.655364
vt 0.315859 0.046880
vt 0.356403 0.000171
vt 0.000171 0.204454
vt 0.475026 0.037472
vt 0.442065 0.000171
vt 0.776497 0.503426
vt 0.055669 0.023589
vt 0.776497 0.974365
vt 0.400695 0.564433
vt 0.490372 0.749054
vt 0.526466 0.000171
vt 0.776791 0.346878
s 1
usemtl Bird
f 43/1/43 37/2/37 44/3/44
f 44/3/44 33/4/33 42/5/42
f 26/6/26 5/7/5 12/8/12
f 10/9/10 21/10/21 27/11/27
f 58/12/57 3/13/3 23/14/23
f 2/15/2 24/16/24 18/17/18
f 55/18/54 10/9/10 57/19/56
f 56/20/55 10/9/10 8/21/8
f 26/6/26 6/22/6 16/23/16
f 58/24/57 7/25/7 55/18/54
f 5/7/5 59/26/58 14/27/14
f 28/28/28 25/29/25 29/30/29
f 10/9/10 17/31/17 8/21/8
f 29/32/29 41/33/41 38/34/38
f 38/34/38 24/35/24 29/32/29
f 22/36/22 29/30/29 24/16/24
f 13/37/13 14/38/14 1/39/1
f 59/40/58 1/39/1 14/38/14
f 18/17/18 29/41/29 30/42/30
f 12/8/12 9/43/9 6/22/6
f 12/8/12 14/27/14 15/44/15
f 11/45/11 23/14/23 3/13/3
f 24/16/24 1/39/1 22/36/22
f 38/34/38 42/5/42 39/46/39
f 32/47/32 27/11/27 21/10/21
f 35/48/35 16/23/16 36/49/36
f 23/14/23 63/50/62 58/12/57
f 30/42/30 60/51/59 18/17/18
f 4/52/4 61/53/60 19/54/19
f 30/42/30 25/29/25 19/54/19
f 2/15/2 60/51/59 9/55/9
f 57/56/56 31/57/31 11/58/11
f 28/28/28 59/40/58 63/50/62
f 27/11/27 36/49/36 17/31/17
f 20/59/20 35/60/35 32/47/32
f 19/54/19 62/61/61 30/42/30
f 38/34/38 43/1/43 44/3/44
f 53/62/53 45/63/45 47/64/47
f 47/64/47 52/65/52 53/62/53
f 35/66/35 50/67/50 27/68/27
f 26/69/26 48/70/48 35/66/35
f 48/70/48 52/65/52 50/67/50
f 48/70/48 51/71/51 53/62/53
f 62/72/61 17/31/17 36/49/36
f 60/73/59 36/49/36 16/23/16
f 32/47/32 59/26/58 20/59/20
f 21/10/21 63/74/62 32/47/32
f 40/75/40 57/56/56 10/76/10
f 9/55/9 13/37/13 2/15/2
f 11/45/11 55/77/54 57/78/56
f 61/79/60 8/21/8 17/31/17
f 56/80/55 11/45/11 57/81/56
f 19/54/19 11/45/11 4/52/4
f 6/22/6 60/73/59 16/23/16
f 43/1/43 34/82/34 37/2/37
f 44/3/44 37/2/37 33/4/33
f 26/6/26 20/59/20 5/7/5
f 10/9/10 7/25/7 21/10/21
f 58/12/57 55/77/54 3/13/3
f 2/15/2 13/37/13 24/16/24
f 55/18/54 7/25/7 10/9/10
f 56/20/55 57/83/56 10/9/10
f 26/6/26 12/8/12 6/22/6
f 58/24/57 21/10/21 7/25/7
f 5/7/5 20/59/20 59/26/58
f 28/28/28 23/14/23 25/29/25
f 10/9/10 27/11/27 17/31/17
f 29/32/29 25/84/25 41/33/41
f 38/34/38 39/46/39 24/35/24
f 22/36/22 28/28/28 29/30/29
f 13/37/13 15/85/15 14/38/14
f 59/40/58 22/36/22 1/39/1
f 18/17/18 24/16/24 29/41/29
f 12/8/12 15/44/15 9/43/9
f 12/8/12 5/7/5 14/27/14
f 11/45/11 25/29/25 23/14/23
f 24/16/24 13/37/13 1/39/1
f 38/34/38 44/3/44 42/5/42
f 32/47/32 35/60/35 27/11/27
f 35/48/35 26/6/26 16/23/16
f 23/14/23 28/28/28 63/50/62
f 30/42/30 62/61/61 60/51/59
f 4/52/4 56/80/55 61/53/60
f 30/42/30 29/41/29 25/29/25
f 2/15/2 18/17/18 60/51/59
f 57/56/56 64/86/63 31/57/31
f 28/28/28 22/36/22 59/40/58
f 27/11/27 35/48/35 36/49/36
f 20/59/20 26/6/26 35/60/35
f 19/54/19 61/53/60 62/61/61
f 38/34/38 41/33/41 43/1/43
f 53/62/53 51/71/51 45/63/45
f 47/64/47 46/87/46 52/65/52
f 35/66/35 48/70/48 50/67/50
f 26/69/26 49/88/49 48/70/48
f 48/70/48 53/62/53 52/65/52
f 48/70/48 49/88/49 51/71/51
f 62/72/61 61/79/60 17/31/17
f 60/73/59 62/72/61 36/49/36
f 32/47/32 63/74/62 59/26/58
f 21/10/21 58/24/57 63/74/62
f 40/75/40 64/86/63 57/56/56
f 9/55/9 15/85/15 13/37/13
f 11/45/11 3/13/3 55/77/54
f 61/79/60 56/20/55 8/21/8
f 56/80/55 4/52/4 11/45/11
f 19/54/19 25/29/25 11/45/11
f 6/22/6 9/43/9 60/73/59
l 44 54
