# Blender 4.3.2
# www.blender.org
mtllib BirdAnimationOndrej0010.mtl
o Cube
v -0.284552 1.410269 -0.034152
v -0.289446 1.436365 0.346808
v -0.292057 -1.173171 0.130341
v -0.304962 -1.292716 0.635946
v 0.246683 1.406184 -0.014146
v 0.229036 1.430094 0.370745
v 0.304267 -1.177993 0.164537
v 0.253809 -1.297355 0.669067
v -0.026016 1.557854 0.404419
v 0.356428 -1.521835 0.521850
v -0.386681 -1.514916 0.474537
v 0.305748 1.540344 0.184526
v -0.353048 1.545211 0.160114
v -0.000173 1.532415 -0.061837
v -0.000072 1.858602 0.177218
v 0.368354 0.890995 0.639279
v 0.395684 -0.648368 0.695384
v -0.474007 0.905446 0.598777
v -0.422679 -0.647456 0.673066
v 0.408591 0.786994 -0.085704
v 0.446095 -0.698684 -0.063935
v -0.430757 0.786034 -0.114287
v -0.428029 -0.697865 -0.083251
v -0.645308 0.847146 0.289832
v -0.616611 -0.468537 0.304079
v 0.600097 0.839007 0.308876
v 0.617354 -0.469003 0.324693
v -0.396749 0.064433 -0.101316
v -0.498687 0.242339 0.466217
v -0.474167 0.199821 0.727190
v -0.934006 -2.385398 0.194578
v 0.416331 0.065268 -0.090745
v -3.162715 0.183346 -0.103213
v -3.484804 -1.067575 0.130308
v 0.500558 0.247166 0.436409
v 0.408635 0.201654 0.744633
v -3.313241 -0.332896 -0.010031
v -1.476252 0.269944 0.312396
v -1.543800 1.002282 0.204862
v 0.920038 -2.403663 0.316042
v -1.411961 -0.281280 0.373141
v -2.320059 0.716811 0.008090
v -2.316486 -0.337885 0.243803
v -2.382309 0.177336 0.101595
v 3.141998 0.173649 -0.111349
v 3.460416 -1.080058 0.109074
v 3.290713 -0.344133 -0.023995
v 1.451533 0.277811 0.323864
v 1.544722 1.003543 0.247459
v 1.402171 -0.283604 0.387123
v 2.306613 0.711597 0.019438
v 2.297433 -0.345128 0.241714
v 2.315741 0.166878 0.114818
v -2.396018 0.190901 0.154602
v -0.001182 -1.440152 0.319389
v -0.025927 -1.415949 0.627028
v -0.019026 -1.682778 0.526862
v 0.010090 -1.008467 -0.041058
v -0.003997 0.709433 -0.259691
v -0.033524 0.867872 0.717977
v -0.016936 -0.630535 0.827479
v -0.047109 0.170649 0.809407
v 0.009534 0.037568 -0.251394
v -0.018789 -3.099235 0.313986
vn -0.5248 0.4017 -0.7505
vn -0.5448 0.5228 0.6556
vn -0.3626 -0.5559 -0.7480
vn -0.4349 -0.2932 0.8514
vn 0.5828 0.3899 -0.7129
vn 0.5109 0.5135 0.6894
vn 0.4400 -0.5639 -0.6989
vn 0.3180 -0.2903 0.9026
vn -0.0261 0.5641 0.8253
vn 0.6210 -0.6635 -0.4173
vn -0.5696 -0.6608 -0.4888
vn 0.7856 0.6187 0.0009
vn -0.7628 0.6441 -0.0575
vn 0.0531 0.4926 -0.8686
vn 0.0407 0.9992 -0.0016
vn 0.5450 0.2973 0.7840
vn 0.6294 -0.0825 0.7727
vn -0.6234 0.2948 0.7242
vn -0.6686 -0.0994 0.7370
vn 0.7098 0.0918 -0.6984
vn 0.6315 -0.2405 -0.7371
vn -0.6820 0.0502 -0.7296
vn -0.5969 -0.2271 -0.7695
vn -0.9156 -0.0075 -0.4020
vn -0.9616 0.0132 -0.2740
vn 0.9409 0.0560 -0.3341
vn 0.9740 -0.0058 -0.2266
vn -0.7314 0.0274 -0.6814
vn -0.9117 0.0051 -0.4109
vn -0.7007 0.0548 0.7113
vn 0.2334 0.1504 -0.9607
vn 0.7479 0.0418 -0.6625
vn 0.2454 -0.2292 -0.9419
vn 0.2387 -0.2357 -0.9420
vn 0.9382 0.0332 -0.3445
vn 0.6225 0.0691 0.7796
vn 0.2404 -0.2361 -0.9415
vn 0.1734 -0.1404 -0.9748
vn 0.1797 -0.1267 -0.9755
vn -0.1031 0.1531 -0.9828
vn 0.1102 -0.0204 -0.9937
vn 0.2551 -0.1710 -0.9517
vn 0.2262 -0.2095 -0.9513
vn 0.2431 -0.2128 -0.9464
vn -0.2561 -0.2167 -0.9420
vn -0.2514 -0.2281 -0.9406
vn -0.2524 -0.2285 -0.9403
vn -0.1655 -0.1199 -0.9789
vn -0.1843 -0.0795 -0.9797
vn -0.1033 -0.0405 -0.9938
vn -0.2701 -0.1408 -0.9525
vn -0.2399 -0.2051 -0.9489
vn -0.2551 -0.1993 -0.9462
vn 0.0423 -0.6661 -0.7447
vn -0.0620 -0.3586 0.9314
vn 0.0538 -0.4528 -0.8900
vn 0.0313 -0.4480 -0.8935
vn 0.0275 0.0863 -0.9959
vn -0.0276 0.2999 0.9536
vn -0.0246 -0.0624 0.9977
vn -0.0282 0.0403 0.9988
vn 0.0149 -0.0459 -0.9988
vn 0.0662 0.1483 -0.9867
vt 0.700998 0.694997
vt 0.670437 0.545092
vt 0.621369 0.696438
vt 0.596471 0.578742
vt 0.541111 0.718945
vt 0.138103 0.398168
vt 0.174242 0.485498
vt 0.141975 0.497302
vt 0.107983 0.069452
vt 0.182907 0.197303
vt 0.129397 0.224081
vt 0.266355 0.190592
vt 0.352815 0.085994
vt 0.336442 0.195691
vt 0.429904 0.482460
vt 0.397402 0.392113
vt 0.443947 0.409050
vt 0.187795 0.044971
vt 0.138934 0.000171
vt 0.029842 0.060616
vt 0.071695 0.093735
vt 0.109596 0.492315
vt 0.088287 0.419477
vt 0.252567 0.185666
vt 0.154320 0.089942
vt 0.256922 0.409277
vt 0.199316 0.524593
vt 0.332726 0.306368
vt 0.392947 0.217683
vt 0.396959 0.314734
vt 0.066944 0.205988
vt 0.671843 0.984949
vt 0.719603 0.831796
vt 0.635445 0.834117
vt 0.582411 0.999829
vt 0.347575 0.403624
vt 0.400194 0.490316
vt 0.344346 0.521423
vt 0.367501 0.480626
vt 0.281259 0.411059
vt 0.397994 0.314878
vt 0.455542 0.312752
vt 0.088496 0.533105
vt 0.144340 0.569183
vt 0.394674 0.059371
vt 0.526466 0.850433
vt 0.195602 0.307039
vt 0.133577 0.321124
vt 0.072563 0.325020
vt 0.264425 0.306045
vt 0.506972 0.417769
vt 0.435776 0.078231
vt 0.522325 0.182320
vt 0.454382 0.192081
vt 0.453767 0.523114
vt 0.315671 0.623505
vt 0.490372 0.575963
vt 0.329526 0.564775
vt 0.189868 0.406845
vt 0.134879 0.320995
vt 0.526123 0.309994
vt 0.680022 0.199832
vt 0.706638 0.075165
vt 0.632603 0.041659
vt 0.602287 0.191619
vt 0.630764 0.487654
vt 0.583604 0.328340
vt 0.526466 0.470722
vt 0.717963 0.503084
vt 0.669158 0.332480
vt 0.761904 0.215417
vt 0.000171 0.329918
vt 0.022178 0.436299
vt 0.264082 0.301679
vt 0.326316 0.804247
vt 0.264425 0.655364
vt 0.315859 0.046880
vt 0.356403 0.000171
vt 0.000171 0.204454
vt 0.475026 0.037472
vt 0.442065 0.000171
vt 0.776497 0.503426
vt 0.055669 0.023589
vt 0.776497 0.974365
vt 0.400695 0.564433
vt 0.490372 0.749054
vt 0.526466 0.000171
vt 0.776791 0.346878
s 1
usemtl Bird
f 43/1/43 37/2/37 44/3/44
f 44/3/44 33/4/33 42/5/42
f 26/6/26 5/7/5 12/8/12
f 10/9/10 21/10/21 27/11/27
f 58/12/57 3/13/3 23/14/23
f 2/15/2 24/16/24 18/17/18
f 55/18/54 10/9/10 57/19/56
f 56/20/55 10/9/10 8/21/8
f 26/6/26 6/22/6 16/23/16
f 58/24/57 7/25/7 55/18/54
f 5/7/5 59/26/58 14/27/14
f 28/28/28 25/29/25 29/30/29
f 10/9/10 17/31/17 8/21/8
f 29/32/29 41/33/41 38/34/38
f 38/34/38 24/35/24 29/32/29
f 22/36/22 29/30/29 24/16/24
f 13/37/13 14/38/14 1/39/1
f 59/40/58 1/39/1 14/38/14
f 18/17/18 29/41/29 30/42/30
f 12/8/12 9/43/9 6/22/6
f 12/8/12 14/27/14 15/44/15
f 11/45/11 23/14/23 3/13/3
f 24/16/24 1/39/1 22/36/22
f 38/34/38 42/5/42 39/46/39
f 32/47/32 27/11/27 21/10/21
f 35/48/35 16/23/16 36/49/36
f 23/14/23 63/50/62 58/12/57
f 30/42/30 60/51/59 18/17/18
f 4/52/4 61/53/60 19/54/19
f 30/42/30 25/29/25 19/54/19
f 2/15/2 60/51/59 9/55/9
f 57/56/56 31/57/31 11/58/11
f 28/28/28 59/40/58 63/50/62
f 27/11/27 36/49/36 17/31/17
f 20/59/20 35/60/35 32/47/32
f 19/54/19 62/61/61 30/42/30
f 38/34/38 43/1/43 44/3/44
f 53/62/53 45/63/45 47/64/47
f 47/64/47 52/65/52 53/62/53
f 35/66/35 50/67/50 27/68/27
f 26/69/26 48/70/48 35/66/35
f 48/70/48 52/65/52 50/67/50
f 48/70/48 51/71/51 53/62/53
f 62/72/61 17/31/17 36/49/36
f 60/73/59 36/49/36 16/23/16
f 32/47/32 59/26/58 20/59/20
f 21/10/21 63/74/62 32/47/32
f 40/75/40 57/56/56 10/76/10
f 9/55/9 13/37/13 2/15/2
f 11/45/11 55/77/54 57/78/56
f 61/79/60 8/21/8 17/31/17
f 56/80/55 11/45/11 57/81/56
f 19/54/19 11/45/11 4/52/4
f 6/22/6 60/73/59 16/23/16
f 43/1/43 34/82/34 37/2/37
f 44/3/44 37/2/37 33/4/33
f 26/6/26 20/59/20 5/7/5
f 10/9/10 7/25/7 21/10/21
f 58/12/57 55/77/54 3/13/3
f 2/15/2 13/37/13 24/16/24
f 55/18/54 7/25/7 10/9/10
f 56/20/55 57/83/56 10/9/10
f 26/6/26 12/8/12 6/22/6
f 58/24/57 21/10/21 7/25/7
f 5/7/5 20/59/20 59/26/58
f 28/28/28 23/14/23 25/29/25
f 10/9/10 27/11/27 17/31/17
f 29/32/29 25/84/25 41/33/41
f 38/34/38 39/46/39 24/35/24
f 22/36/22 28/28/28 29/30/29
f 13/37/13 15/85/15 14/38/14
f 59/40/58 22/36/22 1/39/1
f 18/17/18 24/16/24 29/41/29
f 12/8/12 15/44/15 9/43/9
f 12/8/12 5/7/5 14/27/14
f 11/45/11 25/29/25 23/14/23
f 24/16/24 13/37/13 1/39/1
f 38/34/38 44/3/44 42/5/42
f 32/47/32 35/60/35 27/11/27
f 35/48/35 26/6/26 16/23/16
f 23/14/23 28/28/28 63/50/62
f 30/42/30 62/61/61 60/51/59
f 4/52/4 56/80/55 61/53/60
f 30/42/30 29/41/29 25/29/25
f 2/15/2 18/17/18 60/51/59
f 57/56/56 64/86/63 31/57/31
f 28/28/28 22/36/22 59/40/58
f 27/11/27 35/48/35 36/49/36
f 20/59/20 26/6/26 35/60/35
f 19/54/19 61/53/60 62/61/61
f 38/34/38 41/33/41 43/1/43
f 53/62/53 51/71/51 45/63/45
f 47/64/47 46/87/46 52/65/52
f 35/66/35 48/70/48 50/67/50
f 26/69/26 49/88/49 48/70/48
f 48/70/48 53/62/53 52/65/52
f 48/70/48 49/88/49 51/71/51
f 62/72/61 61/79/60 17/31/17
f 60/73/59 62/72/61 36/49/36
f 32/47/32 63/74/62 59/26/58
f 21/10/21 58/24/57 63/74/62
f 40/75/40 64/86/63 57/56/56
f 9/55/9 15/85/15 13/37/13
f 11/45/11 3/13/3 55/77/54
f 61/79/60 56/20/55 8/21/8
f 56/80/55 4/52/4 11/45/11
f 19/54/19 25/29/25 11/45/11
f 6/22/6 9/43/9 60/73/59
l 44 54
