# Blender 4.3.2
# www.blender.org
mtllib BirdCoastEndOndrej0002.mtl
o Cube
v -0.284552 1.410269 -0.125585
v -0.289446 1.436365 0.255375
v -0.292058 -1.175167 0.020529
v -0.304963 -1.271905 0.530836
v 0.246683 1.406184 -0.105579
v 0.229036 1.430094 0.279311
v 0.304267 -1.178215 0.055000
v 0.253809 -1.274835 0.564194
v -0.026016 1.557854 0.312986
v 0.356428 -1.504491 0.426446
v -0.386680 -1.500120 0.378802
v 0.305748 1.540344 0.093093
v -0.353048 1.545211 0.068681
v -0.000173 1.532415 -0.153271
v -0.000072 1.858602 0.085784
v 0.359178 0.890636 0.526980
v 0.395684 -0.644194 0.598570
v -0.459044 0.905238 0.480546
v -0.422679 -0.643632 0.576207
v 0.427029 0.783476 -0.187610
v 0.446120 -0.699200 -0.160596
v -0.457860 0.781079 -0.218987
v -0.431799 -0.699347 -0.181107
v -0.648034 0.845127 0.189503
v -0.612826 -0.468175 0.206656
v 0.605955 0.836290 0.194355
v 0.614231 -0.468557 0.227907
v -0.446463 0.055766 -0.212196
v -0.493673 0.239023 0.328168
v -0.404711 0.203500 0.565216
v -0.934004 -2.384137 0.144839
v 0.456825 0.058180 -0.197282
v -2.599189 0.396494 0.011814
v -3.082175 -0.812360 0.190563
v 0.504897 0.241817 0.286650
v 0.361623 0.203778 0.595292
v -2.818203 -0.102379 0.043501
v -1.232050 0.373863 1.027558
v -1.312436 1.082029 0.777915
v 0.920040 -2.395706 0.267087
v -1.200572 -0.188461 0.991203
v -1.838943 0.872604 0.620124
v -1.991648 -0.166573 0.776336
v -1.966751 0.341474 0.509821
v 2.599821 0.396979 0.126837
v 3.079317 -0.811764 0.305971
v 2.817255 -0.101885 0.168110
v 1.184185 0.384431 1.071433
v 1.321337 1.084699 0.825777
v 1.172192 -0.189375 1.024287
v 1.820386 0.872800 0.709563
v 1.962819 -0.166137 0.848128
v 1.905508 0.335239 0.624849
v -1.999049 0.358388 0.552860
v -0.001182 -1.433228 0.219973
v -0.025927 -1.393345 0.526148
v -0.019026 -1.664385 0.439662
v 0.010090 -1.008908 -0.134684
v -0.003997 0.709433 -0.351124
v -0.033524 0.867872 0.626544
v -0.016936 -0.626404 0.731533
v -0.035154 0.169292 0.672441
v 0.009534 0.037568 -0.342827
v -0.018786 -3.089937 0.305234
vn -0.5193 0.4101 -0.7497
vn -0.5485 0.5150 0.6587
vn -0.3723 -0.5597 -0.7403
vn -0.4206 -0.2888 0.8600
vn 0.5748 0.3981 -0.7149
vn 0.5168 0.5058 0.6907
vn 0.4560 -0.5653 -0.6874
vn 0.3028 -0.2849 0.9095
vn -0.0261 0.5641 0.8253
vn 0.6154 -0.6864 -0.3875
vn -0.5647 -0.6854 -0.4597
vn 0.7841 0.6207 0.0038
vn -0.7620 0.6451 -0.0564
vn 0.0531 0.4926 -0.8686
vn 0.0407 0.9992 -0.0016
vn 0.5572 0.2576 0.7894
vn 0.6312 -0.0559 0.7736
vn -0.6220 0.2498 0.7421
vn -0.6726 -0.0640 0.7372
vn 0.7002 0.1131 -0.7050
vn 0.6273 -0.2520 -0.7369
vn -0.6844 0.0766 -0.7250
vn -0.5942 -0.2412 -0.7673
vn -0.9855 -0.0324 -0.1664
vn -0.9950 0.0095 -0.0997
vn 0.9914 0.0112 -0.1307
vn 0.9981 -0.0070 -0.0611
vn -0.7384 0.0172 -0.6742
vn -0.9905 -0.0148 -0.1367
vn -0.6561 0.0424 0.7535
vn 0.2347 0.0978 -0.9671
vn 0.7499 0.0310 -0.6609
vn 0.5894 -0.2313 -0.7740
vn 0.6001 -0.3700 -0.7092
vn 0.9942 0.0225 -0.1056
vn 0.5970 0.0605 0.8000
vn 0.5919 -0.3560 -0.7232
vn -0.1606 -0.1754 -0.9713
vn -0.1981 -0.3458 -0.9171
vn -0.1045 0.0993 -0.9896
vn -0.3286 0.0982 -0.9394
vn 0.5295 -0.0723 -0.8452
vn 0.5335 -0.3246 -0.7810
vn 0.5965 -0.1952 -0.7785
vn -0.5545 -0.2257 -0.8010
vn -0.5661 -0.3536 -0.7447
vn -0.5568 -0.3448 -0.7557
vn 0.2312 -0.1579 -0.9600
vn 0.2062 -0.3596 -0.9100
vn 0.3822 0.0995 -0.9187
vn -0.4831 -0.0551 -0.8738
vn -0.4966 -0.3128 -0.8096
vn -0.5561 -0.1829 -0.8107
vn 0.0429 -0.6928 -0.7198
vn -0.0617 -0.3356 0.9400
vn 0.0537 -0.5013 -0.8636
vn 0.0341 -0.4391 -0.8978
vn 0.0319 0.0990 -0.9946
vn -0.0373 0.2551 0.9662
vn -0.0261 -0.0437 0.9987
vn -0.0441 0.0478 0.9979
vn 0.0205 -0.0569 -0.9982
vn 0.0662 0.0937 -0.9934
vt 0.700998 0.694997
vt 0.670437 0.545092
vt 0.621369 0.696438
vt 0.596471 0.578742
vt 0.541111 0.718945
vt 0.138103 0.398168
vt 0.174242 0.485498
vt 0.141975 0.497302
vt 0.107983 0.069452
vt 0.182907 0.197303
vt 0.129397 0.224081
vt 0.266355 0.190592
vt 0.352815 0.085994
vt 0.336442 0.195691
vt 0.429904 0.482460
vt 0.397402 0.392113
vt 0.443947 0.409050
vt 0.187795 0.044971
vt 0.138934 0.000171
vt 0.029842 0.060616
vt 0.071695 0.093735
vt 0.109596 0.492315
vt 0.088287 0.419477
vt 0.252567 0.185666
vt 0.154320 0.089942
vt 0.256922 0.409277
vt 0.199316 0.524593
vt 0.332726 0.306368
vt 0.392947 0.217683
vt 0.396959 0.314734
vt 0.066944 0.205988
vt 0.671843 0.984949
vt 0.719603 0.831796
vt 0.635445 0.834117
vt 0.582411 0.999829
vt 0.347575 0.403624
vt 0.400194 0.490316
vt 0.344346 0.521423
vt 0.367501 0.480626
vt 0.281259 0.411059
vt 0.397994 0.314878
vt 0.455542 0.312752
vt 0.088496 0.533105
vt 0.144340 0.569183
vt 0.394674 0.059371
vt 0.526466 0.850433
vt 0.195602 0.307039
vt 0.133577 0.321124
vt 0.072563 0.325020
vt 0.264425 0.306045
vt 0.506972 0.417769
vt 0.435776 0.078231
vt 0.522325 0.182320
vt 0.454382 0.192081
vt 0.453767 0.523114
vt 0.315671 0.623505
vt 0.490372 0.575963
vt 0.329526 0.564775
vt 0.189868 0.406845
vt 0.134879 0.320995
vt 0.526123 0.309994
vt 0.680022 0.199832
vt 0.706638 0.075165
vt 0.632603 0.041659
vt 0.602287 0.191619
vt 0.630764 0.487654
vt 0.583604 0.328340
vt 0.526466 0.470722
vt 0.717963 0.503084
vt 0.669158 0.332480
vt 0.761904 0.215417
vt 0.000171 0.329918
vt 0.022178 0.436299
vt 0.264082 0.301679
vt 0.326316 0.804247
vt 0.264425 0.655364
vt 0.315859 0.046880
vt 0.356403 0.000171
vt 0.000171 0.204454
vt 0.475026 0.037472
vt 0.442065 0.000171
vt 0.776497 0.503426
vt 0.055669 0.023589
vt 0.776497 0.974365
vt 0.400695 0.564433
vt 0.490372 0.749054
vt 0.526466 0.000171
vt 0.776791 0.346878
s 1
usemtl Bird
f 43/1/43 37/2/37 44/3/44
f 44/3/44 33/4/33 42/5/42
f 26/6/26 5/7/5 12/8/12
f 10/9/10 21/10/21 27/11/27
f 58/12/57 3/13/3 23/14/23
f 2/15/2 24/16/24 18/17/18
f 55/18/54 10/9/10 57/19/56
f 56/20/55 10/9/10 8/21/8
f 26/6/26 6/22/6 16/23/16
f 58/24/57 7/25/7 55/18/54
f 5/7/5 59/26/58 14/27/14
f 28/28/28 25/29/25 29/30/29
f 10/9/10 17/31/17 8/21/8
f 29/32/29 41/33/41 38/34/38
f 38/34/38 24/35/24 29/32/29
f 22/36/22 29/30/29 24/16/24
f 13/37/13 14/38/14 1/39/1
f 59/40/58 1/39/1 14/38/14
f 18/17/18 29/41/29 30/42/30
f 12/8/12 9/43/9 6/22/6
f 12/8/12 14/27/14 15/44/15
f 11/45/11 23/14/23 3/13/3
f 24/16/24 1/39/1 22/36/22
f 38/34/38 42/5/42 39/46/39
f 32/47/32 27/11/27 21/10/21
f 35/48/35 16/23/16 36/49/36
f 23/14/23 63/50/62 58/12/57
f 30/42/30 60/51/59 18/17/18
f 4/52/4 61/53/60 19/54/19
f 30/42/30 25/29/25 19/54/19
f 2/15/2 60/51/59 9/55/9
f 57/56/56 31/57/31 11/58/11
f 28/28/28 59/40/58 63/50/62
f 27/11/27 36/49/36 17/31/17
f 20/59/20 35/60/35 32/47/32
f 19/54/19 62/61/61 30/42/30
f 38/34/38 43/1/43 44/3/44
f 53/62/53 45/63/45 47/64/47
f 47/64/47 52/65/52 53/62/53
f 35/66/35 50/67/50 27/68/27
f 26/69/26 48/70/48 35/66/35
f 48/70/48 52/65/52 50/67/50
f 48/70/48 51/71/51 53/62/53
f 62/72/61 17/31/17 36/49/36
f 60/73/59 36/49/36 16/23/16
f 32/47/32 59/26/58 20/59/20
f 21/10/21 63/74/62 32/47/32
f 40/75/40 57/56/56 10/76/10
f 9/55/9 13/37/13 2/15/2
f 11/45/11 55/77/54 57/78/56
f 61/79/60 8/21/8 17/31/17
f 56/80/55 11/45/11 57/81/56
f 19/54/19 11/45/11 4/52/4
f 6/22/6 60/73/59 16/23/16
f 43/1/43 34/82/34 37/2/37
f 44/3/44 37/2/37 33/4/33
f 26/6/26 20/59/20 5/7/5
f 10/9/10 7/25/7 21/10/21
f 58/12/57 55/77/54 3/13/3
f 2/15/2 13/37/13 24/16/24
f 55/18/54 7/25/7 10/9/10
f 56/20/55 57/83/56 10/9/10
f 26/6/26 12/8/12 6/22/6
f 58/24/57 21/10/21 7/25/7
f 5/7/5 20/59/20 59/26/58
f 28/28/28 23/14/23 25/29/25
f 10/9/10 27/11/27 17/31/17
f 29/32/29 25/84/25 41/33/41
f 38/34/38 39/46/39 24/35/24
f 22/36/22 28/28/28 29/30/29
f 13/37/13 15/85/15 14/38/14
f 59/40/58 22/36/22 1/39/1
f 18/17/18 24/16/24 29/41/29
f 12/8/12 15/44/15 9/43/9
f 12/8/12 5/7/5 14/27/14
f 11/45/11 25/29/25 23/14/23
f 24/16/24 13/37/13 1/39/1
f 38/34/38 44/3/44 42/5/42
f 32/47/32 35/60/35 27/11/27
f 35/48/35 26/6/26 16/23/16
f 23/14/23 28/28/28 63/50/62
f 30/42/30 62/61/61 60/51/59
f 4/52/4 56/80/55 61/53/60
f 30/42/30 29/41/29 25/29/25
f 2/15/2 18/17/18 60/51/59
f 57/56/56 64/86/63 31/57/31
f 28/28/28 22/36/22 59/40/58
f 27/11/27 35/48/35 36/49/36
f 20/59/20 26/6/26 35/60/35
f 19/54/19 61/53/60 62/61/61
f 38/34/38 41/33/41 43/1/43
f 53/62/53 51/71/51 45/63/45
f 47/64/47 46/87/46 52/65/52
f 35/66/35 48/70/48 50/67/50
f 26/69/26 49/88/49 48/70/48
f 48/70/48 53/62/53 52/65/52
f 48/70/48 49/88/49 51/71/51
f 62/72/61 61/79/60 17/31/17
f 60/73/59 62/72/61 36/49/36
f 32/47/32 63/74/62 59/26/58
f 21/10/21 58/24/57 63/74/62
f 40/75/40 64/86/63 57/56/56
f 9/55/9 15/85/15 13/37/13
f 11/45/11 3/13/3 55/77/54
f 61/79/60 56/20/55 8/21/8
f 56/80/55 4/52/4 11/45/11
f 19/54/19 25/29/25 11/45/11
f 6/22/6 9/43/9 60/73/59
l 44 54
