# Blender 4.3.2
# www.blender.org
mtllib BirdAnimationOndrej0006.mtl
o Cube
v -0.284552 1.410269 -0.203517
v -0.289446 1.436365 0.177443
v -0.292057 -1.176690 -0.067376
v -0.304969 -1.260887 0.444954
v 0.246683 1.406184 -0.183511
v 0.229036 1.430094 0.201380
v 0.304267 -1.178765 -0.032788
v 0.253802 -1.262880 0.478409
v -0.026016 1.557854 0.235054
v 0.356423 -1.495133 0.345946
v -0.386685 -1.492158 0.298169
v 0.305748 1.540344 0.015161
v -0.353048 1.545211 -0.009251
v -0.000173 1.532415 -0.231202
v -0.000072 1.858602 0.007853
v 0.360396 0.889208 0.441146
v 0.395683 -0.642046 0.517607
v -0.459604 0.903248 0.390010
v -0.422680 -0.641676 0.495227
v 0.433651 0.782024 -0.265080
v 0.446130 -0.699604 -0.241354
v -0.468616 0.778890 -0.295654
v -0.433412 -0.700165 -0.261019
v -0.654684 0.842967 0.091220
v -0.614378 -0.468289 0.128905
v 0.610782 0.834174 0.109483
v 0.615559 -0.468598 0.150087
v -0.466533 0.052280 -0.283726
v -0.503278 0.234954 0.237086
v -0.399101 0.199426 0.451389
v -0.934005 -2.382463 0.089585
v 0.470904 0.055676 -0.270234
v -1.863554 0.619297 2.624461
v -1.718717 -0.543295 3.210253
v 0.518013 0.236938 0.195837
v 0.360595 0.200546 0.493502
v -1.810737 0.140903 2.881745
v -0.980710 0.456665 1.133897
v -1.205451 1.144735 0.826729
v 0.920036 -2.390366 0.212133
v -0.959663 -0.115077 1.069781
v -1.545042 1.015964 1.727006
v -1.284957 -0.005097 2.013655
v -1.443091 0.500123 1.946209
v 1.808403 0.606096 2.672688
v 1.649996 -0.558922 3.250658
v 1.750156 0.126579 2.926688
v 0.950143 0.461452 1.154176
v 1.184003 1.143338 0.859460
v 0.949084 -0.122084 1.078345
v 1.514521 1.006458 1.759956
v 1.239044 -0.014334 2.048906
v 1.375474 0.480537 1.944192
v -1.396442 0.518983 1.971701
v -0.001184 -1.429643 0.137527
v -0.025934 -1.381250 0.442532
v -0.019031 -1.654261 0.363601
v 0.010090 -1.009200 -0.213800
v -0.003997 0.709433 -0.429056
v -0.033524 0.867872 0.548612
v -0.016938 -0.624260 0.651043
v -0.037692 0.165805 0.577618
v 0.009534 0.037568 -0.420759
v -0.018790 -3.082915 0.272142
vn -0.5123 0.4142 -0.7523
vn -0.5520 0.5109 0.6590
vn -0.3770 -0.5607 -0.7372
vn -0.4113 -0.2869 0.8652
vn 0.5716 0.4003 -0.7162
vn 0.5177 0.5039 0.6914
vn 0.4621 -0.5662 -0.6826
vn 0.2932 -0.2824 0.9134
vn -0.0261 0.5641 0.8253
vn 0.6118 -0.6988 -0.3706
vn -0.5616 -0.6987 -0.4432
vn 0.7828 0.6222 0.0046
vn -0.7598 0.6479 -0.0539
vn 0.0531 0.4926 -0.8686
vn 0.0407 0.9992 -0.0016
vn 0.5597 0.2477 0.7908
vn 0.6271 -0.0506 0.7773
vn -0.6281 0.2356 0.7417
vn -0.6695 -0.0561 0.7407
vn 0.6955 0.1179 -0.7088
vn 0.6251 -0.2531 -0.7384
vn -0.6795 0.0787 -0.7294
vn -0.5931 -0.2428 -0.7677
vn -0.9949 -0.0407 -0.0921
vn -0.9995 -0.0025 -0.0325
vn 0.9982 0.0096 -0.0585
vn 0.9999 -0.0166 -0.0012
vn -0.7477 0.0160 -0.6638
vn -0.9997 -0.0178 -0.0139
vn -0.6503 0.0391 0.7587
vn 0.2354 0.0690 -0.9694
vn 0.7534 0.0286 -0.6569
vn -0.8251 -0.3393 -0.4518
vn -0.8316 -0.3273 -0.4487
vn 0.9997 0.0240 -0.0088
vn 0.5898 0.0559 0.8056
vn -0.8304 -0.3283 -0.4502
vn -0.8784 -0.2375 -0.4147
vn -0.8069 -0.4397 -0.3945
vn -0.1053 0.0698 -0.9920
vn -0.9139 0.0516 -0.4028
vn -0.8223 -0.3764 -0.4269
vn -0.8572 -0.2739 -0.4362
vn -0.8264 -0.3374 -0.4508
vn 0.8325 -0.3422 -0.4358
vn 0.8383 -0.3283 -0.4354
vn 0.8374 -0.3290 -0.4365
vn 0.8924 -0.2198 -0.3941
vn 0.8033 -0.4461 -0.3947
vn 0.9297 0.0666 -0.3622
vn 0.8233 -0.3891 -0.4133
vn 0.8663 -0.2710 -0.4196
vn 0.8310 -0.3462 -0.4353
vn 0.0433 -0.7070 -0.7059
vn -0.0616 -0.3232 0.9443
vn 0.0537 -0.5272 -0.8480
vn 0.0346 -0.4335 -0.9005
vn 0.0316 0.0988 -0.9946
vn -0.0434 0.2371 0.9705
vn -0.0257 -0.0389 0.9989
vn -0.0606 0.0523 0.9968
vn 0.0202 -0.0554 -0.9983
vn 0.0662 0.0638 -0.9958
vt 0.700998 0.694997
vt 0.670437 0.545092
vt 0.621369 0.696438
vt 0.596471 0.578742
vt 0.541111 0.718945
vt 0.138103 0.398168
vt 0.174242 0.485498
vt 0.141975 0.497302
vt 0.107983 0.069452
vt 0.182907 0.197303
vt 0.129397 0.224081
vt 0.266355 0.190592
vt 0.352815 0.085994
vt 0.336442 0.195691
vt 0.429904 0.482460
vt 0.397402 0.392113
vt 0.443947 0.409050
vt 0.187795 0.044971
vt 0.138934 0.000171
vt 0.029842 0.060616
vt 0.071695 0.093735
vt 0.109596 0.492315
vt 0.088287 0.419477
vt 0.252567 0.185666
vt 0.154320 0.089942
vt 0.256922 0.409277
vt 0.199316 0.524593
vt 0.332726 0.306368
vt 0.392947 0.217683
vt 0.396959 0.314734
vt 0.066944 0.205988
vt 0.671843 0.984949
vt 0.719603 0.831796
vt 0.635445 0.834117
vt 0.582411 0.999829
vt 0.347575 0.403624
vt 0.400194 0.490316
vt 0.344346 0.521423
vt 0.367501 0.480626
vt 0.281259 0.411059
vt 0.397994 0.314878
vt 0.455542 0.312752
vt 0.088496 0.533105
vt 0.144340 0.569183
vt 0.394674 0.059371
vt 0.526466 0.850433
vt 0.195602 0.307039
vt 0.133577 0.321124
vt 0.072563 0.325020
vt 0.264425 0.306045
vt 0.506972 0.417769
vt 0.435776 0.078231
vt 0.522325 0.182320
vt 0.454382 0.192081
vt 0.453767 0.523114
vt 0.315671 0.623505
vt 0.490372 0.575963
vt 0.329526 0.564775
vt 0.189868 0.406845
vt 0.134879 0.320995
vt 0.526123 0.309994
vt 0.680022 0.199832
vt 0.706638 0.075165
vt 0.632603 0.041659
vt 0.602287 0.191619
vt 0.630764 0.487654
vt 0.583604 0.328340
vt 0.526466 0.470722
vt 0.717963 0.503084
vt 0.669158 0.332480
vt 0.761904 0.215417
vt 0.000171 0.329918
vt 0.022178 0.436299
vt 0.264082 0.301679
vt 0.326316 0.804247
vt 0.264425 0.655364
vt 0.315859 0.046880
vt 0.356403 0.000171
vt 0.000171 0.204454
vt 0.475026 0.037472
vt 0.442065 0.000171
vt 0.776497 0.503426
vt 0.055669 0.023589
vt 0.776497 0.974365
vt 0.400695 0.564433
vt 0.490372 0.749054
vt 0.526466 0.000171
vt 0.776791 0.346878
s 1
usemtl Bird
f 43/1/43 37/2/37 44/3/44
f 44/3/44 33/4/33 42/5/42
f 26/6/26 5/7/5 12/8/12
f 10/9/10 21/10/21 27/11/27
f 58/12/57 3/13/3 23/14/23
f 2/15/2 24/16/24 18/17/18
f 55/18/54 10/9/10 57/19/56
f 56/20/55 10/9/10 8/21/8
f 26/6/26 6/22/6 16/23/16
f 58/24/57 7/25/7 55/18/54
f 5/7/5 59/26/58 14/27/14
f 28/28/28 25/29/25 29/30/29
f 10/9/10 17/31/17 8/21/8
f 29/32/29 41/33/41 38/34/38
f 38/34/38 24/35/24 29/32/29
f 22/36/22 29/30/29 24/16/24
f 13/37/13 14/38/14 1/39/1
f 59/40/58 1/39/1 14/38/14
f 18/17/18 29/41/29 30/42/30
f 12/8/12 9/43/9 6/22/6
f 12/8/12 14/27/14 15/44/15
f 11/45/11 23/14/23 3/13/3
f 24/16/24 1/39/1 22/36/22
f 38/34/38 42/5/42 39/46/39
f 32/47/32 27/11/27 21/10/21
f 35/48/35 16/23/16 36/49/36
f 23/14/23 63/50/62 58/12/57
f 30/42/30 60/51/59 18/17/18
f 4/52/4 61/53/60 19/54/19
f 30/42/30 25/29/25 19/54/19
f 2/15/2 60/51/59 9/55/9
f 57/56/56 31/57/31 11/58/11
f 28/28/28 59/40/58 63/50/62
f 27/11/27 36/49/36 17/31/17
f 20/59/20 35/60/35 32/47/32
f 19/54/19 62/61/61 30/42/30
f 38/34/38 43/1/43 44/3/44
f 53/62/53 45/63/45 47/64/47
f 47/64/47 52/65/52 53/62/53
f 35/66/35 50/67/50 27/68/27
f 26/69/26 48/70/48 35/66/35
f 48/70/48 52/65/52 50/67/50
f 48/70/48 51/71/51 53/62/53
f 62/72/61 17/31/17 36/49/36
f 60/73/59 36/49/36 16/23/16
f 32/47/32 59/26/58 20/59/20
f 21/10/21 63/74/62 32/47/32
f 40/75/40 57/56/56 10/76/10
f 9/55/9 13/37/13 2/15/2
f 11/45/11 55/77/54 57/78/56
f 61/79/60 8/21/8 17/31/17
f 56/80/55 11/45/11 57/81/56
f 19/54/19 11/45/11 4/52/4
f 6/22/6 60/73/59 16/23/16
f 43/1/43 34/82/34 37/2/37
f 44/3/44 37/2/37 33/4/33
f 26/6/26 20/59/20 5/7/5
f 10/9/10 7/25/7 21/10/21
f 58/12/57 55/77/54 3/13/3
f 2/15/2 13/37/13 24/16/24
f 55/18/54 7/25/7 10/9/10
f 56/20/55 57/83/56 10/9/10
f 26/6/26 12/8/12 6/22/6
f 58/24/57 21/10/21 7/25/7
f 5/7/5 20/59/20 59/26/58
f 28/28/28 23/14/23 25/29/25
f 10/9/10 27/11/27 17/31/17
f 29/32/29 25/84/25 41/33/41
f 38/34/38 39/46/39 24/35/24
f 22/36/22 28/28/28 29/30/29
f 13/37/13 15/85/15 14/38/14
f 59/40/58 22/36/22 1/39/1
f 18/17/18 24/16/24 29/41/29
f 12/8/12 15/44/15 9/43/9
f 12/8/12 5/7/5 14/27/14
f 11/45/11 25/29/25 23/14/23
f 24/16/24 13/37/13 1/39/1
f 38/34/38 44/3/44 42/5/42
f 32/47/32 35/60/35 27/11/27
f 35/48/35 26/6/26 16/23/16
f 23/14/23 28/28/28 63/50/62
f 30/42/30 62/61/61 60/51/59
f 4/52/4 56/80/55 61/53/60
f 30/42/30 29/41/29 25/29/25
f 2/15/2 18/17/18 60/51/59
f 57/56/56 64/86/63 31/57/31
f 28/28/28 22/36/22 59/40/58
f 27/11/27 35/48/35 36/49/36
f 20/59/20 26/6/26 35/60/35
f 19/54/19 61/53/60 62/61/61
f 38/34/38 41/33/41 43/1/43
f 53/62/53 51/71/51 45/63/45
f 47/64/47 46/87/46 52/65/52
f 35/66/35 48/70/48 50/67/50
f 26/69/26 49/88/49 48/70/48
f 48/70/48 53/62/53 52/65/52
f 48/70/48 49/88/49 51/71/51
f 62/72/61 61/79/60 17/31/17
f 60/73/59 62/72/61 36/49/36
f 32/47/32 63/74/62 59/26/58
f 21/10/21 58/24/57 63/74/62
f 40/75/40 64/86/63 57/56/56
f 9/55/9 15/85/15 13/37/13
f 11/45/11 3/13/3 55/77/54
f 61/79/60 56/20/55 8/21/8
f 56/80/55 4/52/4 11/45/11
f 19/54/19 25/29/25 11/45/11
f 6/22/6 9/43/9 60/73/59
l 44 54
