# Blender 4.3.2
# www.blender.org
mtllib BirdAnimationOndrej0007.mtl
o Cube
v -0.284552 1.410269 -0.173568
v -0.289446 1.436365 0.207392
v -0.292057 -1.175826 -0.032027
v -0.304967 -1.266830 0.479254
v 0.246683 1.406184 -0.153562
v 0.229036 1.430094 0.231328
v 0.304267 -1.178430 0.002503
v 0.253804 -1.269331 0.512662
v -0.026016 1.557854 0.265003
v 0.356425 -1.500197 0.377324
v -0.386683 -1.496464 0.329611
v 0.305748 1.540344 0.045110
v -0.353048 1.545211 0.020698
v -0.000173 1.532415 -0.201254
v -0.000072 1.858602 0.037801
v 0.359014 0.889978 0.476296
v 0.395683 -0.643199 0.549207
v -0.458450 0.904168 0.426413
v -0.422680 -0.642725 0.526835
v 0.428810 0.782739 -0.235886
v 0.446124 -0.699375 -0.209874
v -0.462528 0.779698 -0.267124
v -0.432643 -0.699760 -0.229942
v -0.651139 0.843796 0.124384
v -0.614308 -0.468265 0.159803
v 0.606363 0.835290 0.143184
v 0.615524 -0.468616 0.180934
v -0.455988 0.053512 -0.257697
v -0.497867 0.236674 0.274559
v -0.400829 0.201455 0.501536
v -0.934005 -2.383456 0.107242
v 0.461429 0.056857 -0.243836
v -2.271595 0.540024 2.376889
v -2.215919 -0.633645 2.957014
v 0.508774 0.239418 0.235039
v 0.360652 0.202312 0.540450
v -2.258509 0.056877 2.630351
v -1.126931 0.422874 1.071805
v -1.315054 1.118059 0.778404
v 0.920037 -2.393349 0.229648
v -1.089713 -0.144878 1.020532
v -1.801892 0.959935 1.568381
v -1.578863 -0.063457 1.871280
v -1.731443 0.441693 1.785633
v 2.287639 0.510999 2.377608
v 2.233437 -0.667986 2.947245
v 2.275712 0.025361 2.626323
v 1.120027 0.422434 1.077059
v 1.312199 1.113199 0.803439
v 1.098524 -0.156106 1.017474
v 1.814352 0.940762 1.571486
v 1.584323 -0.083817 1.876185
v 1.705535 0.412493 1.756842
v -1.690626 0.460640 1.819643
v -0.001183 -1.431569 0.169937
v -0.025931 -1.387785 0.475608
v -0.019030 -1.659757 0.392574
v 0.010090 -1.009037 -0.183211
v -0.003997 0.709433 -0.399107
v -0.033524 0.867872 0.578561
v -0.016937 -0.625413 0.682387
v -0.035970 0.167407 0.617216
v 0.009534 0.037568 -0.390810
v -0.018790 -3.086893 0.277808
vn -0.5145 0.4128 -0.7516
vn -0.5521 0.5118 0.6581
vn -0.3746 -0.5602 -0.7388
vn -0.4165 -0.2879 0.8624
vn 0.5741 0.3987 -0.7152
vn 0.5179 0.5046 0.6908
vn 0.4590 -0.5657 -0.6851
vn 0.2986 -0.2837 0.9112
vn -0.0261 0.5641 0.8253
vn 0.6136 -0.6923 -0.3797
vn -0.5631 -0.6917 -0.4521
vn 0.7840 0.6207 0.0042
vn -0.7609 0.6466 -0.0542
vn 0.0531 0.4926 -0.8686
vn 0.0407 0.9992 -0.0016
vn 0.5591 0.2547 0.7890
vn 0.6284 -0.0545 0.7760
vn -0.6280 0.2432 0.7392
vn -0.6704 -0.0604 0.7396
vn 0.6987 0.1148 -0.7061
vn 0.6262 -0.2522 -0.7377
vn -0.6797 0.0765 -0.7295
vn -0.5935 -0.2422 -0.7676
vn -0.9890 -0.0460 -0.1406
vn -0.9978 0.0040 -0.0665
vn 0.9938 0.0059 -0.1112
vn 0.9991 -0.0101 -0.0400
vn -0.7424 0.0167 -0.6697
vn -0.9966 -0.0174 -0.0809
vn -0.6525 0.0414 0.7567
vn 0.2350 0.0846 -0.9683
vn 0.7510 0.0308 -0.6596
vn -0.7219 -0.3396 -0.6030
vn -0.7289 -0.3290 -0.6004
vn 0.9968 0.0236 -0.0763
vn 0.5922 0.0588 0.8037
vn -0.7273 -0.3299 -0.6018
vn -0.7847 -0.2392 -0.5718
vn -0.7240 -0.4252 -0.5432
vn -0.1049 0.0858 -0.9908
vn -0.8302 0.0440 -0.5558
vn -0.7236 -0.3708 -0.5821
vn -0.7566 -0.2774 -0.5921
vn -0.7237 -0.3366 -0.6024
vn 0.7124 -0.3396 -0.6141
vn 0.7180 -0.3280 -0.6140
vn 0.7169 -0.3287 -0.6149
vn 0.7860 -0.2188 -0.5782
vn 0.7075 -0.4215 -0.5672
vn 0.8387 0.0541 -0.5420
vn 0.7087 -0.3769 -0.5964
vn 0.7490 -0.2733 -0.6036
vn 0.7116 -0.3416 -0.6140
vn 0.0431 -0.6994 -0.7135
vn -0.0617 -0.3299 0.9420
vn 0.0537 -0.5132 -0.8566
vn 0.0343 -0.4366 -0.8990
vn 0.0322 0.0990 -0.9946
vn -0.0421 0.2480 0.9678
vn -0.0260 -0.0418 0.9988
vn -0.0550 0.0490 0.9973
vn 0.0206 -0.0564 -0.9982
vn 0.0662 0.0800 -0.9946
vt 0.700998 0.694997
vt 0.670437 0.545092
vt 0.621369 0.696438
vt 0.596471 0.578742
vt 0.541111 0.718945
vt 0.138103 0.398168
vt 0.174242 0.485498
vt 0.141975 0.497302
vt 0.107983 0.069452
vt 0.182907 0.197303
vt 0.129397 0.224081
vt 0.266355 0.190592
vt 0.352815 0.085994
vt 0.336442 0.195691
vt 0.429904 0.482460
vt 0.397402 0.392113
vt 0.443947 0.409050
vt 0.187795 0.044971
vt 0.138934 0.000171
vt 0.029842 0.060616
vt 0.071695 0.093735
vt 0.109596 0.492315
vt 0.088287 0.419477
vt 0.252567 0.185666
vt 0.154320 0.089942
vt 0.256922 0.409277
vt 0.199316 0.524593
vt 0.332726 0.306368
vt 0.392947 0.217683
vt 0.396959 0.314734
vt 0.066944 0.205988
vt 0.671843 0.984949
vt 0.719603 0.831796
vt 0.635445 0.834117
vt 0.582411 0.999829
vt 0.347575 0.403624
vt 0.400194 0.490316
vt 0.344346 0.521423
vt 0.367501 0.480626
vt 0.281259 0.411059
vt 0.397994 0.314878
vt 0.455542 0.312752
vt 0.088496 0.533105
vt 0.144340 0.569183
vt 0.394674 0.059371
vt 0.526466 0.850433
vt 0.195602 0.307039
vt 0.133577 0.321124
vt 0.072563 0.325020
vt 0.264425 0.306045
vt 0.506972 0.417769
vt 0.435776 0.078231
vt 0.522325 0.182320
vt 0.454382 0.192081
vt 0.453767 0.523114
vt 0.315671 0.623505
vt 0.490372 0.575963
vt 0.329526 0.564775
vt 0.189868 0.406845
vt 0.134879 0.320995
vt 0.526123 0.309994
vt 0.680022 0.199832
vt 0.706638 0.075165
vt 0.632603 0.041659
vt 0.602287 0.191619
vt 0.630764 0.487654
vt 0.583604 0.328340
vt 0.526466 0.470722
vt 0.717963 0.503084
vt 0.669158 0.332480
vt 0.761904 0.215417
vt 0.000171 0.329918
vt 0.022178 0.436299
vt 0.264082 0.301679
vt 0.326316 0.804247
vt 0.264425 0.655364
vt 0.315859 0.046880
vt 0.356403 0.000171
vt 0.000171 0.204454
vt 0.475026 0.037472
vt 0.442065 0.000171
vt 0.776497 0.503426
vt 0.055669 0.023589
vt 0.776497 0.974365
vt 0.400695 0.564433
vt 0.490372 0.749054
vt 0.526466 0.000171
vt 0.776791 0.346878
s 1
usemtl Bird
f 43/1/43 37/2/37 44/3/44
f 44/3/44 33/4/33 42/5/42
f 26/6/26 5/7/5 12/8/12
f 10/9/10 21/10/21 27/11/27
f 58/12/57 3/13/3 23/14/23
f 2/15/2 24/16/24 18/17/18
f 55/18/54 10/9/10 57/19/56
f 56/20/55 10/9/10 8/21/8
f 26/6/26 6/22/6 16/23/16
f 58/24/57 7/25/7 55/18/54
f 5/7/5 59/26/58 14/27/14
f 28/28/28 25/29/25 29/30/29
f 10/9/10 17/31/17 8/21/8
f 29/32/29 41/33/41 38/34/38
f 38/34/38 24/35/24 29/32/29
f 22/36/22 29/30/29 24/16/24
f 13/37/13 14/38/14 1/39/1
f 59/40/58 1/39/1 14/38/14
f 18/17/18 29/41/29 30/42/30
f 12/8/12 9/43/9 6/22/6
f 12/8/12 14/27/14 15/44/15
f 11/45/11 23/14/23 3/13/3
f 24/16/24 1/39/1 22/36/22
f 38/34/38 42/5/42 39/46/39
f 32/47/32 27/11/27 21/10/21
f 35/48/35 16/23/16 36/49/36
f 23/14/23 63/50/62 58/12/57
f 30/42/30 60/51/59 18/17/18
f 4/52/4 61/53/60 19/54/19
f 30/42/30 25/29/25 19/54/19
f 2/15/2 60/51/59 9/55/9
f 57/56/56 31/57/31 11/58/11
f 28/28/28 59/40/58 63/50/62
f 27/11/27 36/49/36 17/31/17
f 20/59/20 35/60/35 32/47/32
f 19/54/19 62/61/61 30/42/30
f 38/34/38 43/1/43 44/3/44
f 53/62/53 45/63/45 47/64/47
f 47/64/47 52/65/52 53/62/53
f 35/66/35 50/67/50 27/68/27
f 26/69/26 48/70/48 35/66/35
f 48/70/48 52/65/52 50/67/50
f 48/70/48 51/71/51 53/62/53
f 62/72/61 17/31/17 36/49/36
f 60/73/59 36/49/36 16/23/16
f 32/47/32 59/26/58 20/59/20
f 21/10/21 63/74/62 32/47/32
f 40/75/40 57/56/56 10/76/10
f 9/55/9 13/37/13 2/15/2
f 11/45/11 55/77/54 57/78/56
f 61/79/60 8/21/8 17/31/17
f 56/80/55 11/45/11 57/81/56
f 19/54/19 11/45/11 4/52/4
f 6/22/6 60/73/59 16/23/16
f 43/1/43 34/82/34 37/2/37
f 44/3/44 37/2/37 33/4/33
f 26/6/26 20/59/20 5/7/5
f 10/9/10 7/25/7 21/10/21
f 58/12/57 55/77/54 3/13/3
f 2/15/2 13/37/13 24/16/24
f 55/18/54 7/25/7 10/9/10
f 56/20/55 57/83/56 10/9/10
f 26/6/26 12/8/12 6/22/6
f 58/24/57 21/10/21 7/25/7
f 5/7/5 20/59/20 59/26/58
f 28/28/28 23/14/23 25/29/25
f 10/9/10 27/11/27 17/31/17
f 29/32/29 25/84/25 41/33/41
f 38/34/38 39/46/39 24/35/24
f 22/36/22 28/28/28 29/30/29
f 13/37/13 15/85/15 14/38/14
f 59/40/58 22/36/22 1/39/1
f 18/17/18 24/16/24 29/41/29
f 12/8/12 15/44/15 9/43/9
f 12/8/12 5/7/5 14/27/14
f 11/45/11 25/29/25 23/14/23
f 24/16/24 13/37/13 1/39/1
f 38/34/38 44/3/44 42/5/42
f 32/47/32 35/60/35 27/11/27
f 35/48/35 26/6/26 16/23/16
f 23/14/23 28/28/28 63/50/62
f 30/42/30 62/61/61 60/51/59
f 4/52/4 56/80/55 61/53/60
f 30/42/30 29/41/29 25/29/25
f 2/15/2 18/17/18 60/51/59
f 57/56/56 64/86/63 31/57/31
f 28/28/28 22/36/22 59/40/58
f 27/11/27 35/48/35 36/49/36
f 20/59/20 26/6/26 35/60/35
f 19/54/19 61/53/60 62/61/61
f 38/34/38 41/33/41 43/1/43
f 53/62/53 51/71/51 45/63/45
f 47/64/47 46/87/46 52/65/52
f 35/66/35 48/70/48 50/67/50
f 26/69/26 49/88/49 48/70/48
f 48/70/48 53/62/53 52/65/52
f 48/70/48 49/88/49 51/71/51
f 62/72/61 61/79/60 17/31/17
f 60/73/59 62/72/61 36/49/36
f 32/47/32 63/74/62 59/26/58
f 21/10/21 58/24/57 63/74/62
f 40/75/40 64/86/63 57/56/56
f 9/55/9 15/85/15 13/37/13
f 11/45/11 3/13/3 55/77/54
f 61/79/60 56/20/55 8/21/8
f 56/80/55 4/52/4 11/45/11
f 19/54/19 25/29/25 11/45/11
f 6/22/6 9/43/9 60/73/59
l 44 54
