# Blender 4.3.2
# www.blender.org
mtllib BirdAnimationOndrej0017.mtl
o Cube
v -0.284552 1.410269 -0.082689
v -0.289446 1.436365 0.298271
v -0.292058 -1.174451 0.069000
v -0.304966 -1.278153 0.578013
v 0.246683 1.406184 -0.062684
v 0.229036 1.430094 0.322207
v 0.304266 -1.178040 0.103402
v 0.253805 -1.281603 0.611313
v -0.026016 1.557854 0.355882
v 0.356425 -1.509742 0.470655
v -0.386683 -1.504595 0.423091
v 0.305748 1.540344 0.135988
v -0.353048 1.545211 0.111576
v -0.000173 1.532415 -0.110375
v -0.000072 1.858602 0.128680
v 0.360247 0.891317 0.578283
v 0.395683 -0.645431 0.643127
v -0.461254 0.905970 0.533049
v -0.422680 -0.644763 0.620775
v 0.419432 0.784772 -0.143143
v 0.446109 -0.699012 -0.116115
v -0.448507 0.782597 -0.174785
v -0.430449 -0.698863 -0.136654
v -0.648644 0.846106 0.238087
v -0.612778 -0.468044 0.251653
v 0.601792 0.837663 0.244739
v 0.614275 -0.468479 0.272942
v -0.429177 0.058399 -0.168450
v -0.490175 0.241132 0.385558
v -0.418738 0.204541 0.636302
v -0.934004 -2.384769 0.175054
v 0.440569 0.060681 -0.153751
v -2.437302 0.281572 -0.488431
v -2.896477 -0.949500 -0.427597
v 0.496473 0.245079 0.349528
v 0.371661 0.204849 0.663949
v -2.634380 -0.226978 -0.507997
v -1.386058 0.327187 0.851943
v -1.436960 1.045819 0.653990
v 0.920039 -2.398378 0.297120
v -1.338442 -0.229326 0.843011
v -1.887904 0.795164 0.303034
v -2.029088 -0.251937 0.413495
v -1.956579 0.257729 0.159143
v 2.402962 0.279962 -0.506362
v 2.853657 -0.953814 -0.487695
v 2.596550 -0.229491 -0.535114
v 1.374151 0.329530 0.850132
v 1.470671 1.042303 0.666454
v 1.341467 -0.237149 0.838718
v 1.884694 0.789420 0.315369
v 2.009684 -0.259585 0.383915
v 1.907147 0.247702 0.191510
v -1.999797 0.273217 0.191914
v -0.001183 -1.435286 0.265338
v -0.025931 -1.400163 0.572050
v -0.019029 -1.670004 0.481379
v 0.010090 -1.008761 -0.091124
v -0.003997 0.709433 -0.308229
v -0.033524 0.867872 0.669440
v -0.016937 -0.627634 0.775825
v -0.036006 0.170883 0.731329
v 0.009534 0.037568 -0.299931
v -0.018787 -3.093256 0.323040
vn -0.5209 0.4080 -0.7498
vn -0.5461 0.5182 0.6582
vn -0.3698 -0.5587 -0.7424
vn -0.4253 -0.2900 0.8573
vn 0.5781 0.3952 -0.7138
vn 0.5157 0.5080 0.6899
vn 0.4518 -0.5648 -0.6905
vn 0.3077 -0.2864 0.9073
vn -0.0261 0.5641 0.8253
vn 0.6172 -0.6795 -0.3967
vn -0.5663 -0.6779 -0.4688
vn 0.7852 0.6193 0.0029
vn -0.7618 0.6453 -0.0572
vn 0.0531 0.4926 -0.8686
vn 0.0407 0.9992 -0.0016
vn 0.5541 0.2716 0.7869
vn 0.6315 -0.0653 0.7726
vn -0.6189 0.2637 0.7399
vn -0.6727 -0.0745 0.7361
vn 0.7043 0.1057 -0.7019
vn 0.6296 -0.2481 -0.7363
vn -0.6826 0.0691 -0.7275
vn -0.5955 -0.2373 -0.7675
vn -0.9693 -0.0341 -0.2433
vn -0.9878 0.0158 -0.1552
vn 0.9771 0.0149 -0.2124
vn 0.9922 -0.0009 -0.1250
vn -0.7332 0.0195 -0.6797
vn -0.9726 -0.0126 -0.2321
vn -0.6645 0.0459 0.7458
vn 0.2343 0.1139 -0.9655
vn 0.7476 0.0349 -0.6632
vn 0.7828 -0.2023 -0.5885
vn 0.7813 -0.3415 -0.5224
vn 0.9782 0.0226 -0.2062
vn 0.6023 0.0637 0.7957
vn 0.7766 -0.3282 -0.5378
vn 0.1146 -0.1546 -0.9813
vn 0.0869 -0.2588 -0.9620
vn -0.1041 0.1157 -0.9878
vn -0.0536 0.0808 -0.9953
vn 0.7478 -0.0050 -0.6639
vn 0.7366 -0.3037 -0.6043
vn 0.7896 -0.1601 -0.5923
vn -0.7971 -0.1847 -0.5749
vn -0.7949 -0.3161 -0.5179
vn -0.7895 -0.3079 -0.5310
vn -0.1036 -0.1291 -0.9862
vn -0.1364 -0.2299 -0.9636
vn 0.0389 0.0665 -0.9970
vn -0.7566 0.0413 -0.6526
vn -0.7523 -0.2868 -0.5930
vn -0.8003 -0.1332 -0.5846
vn 0.0427 -0.6848 -0.7275
vn -0.0618 -0.3425 0.9375
vn 0.0538 -0.4867 -0.8719
vn 0.0334 -0.4420 -0.8964
vn 0.0322 0.0967 -0.9948
vn -0.0356 0.2725 0.9615
vn -0.0261 -0.0507 0.9984
vn -0.0396 0.0431 0.9983
vn 0.0205 -0.0553 -0.9983
vn 0.0662 0.1103 -0.9917
vt 0.700998 0.694997
vt 0.670437 0.545092
vt 0.621369 0.696438
vt 0.596471 0.578742
vt 0.541111 0.718945
vt 0.138103 0.398168
vt 0.174242 0.485498
vt 0.141975 0.497302
vt 0.107983 0.069452
vt 0.182907 0.197303
vt 0.129397 0.224081
vt 0.266355 0.190592
vt 0.352815 0.085994
vt 0.336442 0.195691
vt 0.429904 0.482460
vt 0.397402 0.392113
vt 0.443947 0.409050
vt 0.187795 0.044971
vt 0.138934 0.000171
vt 0.029842 0.060616
vt 0.071695 0.093735
vt 0.109596 0.492315
vt 0.088287 0.419477
vt 0.252567 0.185666
vt 0.154320 0.089942
vt 0.256922 0.409277
vt 0.199316 0.524593
vt 0.332726 0.306368
vt 0.392947 0.217683
vt 0.396959 0.314734
vt 0.066944 0.205988
vt 0.671843 0.984949
vt 0.719603 0.831796
vt 0.635445 0.834117
vt 0.582411 0.999829
vt 0.347575 0.403624
vt 0.400194 0.490316
vt 0.344346 0.521423
vt 0.367501 0.480626
vt 0.281259 0.411059
vt 0.397994 0.314878
vt 0.455542 0.312752
vt 0.088496 0.533105
vt 0.144340 0.569183
vt 0.394674 0.059371
vt 0.526466 0.850433
vt 0.195602 0.307039
vt 0.133577 0.321124
vt 0.072563 0.325020
vt 0.264425 0.306045
vt 0.506972 0.417769
vt 0.435776 0.078231
vt 0.522325 0.182320
vt 0.454382 0.192081
vt 0.453767 0.523114
vt 0.315671 0.623505
vt 0.490372 0.575963
vt 0.329526 0.564775
vt 0.189868 0.406845
vt 0.134879 0.320995
vt 0.526123 0.309994
vt 0.680022 0.199832
vt 0.706638 0.075165
vt 0.632603 0.041659
vt 0.602287 0.191619
vt 0.630764 0.487654
vt 0.583604 0.328340
vt 0.526466 0.470722
vt 0.717963 0.503084
vt 0.669158 0.332480
vt 0.761904 0.215417
vt 0.000171 0.329918
vt 0.022178 0.436299
vt 0.264082 0.301679
vt 0.326316 0.804247
vt 0.264425 0.655364
vt 0.315859 0.046880
vt 0.356403 0.000171
vt 0.000171 0.204454
vt 0.475026 0.037472
vt 0.442065 0.000171
vt 0.776497 0.503426
vt 0.055669 0.023589
vt 0.776497 0.974365
vt 0.400695 0.564433
vt 0.490372 0.749054
vt 0.526466 0.000171
vt 0.776791 0.346878
s 1
usemtl Bird
f 43/1/43 37/2/37 44/3/44
f 44/3/44 33/4/33 42/5/42
f 26/6/26 5/7/5 12/8/12
f 10/9/10 21/10/21 27/11/27
f 58/12/57 3/13/3 23/14/23
f 2/15/2 24/16/24 18/17/18
f 55/18/54 10/9/10 57/19/56
f 56/20/55 10/9/10 8/21/8
f 26/6/26 6/22/6 16/23/16
f 58/24/57 7/25/7 55/18/54
f 5/7/5 59/26/58 14/27/14
f 28/28/28 25/29/25 29/30/29
f 10/9/10 17/31/17 8/21/8
f 29/32/29 41/33/41 38/34/38
f 38/34/38 24/35/24 29/32/29
f 22/36/22 29/30/29 24/16/24
f 13/37/13 14/38/14 1/39/1
f 59/40/58 1/39/1 14/38/14
f 18/17/18 29/41/29 30/42/30
f 12/8/12 9/43/9 6/22/6
f 12/8/12 14/27/14 15/44/15
f 11/45/11 23/14/23 3/13/3
f 24/16/24 1/39/1 22/36/22
f 38/34/38 42/5/42 39/46/39
f 32/47/32 27/11/27 21/10/21
f 35/48/35 16/23/16 36/49/36
f 23/14/23 63/50/62 58/12/57
f 30/42/30 60/51/59 18/17/18
f 4/52/4 61/53/60 19/54/19
f 30/42/30 25/29/25 19/54/19
f 2/15/2 60/51/59 9/55/9
f 57/56/56 31/57/31 11/58/11
f 28/28/28 59/40/58 63/50/62
f 27/11/27 36/49/36 17/31/17
f 20/59/20 35/60/35 32/47/32
f 19/54/19 62/61/61 30/42/30
f 38/34/38 43/1/43 44/3/44
f 53/62/53 45/63/45 47/64/47
f 47/64/47 52/65/52 53/62/53
f 35/66/35 50/67/50 27/68/27
f 26/69/26 48/70/48 35/66/35
f 48/70/48 52/65/52 50/67/50
f 48/70/48 51/71/51 53/62/53
f 62/72/61 17/31/17 36/49/36
f 60/73/59 36/49/36 16/23/16
f 32/47/32 59/26/58 20/59/20
f 21/10/21 63/74/62 32/47/32
f 40/75/40 57/56/56 10/76/10
f 9/55/9 13/37/13 2/15/2
f 11/45/11 55/77/54 57/78/56
f 61/79/60 8/21/8 17/31/17
f 56/80/55 11/45/11 57/81/56
f 19/54/19 11/45/11 4/52/4
f 6/22/6 60/73/59 16/23/16
f 43/1/43 34/82/34 37/2/37
f 44/3/44 37/2/37 33/4/33
f 26/6/26 20/59/20 5/7/5
f 10/9/10 7/25/7 21/10/21
f 58/12/57 55/77/54 3/13/3
f 2/15/2 13/37/13 24/16/24
f 55/18/54 7/25/7 10/9/10
f 56/20/55 57/83/56 10/9/10
f 26/6/26 12/8/12 6/22/6
f 58/24/57 21/10/21 7/25/7
f 5/7/5 20/59/20 59/26/58
f 28/28/28 23/14/23 25/29/25
f 10/9/10 27/11/27 17/31/17
f 29/32/29 25/84/25 41/33/41
f 38/34/38 39/46/39 24/35/24
f 22/36/22 28/28/28 29/30/29
f 13/37/13 15/85/15 14/38/14
f 59/40/58 22/36/22 1/39/1
f 18/17/18 24/16/24 29/41/29
f 12/8/12 15/44/15 9/43/9
f 12/8/12 5/7/5 14/27/14
f 11/45/11 25/29/25 23/14/23
f 24/16/24 13/37/13 1/39/1
f 38/34/38 44/3/44 42/5/42
f 32/47/32 35/60/35 27/11/27
f 35/48/35 26/6/26 16/23/16
f 23/14/23 28/28/28 63/50/62
f 30/42/30 62/61/61 60/51/59
f 4/52/4 56/80/55 61/53/60
f 30/42/30 29/41/29 25/29/25
f 2/15/2 18/17/18 60/51/59
f 57/56/56 64/86/63 31/57/31
f 28/28/28 22/36/22 59/40/58
f 27/11/27 35/48/35 36/49/36
f 20/59/20 26/6/26 35/60/35
f 19/54/19 61/53/60 62/61/61
f 38/34/38 41/33/41 43/1/43
f 53/62/53 51/71/51 45/63/45
f 47/64/47 46/87/46 52/65/52
f 35/66/35 48/70/48 50/67/50
f 26/69/26 49/88/49 48/70/48
f 48/70/48 53/62/53 52/65/52
f 48/70/48 49/88/49 51/71/51
f 62/72/61 61/79/60 17/31/17
f 60/73/59 62/72/61 36/49/36
f 32/47/32 63/74/62 59/26/58
f 21/10/21 58/24/57 63/74/62
f 40/75/40 64/86/63 57/56/56
f 9/55/9 15/85/15 13/37/13
f 11/45/11 3/13/3 55/77/54
f 61/79/60 56/20/55 8/21/8
f 56/80/55 4/52/4 11/45/11
f 19/54/19 25/29/25 11/45/11
f 6/22/6 9/43/9 60/73/59
l 44 54
