# Blender 4.3.2
# www.blender.org
mtllib BirdAnimationOndrej0009.mtl
o Cube
v -0.284552 1.410269 -0.082689
v -0.289446 1.436365 0.298271
v -0.292058 -1.173854 0.074350
v -0.304963 -1.284199 0.582013
v 0.246683 1.406184 -0.062684
v 0.229036 1.430094 0.322207
v 0.304267 -1.177961 0.108670
v 0.253809 -1.288148 0.615242
v -0.026016 1.557854 0.355882
v 0.356428 -1.514788 0.471823
v -0.386681 -1.508898 0.424358
v 0.305748 1.540344 0.135988
v -0.353048 1.545211 0.111576
v -0.000173 1.532415 -0.110375
v -0.000072 1.858602 0.128680
v 0.362432 0.891205 0.584096
v 0.395684 -0.646642 0.644697
v -0.464382 0.905820 0.540508
v -0.422679 -0.645872 0.622358
v 0.413959 0.785583 -0.140279
v 0.446104 -0.698858 -0.114594
v -0.440345 0.783671 -0.171624
v -0.429554 -0.698494 -0.134794
v -0.644160 0.846385 0.231390
v -0.615276 -0.468356 0.253925
v 0.599028 0.838219 0.250983
v 0.616328 -0.468802 0.274757
v -0.415564 0.060179 -0.163562
v -0.491760 0.241345 0.398932
v -0.437304 0.202940 0.657056
v -0.934005 -2.385169 0.162925
v 0.429506 0.062274 -0.149459
v -3.182675 0.272853 0.907145
v -3.412855 -0.952304 1.315970
v 0.495700 0.245686 0.366116
v 0.384942 0.203595 0.680395
v -3.294828 -0.232486 1.080060
v -1.465806 0.310943 0.630570
v -1.553411 1.032275 0.441453
v 0.920038 -2.400731 0.284753
v -1.396452 -0.244351 0.646881
v -2.353822 0.777495 0.636814
v -2.279210 -0.264560 0.926112
v -2.384408 0.245200 0.793040
v 3.185469 0.245852 0.829287
v 3.420851 -0.985660 1.214399
v 3.299838 -0.262560 0.991404
v 1.450853 0.312185 0.613754
v 1.553362 1.029110 0.460308
v 1.395174 -0.252912 0.631692
v 2.353389 0.761079 0.598155
v 2.279070 -0.284206 0.876180
v 2.333888 0.221490 0.739195
v -2.376121 0.261608 0.846367
v -0.001182 -1.437295 0.267667
v -0.025927 -1.406736 0.574819
v -0.019026 -1.675362 0.480162
v 0.010090 -1.008631 -0.090486
v -0.003997 0.709433 -0.308229
v -0.033524 0.867872 0.669440
v -0.016936 -0.628832 0.777142
v -0.038857 0.170724 0.744297
v 0.009534 0.037568 -0.299931
v -0.018789 -3.096030 0.298979
vn -0.5220 0.4059 -0.7502
vn -0.5488 0.5181 0.6560
vn -0.3668 -0.5577 -0.7446
vn -0.4295 -0.2913 0.8548
vn 0.5808 0.3927 -0.7131
vn 0.5146 0.5098 0.6894
vn 0.4473 -0.5644 -0.6938
vn 0.3122 -0.2880 0.9053
vn -0.0261 0.5641 0.8253
vn 0.6187 -0.6730 -0.4053
vn -0.5675 -0.6710 -0.4771
vn 0.7860 0.6182 0.0021
vn -0.7631 0.6439 -0.0562
vn 0.0531 0.4926 -0.8686
vn 0.0407 0.9992 -0.0016
vn 0.5512 0.2830 0.7849
vn 0.6301 -0.0729 0.7731
vn -0.6254 0.2768 0.7295
vn -0.6704 -0.0844 0.7372
vn 0.7073 0.1002 -0.6998
vn 0.6300 -0.2451 -0.7369
vn -0.6809 0.0616 -0.7298
vn -0.5955 -0.2338 -0.7686
vn -0.9478 -0.0385 -0.3166
vn -0.9793 0.0172 -0.2015
vn 0.9625 0.0225 -0.2704
vn 0.9855 -0.0005 -0.1697
vn -0.7306 0.0226 -0.6825
vn -0.9513 -0.0079 -0.3083
vn -0.6747 0.0496 0.7364
vn 0.2339 0.1292 -0.9636
vn 0.7468 0.0382 -0.6640
vn -0.1453 -0.2863 -0.9471
vn -0.1524 -0.2851 -0.9463
vn 0.9616 0.0264 -0.2731
vn 0.6088 0.0665 0.7905
vn -0.1505 -0.2858 -0.9464
vn -0.2251 -0.1948 -0.9547
vn -0.2085 -0.2716 -0.9395
vn -0.1037 0.1313 -0.9859
vn -0.2970 0.0059 -0.9549
vn -0.1473 -0.2698 -0.9516
vn -0.1748 -0.2476 -0.9530
vn -0.1482 -0.2759 -0.9497
vn 0.1089 -0.2736 -0.9557
vn 0.1136 -0.2754 -0.9546
vn 0.1123 -0.2759 -0.9546
vn 0.2069 -0.1680 -0.9638
vn 0.1716 -0.2296 -0.9580
vn 0.2853 -0.0050 -0.9584
vn 0.1051 -0.2457 -0.9636
vn 0.1362 -0.2394 -0.9613
vn 0.1099 -0.2641 -0.9582
vn 0.0426 -0.6770 -0.7347
vn -0.0619 -0.3492 0.9350
vn 0.0538 -0.4726 -0.8796
vn 0.0326 -0.4446 -0.8951
vn 0.0315 0.0934 -0.9951
vn -0.0328 0.2854 0.9578
vn -0.0257 -0.0559 0.9981
vn -0.0342 0.0409 0.9986
vn 0.0196 -0.0524 -0.9984
vn 0.0662 0.1262 -0.9898
vt 0.700998 0.694997
vt 0.670437 0.545092
vt 0.621369 0.696438
vt 0.596471 0.578742
vt 0.541111 0.718945
vt 0.138103 0.398168
vt 0.174242 0.485498
vt 0.141975 0.497302
vt 0.107983 0.069452
vt 0.182907 0.197303
vt 0.129397 0.224081
vt 0.266355 0.190592
vt 0.352815 0.085994
vt 0.336442 0.195691
vt 0.429904 0.482460
vt 0.397402 0.392113
vt 0.443947 0.409050
vt 0.187795 0.044971
vt 0.138934 0.000171
vt 0.029842 0.060616
vt 0.071695 0.093735
vt 0.109596 0.492315
vt 0.088287 0.419477
vt 0.252567 0.185666
vt 0.154320 0.089942
vt 0.256922 0.409277
vt 0.199316 0.524593
vt 0.332726 0.306368
vt 0.392947 0.217683
vt 0.396959 0.314734
vt 0.066944 0.205988
vt 0.671843 0.984949
vt 0.719603 0.831796
vt 0.635445 0.834117
vt 0.582411 0.999829
vt 0.347575 0.403624
vt 0.400194 0.490316
vt 0.344346 0.521423
vt 0.367501 0.480626
vt 0.281259 0.411059
vt 0.397994 0.314878
vt 0.455542 0.312752
vt 0.088496 0.533105
vt 0.144340 0.569183
vt 0.394674 0.059371
vt 0.526466 0.850433
vt 0.195602 0.307039
vt 0.133577 0.321124
vt 0.072563 0.325020
vt 0.264425 0.306045
vt 0.506972 0.417769
vt 0.435776 0.078231
vt 0.522325 0.182320
vt 0.454382 0.192081
vt 0.453767 0.523114
vt 0.315671 0.623505
vt 0.490372 0.575963
vt 0.329526 0.564775
vt 0.189868 0.406845
vt 0.134879 0.320995
vt 0.526123 0.309994
vt 0.680022 0.199832
vt 0.706638 0.075165
vt 0.632603 0.041659
vt 0.602287 0.191619
vt 0.630764 0.487654
vt 0.583604 0.328340
vt 0.526466 0.470722
vt 0.717963 0.503084
vt 0.669158 0.332480
vt 0.761904 0.215417
vt 0.000171 0.329918
vt 0.022178 0.436299
vt 0.264082 0.301679
vt 0.326316 0.804247
vt 0.264425 0.655364
vt 0.315859 0.046880
vt 0.356403 0.000171
vt 0.000171 0.204454
vt 0.475026 0.037472
vt 0.442065 0.000171
vt 0.776497 0.503426
vt 0.055669 0.023589
vt 0.776497 0.974365
vt 0.400695 0.564433
vt 0.490372 0.749054
vt 0.526466 0.000171
vt 0.776791 0.346878
s 1
usemtl Bird
f 43/1/43 37/2/37 44/3/44
f 44/3/44 33/4/33 42/5/42
f 26/6/26 5/7/5 12/8/12
f 10/9/10 21/10/21 27/11/27
f 58/12/57 3/13/3 23/14/23
f 2/15/2 24/16/24 18/17/18
f 55/18/54 10/9/10 57/19/56
f 56/20/55 10/9/10 8/21/8
f 26/6/26 6/22/6 16/23/16
f 58/24/57 7/25/7 55/18/54
f 5/7/5 59/26/58 14/27/14
f 28/28/28 25/29/25 29/30/29
f 10/9/10 17/31/17 8/21/8
f 29/32/29 41/33/41 38/34/38
f 38/34/38 24/35/24 29/32/29
f 22/36/22 29/30/29 24/16/24
f 13/37/13 14/38/14 1/39/1
f 59/40/58 1/39/1 14/38/14
f 18/17/18 29/41/29 30/42/30
f 12/8/12 9/43/9 6/22/6
f 12/8/12 14/27/14 15/44/15
f 11/45/11 23/14/23 3/13/3
f 24/16/24 1/39/1 22/36/22
f 38/34/38 42/5/42 39/46/39
f 32/47/32 27/11/27 21/10/21
f 35/48/35 16/23/16 36/49/36
f 23/14/23 63/50/62 58/12/57
f 30/42/30 60/51/59 18/17/18
f 4/52/4 61/53/60 19/54/19
f 30/42/30 25/29/25 19/54/19
f 2/15/2 60/51/59 9/55/9
f 57/56/56 31/57/31 11/58/11
f 28/28/28 59/40/58 63/50/62
f 27/11/27 36/49/36 17/31/17
f 20/59/20 35/60/35 32/47/32
f 19/54/19 62/61/61 30/42/30
f 38/34/38 43/1/43 44/3/44
f 53/62/53 45/63/45 47/64/47
f 47/64/47 52/65/52 53/62/53
f 35/66/35 50/67/50 27/68/27
f 26/69/26 48/70/48 35/66/35
f 48/70/48 52/65/52 50/67/50
f 48/70/48 51/71/51 53/62/53
f 62/72/61 17/31/17 36/49/36
f 60/73/59 36/49/36 16/23/16
f 32/47/32 59/26/58 20/59/20
f 21/10/21 63/74/62 32/47/32
f 40/75/40 57/56/56 10/76/10
f 9/55/9 13/37/13 2/15/2
f 11/45/11 55/77/54 57/78/56
f 61/79/60 8/21/8 17/31/17
f 56/80/55 11/45/11 57/81/56
f 19/54/19 11/45/11 4/52/4
f 6/22/6 60/73/59 16/23/16
f 43/1/43 34/82/34 37/2/37
f 44/3/44 37/2/37 33/4/33
f 26/6/26 20/59/20 5/7/5
f 10/9/10 7/25/7 21/10/21
f 58/12/57 55/77/54 3/13/3
f 2/15/2 13/37/13 24/16/24
f 55/18/54 7/25/7 10/9/10
f 56/20/55 57/83/56 10/9/10
f 26/6/26 12/8/12 6/22/6
f 58/24/57 21/10/21 7/25/7
f 5/7/5 20/59/20 59/26/58
f 28/28/28 23/14/23 25/29/25
f 10/9/10 27/11/27 17/31/17
f 29/32/29 25/84/25 41/33/41
f 38/34/38 39/46/39 24/35/24
f 22/36/22 28/28/28 29/30/29
f 13/37/13 15/85/15 14/38/14
f 59/40/58 22/36/22 1/39/1
f 18/17/18 24/16/24 29/41/29
f 12/8/12 15/44/15 9/43/9
f 12/8/12 5/7/5 14/27/14
f 11/45/11 25/29/25 23/14/23
f 24/16/24 13/37/13 1/39/1
f 38/34/38 44/3/44 42/5/42
f 32/47/32 35/60/35 27/11/27
f 35/48/35 26/6/26 16/23/16
f 23/14/23 28/28/28 63/50/62
f 30/42/30 62/61/61 60/51/59
f 4/52/4 56/80/55 61/53/60
f 30/42/30 29/41/29 25/29/25
f 2/15/2 18/17/18 60/51/59
f 57/56/56 64/86/63 31/57/31
f 28/28/28 22/36/22 59/40/58
f 27/11/27 35/48/35 36/49/36
f 20/59/20 26/6/26 35/60/35
f 19/54/19 61/53/60 62/61/61
f 38/34/38 41/33/41 43/1/43
f 53/62/53 51/71/51 45/63/45
f 47/64/47 46/87/46 52/65/52
f 35/66/35 48/70/48 50/67/50
f 26/69/26 49/88/49 48/70/48
f 48/70/48 53/62/53 52/65/52
f 48/70/48 49/88/49 51/71/51
f 62/72/61 61/79/60 17/31/17
f 60/73/59 62/72/61 36/49/36
f 32/47/32 63/74/62 59/26/58
f 21/10/21 58/24/57 63/74/62
f 40/75/40 64/86/63 57/56/56
f 9/55/9 15/85/15 13/37/13
f 11/45/11 3/13/3 55/77/54
f 61/79/60 56/20/55 8/21/8
f 56/80/55 4/52/4 11/45/11
f 19/54/19 25/29/25 11/45/11
f 6/22/6 9/43/9 60/73/59
l 44 54
