# Blender 4.3.2
# www.blender.org
mtllib BirdCoastEndOndrej0003.mtl
o Cube
v -0.284552 1.410269 -0.166372
v -0.289446 1.436365 0.214588
v -0.292058 -1.175971 -0.025778
v -0.304966 -1.265784 0.485696
v 0.246683 1.406184 -0.146367
v 0.229036 1.430094 0.238524
v 0.304267 -1.178482 0.008761
v 0.253805 -1.268196 0.519110
v -0.026016 1.557854 0.272199
v 0.356426 -1.499308 0.384274
v -0.386683 -1.495708 0.336551
v 0.305748 1.540344 0.052305
v -0.353048 1.545211 0.027893
v -0.000173 1.532415 -0.194058
v -0.000072 1.858602 0.044997
v 0.359963 0.889979 0.481023
v 0.395683 -0.642995 0.556115
v -0.459252 0.904406 0.432227
v -0.422680 -0.642539 0.533742
v 0.432000 0.782995 -0.227822
v 0.446127 -0.699413 -0.202949
v -0.465400 0.780341 -0.258688
v -0.432849 -0.699758 -0.223258
v -0.648394 0.844573 0.141403
v -0.613241 -0.468390 0.163377
v 0.609667 0.835531 0.150371
v 0.614820 -0.468739 0.184905
v -0.460104 0.054492 -0.250446
v -0.499337 0.237204 0.276418
v -0.399481 0.201438 0.499687
v -0.934005 -2.383298 0.116595
v 0.467192 0.057301 -0.235741
v -2.777185 0.452051 0.999931
v -3.128343 -0.737356 1.442968
v 0.513959 0.239589 0.234669
v 0.360106 0.201971 0.536635
v -2.952683 -0.038994 1.160933
v -1.068005 0.407274 1.124863
v -1.208550 1.107005 0.826688
v 0.920038 -2.392842 0.239022
v -1.045927 -0.159047 1.067946
v -1.842882 0.915092 1.045889
v -1.890931 -0.114263 1.328207
v -1.977215 0.387389 1.082893
v 2.732983 0.455414 1.122664
v 3.075791 -0.734283 1.565778
v 2.902071 -0.035593 1.290495
v 1.017026 0.416997 1.159745
v 1.203228 1.109951 0.879417
v 1.017309 -0.161305 1.090260
v 1.799881 0.916188 1.129036
v 1.841287 -0.113358 1.399873
v 1.880905 0.381700 1.171935
v -1.981103 0.406171 1.135938
v -0.001183 -1.431229 0.176704
v -0.025930 -1.386637 0.482264
v -0.019029 -1.658796 0.399947
v 0.010090 -1.009065 -0.176128
v -0.003997 0.709433 -0.391912
v -0.033524 0.867872 0.585756
v -0.016937 -0.625210 0.689339
v -0.036376 0.167716 0.619600
v 0.009534 0.037568 -0.383615
v -0.018788 -3.086225 0.289262
vn -0.5172 0.4118 -0.7503
vn -0.5507 0.5125 0.6588
vn -0.3748 -0.5605 -0.7385
vn -0.4156 -0.2877 0.8628
vn 0.5727 0.3996 -0.7158
vn 0.5167 0.5050 0.6914
vn 0.4595 -0.5658 -0.6847
vn 0.2976 -0.2835 0.9116
vn -0.0261 0.5641 0.8253
vn 0.6135 -0.6933 -0.3782
vn -0.5630 -0.6928 -0.4506
vn 0.7830 0.6220 0.0041
vn -0.7618 0.6454 -0.0555
vn 0.0531 0.4926 -0.8686
vn 0.0407 0.9992 -0.0016
vn 0.5578 0.2497 0.7915
vn 0.6299 -0.0510 0.7750
vn -0.6259 0.2397 0.7422
vn -0.6721 -0.0573 0.7382
vn 0.6974 0.1175 -0.7070
vn 0.6254 -0.2536 -0.7380
vn -0.6854 0.0811 -0.7236
vn -0.5929 -0.2432 -0.7677
vn -0.9935 -0.0306 -0.1098
vn -0.9984 0.0022 -0.0563
vn 0.9970 0.0131 -0.0757
vn 0.9997 -0.0133 -0.0200
vn -0.7438 0.0161 -0.6682
vn -0.9983 -0.0163 -0.0556
vn -0.6530 0.0397 0.7563
vn 0.2351 0.0819 -0.9685
vn 0.7517 0.0290 -0.6589
vn 0.0767 -0.2792 -0.9572
vn 0.1153 -0.3968 -0.9106
vn 0.9991 0.0229 -0.0356
vn 0.5932 0.0572 0.8030
vn 0.1026 -0.3840 -0.9176
vn -0.5118 -0.2001 -0.8354
vn -0.5315 -0.4202 -0.7355
vn -0.1049 0.0830 -0.9910
vn -0.6461 0.0946 -0.7574
vn -0.0105 -0.1932 -0.9811
vn 0.0270 -0.3456 -0.9380
vn 0.0781 -0.2598 -0.9625
vn -0.0317 -0.2757 -0.9607
vn -0.0672 -0.3802 -0.9225
vn -0.0551 -0.3722 -0.9265
vn 0.5667 -0.1805 -0.8039
vn 0.5417 -0.4362 -0.7185
vn 0.6926 0.1081 -0.7132
vn 0.0617 -0.1906 -0.9797
vn 0.0225 -0.3303 -0.9436
vn -0.0266 -0.2539 -0.9669
vn 0.0431 -0.7007 -0.7121
vn -0.0616 -0.3287 0.9424
vn 0.0537 -0.5157 -0.8551
vn 0.0345 -0.4361 -0.8992
vn 0.0318 0.0996 -0.9945
vn -0.0407 0.2420 0.9694
vn -0.0259 -0.0394 0.9989
vn -0.0539 0.0513 0.9972
vn 0.0207 -0.0566 -0.9982
vn 0.0662 0.0772 -0.9948
vt 0.700998 0.694997
vt 0.670437 0.545092
vt 0.621369 0.696438
vt 0.596471 0.578742
vt 0.541111 0.718945
vt 0.138103 0.398168
vt 0.174242 0.485498
vt 0.141975 0.497302
vt 0.107983 0.069452
vt 0.182907 0.197303
vt 0.129397 0.224081
vt 0.266355 0.190592
vt 0.352815 0.085994
vt 0.336442 0.195691
vt 0.429904 0.482460
vt 0.397402 0.392113
vt 0.443947 0.409050
vt 0.187795 0.044971
vt 0.138934 0.000171
vt 0.029842 0.060616
vt 0.071695 0.093735
vt 0.109596 0.492315
vt 0.088287 0.419477
vt 0.252567 0.185666
vt 0.154320 0.089942
vt 0.256922 0.409277
vt 0.199316 0.524593
vt 0.332726 0.306368
vt 0.392947 0.217683
vt 0.396959 0.314734
vt 0.066944 0.205988
vt 0.671843 0.984949
vt 0.719603 0.831796
vt 0.635445 0.834117
vt 0.582411 0.999829
vt 0.347575 0.403624
vt 0.400194 0.490316
vt 0.344346 0.521423
vt 0.367501 0.480626
vt 0.281259 0.411059
vt 0.397994 0.314878
vt 0.455542 0.312752
vt 0.088496 0.533105
vt 0.144340 0.569183
vt 0.394674 0.059371
vt 0.526466 0.850433
vt 0.195602 0.307039
vt 0.133577 0.321124
vt 0.072563 0.325020
vt 0.264425 0.306045
vt 0.506972 0.417769
vt 0.435776 0.078231
vt 0.522325 0.182320
vt 0.454382 0.192081
vt 0.453767 0.523114
vt 0.315671 0.623505
vt 0.490372 0.575963
vt 0.329526 0.564775
vt 0.189868 0.406845
vt 0.134879 0.320995
vt 0.526123 0.309994
vt 0.680022 0.199832
vt 0.706638 0.075165
vt 0.632603 0.041659
vt 0.602287 0.191619
vt 0.630764 0.487654
vt 0.583604 0.328340
vt 0.526466 0.470722
vt 0.717963 0.503084
vt 0.669158 0.332480
vt 0.761904 0.215417
vt 0.000171 0.329918
vt 0.022178 0.436299
vt 0.264082 0.301679
vt 0.326316 0.804247
vt 0.264425 0.655364
vt 0.315859 0.046880
vt 0.356403 0.000171
vt 0.000171 0.204454
vt 0.475026 0.037472
vt 0.442065 0.000171
vt 0.776497 0.503426
vt 0.055669 0.023589
vt 0.776497 0.974365
vt 0.400695 0.564433
vt 0.490372 0.749054
vt 0.526466 0.000171
vt 0.776791 0.346878
s 1
usemtl Bird
f 43/1/43 37/2/37 44/3/44
f 44/3/44 33/4/33 42/5/42
f 26/6/26 5/7/5 12/8/12
f 10/9/10 21/10/21 27/11/27
f 58/12/57 3/13/3 23/14/23
f 2/15/2 24/16/24 18/17/18
f 55/18/54 10/9/10 57/19/56
f 56/20/55 10/9/10 8/21/8
f 26/6/26 6/22/6 16/23/16
f 58/24/57 7/25/7 55/18/54
f 5/7/5 59/26/58 14/27/14
f 28/28/28 25/29/25 29/30/29
f 10/9/10 17/31/17 8/21/8
f 29/32/29 41/33/41 38/34/38
f 38/34/38 24/35/24 29/32/29
f 22/36/22 29/30/29 24/16/24
f 13/37/13 14/38/14 1/39/1
f 59/40/58 1/39/1 14/38/14
f 18/17/18 29/41/29 30/42/30
f 12/8/12 9/43/9 6/22/6
f 12/8/12 14/27/14 15/44/15
f 11/45/11 23/14/23 3/13/3
f 24/16/24 1/39/1 22/36/22
f 38/34/38 42/5/42 39/46/39
f 32/47/32 27/11/27 21/10/21
f 35/48/35 16/23/16 36/49/36
f 23/14/23 63/50/62 58/12/57
f 30/42/30 60/51/59 18/17/18
f 4/52/4 61/53/60 19/54/19
f 30/42/30 25/29/25 19/54/19
f 2/15/2 60/51/59 9/55/9
f 57/56/56 31/57/31 11/58/11
f 28/28/28 59/40/58 63/50/62
f 27/11/27 36/49/36 17/31/17
f 20/59/20 35/60/35 32/47/32
f 19/54/19 62/61/61 30/42/30
f 38/34/38 43/1/43 44/3/44
f 53/62/53 45/63/45 47/64/47
f 47/64/47 52/65/52 53/62/53
f 35/66/35 50/67/50 27/68/27
f 26/69/26 48/70/48 35/66/35
f 48/70/48 52/65/52 50/67/50
f 48/70/48 51/71/51 53/62/53
f 62/72/61 17/31/17 36/49/36
f 60/73/59 36/49/36 16/23/16
f 32/47/32 59/26/58 20/59/20
f 21/10/21 63/74/62 32/47/32
f 40/75/40 57/56/56 10/76/10
f 9/55/9 13/37/13 2/15/2
f 11/45/11 55/77/54 57/78/56
f 61/79/60 8/21/8 17/31/17
f 56/80/55 11/45/11 57/81/56
f 19/54/19 11/45/11 4/52/4
f 6/22/6 60/73/59 16/23/16
f 43/1/43 34/82/34 37/2/37
f 44/3/44 37/2/37 33/4/33
f 26/6/26 20/59/20 5/7/5
f 10/9/10 7/25/7 21/10/21
f 58/12/57 55/77/54 3/13/3
f 2/15/2 13/37/13 24/16/24
f 55/18/54 7/25/7 10/9/10
f 56/20/55 57/83/56 10/9/10
f 26/6/26 12/8/12 6/22/6
f 58/24/57 21/10/21 7/25/7
f 5/7/5 20/59/20 59/26/58
f 28/28/28 23/14/23 25/29/25
f 10/9/10 27/11/27 17/31/17
f 29/32/29 25/84/25 41/33/41
f 38/34/38 39/46/39 24/35/24
f 22/36/22 28/28/28 29/30/29
f 13/37/13 15/85/15 14/38/14
f 59/40/58 22/36/22 1/39/1
f 18/17/18 24/16/24 29/41/29
f 12/8/12 15/44/15 9/43/9
f 12/8/12 5/7/5 14/27/14
f 11/45/11 25/29/25 23/14/23
f 24/16/24 13/37/13 1/39/1
f 38/34/38 44/3/44 42/5/42
f 32/47/32 35/60/35 27/11/27
f 35/48/35 26/6/26 16/23/16
f 23/14/23 28/28/28 63/50/62
f 30/42/30 62/61/61 60/51/59
f 4/52/4 56/80/55 61/53/60
f 30/42/30 29/41/29 25/29/25
f 2/15/2 18/17/18 60/51/59
f 57/56/56 64/86/63 31/57/31
f 28/28/28 22/36/22 59/40/58
f 27/11/27 35/48/35 36/49/36
f 20/59/20 26/6/26 35/60/35
f 19/54/19 61/53/60 62/61/61
f 38/34/38 41/33/41 43/1/43
f 53/62/53 51/71/51 45/63/45
f 47/64/47 46/87/46 52/65/52
f 35/66/35 48/70/48 50/67/50
f 26/69/26 49/88/49 48/70/48
f 48/70/48 53/62/53 52/65/52
f 48/70/48 49/88/49 51/71/51
f 62/72/61 61/79/60 17/31/17
f 60/73/59 62/72/61 36/49/36
f 32/47/32 63/74/62 59/26/58
f 21/10/21 58/24/57 63/74/62
f 40/75/40 64/86/63 57/56/56
f 9/55/9 15/85/15 13/37/13
f 11/45/11 3/13/3 55/77/54
f 61/79/60 56/20/55 8/21/8
f 56/80/55 4/52/4 11/45/11
f 19/54/19 25/29/25 11/45/11
f 6/22/6 9/43/9 60/73/59
l 44 54
