# Blender 4.3.2
# www.blender.org
mtllib BirdAnimationOndrej0012.mtl
o Cube
v -0.284552 1.410269 0.038138
v -0.289446 1.436365 0.419098
v -0.292057 -1.172646 0.210278
v -0.304970 -1.301568 0.713558
v 0.246683 1.406184 0.058144
v 0.229036 1.430094 0.443034
v 0.304267 -1.178199 0.244339
v 0.253801 -1.306911 0.746561
v -0.026016 1.557854 0.476709
v 0.356422 -1.529090 0.595505
v -0.386686 -1.521121 0.548360
v 0.305748 1.540344 0.256816
v -0.353048 1.545211 0.232404
v -0.000173 1.532415 0.010452
v -0.000072 1.858602 0.249507
v 0.377691 0.890239 0.715920
v 0.395682 -0.650187 0.769837
v -0.489651 0.904090 0.676538
v -0.422681 -0.649131 0.747540
v 0.405288 0.788162 -0.004411
v 0.446088 -0.698556 0.010539
v -0.424261 0.788188 -0.027098
v -0.426899 -0.697282 -0.006808
v -0.651054 0.847252 0.371807
v -0.619824 -0.468871 0.378676
v 0.604861 0.839206 0.390247
v 0.619714 -0.469321 0.398909
v -0.383066 0.068494 -0.002782
v -0.517157 0.241854 0.557000
v -0.527690 0.193928 0.804673
v -0.934005 -2.385234 0.249548
v 0.406768 0.067935 -0.000745
v -2.522460 0.158307 -1.266486
v -2.869956 -1.108420 -1.272760
v 0.516302 0.247168 0.531016
v 0.442044 0.198174 0.823444
v -2.678815 -0.364345 -1.281772
v -1.292751 0.252286 -0.041627
v -1.373317 0.990643 -0.051663
v 0.920036 -2.406261 0.370608
v -1.263817 -0.297836 0.073458
v -1.891774 0.698370 -0.696521
v -1.955709 -0.366365 -0.548968
v -1.958109 0.154922 -0.689848
v 2.587080 0.158826 -1.153382
v 2.935100 -1.106977 -1.144891
v 2.743987 -0.363816 -1.161823
v 1.296280 0.264464 0.019956
v 1.408491 0.994283 0.027412
v 1.280216 -0.296175 0.136147
v 1.938544 0.699355 -0.602409
v 1.989678 -0.365316 -0.461936
v 1.960809 0.151965 -0.568886
v -1.997595 0.165599 -0.651008
v -0.001184 -1.443153 0.394874
v -0.025935 -1.425475 0.702861
v -0.019032 -1.690333 0.597094
v 0.010090 -1.008321 0.032149
v -0.003997 0.709433 -0.187401
v -0.033524 0.867872 0.790267
v -0.016938 -0.632321 0.901571
v -0.062514 0.169074 0.894132
v 0.009534 0.037568 -0.179104
v -0.018791 -3.101727 0.351849
vn -0.5263 0.3973 -0.7518
vn -0.5391 0.5281 0.6561
vn -0.3579 -0.5536 -0.7520
vn -0.4398 -0.2953 0.8482
vn 0.5837 0.3875 -0.7136
vn 0.5060 0.5178 0.6898
vn 0.4312 -0.5634 -0.7047
vn 0.3235 -0.2928 0.8998
vn -0.0261 0.5641 0.8253
vn 0.6232 -0.6538 -0.4292
vn -0.5714 -0.6504 -0.5004
vn 0.7842 0.6205 -0.0004
vn -0.7612 0.6459 -0.0589
vn 0.0531 0.4926 -0.8686
vn 0.0407 0.9992 -0.0016
vn 0.5373 0.3114 0.7838
vn 0.6262 -0.0913 0.7743
vn -0.6217 0.3118 0.7185
vn -0.6639 -0.1147 0.7390
vn 0.7107 0.0829 -0.6986
vn 0.6322 -0.2355 -0.7382
vn -0.6831 0.0360 -0.7294
vn -0.5981 -0.2190 -0.7709
vn -0.8849 0.0743 -0.4599
vn -0.9446 -0.0141 -0.3279
vn 0.9200 0.1306 -0.3694
vn 0.9654 -0.0272 -0.2594
vn -0.7383 0.0334 -0.6736
vn -0.8692 0.0302 -0.4935
vn -0.7441 0.0623 0.6651
vn 0.2328 0.1721 -0.9572
vn 0.7511 0.0452 -0.6586
vn 0.7042 -0.1669 -0.6901
vn 0.6989 -0.1879 -0.6901
vn 0.9258 0.0483 -0.3749
vn 0.6395 0.0700 0.7656
vn 0.6996 -0.1876 -0.6895
vn 0.6498 -0.0672 -0.7571
vn 0.6454 0.0601 -0.7615
vn -0.1026 0.1752 -0.9792
vn 0.6058 -0.0613 -0.7932
vn 0.7236 -0.0481 -0.6886
vn 0.6952 -0.1740 -0.6974
vn 0.7039 -0.1414 -0.6961
vn -0.6725 -0.1609 -0.7224
vn -0.6678 -0.1881 -0.7202
vn -0.6682 -0.1881 -0.7198
vn -0.6002 -0.0615 -0.7975
vn -0.5915 0.0991 -0.8002
vn -0.5584 -0.0859 -0.8251
vn -0.6928 -0.0199 -0.7209
vn -0.6650 -0.1788 -0.7251
vn -0.6725 -0.1322 -0.7282
vn 0.0421 -0.6546 -0.7548
vn -0.0621 -0.3682 0.9277
vn 0.0539 -0.4323 -0.9001
vn 0.0293 -0.4510 -0.8920
vn 0.0200 0.0753 -0.9970
vn -0.0249 0.3083 0.9510
vn -0.0224 -0.0664 0.9975
vn -0.0312 0.0424 0.9986
vn 0.0056 -0.0353 -0.9994
vn 0.0662 0.1708 -0.9831
vt 0.700998 0.694997
vt 0.670437 0.545092
vt 0.621369 0.696438
vt 0.596471 0.578742
vt 0.541111 0.718945
vt 0.138103 0.398168
vt 0.174242 0.485498
vt 0.141975 0.497302
vt 0.107983 0.069452
vt 0.182907 0.197303
vt 0.129397 0.224081
vt 0.266355 0.190592
vt 0.352815 0.085994
vt 0.336442 0.195691
vt 0.429904 0.482460
vt 0.397402 0.392113
vt 0.443947 0.409050
vt 0.187795 0.044971
vt 0.138934 0.000171
vt 0.029842 0.060616
vt 0.071695 0.093735
vt 0.109596 0.492315
vt 0.088287 0.419477
vt 0.252567 0.185666
vt 0.154320 0.089942
vt 0.256922 0.409277
vt 0.199316 0.524593
vt 0.332726 0.306368
vt 0.392947 0.217683
vt 0.396959 0.314734
vt 0.066944 0.205988
vt 0.671843 0.984949
vt 0.719603 0.831796
vt 0.635445 0.834117
vt 0.582411 0.999829
vt 0.347575 0.403624
vt 0.400194 0.490316
vt 0.344346 0.521423
vt 0.367501 0.480626
vt 0.281259 0.411059
vt 0.397994 0.314878
vt 0.455542 0.312752
vt 0.088496 0.533105
vt 0.144340 0.569183
vt 0.394674 0.059371
vt 0.526466 0.850433
vt 0.195602 0.307039
vt 0.133577 0.321124
vt 0.072563 0.325020
vt 0.264425 0.306045
vt 0.506972 0.417769
vt 0.435776 0.078231
vt 0.522325 0.182320
vt 0.454382 0.192081
vt 0.453767 0.523114
vt 0.315671 0.623505
vt 0.490372 0.575963
vt 0.329526 0.564775
vt 0.189868 0.406845
vt 0.134879 0.320995
vt 0.526123 0.309994
vt 0.680022 0.199832
vt 0.706638 0.075165
vt 0.632603 0.041659
vt 0.602287 0.191619
vt 0.630764 0.487654
vt 0.583604 0.328340
vt 0.526466 0.470722
vt 0.717963 0.503084
vt 0.669158 0.332480
vt 0.761904 0.215417
vt 0.000171 0.329918
vt 0.022178 0.436299
vt 0.264082 0.301679
vt 0.326316 0.804247
vt 0.264425 0.655364
vt 0.315859 0.046880
vt 0.356403 0.000171
vt 0.000171 0.204454
vt 0.475026 0.037472
vt 0.442065 0.000171
vt 0.776497 0.503426
vt 0.055669 0.023589
vt 0.776497 0.974365
vt 0.400695 0.564433
vt 0.490372 0.749054
vt 0.526466 0.000171
vt 0.776791 0.346878
s 1
usemtl Bird
f 43/1/43 37/2/37 44/3/44
f 44/3/44 33/4/33 42/5/42
f 26/6/26 5/7/5 12/8/12
f 10/9/10 21/10/21 27/11/27
f 58/12/57 3/13/3 23/14/23
f 2/15/2 24/16/24 18/17/18
f 55/18/54 10/9/10 57/19/56
f 56/20/55 10/9/10 8/21/8
f 26/6/26 6/22/6 16/23/16
f 58/24/57 7/25/7 55/18/54
f 5/7/5 59/26/58 14/27/14
f 28/28/28 25/29/25 29/30/29
f 10/9/10 17/31/17 8/21/8
f 29/32/29 41/33/41 38/34/38
f 38/34/38 24/35/24 29/32/29
f 22/36/22 29/30/29 24/16/24
f 13/37/13 14/38/14 1/39/1
f 59/40/58 1/39/1 14/38/14
f 18/17/18 29/41/29 30/42/30
f 12/8/12 9/43/9 6/22/6
f 12/8/12 14/27/14 15/44/15
f 11/45/11 23/14/23 3/13/3
f 24/16/24 1/39/1 22/36/22
f 38/34/38 42/5/42 39/46/39
f 32/47/32 27/11/27 21/10/21
f 35/48/35 16/23/16 36/49/36
f 23/14/23 63/50/62 58/12/57
f 30/42/30 60/51/59 18/17/18
f 4/52/4 61/53/60 19/54/19
f 30/42/30 25/29/25 19/54/19
f 2/15/2 60/51/59 9/55/9
f 57/56/56 31/57/31 11/58/11
f 28/28/28 59/40/58 63/50/62
f 27/11/27 36/49/36 17/31/17
f 20/59/20 35/60/35 32/47/32
f 19/54/19 62/61/61 30/42/30
f 38/34/38 43/1/43 44/3/44
f 53/62/53 45/63/45 47/64/47
f 47/64/47 52/65/52 53/62/53
f 35/66/35 50/67/50 27/68/27
f 26/69/26 48/70/48 35/66/35
f 48/70/48 52/65/52 50/67/50
f 48/70/48 51/71/51 53/62/53
f 62/72/61 17/31/17 36/49/36
f 60/73/59 36/49/36 16/23/16
f 32/47/32 59/26/58 20/59/20
f 21/10/21 63/74/62 32/47/32
f 40/75/40 57/56/56 10/76/10
f 9/55/9 13/37/13 2/15/2
f 11/45/11 55/77/54 57/78/56
f 61/79/60 8/21/8 17/31/17
f 56/80/55 11/45/11 57/81/56
f 19/54/19 11/45/11 4/52/4
f 6/22/6 60/73/59 16/23/16
f 43/1/43 34/82/34 37/2/37
f 44/3/44 37/2/37 33/4/33
f 26/6/26 20/59/20 5/7/5
f 10/9/10 7/25/7 21/10/21
f 58/12/57 55/77/54 3/13/3
f 2/15/2 13/37/13 24/16/24
f 55/18/54 7/25/7 10/9/10
f 56/20/55 57/83/56 10/9/10
f 26/6/26 12/8/12 6/22/6
f 58/24/57 21/10/21 7/25/7
f 5/7/5 20/59/20 59/26/58
f 28/28/28 23/14/23 25/29/25
f 10/9/10 27/11/27 17/31/17
f 29/32/29 25/84/25 41/33/41
f 38/34/38 39/46/39 24/35/24
f 22/36/22 28/28/28 29/30/29
f 13/37/13 15/85/15 14/38/14
f 59/40/58 22/36/22 1/39/1
f 18/17/18 24/16/24 29/41/29
f 12/8/12 15/44/15 9/43/9
f 12/8/12 5/7/5 14/27/14
f 11/45/11 25/29/25 23/14/23
f 24/16/24 13/37/13 1/39/1
f 38/34/38 44/3/44 42/5/42
f 32/47/32 35/60/35 27/11/27
f 35/48/35 26/6/26 16/23/16
f 23/14/23 28/28/28 63/50/62
f 30/42/30 62/61/61 60/51/59
f 4/52/4 56/80/55 61/53/60
f 30/42/30 29/41/29 25/29/25
f 2/15/2 18/17/18 60/51/59
f 57/56/56 64/86/63 31/57/31
f 28/28/28 22/36/22 59/40/58
f 27/11/27 35/48/35 36/49/36
f 20/59/20 26/6/26 35/60/35
f 19/54/19 61/53/60 62/61/61
f 38/34/38 41/33/41 43/1/43
f 53/62/53 51/71/51 45/63/45
f 47/64/47 46/87/46 52/65/52
f 35/66/35 48/70/48 50/67/50
f 26/69/26 49/88/49 48/70/48
f 48/70/48 53/62/53 52/65/52
f 48/70/48 49/88/49 51/71/51
f 62/72/61 61/79/60 17/31/17
f 60/73/59 62/72/61 36/49/36
f 32/47/32 63/74/62 59/26/58
f 21/10/21 58/24/57 63/74/62
f 40/75/40 64/86/63 57/56/56
f 9/55/9 15/85/15 13/37/13
f 11/45/11 3/13/3 55/77/54
f 61/79/60 56/20/55 8/21/8
f 56/80/55 4/52/4 11/45/11
f 19/54/19 25/29/25 11/45/11
f 6/22/6 9/43/9 60/73/59
l 44 54
