# Blender 4.3.2
# www.blender.org
mtllib BirdAnimationOndrej0005.mtl
o Cube
v -0.284552 1.410269 -0.214876
v -0.289446 1.436365 0.166084
v -0.292057 -1.177049 -0.080826
v -0.304969 -1.258602 0.431881
v 0.246683 1.406184 -0.194871
v 0.229036 1.430094 0.190020
v 0.304267 -1.178919 -0.046218
v 0.253801 -1.260398 0.465352
v -0.026016 1.557854 0.223695
v 0.356422 -1.493176 0.334010
v -0.386685 -1.490495 0.286211
v 0.305748 1.540344 0.003801
v -0.353048 1.545211 -0.020611
v -0.000173 1.532415 -0.242562
v -0.000072 1.858602 -0.003507
v 0.361169 0.888894 0.427997
v 0.395683 -0.641607 0.505602
v -0.460095 0.902941 0.376909
v -0.422680 -0.641277 0.483219
v 0.435351 0.781797 -0.275912
v 0.446131 -0.699700 -0.253306
v -0.470252 0.778731 -0.306400
v -0.433629 -0.700313 -0.272839
v -0.655676 0.842763 0.079141
v -0.614530 -0.468322 0.117186
v 0.612570 0.833761 0.097008
v 0.615599 -0.468594 0.138411
v -0.469411 0.052045 -0.293663
v -0.505116 0.234419 0.223768
v -0.399303 0.198627 0.434317
v -0.934005 -2.382023 0.082986
v 0.474119 0.055328 -0.279809
v -1.739480 0.639489 2.677354
v -1.570331 -0.521234 3.259864
v 0.521821 0.236013 0.181674
v 0.361474 0.199767 0.476065
v -1.675750 0.161862 2.933588
v -0.936473 0.466024 1.143446
v -1.171407 1.152383 0.834187
v 0.920036 -2.389154 0.205580
v -0.920914 -0.106958 1.075929
v -1.466068 1.031131 1.760626
v -1.196946 0.009897 2.039993
v -1.355623 0.515339 1.978600
v 1.619402 0.640066 2.751486
v 1.423476 -0.520514 3.326536
v 1.544393 0.162494 3.004753
v 0.883444 0.475556 1.171926
v 1.133382 1.154271 0.871864
v 0.890593 -0.109803 1.091446
v 1.395290 1.030232 1.810502
v 1.104561 0.010375 2.091192
v 1.245590 0.504910 1.992607
v -1.307611 0.534052 2.001541
v -0.001184 -1.428907 0.125205
v -0.025934 -1.378729 0.429931
v -0.019032 -1.652126 0.352595
v 0.010090 -1.009266 -0.225408
v -0.003997 0.709433 -0.440416
v -0.033524 0.867872 0.537252
v -0.016938 -0.623820 0.639138
v -0.038272 0.165253 0.563527
v 0.009534 0.037568 -0.432119
v -0.018791 -3.081264 0.270179
vn -0.5117 0.4145 -0.7525
vn -0.5520 0.5107 0.6592
vn -0.3779 -0.5609 -0.7366
vn -0.4092 -0.2865 0.8663
vn 0.5708 0.4008 -0.7166
vn 0.5174 0.5038 0.6917
vn 0.4631 -0.5664 -0.6817
vn 0.2911 -0.2819 0.9142
vn -0.0261 0.5641 0.8253
vn 0.6111 -0.7013 -0.3670
vn -0.5609 -0.7014 -0.4398
vn 0.7824 0.6228 0.0047
vn -0.7595 0.6483 -0.0538
vn 0.0531 0.4926 -0.8686
vn 0.0407 0.9992 -0.0016
vn 0.5597 0.2456 0.7915
vn 0.6266 -0.0497 0.7778
vn -0.6280 0.2336 0.7423
vn -0.6691 -0.0553 0.7411
vn 0.6943 0.1189 -0.7098
vn 0.6247 -0.2531 -0.7387
vn -0.6795 0.0793 -0.7294
vn -0.5929 -0.2427 -0.7678
vn -0.9962 -0.0385 -0.0784
vn -0.9997 -0.0045 -0.0233
vn 0.9992 0.0118 -0.0392
vn 0.9997 -0.0193 0.0124
vn -0.7493 0.0159 -0.6621
vn -0.9998 -0.0176 0.0052
vn -0.6496 0.0383 0.7593
vn 0.2356 0.0629 -0.9698
vn 0.7543 0.0279 -0.6560
vn -0.8492 -0.3370 -0.4066
vn -0.8556 -0.3246 -0.4032
vn 0.9996 0.0242 0.0160
vn 0.5895 0.0550 0.8059
vn -0.8544 -0.3257 -0.4048
vn -0.8996 -0.2351 -0.3679
vn -0.8261 -0.4409 -0.3510
vn -0.1054 0.0636 -0.9924
vn -0.9323 0.0543 -0.3576
vn -0.8450 -0.3752 -0.3809
vn -0.8802 -0.2709 -0.3897
vn -0.8504 -0.3353 -0.4054
vn 0.8660 -0.3409 -0.3658
vn 0.8718 -0.3265 -0.3653
vn 0.8710 -0.3273 -0.3665
vn 0.9208 -0.2184 -0.3231
vn 0.8294 -0.4511 -0.3295
vn 0.9531 0.0703 -0.2943
vn 0.8547 -0.3902 -0.3425
vn 0.8982 -0.2686 -0.3479
vn 0.8643 -0.3455 -0.3654
vn 0.0434 -0.7099 -0.7029
vn -0.0615 -0.3207 0.9452
vn 0.0537 -0.5326 -0.8447
vn 0.0348 -0.4323 -0.9011
vn 0.0315 0.0985 -0.9946
vn -0.0432 0.2339 0.9713
vn -0.0256 -0.0385 0.9989
vn -0.0610 0.0533 0.9967
vn 0.0203 -0.0548 -0.9983
vn 0.0662 0.0575 -0.9962
vt 0.700998 0.694997
vt 0.670437 0.545092
vt 0.621369 0.696438
vt 0.596471 0.578742
vt 0.541111 0.718945
vt 0.138103 0.398168
vt 0.174242 0.485498
vt 0.141975 0.497302
vt 0.107983 0.069452
vt 0.182907 0.197303
vt 0.129397 0.224081
vt 0.266355 0.190592
vt 0.352815 0.085994
vt 0.336442 0.195691
vt 0.429904 0.482460
vt 0.397402 0.392113
vt 0.443947 0.409050
vt 0.187795 0.044971
vt 0.138934 0.000171
vt 0.029842 0.060616
vt 0.071695 0.093735
vt 0.109596 0.492315
vt 0.088287 0.419477
vt 0.252567 0.185666
vt 0.154320 0.089942
vt 0.256922 0.409277
vt 0.199316 0.524593
vt 0.332726 0.306368
vt 0.392947 0.217683
vt 0.396959 0.314734
vt 0.066944 0.205988
vt 0.671843 0.984949
vt 0.719603 0.831796
vt 0.635445 0.834117
vt 0.582411 0.999829
vt 0.347575 0.403624
vt 0.400194 0.490316
vt 0.344346 0.521423
vt 0.367501 0.480626
vt 0.281259 0.411059
vt 0.397994 0.314878
vt 0.455542 0.312752
vt 0.088496 0.533105
vt 0.144340 0.569183
vt 0.394674 0.059371
vt 0.526466 0.850433
vt 0.195602 0.307039
vt 0.133577 0.321124
vt 0.072563 0.325020
vt 0.264425 0.306045
vt 0.506972 0.417769
vt 0.435776 0.078231
vt 0.522325 0.182320
vt 0.454382 0.192081
vt 0.453767 0.523114
vt 0.315671 0.623505
vt 0.490372 0.575963
vt 0.329526 0.564775
vt 0.189868 0.406845
vt 0.134879 0.320995
vt 0.526123 0.309994
vt 0.680022 0.199832
vt 0.706638 0.075165
vt 0.632603 0.041659
vt 0.602287 0.191619
vt 0.630764 0.487654
vt 0.583604 0.328340
vt 0.526466 0.470722
vt 0.717963 0.503084
vt 0.669158 0.332480
vt 0.761904 0.215417
vt 0.000171 0.329918
vt 0.022178 0.436299
vt 0.264082 0.301679
vt 0.326316 0.804247
vt 0.264425 0.655364
vt 0.315859 0.046880
vt 0.356403 0.000171
vt 0.000171 0.204454
vt 0.475026 0.037472
vt 0.442065 0.000171
vt 0.776497 0.503426
vt 0.055669 0.023589
vt 0.776497 0.974365
vt 0.400695 0.564433
vt 0.490372 0.749054
vt 0.526466 0.000171
vt 0.776791 0.346878
s 1
usemtl Bird
f 43/1/43 37/2/37 44/3/44
f 44/3/44 33/4/33 42/5/42
f 26/6/26 5/7/5 12/8/12
f 10/9/10 21/10/21 27/11/27
f 58/12/57 3/13/3 23/14/23
f 2/15/2 24/16/24 18/17/18
f 55/18/54 10/9/10 57/19/56
f 56/20/55 10/9/10 8/21/8
f 26/6/26 6/22/6 16/23/16
f 58/24/57 7/25/7 55/18/54
f 5/7/5 59/26/58 14/27/14
f 28/28/28 25/29/25 29/30/29
f 10/9/10 17/31/17 8/21/8
f 29/32/29 41/33/41 38/34/38
f 38/34/38 24/35/24 29/32/29
f 22/36/22 29/30/29 24/16/24
f 13/37/13 14/38/14 1/39/1
f 59/40/58 1/39/1 14/38/14
f 18/17/18 29/41/29 30/42/30
f 12/8/12 9/43/9 6/22/6
f 12/8/12 14/27/14 15/44/15
f 11/45/11 23/14/23 3/13/3
f 24/16/24 1/39/1 22/36/22
f 38/34/38 42/5/42 39/46/39
f 32/47/32 27/11/27 21/10/21
f 35/48/35 16/23/16 36/49/36
f 23/14/23 63/50/62 58/12/57
f 30/42/30 60/51/59 18/17/18
f 4/52/4 61/53/60 19/54/19
f 30/42/30 25/29/25 19/54/19
f 2/15/2 60/51/59 9/55/9
f 57/56/56 31/57/31 11/58/11
f 28/28/28 59/40/58 63/50/62
f 27/11/27 36/49/36 17/31/17
f 20/59/20 35/60/35 32/47/32
f 19/54/19 62/61/61 30/42/30
f 38/34/38 43/1/43 44/3/44
f 53/62/53 45/63/45 47/64/47
f 47/64/47 52/65/52 53/62/53
f 35/66/35 50/67/50 27/68/27
f 26/69/26 48/70/48 35/66/35
f 48/70/48 52/65/52 50/67/50
f 48/70/48 51/71/51 53/62/53
f 62/72/61 17/31/17 36/49/36
f 60/73/59 36/49/36 16/23/16
f 32/47/32 59/26/58 20/59/20
f 21/10/21 63/74/62 32/47/32
f 40/75/40 57/56/56 10/76/10
f 9/55/9 13/37/13 2/15/2
f 11/45/11 55/77/54 57/78/56
f 61/79/60 8/21/8 17/31/17
f 56/80/55 11/45/11 57/81/56
f 19/54/19 11/45/11 4/52/4
f 6/22/6 60/73/59 16/23/16
f 43/1/43 34/82/34 37/2/37
f 44/3/44 37/2/37 33/4/33
f 26/6/26 20/59/20 5/7/5
f 10/9/10 7/25/7 21/10/21
f 58/12/57 55/77/54 3/13/3
f 2/15/2 13/37/13 24/16/24
f 55/18/54 7/25/7 10/9/10
f 56/20/55 57/83/56 10/9/10
f 26/6/26 12/8/12 6/22/6
f 58/24/57 21/10/21 7/25/7
f 5/7/5 20/59/20 59/26/58
f 28/28/28 23/14/23 25/29/25
f 10/9/10 27/11/27 17/31/17
f 29/32/29 25/84/25 41/33/41
f 38/34/38 39/46/39 24/35/24
f 22/36/22 28/28/28 29/30/29
f 13/37/13 15/85/15 14/38/14
f 59/40/58 22/36/22 1/39/1
f 18/17/18 24/16/24 29/41/29
f 12/8/12 15/44/15 9/43/9
f 12/8/12 5/7/5 14/27/14
f 11/45/11 25/29/25 23/14/23
f 24/16/24 13/37/13 1/39/1
f 38/34/38 44/3/44 42/5/42
f 32/47/32 35/60/35 27/11/27
f 35/48/35 26/6/26 16/23/16
f 23/14/23 28/28/28 63/50/62
f 30/42/30 62/61/61 60/51/59
f 4/52/4 56/80/55 61/53/60
f 30/42/30 29/41/29 25/29/25
f 2/15/2 18/17/18 60/51/59
f 57/56/56 64/86/63 31/57/31
f 28/28/28 22/36/22 59/40/58
f 27/11/27 35/48/35 36/49/36
f 20/59/20 26/6/26 35/60/35
f 19/54/19 61/53/60 62/61/61
f 38/34/38 41/33/41 43/1/43
f 53/62/53 51/71/51 45/63/45
f 47/64/47 46/87/46 52/65/52
f 35/66/35 48/70/48 50/67/50
f 26/69/26 49/88/49 48/70/48
f 48/70/48 53/62/53 52/65/52
f 48/70/48 49/88/49 51/71/51
f 62/72/61 61/79/60 17/31/17
f 60/73/59 62/72/61 36/49/36
f 32/47/32 63/74/62 59/26/58
f 21/10/21 58/24/57 63/74/62
f 40/75/40 64/86/63 57/56/56
f 9/55/9 15/85/15 13/37/13
f 11/45/11 3/13/3 55/77/54
f 61/79/60 56/20/55 8/21/8
f 56/80/55 4/52/4 11/45/11
f 19/54/19 25/29/25 11/45/11
f 6/22/6 9/43/9 60/73/59
l 44 54
