# Blender 4.3.2
# www.blender.org
o Cube
v -0.056910 0.282054 -0.199644
v -0.057889 0.287273 -0.123452
v -0.058055 -0.271929 -0.203956
v -0.060950 -0.248939 -0.096183
v 0.049337 0.281237 -0.195643
v 0.045807 0.286019 -0.118664
v 0.061208 -0.269601 -0.197388
v 0.050804 -0.246710 -0.089863
v -0.005203 0.311571 -0.111929
v 0.072784 -0.282216 -0.141264
v -0.075834 -0.285556 -0.150247
v 0.061150 0.308069 -0.155908
v -0.070610 0.309042 -0.160791
v -0.000035 0.306483 -0.205181
v -0.000014 0.371720 -0.157370
v 0.074551 0.178248 -0.072365
v 0.079136 -0.124187 -0.065677
v -0.095827 0.181201 -0.083612
v -0.084536 -0.124650 -0.070071
v 0.089274 0.156816 -0.213435
v 0.089229 -0.142597 -0.215221
v -0.097368 0.156385 -0.220564
v -0.087121 -0.143127 -0.219809
v -0.142537 0.169371 -0.147799
v -0.128065 -0.093613 -0.144214
v 0.130420 0.167414 -0.142204
v 0.127670 -0.093549 -0.138115
v -0.099255 0.011462 -0.222632
v -0.138718 0.048193 -0.153288
v -0.089992 0.041080 -0.080684
v -0.184887 -0.471107 -0.124280
v 0.099180 0.011872 -0.217981
v -0.198983 0.023387 0.370192
v -0.141268 -0.228052 0.394729
v 0.132957 0.048830 -0.149049
v 0.079224 0.041066 -0.068247
v -0.171605 -0.081437 0.383467
v -0.235176 0.067659 0.026198
v -0.278222 0.211061 -0.001448
v 0.185919 -0.462419 -0.101421
v -0.224004 -0.043535 0.001777
v -0.262885 0.147912 0.199793
v -0.203043 -0.063324 0.180848
v -0.215164 0.035243 0.210073
v 0.175485 0.023529 0.378497
v 0.114651 -0.228251 0.400278
v 0.147531 -0.081289 0.390572
v 0.226633 0.069851 0.034320
v 0.271338 0.211485 0.002944
v 0.219526 -0.043563 0.007841
v 0.250009 0.148366 0.207975
v 0.186343 -0.063495 0.189336
v 0.200312 0.035440 0.209388
v 0.185918 -0.461631 -0.097740
v -0.204257 0.037976 0.209154
v -0.184842 -0.470877 -0.121592
v 0.001961 -0.301645 -0.196527
v -0.004957 -0.267887 -0.095423
v -0.002237 -0.309436 -0.126151
v 0.002132 -0.138054 -0.246200
v -0.000799 0.141887 -0.244752
v -0.006705 0.173574 -0.049218
v -0.003388 -0.120379 -0.037599
v -0.009382 0.034171 -0.046908
v 0.001907 0.007514 -0.243092
v -0.001757 -0.582548 -0.030475
v -0.001776 -0.582051 -0.028809
vn -0.4813 0.4322 -0.7626
vn -0.5382 0.5188 0.6642
vn -0.5117 -0.5015 -0.6976
vn -0.5285 -0.4656 0.7099
vn 0.5504 0.4133 -0.7254
vn 0.5089 0.5090 0.6942
vn 0.5984 -0.4962 -0.6291
vn 0.4314 -0.4716 0.7691
vn -0.0261 0.5641 0.8253
vn 0.6536 -0.7335 -0.1866
vn -0.6100 -0.7447 -0.2706
vn 0.7699 0.6381 0.0069
vn -0.7403 0.6704 -0.0501
vn 0.0531 0.4926 -0.8686
vn 0.0407 0.9992 -0.0016
vn 0.5474 0.2456 0.8000
vn 0.6153 -0.1358 0.7765
vn -0.6079 0.2340 0.7588
vn -0.6591 -0.1376 0.7393
vn 0.6216 0.1741 -0.7637
vn 0.6898 -0.1627 -0.7055
vn -0.5815 0.1527 -0.7991
vn -0.6553 -0.1520 -0.7399
vn -0.9853 0.1096 -0.1312
vn -0.9905 -0.1237 -0.0597
vn 0.9866 0.1312 -0.0966
vn 0.9932 -0.1135 -0.0269
vn -0.6073 -0.0380 -0.7935
vn -0.9847 -0.0349 -0.1707
vn -0.6383 0.0053 0.7698
vn 0.2620 -0.3065 -0.9151
vn 0.6476 -0.0129 -0.7619
vn -0.9577 -0.2776 0.0762
vn -0.9724 -0.1909 0.1338
vn 0.9883 0.0161 -0.1514
vn 0.5759 0.0240 0.8172
vn -0.9724 -0.2001 0.1199
vn -0.9554 -0.1950 -0.2218
vn -0.8772 -0.3305 -0.3483
vn -0.1335 -0.3161 -0.9393
vn -0.9636 -0.0685 -0.2586
vn -0.9325 -0.3602 0.0276
vn -0.9814 -0.1545 0.1139
vn -0.9583 -0.2749 0.0782
vn 0.9521 -0.2814 0.1199
vn 0.9643 -0.2047 0.1679
vn 0.9651 -0.2101 0.1565
vn 0.9616 -0.1928 -0.1954
vn 0.8708 -0.3511 -0.3442
vn 0.9736 -0.0398 -0.2247
vn 0.9257 -0.3737 0.0592
vn 0.9744 -0.1627 0.1548
vn 0.9512 -0.2870 0.1129
vn 0.0509 -0.8058 -0.5900
vn -0.0380 -0.5628 0.8258
vn 0.0408 -0.9460 -0.3217
vn 0.0303 -0.0963 -0.9949
vn 0.0373 0.1130 -0.9929
vn -0.0462 0.2165 0.9752
vn -0.0217 -0.1108 0.9936
vn -0.0768 0.0300 0.9966
vn 0.0280 -0.0137 -0.9995
vn 0.0657 -0.3298 -0.9418
vt 0.700998 0.694997
vt 0.670437 0.545092
vt 0.621369 0.696438
vt 0.596471 0.578742
vt 0.541111 0.718945
vt 0.138103 0.398168
vt 0.174242 0.485498
vt 0.141975 0.497302
vt 0.107983 0.069452
vt 0.182907 0.197303
vt 0.129397 0.224081
vt 0.266355 0.190592
vt 0.352815 0.085994
vt 0.336442 0.195691
vt 0.429904 0.482460
vt 0.397402 0.392113
vt 0.443947 0.409050
vt 0.187795 0.044971
vt 0.138934 0.000171
vt 0.029842 0.060616
vt 0.071695 0.093735
vt 0.109596 0.492315
vt 0.088287 0.419477
vt 0.252567 0.185666
vt 0.154320 0.089942
vt 0.256922 0.409277
vt 0.199316 0.524593
vt 0.332726 0.306368
vt 0.392947 0.217683
vt 0.396959 0.314734
vt 0.066944 0.205988
vt 0.671843 0.984949
vt 0.719603 0.831796
vt 0.635445 0.834117
vt 0.582411 0.999829
vt 0.347575 0.403624
vt 0.400194 0.490316
vt 0.344346 0.521423
vt 0.367501 0.480626
vt 0.281259 0.411059
vt 0.397994 0.314878
vt 0.455542 0.312752
vt 0.088496 0.533105
vt 0.144340 0.569183
vt 0.394674 0.059371
vt 0.526466 0.850433
vt 0.195602 0.307039
vt 0.133577 0.321124
vt 0.072563 0.325020
vt 0.264425 0.306045
vt 0.506972 0.417769
vt 0.435776 0.078231
vt 0.522325 0.182320
vt 0.454382 0.192081
vt 0.453767 0.523114
vt 0.315671 0.623505
vt 0.490372 0.575963
vt 0.329526 0.564775
vt 0.189868 0.406845
vt 0.134879 0.320995
vt 0.526123 0.309994
vt 0.680022 0.199832
vt 0.706638 0.075165
vt 0.632603 0.041659
vt 0.602287 0.191619
vt 0.630764 0.487654
vt 0.583604 0.328340
vt 0.526466 0.470722
vt 0.717963 0.503084
vt 0.669158 0.332480
vt 0.761904 0.215417
vt 0.000171 0.329918
vt 0.022178 0.436299
vt 0.264082 0.301679
vt 0.326316 0.804247
vt 0.264425 0.655364
vt 0.315859 0.046880
vt 0.356403 0.000171
vt 0.000171 0.204454
vt 0.475026 0.037472
vt 0.442065 0.000171
vt 0.776497 0.503426
vt 0.055669 0.023589
vt 0.776497 0.974365
vt 0.400695 0.564433
vt 0.490372 0.749054
vt 0.526466 0.000171
vt 0.776791 0.346878
s 1
f 43/1/43 37/2/37 44/3/44
f 44/3/44 33/4/33 42/5/42
f 26/6/26 5/7/5 12/8/12
f 10/9/10 21/10/21 27/11/27
f 60/12/57 3/13/3 23/14/23
f 2/15/2 24/16/24 18/17/18
f 57/18/54 10/9/10 59/19/56
f 58/20/55 10/9/10 8/21/8
f 26/6/26 6/22/6 16/23/16
f 60/24/57 7/25/7 57/18/54
f 5/7/5 61/26/58 14/27/14
f 28/28/28 25/29/25 29/30/29
f 10/9/10 17/31/17 8/21/8
f 29/32/29 41/33/41 38/34/38
f 38/34/38 24/35/24 29/32/29
f 22/36/22 29/30/29 24/16/24
f 13/37/13 14/38/14 1/39/1
f 61/40/58 1/39/1 14/38/14
f 18/17/18 29/41/29 30/42/30
f 12/8/12 9/43/9 6/22/6
f 12/8/12 14/27/14 15/44/15
f 11/45/11 23/14/23 3/13/3
f 24/16/24 1/39/1 22/36/22
f 38/34/38 42/5/42 39/46/39
f 32/47/32 27/11/27 21/10/21
f 35/48/35 16/23/16 36/49/36
f 23/14/23 65/50/62 60/12/57
f 30/42/30 62/51/59 18/17/18
f 4/52/4 63/53/60 19/54/19
f 30/42/30 25/29/25 19/54/19
f 2/15/2 62/51/59 9/55/9
f 59/56/56 31/57/31 11/58/11
f 28/28/28 61/40/58 65/50/62
f 27/11/27 36/49/36 17/31/17
f 20/59/20 35/60/35 32/47/32
f 19/54/19 64/61/61 30/42/30
f 38/34/38 43/1/43 44/3/44
f 53/62/53 45/63/45 47/64/47
f 47/64/47 52/65/52 53/62/53
f 35/66/35 50/67/50 27/68/27
f 26/69/26 48/70/48 35/66/35
f 48/70/48 52/65/52 50/67/50
f 48/70/48 51/71/51 53/62/53
f 64/72/61 17/31/17 36/49/36
f 62/73/59 36/49/36 16/23/16
f 32/47/32 61/26/58 20/59/20
f 21/10/21 65/74/62 32/47/32
f 40/75/40 59/56/56 10/76/10
f 9/55/9 13/37/13 2/15/2
f 11/45/11 57/77/54 59/78/56
f 63/79/60 8/21/8 17/31/17
f 58/80/55 11/45/11 59/81/56
f 19/54/19 11/45/11 4/52/4
f 6/22/6 62/73/59 16/23/16
f 43/1/43 34/82/34 37/2/37
f 44/3/44 37/2/37 33/4/33
f 26/6/26 20/59/20 5/7/5
f 10/9/10 7/25/7 21/10/21
f 60/12/57 57/77/54 3/13/3
f 2/15/2 13/37/13 24/16/24
f 57/18/54 7/25/7 10/9/10
f 58/20/55 59/83/56 10/9/10
f 26/6/26 12/8/12 6/22/6
f 60/24/57 21/10/21 7/25/7
f 5/7/5 20/59/20 61/26/58
f 28/28/28 23/14/23 25/29/25
f 10/9/10 27/11/27 17/31/17
f 29/32/29 25/84/25 41/33/41
f 38/34/38 39/46/39 24/35/24
f 22/36/22 28/28/28 29/30/29
f 13/37/13 15/85/15 14/38/14
f 61/40/58 22/36/22 1/39/1
f 18/17/18 24/16/24 29/41/29
f 12/8/12 15/44/15 9/43/9
f 12/8/12 5/7/5 14/27/14
f 11/45/11 25/29/25 23/14/23
f 24/16/24 13/37/13 1/39/1
f 38/34/38 44/3/44 42/5/42
f 32/47/32 35/60/35 27/11/27
f 35/48/35 26/6/26 16/23/16
f 23/14/23 28/28/28 65/50/62
f 30/42/30 64/61/61 62/51/59
f 4/52/4 58/80/55 63/53/60
f 30/42/30 29/41/29 25/29/25
f 2/15/2 18/17/18 62/51/59
f 59/56/56 66/86/63 31/57/31
f 28/28/28 22/36/22 61/40/58
f 27/11/27 35/48/35 36/49/36
f 20/59/20 26/6/26 35/60/35
f 19/54/19 63/53/60 64/61/61
f 38/34/38 41/33/41 43/1/43
f 53/62/53 51/71/51 45/63/45
f 47/64/47 46/87/46 52/65/52
f 35/66/35 48/70/48 50/67/50
f 26/69/26 49/88/49 48/70/48
f 48/70/48 53/62/53 52/65/52
f 48/70/48 49/88/49 51/71/51
f 64/72/61 63/79/60 17/31/17
f 62/73/59 64/72/61 36/49/36
f 32/47/32 65/74/62 61/26/58
f 21/10/21 60/24/57 65/74/62
f 40/75/40 66/86/63 59/56/56
f 9/55/9 15/85/15 13/37/13
f 11/45/11 3/13/3 57/77/54
f 63/79/60 58/20/55 8/21/8
f 58/80/55 4/52/4 11/45/11
f 19/54/19 25/29/25 11/45/11
f 6/22/6 9/43/9 62/73/59
l 44 55
l 54 67
l 56 67
