# Blender 4.3.2
# www.blender.org
mtllib pine_3_stack.mtl
o Pine
v 1.792426 0.571810 -0.093585
v 0.107209 -0.143522 11.906416
v 1.904800 0.212676 -0.093585
v 0.112409 -0.160142 11.906416
v 1.944951 -0.161480 -0.093585
v 0.114267 -0.177456 11.906416
v 1.911336 -0.536280 -0.093585
v 0.112712 -0.194800 11.906416
v 1.805247 -0.897320 -0.093585
v 0.107802 -0.211507 11.906416
v 1.630761 -1.230726 -0.093585
v 0.099728 -0.226936 11.906416
v 1.394584 -1.523685 -0.093585
v 0.088799 -0.240493 11.906416
v 1.105791 -1.764939 -0.093585
v 0.075435 -0.251657 11.906416
v 0.775481 -1.945217 -0.093585
v 0.060149 -0.260000 11.906416
v 0.416348 -2.057591 -0.093585
v 0.043530 -0.265200 11.906416
v 0.042192 -2.097742 -0.093585
v 0.026216 -0.267058 11.906416
v -0.332608 -2.064127 -0.093585
v 0.008872 -0.265502 11.906416
v -0.693648 -1.958038 -0.093585
v -0.007836 -0.260593 11.906416
v -1.027054 -1.783552 -0.093585
v -0.023264 -0.252518 11.906416
v -1.320013 -1.547375 -0.093585
v -0.036821 -0.241589 11.906416
v -1.561267 -1.258582 -0.093585
v -0.047985 -0.228225 11.906416
v -1.741545 -0.928272 -0.093585
v -0.056328 -0.212940 11.906416
v -1.853919 -0.569138 -0.093585
v -0.061528 -0.196321 11.906416
v -1.894070 -0.194982 -0.093585
v -0.063386 -0.179006 11.906416
v -1.860455 0.179817 -0.093585
v -0.061831 -0.161662 11.906416
v -1.754367 0.540858 -0.093585
v -0.056921 -0.144955 11.906416
v -1.579881 0.874264 -0.093585
v -0.048847 -0.129526 11.906416
v -1.343703 1.167223 -0.093585
v -0.037918 -0.115969 11.906416
v -1.054910 1.408477 -0.093585
v -0.024553 -0.104805 11.906416
v -0.724600 1.588755 -0.093585
v -0.009268 -0.096463 11.906416
v -0.365467 1.701128 -0.093585
v 0.007351 -0.091263 11.906416
v 0.008689 1.741279 -0.093585
v 0.024665 -0.089405 11.906416
v 0.383489 1.707664 -0.093585
v 0.042009 -0.090960 11.906416
v 0.744529 1.601576 -0.093585
v 0.058717 -0.095869 11.906416
v 1.077935 1.427090 -0.093585
v 0.074145 -0.103944 11.906416
v 1.370894 1.190913 -0.093585
v 0.087702 -0.114873 11.906416
v 1.612148 0.902120 -0.093585
v 0.098867 -0.128237 11.906416
v 0.869320 0.179975 1.002708
v 0.922988 0.008459 1.002708
v 0.942163 -0.170231 1.002708
v 0.926109 -0.349229 1.002708
v 0.875443 -0.521655 1.002708
v 0.792112 -0.680883 1.002708
v 0.679318 -0.820795 1.002708
v 0.541396 -0.936014 1.002708
v 0.383646 -1.022111 1.002708
v 0.212131 -1.075778 1.002708
v 0.033441 -1.094954 1.002708
v -0.145557 -1.078900 1.002708
v -0.317983 -1.028234 1.002708
v -0.477211 -0.944903 1.002708
v -0.617123 -0.832109 1.002708
v -0.732342 -0.694187 1.002708
v -0.818439 -0.536437 1.002708
v -0.872107 -0.364921 1.002708
v -0.891282 -0.186231 1.002708
v -0.875228 -0.007234 1.002708
v -0.824562 0.165192 1.002708
v -0.741231 0.324421 1.002708
v -0.628437 0.464333 1.002708
v -0.490515 0.579551 1.002708
v -0.332765 0.665649 1.002708
v -0.161250 0.719316 1.002708
v 0.017440 0.738492 1.002708
v 0.196438 0.722438 1.002708
v 0.368864 0.671772 1.002708
v 0.528092 0.588441 1.002708
v 0.668004 0.475647 1.002708
v 0.783223 0.337725 1.002708
v 0.515779 0.304019 6.384987
v 0.536367 0.209263 6.402660
v 0.537755 0.112345 6.420550
v 0.519890 0.016990 6.437968
v 0.483458 -0.073137 6.454244
v 0.429861 -0.154573 6.468752
v 0.361156 -0.224188 6.480936
v 0.279986 -0.279307 6.490327
v 0.189468 -0.317813 6.496564
v 0.093081 -0.338224 6.499408
v -0.005469 -0.339757 6.498749
v -0.102397 -0.322353 6.494613
v -0.193977 -0.286680 6.487158
v -0.276691 -0.234111 6.476671
v -0.347358 -0.166663 6.463554
v -0.399056 -0.106302 6.461817
v -0.441093 -0.018915 6.444170
v -0.464930 0.074822 6.425194
v -0.469651 0.171309 6.405620
v -0.455074 0.266835 6.386199
v -0.421760 0.357732 6.367677
v -0.370989 0.440505 6.350767
v -0.304711 0.511973 6.336119
v -0.225474 0.569390 6.324294
v -0.136324 0.610550 6.315748
v -0.040685 0.633871 6.310810
v 0.057767 0.638456 6.309668
v 0.175916 0.628395 6.321908
v 0.267496 0.592722 6.329363
v 0.350209 0.540153 6.339849
v 0.420877 0.472705 6.352965
v 0.476783 0.392973 6.368206
v 0.724293 0.030762 3.158546
v 0.731352 -0.113515 3.187816
v 0.709555 -0.256357 3.216856
v 0.659739 -0.392276 3.244552
v 0.583820 -0.516047 3.269837
v 0.484715 -0.622914 3.291741
v 0.366231 -0.708771 3.309422
v 0.232923 -0.770318 3.322201
v 0.089913 -0.805190 3.329586
v -0.057303 -0.812046 3.331294
v -0.203067 -0.790624 3.327258
v -0.341778 -0.741746 3.317635
v -0.468105 -0.667291 3.302793
v -0.577194 -0.570120 3.283303
v -0.664852 -0.453968 3.259915
v -0.727711 -0.323297 3.233527
v -0.763355 -0.183130 3.205153
v -0.770414 -0.038853 3.175883
v -0.748617 0.103990 3.146842
v -0.698802 0.239908 3.119147
v -0.622882 0.363679 3.093861
v -0.523777 0.470546 3.071957
v -0.405293 0.556403 3.054276
v -0.271985 0.617950 3.041497
v -0.128975 0.652822 3.034112
v 0.018241 0.659678 3.032404
v 0.164005 0.638256 3.036440
v 0.302716 0.589378 3.046064
v 0.429043 0.514923 3.060905
v 0.538132 0.417752 3.080395
v 0.625790 0.301600 3.103783
v 0.688649 0.170929 3.130172
v 0.309658 0.078433 9.180488
v 0.326975 0.023089 9.180488
v 0.333163 -0.034569 9.180488
v 0.327982 -0.092326 9.180488
v 0.311634 -0.147963 9.180488
v 0.284745 -0.199342 9.180488
v 0.248350 -0.244488 9.180488
v 0.203846 -0.281666 9.180488
v 0.152945 -0.309447 9.180488
v 0.097602 -0.326764 9.180488
v 0.039943 -0.332951 9.180488
v -0.017814 -0.327771 9.180488
v -0.073451 -0.311422 9.180488
v -0.124830 -0.284534 9.180488
v -0.169975 -0.248138 9.180488
v -0.207153 -0.203635 9.180488
v -0.234934 -0.152733 9.180488
v -0.252251 -0.097390 9.180488
v -0.258439 -0.039732 9.180488
v -0.253259 0.018026 9.180488
v -0.236910 0.073663 9.180488
v -0.210022 0.125041 9.180488
v -0.173626 0.170187 9.180488
v -0.129123 0.207365 9.180488
v -0.078221 0.235146 9.180488
v -0.022878 0.252463 9.180488
v 0.034781 0.258650 9.180488
v 0.092538 0.253470 9.180488
v 0.148175 0.237122 9.180488
v 0.199554 0.210233 9.180488
v 0.244699 0.173838 9.180488
v 0.281877 0.129334 9.180488
v 0.180975 -0.215793 8.178049
v 2.962526 -1.339612 4.257680
v 1.353168 -2.977308 4.257680
v -0.942845 -2.997344 4.257680
v -2.580541 -1.387986 4.257680
v -2.600577 0.908028 4.257680
v -0.991219 2.545722 4.257680
v 1.304794 2.565759 4.257680
v -2.217950 -1.744302 4.257680
v -2.261923 -1.252741 4.710004
v -1.417633 2.111800 4.257680
v -0.790566 2.073014 4.928758
v 2.504677 1.386638 4.257680
v 2.806687 0.898757 4.450472
v 0.511211 -2.984655 4.257680
v -0.234602 -2.991164 4.257680
v 0.098246 -2.511406 4.932144
v 2.948512 0.266246 4.257680
v 2.378917 0.717179 5.057753
v 3.955788 1.323544 1.297109
v 0.262964 -0.289151 5.587607
v 3.935156 -1.735294 1.422269
v 1.763404 -3.876300 1.690930
v -1.287287 -3.845297 1.945714
v -3.429861 -1.660450 2.037371
v -3.409229 1.398388 1.912211
v -1.237477 3.539392 1.643550
v 1.813213 3.508390 1.388767
v 2.080166 -3.564022 1.651744
v 1.571474 -3.417447 2.189377
v 3.950948 0.606042 1.326467
v 3.946750 -0.016369 1.351934
v 3.519310 0.259019 1.833225
v -2.730791 1.086616 2.591240
v -3.136826 1.666935 1.878512
v -2.204224 2.586333 1.763143
v -0.888365 2.648594 2.561225
v 2.399418 2.910621 1.363689
v 3.427461 1.862294 1.319710
v 2.184027 1.554506 2.583649
v -1.576503 -3.550374 1.958086
v -2.665759 -2.439628 2.004683
v -1.842111 -2.127392 2.801135
v -1.518994 -2.987903 2.403987
v 1.878576 0.700698 6.735405
v 0.053676 -0.080764 10.494667
v 1.891817 -0.829977 6.737168
v 0.828300 -1.921774 6.595544
v -0.688982 -1.935132 6.393493
v -1.771225 -0.862226 6.249375
v -1.784465 0.668450 6.247611
v -0.720948 1.760246 6.389236
v 0.796333 1.773604 6.591287
v 1.266749 -1.471666 6.653931
v 0.705513 -1.629952 7.213601
v -1.404576 -1.225711 6.298201
v -1.504261 -0.747907 6.870415
v -0.936429 1.539036 6.360541
v -0.570778 1.403345 7.185122
v 1.351831 1.222898 6.665261
v 1.791806 0.663542 6.914150
v 1.296942 0.412302 8.643918
v 0.008235 -0.134722 12.646194
v 1.306292 -0.659171 8.643918
v 0.555259 -1.423429 8.643918
v -0.516214 -1.432779 8.643918
v -1.280472 -0.681746 8.643918
v -1.289823 0.389727 8.643918
v -0.538789 1.153985 8.643918
v 0.532684 1.163336 8.643918
v -0.977179 0.707876 8.643918
v -0.428073 0.893155 9.453966
v 0.985658 0.718200 8.643918
v 1.038009 0.302391 9.448072
v 1.071490 -0.898108 8.643918
v 0.415370 -1.093872 9.667407
v -0.891741 -1.063750 8.643918
v -1.147310 -0.625222 9.057474
vn 0.9501 0.2973 0.0948
vn 0.9907 0.1063 0.0851
vn 0.9932 -0.0891 0.0751
vn 0.9574 -0.2813 0.0650
vn 0.8846 -0.4630 0.0554
vn 0.7777 -0.6269 0.0464
vn 0.6406 -0.7669 0.0386
vn 0.4788 -0.8773 0.0322
vn 0.2985 -0.9540 0.0275
vn 0.1067 -0.9940 0.0246
vn -0.0893 -0.9957 0.0236
vn -0.2818 -0.9591 0.0247
vn -0.4635 -0.8857 0.0277
vn -0.6273 -0.7781 0.0325
vn -0.7669 -0.6406 0.0390
vn -0.8768 -0.4785 0.0469
vn -0.9529 -0.2982 0.0558
vn -0.9922 -0.1065 0.0656
vn -0.9932 0.0891 0.0756
vn -0.9559 0.2809 0.0856
vn -0.8820 0.4616 0.0953
vn -0.7743 0.6242 0.1041
vn -0.6371 0.7626 0.1118
vn -0.4757 0.8716 0.1181
vn -0.2964 0.9472 0.1227
vn -0.1059 0.9864 0.1256
vn 0.0886 0.9880 0.1265
vn 0.2797 0.9519 0.1255
vn 0.4602 0.8793 0.1225
vn 0.6233 0.7731 0.1178
vn -0.0000 -0.0000 1.0000
vn 0.7627 0.6371 0.1114
vn 0.8730 0.4765 0.1036
vn -0.0000 -0.0000 -1.0000
vn 0.6491 0.3543 0.6732
vn 0.5675 0.4741 0.6732
vn 0.4641 0.5757 0.6732
vn 0.3429 0.6552 0.6732
vn 0.2085 0.7095 0.6732
vn 0.0661 0.7365 0.6732
vn -0.0789 0.7353 0.6732
vn -0.2208 0.7057 0.6732
vn -0.3543 0.6491 0.6732
vn -0.4741 0.5675 0.6732
vn -0.5757 0.4641 0.6732
vn -0.6552 0.3429 0.6732
vn -0.7095 0.2085 0.6732
vn -0.7365 0.0661 0.6732
vn -0.7353 -0.0789 0.6732
vn -0.7057 -0.2208 0.6732
vn -0.6491 -0.3543 0.6732
vn -0.5675 -0.4741 0.6732
vn -0.4641 -0.5757 0.6732
vn -0.3429 -0.6552 0.6732
vn -0.2085 -0.7095 0.6732
vn -0.0661 -0.7365 0.6732
vn 0.0789 -0.7353 0.6732
vn 0.2208 -0.7057 0.6732
vn 0.3543 -0.6491 0.6732
vn 0.4741 -0.5675 0.6732
vn 0.5757 -0.4641 0.6732
vn 0.6552 -0.3429 0.6732
vn 0.7095 -0.2085 0.6732
vn 0.7365 -0.0661 0.6732
vn 0.7353 0.0789 0.6732
vn 0.7057 0.2208 0.6732
vn 0.8984 0.4382 0.0298
vn 0.7962 0.6048 0.0194
vn 0.6640 0.7477 0.0112
vn 0.5073 0.8618 0.0056
vn 0.3322 0.9432 0.0026
vn 0.1453 0.9894 0.0047
vn -0.0464 0.9989 0.0070
vn -0.2363 0.9716 0.0120
vn -0.4176 0.9084 0.0194
vn -0.5837 0.8115 0.0289
vn -0.7285 0.6838 0.0402
vn -0.8464 0.5300 0.0530
vn -0.9324 0.3553 0.0666
vn -0.9828 0.1664 0.0807
vn -0.9951 -0.0295 0.0946
vn -0.9685 -0.2245 0.1077
vn -0.9039 -0.4107 0.1196
vn -0.8038 -0.5801 0.1317
vn -0.6724 -0.7269 0.1398
vn -0.5150 -0.8448 0.1453
vn -0.3378 -0.9295 0.1482
vn -0.1478 -0.9777 0.1492
vn 0.0477 -0.9881 0.1465
vn 0.2414 -0.9601 0.1412
vn 0.4259 -0.8949 0.1334
vn 0.5943 -0.7947 0.1234
vn 0.7400 -0.6633 0.1116
vn 0.8571 -0.5056 0.0984
vn 0.9410 -0.3277 0.0843
vn 0.9882 -0.1366 0.0698
vn 0.9967 0.0600 0.0555
vn 0.9662 0.2542 0.0420
vn 0.9510 0.2976 0.0846
vn 0.9900 0.1062 0.0928
vn 0.9909 -0.0889 0.1006
vn 0.9538 -0.2803 0.1079
vn 0.8802 -0.4606 0.1144
vn 0.7729 -0.6231 0.1196
vn 0.6365 -0.7619 0.1200
vn 0.4755 -0.8712 0.1219
vn 0.2964 -0.9472 0.1221
vn 0.1059 -0.9871 0.1203
vn -0.0887 -0.9892 0.1167
vn -0.2802 -0.9535 0.1113
vn -0.4612 -0.8812 0.1043
vn -0.6247 -0.7749 0.0960
vn -0.7646 -0.6387 0.0868
vn -0.8752 -0.4777 0.0770
vn -0.9522 -0.2979 0.0672
vn -0.9926 -0.1065 0.0578
vn -0.9948 0.0892 0.0493
vn -0.9586 0.2817 0.0420
vn -0.8854 0.4634 0.0363
vn -0.7781 0.6273 0.0323
vn -0.6408 0.7671 0.0301
vn -0.4789 0.8774 0.0298
vn -0.2985 0.9539 0.0312
vn -0.1066 0.9937 0.0342
vn 0.0892 0.9951 0.0426
vn 0.2816 0.9583 0.0478
vn 0.4630 0.8847 0.0539
vn 0.6265 0.7771 0.0608
vn 0.7656 0.6396 0.0684
vn 0.8752 0.4777 0.0764
vn 0.9039 0.4154 0.1016
vn 0.8035 0.5847 0.1119
vn 0.6736 0.7292 0.1204
vn 0.5205 0.8443 0.1271
vn 0.3505 0.9273 0.1318
vn 0.0706 0.9888 0.1317
vn -0.0446 0.9904 0.1307
vn -0.2286 0.9649 0.1297
vn -0.4057 0.9051 0.1268
vn -0.5704 0.8123 0.1222
vn -0.7164 0.6881 0.1157
vn -0.8376 0.5357 0.1074
vn -0.9279 0.3599 0.0973
vn -0.9822 0.1673 0.0858
vn -0.9967 -0.0339 0.0733
vn -0.9702 -0.2345 0.0602
vn -0.9038 -0.4252 0.0473
vn -0.7596 -0.6497 0.0304
vn -0.6925 -0.7210 0.0236
vn -0.5376 -0.8430 0.0145
vn -0.3635 -0.9316 0.0077
vn -0.1769 -0.9842 0.0036
vn 0.0155 -0.9999 0.0023
vn 0.2073 -0.9783 0.0059
vn 0.3920 -0.9199 0.0103
vn 0.5631 -0.8262 0.0173
vn 0.7138 -0.6998 0.0266
vn 0.8378 -0.5447 0.0379
vn 0.9291 -0.3664 0.0504
vn 0.9829 -0.1725 0.0637
vn 0.9966 0.0285 0.0770
vn 0.9696 0.2274 0.0898
vn 0.5824 -0.5723 0.5773
vn 0.0071 -0.8165 0.5773
vn -0.5723 -0.5824 0.5773
vn -0.8165 -0.0071 0.5773
vn -0.5824 0.5723 0.5773
vn -0.0071 0.8165 0.5773
vn 0.5723 0.5824 0.5773
vn 0.8165 0.0071 0.5773
vn 0.7537 0.0218 0.6569
vn 0.5636 -0.4881 0.6664
vn 0.0500 -0.7251 0.6868
vn -0.4900 -0.5102 0.7068
vn -0.6992 0.0339 0.7141
vn 0.0644 0.7282 0.6824
vn 0.5481 0.5096 0.6633
vn -0.4527 0.5475 0.7037
vn 0.8989 0.0083 0.4381
vn 0.6170 -0.6572 0.4329
vn -0.0478 -0.9069 0.4187
vn -0.6708 -0.6226 0.4030
vn -0.9182 -0.0075 0.3961
vn -0.6812 0.6114 0.4027
vn -0.0637 0.9061 0.4183
vn 0.6050 0.6684 0.4326
vn 0.9515 0.0083 0.3075
vn 0.6787 -0.6669 0.3075
vn 0.0083 -0.9515 0.3075
vn -0.6669 -0.6787 0.3075
vn -0.9515 -0.0083 0.3075
vn -0.6787 0.6669 0.3075
vn -0.0083 0.9515 0.3075
vn 0.6669 0.6787 0.3075
vn 0.9133 0.4061 0.0303
vn 0.8169 0.5765 0.0196
vn 0.6893 0.7244 0.0110
vn 0.5360 0.8442 0.0049
vn 0.3629 0.9318 0.0015
vn 0.0846 0.9964 0.0027
vn -0.7547 -0.6426 0.1324
vn -0.6971 -0.7032 0.1396
vn -0.5438 -0.8265 0.1456
vn -0.3694 -0.9173 0.1489
vn -0.1809 -0.9723 0.1479
vn 0.0144 -0.9892 0.1457
vn 0.2091 -0.9677 0.1408
vn 0.3957 -0.9086 0.1334
vn 0.5672 -0.8142 0.1238
vn 0.7170 -0.6880 0.1122
vn 0.8392 -0.5347 0.0993
vn 0.9290 -0.3601 0.0853
vn 0.9827 -0.1712 0.0708
vn 0.9981 0.0247 0.0565
vn 0.9746 0.2197 0.0428
vn 0.9617 0.2613 0.0828
vn 0.9936 0.0671 0.0909
vn 0.9865 -0.1305 0.0986
vn 0.9404 -0.3232 0.1055
vn 0.8571 -0.5030 0.1115
vn 0.7400 -0.6625 0.1162
vn 0.4257 -0.8962 0.1249
vn 0.2411 -0.9625 0.1246
vn 0.0476 -0.9914 0.1223
vn -0.1476 -0.9820 0.1181
vn -0.3372 -0.9347 0.1122
vn -0.5141 -0.8513 0.1048
vn -0.6716 -0.7347 0.0962
vn -0.8035 -0.5889 0.0867
vn -0.9045 -0.4196 0.0769
vn -0.9701 -0.2331 0.0671
vn -0.9976 -0.0370 0.0580
vn -0.9858 0.1606 0.0499
vn -0.9352 0.3515 0.0432
vn -0.8483 0.5281 0.0381
vn -0.7292 0.6834 0.0348
vn -0.5832 0.8117 0.0334
vn -0.4163 0.9086 0.0337
vn -0.2350 0.9713 0.0355
vn -0.0460 0.9982 0.0388
vn 0.1443 0.9888 0.0383
vn 0.3293 0.9432 0.0443
vn 0.5026 0.8630 0.0511
vn 0.6582 0.7506 0.0585
vn 0.7900 0.6095 0.0664
vn 0.8927 0.4445 0.0745
vn 0.8731 0.4765 0.1028
vn 0.7626 0.6370 0.1126
vn 0.6230 0.7728 0.1205
vn 0.4600 0.8789 0.1265
vn 0.2795 0.9513 0.1303
vn 0.0886 0.9874 0.1313
vn -0.1058 0.9856 0.1317
vn -0.2961 0.9463 0.1300
vn -0.4752 0.8707 0.1264
vn -0.6364 0.7618 0.1209
vn -0.7735 0.6236 0.1135
vn -0.8812 0.4611 0.1045
vn -0.9552 0.2807 0.0940
vn -0.9926 0.0890 0.0823
vn -0.9919 -0.1064 0.0699
vn -0.9528 -0.2981 0.0572
vn -0.8769 -0.4786 0.0448
vn -0.7671 -0.6408 0.0309
vn -0.6275 -0.7784 0.0207
vn -0.4636 -0.8859 0.0126
vn -0.2819 -0.9594 0.0069
vn -0.0893 -0.9960 0.0040
vn 0.1067 -0.9943 0.0041
vn 0.2986 -0.9544 0.0036
vn 0.4791 -0.8777 0.0093
vn 0.6410 -0.7673 0.0175
vn 0.7782 -0.6274 0.0278
vn 0.8853 -0.4633 0.0397
vn 0.9581 -0.2815 0.0527
vn 0.9938 -0.0891 0.0660
vn 0.9912 0.1064 0.0791
vn 0.9504 0.2974 0.0916
vt 1.000000 1.000000
vt 0.968750 0.886420
vt 1.000000 0.886420
vt 0.968750 1.000000
vt 0.937500 0.886420
vt 0.937500 1.000000
vt 0.906250 0.886420
vt 0.906250 1.000000
vt 0.875000 0.886420
vt 0.875000 1.000000
vt 0.843750 0.886420
vt 0.843750 1.000000
vt 0.812500 0.886420
vt 0.812500 1.000000
vt 0.781250 0.886420
vt 0.781250 1.000000
vt 0.750000 0.886420
vt 0.750000 1.000000
vt 0.718750 0.886420
vt 0.718750 1.000000
vt 0.687500 0.886420
vt 0.656250 1.000000
vt 0.656250 0.886420
vt 0.625000 1.000000
vt 0.625000 0.886420
vt 0.593750 1.000000
vt 0.593750 0.886420
vt 0.562500 1.000000
vt 0.562500 0.886420
vt 0.533919 0.228183
vt 0.532802 0.243748
vt 0.533898 0.228270
vt 0.532757 0.243784
vt 0.533754 0.228354
vt 0.532678 0.243817
vt 0.533491 0.228433
vt 0.532565 0.243847
vt 0.533118 0.228504
vt 0.532424 0.243872
vt 0.532649 0.228564
vt 0.532260 0.243892
vt 0.532104 0.228610
vt 0.532080 0.243904
vt 0.531502 0.228640
vt 0.531890 0.243910
vt 0.530868 0.228654
vt 0.531698 0.243908
vt 0.530226 0.228650
vt 0.531511 0.243900
vt 0.529603 0.228629
vt 0.531336 0.243884
vt 0.529024 0.228591
vt 0.531181 0.243862
vt 0.528510 0.228539
vt 0.528082 0.228474
vt 0.531051 0.243835
vt 0.527756 0.228399
vt 0.530951 0.243803
vt 0.527545 0.228317
vt 0.530885 0.243768
vt 0.527455 0.228231
vt 0.028269 0.341844
vt 0.158156 0.028269
vt 0.471731 0.158156
vt 0.530856 0.243732
vt 0.527490 0.228145
vt 0.031250 1.000000
vt 0.000000 0.886420
vt 0.031250 0.886420
vt 0.796822 0.014612
vt 0.514612 0.203178
vt 0.703178 0.485388
vt 0.031250 0.545679
vt 0.000000 0.500000
vt 0.031250 0.500000
vt 0.062500 0.545679
vt 0.062500 0.500000
vt 0.511836 0.176794
vt 0.522084 0.182883
vt 0.511498 0.176987
vt 0.522922 0.182783
vt 0.512976 0.176605
vt 0.514902 0.176429
vt 0.517560 0.176273
vt 0.523884 0.182737
vt 0.526727 0.182665
vt 0.520856 0.176145
vt 0.528498 0.182642
vt 0.524654 0.176053
vt 0.528787 0.176000
vt 0.533062 0.175991
vt 0.530408 0.182629
vt 0.534322 0.182635
vt 0.537277 0.176024
vt 0.536159 0.182654
vt 0.541233 0.176100
vt 0.537812 0.182682
vt 0.544753 0.176212
vt 0.547685 0.176357
vt 0.549918 0.176525
vt 0.539214 0.182719
vt 0.551381 0.176709
vt 0.540312 0.182762
vt 0.541449 0.182861
vt 0.552043 0.176901
vt 0.541458 0.182912
vt 0.551911 0.177093
vt 0.593750 0.500000
vt 0.562500 0.545679
vt 0.562500 0.500000
vt 0.625000 0.545679
vt 0.625000 0.500000
vt 0.656250 0.545679
vt 0.656250 0.500000
vt 0.687500 0.545679
vt 0.687500 0.500000
vt 0.718750 0.545679
vt 0.718750 0.500000
vt 0.750000 0.500000
vt 0.781250 0.500000
vt 0.750000 0.545679
vt 0.812500 0.545679
vt 0.812500 0.500000
vt 0.843750 0.500000
vt 0.875000 0.500000
vt 0.843750 0.545679
vt 0.906250 0.500000
vt 0.875000 0.545679
vt 0.937500 0.500000
vt 0.906250 0.545679
vt 0.968750 0.545679
vt 0.968750 0.500000
vt 1.000000 0.545679
vt 1.000000 0.500000
vt 0.031250 0.636180
vt 0.000000 0.772839
vt 0.000000 0.636180
vt 0.062500 0.636180
vt 0.031250 0.772839
vt 0.523571 0.194052
vt 0.523868 0.212330
vt 0.523449 0.194138
vt 0.523999 0.193990
vt 0.523916 0.212341
vt 0.524722 0.193955
vt 0.524172 0.212364
vt 0.525497 0.212405
vt 0.525714 0.193949
vt 0.526323 0.212467
vt 0.526938 0.193972
vt 0.527272 0.212537
vt 0.528348 0.194023
vt 0.528307 0.212612
vt 0.529885 0.194101
vt 0.529386 0.212690
vt 0.531487 0.194203
vt 0.530464 0.212766
vt 0.533087 0.194325
vt 0.531499 0.212839
vt 0.534619 0.194460
vt 0.532449 0.212905
vt 0.536018 0.194605
vt 0.533275 0.212961
vt 0.537228 0.194752
vt 0.533945 0.213006
vt 0.538202 0.194895
vt 0.534434 0.213037
vt 0.538904 0.195030
vt 0.534725 0.213053
vt 0.539309 0.195150
vt 0.534740 0.212992
vt 0.539406 0.195251
vt 0.593750 0.772839
vt 0.562500 0.636180
vt 0.593750 0.636180
vt 0.625000 0.772839
vt 0.625000 0.636180
vt 0.656250 0.772839
vt 0.656250 0.636180
vt 0.687500 0.636180
vt 0.718750 0.636180
vt 0.687500 0.772839
vt 0.750000 0.636180
vt 0.718750 0.772839
vt 0.781250 0.636180
vt 0.750000 0.772839
vt 0.812500 0.636180
vt 0.781250 0.772839
vt 0.843750 0.636180
vt 0.812500 0.772839
vt 0.875000 0.636180
vt 0.843750 0.772839
vt 0.906250 0.636180
vt 0.875000 0.772839
vt 0.937500 0.636180
vt 0.906250 0.772839
vt 0.968750 0.636180
vt 0.937500 0.772839
vt 1.000000 0.636180
vt 0.968750 0.772839
vt 0.937500 0.545679
vt 0.781250 0.545679
vt 0.593750 0.545679
vt 0.541064 0.182810
vt 0.532377 0.182627
vt 0.525168 0.182697
vt 0.522317 0.182832
vt 0.000000 0.545679
vt 0.062500 0.886420
vt 0.062500 0.772839
vt 0.524630 0.212398
vt 0.562500 0.772839
vt 1.000000 0.772839
vt 0.582883 0.131006
vt 0.594273 0.163537
vt 0.591858 0.132177
vt 0.601926 0.131757
vt 0.598789 0.131887
vt 0.596916 0.136839
vt 0.606904 0.130319
vt 0.606859 0.133575
vt 0.607099 0.127359
vt 0.608410 0.129884
vt 0.596737 0.132591
vt 0.599973 0.126194
vt 0.585266 0.126362
vt 0.597282 0.125754
vt 0.582579 0.135677
vt 0.580343 0.130351
vt 0.581066 0.128081
vt 0.580664 0.129407
vt 0.579568 0.109919
vt 0.577003 0.106587
vt 0.578412 0.109766
vt 0.591437 0.117226
vt 0.589500 0.113671
vt 0.603852 0.115198
vt 0.591119 0.114282
vt 0.593973 0.140677
vt 0.605259 0.119226
vt 0.604335 0.117394
vt 0.612248 0.112062
vt 0.607443 0.112423
vt 0.610648 0.105699
vt 0.596594 0.110094
vt 0.581556 0.099044
vt 0.597479 0.099775
vt 0.574804 0.103730
vt 0.576355 0.102653
vt 0.582577 0.113343
vt 0.603530 0.102497
vt 0.585301 0.152045
vt 0.586847 0.150980
vt 0.584840 0.150430
vt 0.594754 0.185193
vt 0.590531 0.150447
vt 0.593289 0.155173
vt 0.600057 0.148285
vt 0.593040 0.150083
vt 0.602873 0.147103
vt 0.603035 0.151874
vt 0.603279 0.145664
vt 0.604378 0.146472
vt 0.596339 0.154196
vt 0.598093 0.146339
vt 0.588805 0.148572
vt 0.596732 0.146516
vt 0.586726 0.149546
vt 0.589341 0.175376
vt 0.589282 0.167628
vt 0.587950 0.167876
vt 0.595047 0.206157
vt 0.590700 0.167586
vt 0.594065 0.176745
vt 0.598898 0.167544
vt 0.593757 0.167496
vt 0.600400 0.167643
vt 0.601317 0.171543
vt 0.601136 0.168007
vt 0.602004 0.167749
vt 0.599215 0.168070
vt 0.596174 0.175908
vt 0.590856 0.168103
vt 0.596462 0.168160
vt 0.589111 0.167966
vt 0.687500 1.000000
vt 0.532808 0.243711
vt 0.341844 0.471731
vt 0.296822 0.485388
vt 0.158156 0.471731
vt 0.250000 0.490000
vt 0.203178 0.485388
vt 0.116663 0.449553
vt 0.080294 0.419706
vt 0.050447 0.383337
vt 0.014612 0.296822
vt 0.010000 0.250000
vt 0.014612 0.203178
vt 0.028269 0.158156
vt 0.050447 0.116663
vt 0.080294 0.080294
vt 0.116663 0.050447
vt 0.203178 0.014612
vt 0.250000 0.010000
vt 0.296822 0.014612
vt 0.341844 0.028269
vt 0.383337 0.050447
vt 0.419706 0.080294
vt 0.449553 0.116663
vt 0.485388 0.203178
vt 0.490000 0.250000
vt 0.485388 0.296822
vt 0.471731 0.341844
vt 0.449553 0.383337
vt 0.419706 0.419706
vt 0.383337 0.449553
vt 0.530864 0.243695
vt 0.000000 1.000000
vt 0.750000 0.490000
vt 0.796822 0.485388
vt 0.841844 0.471731
vt 0.883337 0.449553
vt 0.919706 0.419706
vt 0.985388 0.296822
vt 0.949553 0.383337
vt 0.971731 0.341844
vt 0.990000 0.250000
vt 0.985388 0.203178
vt 0.971731 0.158156
vt 0.949553 0.116663
vt 0.919706 0.080294
vt 0.883337 0.050447
vt 0.841844 0.028269
vt 0.750000 0.010000
vt 0.703178 0.014612
vt 0.658156 0.028269
vt 0.616663 0.050447
vt 0.580294 0.080294
vt 0.550447 0.116663
vt 0.528269 0.158156
vt 0.510000 0.250000
vt 0.514612 0.296822
vt 0.528269 0.341844
vt 0.550447 0.383337
vt 0.580294 0.419706
vt 0.616663 0.449553
vt 0.658156 0.471731
vt 0.595516 0.132024
vt 0.576005 0.105290
vt 0.604908 0.114803
vt 0.609095 0.113240
vt 0.579582 0.100414
vt 0.609078 0.104993
s 0
usemtl Pine_Tree01
f 2/1/1 162/2/1 161/3/1
f 4/4/2 163/5/2 162/2/2
f 6/6/3 164/7/3 163/5/3
f 8/8/4 165/9/4 164/7/4
f 10/10/5 166/11/5 165/9/5
f 12/12/6 167/13/6 166/11/6
f 14/14/7 168/15/7 167/13/7
f 16/16/8 169/17/8 168/15/8
f 18/18/9 170/19/9 169/17/9
f 20/20/10 171/21/10 170/19/10
f 171/21/11 24/22/11 172/23/11
f 172/23/12 26/24/12 173/25/12
f 173/25/13 28/26/13 174/27/13
f 174/27/14 30/28/14 175/29/14
f 175/30/15 32/31/15 176/32/15
f 176/32/16 34/33/16 177/34/16
f 177/34/17 36/35/17 178/36/17
f 178/36/18 38/37/18 179/38/18
f 179/38/19 40/39/19 180/40/19
f 180/40/20 42/41/20 181/42/20
f 181/42/21 44/43/21 182/44/21
f 182/44/22 46/45/22 183/46/22
f 183/46/23 48/47/23 184/48/23
f 184/48/24 50/49/24 185/50/24
f 185/50/25 52/51/25 186/52/25
f 186/52/26 54/53/26 187/54/26
f 54/53/27 188/55/27 187/54/27
f 56/56/28 189/57/28 188/55/28
f 58/58/29 190/59/29 189/57/29
f 60/60/30 191/61/30 190/59/30
f 54/62/31 38/63/31 22/64/31
f 62/65/32 192/66/32 191/61/32
f 64/67/33 161/68/33 192/69/33
f 31/70/34 47/71/34 63/72/34
f 96/73/35 1/74/35 63/75/35
f 95/76/36 63/75/36 61/77/36
f 59/78/37 95/79/37 61/80/37
f 93/81/38 59/78/38 57/82/38
f 55/83/39 93/81/39 57/82/39
f 53/84/40 92/85/40 55/83/40
f 90/86/41 53/84/41 51/87/41
f 89/88/42 51/87/42 49/89/42
f 47/90/43 89/88/43 49/89/43
f 45/91/44 88/92/44 47/90/44
f 86/93/45 45/91/45 43/94/45
f 85/95/46 43/94/46 41/96/46
f 84/97/47 41/96/47 39/98/47
f 37/99/48 84/97/48 39/98/48
f 35/100/49 83/101/49 37/99/49
f 33/102/50 82/103/50 35/100/50
f 80/104/51 33/102/51 31/105/51
f 79/106/52 31/105/52 29/107/52
f 27/108/53 79/109/53 29/110/53
f 77/111/54 27/108/54 25/112/54
f 76/113/55 25/112/55 23/114/55
f 75/115/56 23/114/56 21/116/56
f 74/117/57 21/116/57 19/118/57
f 17/119/58 74/117/58 19/118/58
f 15/120/59 73/121/59 17/119/59
f 71/122/60 15/120/60 13/123/60
f 11/124/61 71/122/61 13/123/61
f 9/125/62 70/126/62 11/124/62
f 7/127/63 69/128/63 9/125/63
f 5/129/64 68/130/64 7/127/64
f 66/131/65 5/129/65 3/132/65
f 65/133/66 3/132/66 1/134/66
f 159/135/67 97/136/67 160/137/67
f 158/138/68 128/139/68 159/135/68
f 157/140/69 127/141/69 158/142/69
f 156/143/70 126/144/70 157/140/70
f 155/145/71 125/146/71 156/143/71
f 123/147/72 155/145/72 154/148/72
f 122/149/73 154/148/73 153/150/73
f 121/151/74 153/150/74 152/152/74
f 120/153/75 152/152/75 151/154/75
f 119/155/76 151/154/76 150/156/76
f 118/157/77 150/156/77 149/158/77
f 117/159/78 149/158/78 148/160/78
f 116/161/79 148/160/79 147/162/79
f 115/163/80 147/162/80 146/164/80
f 114/165/81 146/164/81 145/166/81
f 113/167/82 145/166/82 144/168/82
f 112/169/83 144/168/83 143/170/83
f 111/171/84 143/170/84 142/172/84
f 110/173/85 142/174/85 141/175/85
f 109/176/86 141/175/86 140/177/86
f 108/178/87 140/177/87 139/179/87
f 138/180/88 108/178/88 139/179/88
f 137/181/89 107/182/89 138/180/89
f 136/183/90 106/184/90 137/181/90
f 135/185/91 105/186/91 136/183/91
f 134/187/92 104/188/92 135/185/92
f 133/189/93 103/190/93 134/187/93
f 132/191/94 102/192/94 133/189/94
f 131/193/95 101/194/95 132/191/95
f 130/195/96 100/196/96 131/193/96
f 129/197/97 99/198/97 130/195/97
f 160/199/98 98/200/98 129/197/98
f 65/133/99 129/197/99 66/131/99
f 66/131/100 130/195/100 67/201/100
f 67/201/101 131/193/101 68/130/101
f 68/130/102 132/191/102 69/128/102
f 69/128/103 133/189/103 70/126/103
f 70/126/104 134/187/104 71/122/104
f 134/187/105 72/202/105 71/122/105
f 135/185/106 73/121/106 72/202/106
f 136/183/107 74/117/107 73/121/107
f 137/181/108 75/115/108 74/117/108
f 138/180/109 76/113/109 75/115/109
f 139/179/110 77/111/110 76/113/110
f 140/177/111 78/203/111 77/111/111
f 141/175/112 79/109/112 78/203/112
f 142/172/113 80/104/113 79/106/113
f 143/170/114 81/204/114 80/104/114
f 144/168/115 82/103/115 81/204/115
f 145/166/116 83/101/116 82/103/116
f 146/164/117 84/97/117 83/101/117
f 147/162/118 85/95/118 84/97/118
f 148/160/119 86/93/119 85/95/119
f 149/158/120 87/205/120 86/93/120
f 150/156/121 88/92/121 87/205/121
f 151/154/122 89/88/122 88/92/122
f 152/152/123 90/86/123 89/88/123
f 153/150/124 91/206/124 90/86/124
f 91/206/125 155/145/125 92/85/125
f 92/85/126 156/143/126 93/81/126
f 93/81/127 157/140/127 94/207/127
f 94/207/128 158/142/128 95/79/128
f 95/76/129 159/135/129 96/73/129
f 96/73/130 160/137/130 65/208/130
f 192/69/131 97/136/131 128/139/131
f 191/209/132 128/139/132 127/210/132
f 190/59/133 127/141/133 126/144/133
f 189/57/134 126/144/134 125/146/134
f 188/55/135 125/146/135 124/211/135
f 123/147/136 188/55/136 124/211/136
f 122/149/137 187/54/137 123/147/137
f 121/151/138 186/52/138 122/149/138
f 120/153/139 185/50/139 121/151/139
f 119/155/140 184/48/140 120/153/140
f 118/157/141 183/46/141 119/155/141
f 117/159/142 182/44/142 118/157/142
f 116/161/143 181/42/143 117/159/143
f 115/163/144 180/40/144 116/161/144
f 114/165/145 179/38/145 115/163/145
f 113/167/146 178/36/146 114/165/146
f 112/169/147 177/34/147 113/167/147
f 111/171/148 176/32/148 112/169/148
f 110/173/149 175/29/149 111/212/149
f 109/176/150 174/27/150 110/173/150
f 108/178/151 173/25/151 109/176/151
f 107/182/152 172/23/152 108/178/152
f 106/184/153 171/21/153 107/182/153
f 169/17/154 106/184/154 105/186/154
f 168/15/155 105/186/155 104/188/155
f 167/13/156 104/188/156 103/190/156
f 166/11/157 103/190/157 102/192/157
f 165/9/158 102/192/158 101/194/158
f 164/7/159 101/194/159 100/196/159
f 163/5/160 100/196/160 99/198/160
f 162/2/161 99/198/161 98/200/161
f 161/3/162 98/200/162 97/213/162
f 194/214/163 193/215/163 195/216/163
f 196/217/164 208/218/164 209/219/164
f 193/215/165 201/220/165 196/217/165
f 202/221/166 198/222/166 197/223/166
f 198/222/167 204/224/167 203/225/167
f 204/224/168 200/226/168 199/227/168
f 211/228/169 206/229/169 205/230/169
f 211/228/170 194/214/170 210/231/170
f 214/232/171 224/233/171 225/234/171
f 214/232/172 222/235/172 221/236/172
f 222/235/173 216/237/173 215/238/173
f 213/239/174 235/240/174 236/241/174
f 217/242/175 226/243/175 218/244/175
f 229/245/176 220/246/176 219/247/176
f 212/248/177 231/249/177 232/250/177
f 226/243/178 229/245/178 228/251/178
f 253/252/179 239/253/179 237/254/179
f 238/255/180 246/256/180 239/253/180
f 247/257/181 241/258/181 240/259/181
f 238/255/182 248/260/182 241/258/182
f 249/261/183 243/262/183 242/263/183
f 243/262/184 251/264/184 250/265/184
f 251/264/185 245/266/185 244/267/185
f 238/255/186 252/268/186 245/266/186
f 266/269/187 256/270/187 254/271/187
f 255/272/188 267/273/188 256/270/188
f 268/274/189 258/275/189 257/276/189
f 255/272/190 269/277/190 258/275/190
f 270/278/191 260/279/191 259/280/191
f 255/272/192 263/281/192 260/279/192
f 264/282/193 262/283/193 261/284/193
f 262/283/194 266/269/194 265/285/194
f 2/1/1 4/4/1 162/2/1
f 4/4/2 6/6/2 163/5/2
f 6/6/3 8/8/3 164/7/3
f 8/8/4 10/10/4 165/9/4
f 10/10/5 12/12/5 166/11/5
f 12/12/6 14/14/6 167/13/6
f 14/14/7 16/16/7 168/15/7
f 16/16/8 18/18/8 169/17/8
f 18/18/9 20/20/9 170/19/9
f 20/20/10 22/286/10 171/21/10
f 171/21/11 22/286/11 24/22/11
f 172/23/12 24/22/12 26/24/12
f 173/25/13 26/24/13 28/26/13
f 174/27/14 28/26/14 30/28/14
f 175/30/15 30/287/15 32/31/15
f 176/32/16 32/31/16 34/33/16
f 177/34/17 34/33/17 36/35/17
f 178/36/18 36/35/18 38/37/18
f 179/38/19 38/37/19 40/39/19
f 180/40/20 40/39/20 42/41/20
f 181/42/21 42/41/21 44/43/21
f 182/44/22 44/43/22 46/45/22
f 183/46/23 46/45/23 48/47/23
f 184/48/24 48/47/24 50/49/24
f 185/50/25 50/49/25 52/51/25
f 186/52/26 52/51/26 54/53/26
f 54/53/27 56/56/27 188/55/27
f 56/56/28 58/58/28 189/57/28
f 58/58/29 60/60/29 190/59/29
f 60/60/30 62/65/30 191/61/30
f 6/288/31 4/289/31 62/290/31
f 4/289/31 2/291/31 62/290/31
f 2/291/31 64/292/31 62/290/31
f 62/290/31 60/293/31 54/62/31
f 60/293/31 58/294/31 54/62/31
f 58/294/31 56/295/31 54/62/31
f 54/62/31 52/296/31 50/297/31
f 50/297/31 48/298/31 46/299/31
f 46/299/31 44/300/31 42/301/31
f 42/301/31 40/302/31 46/299/31
f 40/302/31 38/63/31 46/299/31
f 38/63/31 36/303/31 34/304/31
f 34/304/31 32/305/31 30/306/31
f 30/306/31 28/307/31 22/64/31
f 28/307/31 26/308/31 22/64/31
f 26/308/31 24/309/31 22/64/31
f 22/64/31 20/310/31 18/311/31
f 18/311/31 16/312/31 14/313/31
f 14/313/31 12/314/31 10/315/31
f 10/315/31 8/316/31 14/313/31
f 8/316/31 6/288/31 14/313/31
f 54/62/31 50/297/31 46/299/31
f 38/63/31 34/304/31 30/306/31
f 22/64/31 18/311/31 14/313/31
f 6/288/31 62/290/31 54/62/31
f 54/62/31 46/299/31 38/63/31
f 38/63/31 30/306/31 22/64/31
f 22/64/31 14/313/31 6/288/31
f 6/288/31 54/62/31 22/64/31
f 62/65/32 64/317/32 192/66/32
f 64/67/33 2/318/33 161/68/33
f 63/72/34 1/319/34 3/320/34
f 3/320/34 5/321/34 7/322/34
f 7/322/34 9/323/34 15/324/34
f 9/323/34 11/325/34 15/324/34
f 11/325/34 13/326/34 15/324/34
f 15/324/34 17/327/34 19/328/34
f 19/328/34 21/329/34 23/330/34
f 23/330/34 25/331/34 31/70/34
f 25/331/34 27/332/34 31/70/34
f 27/332/34 29/333/34 31/70/34
f 31/70/34 33/334/34 35/335/34
f 35/335/34 37/336/34 39/337/34
f 39/337/34 41/338/34 43/339/34
f 43/339/34 45/340/34 39/337/34
f 45/340/34 47/71/34 39/337/34
f 47/71/34 49/341/34 51/342/34
f 51/342/34 53/343/34 55/344/34
f 55/344/34 57/345/34 59/346/34
f 59/346/34 61/347/34 63/72/34
f 63/72/34 3/320/34 15/324/34
f 3/320/34 7/322/34 15/324/34
f 15/324/34 19/328/34 31/70/34
f 19/328/34 23/330/34 31/70/34
f 31/70/34 35/335/34 47/71/34
f 35/335/34 39/337/34 47/71/34
f 47/71/34 51/342/34 63/72/34
f 51/342/34 55/344/34 63/72/34
f 55/344/34 59/346/34 63/72/34
f 63/72/34 15/324/34 31/70/34
f 96/73/35 65/208/35 1/74/35
f 95/76/36 96/73/36 63/75/36
f 59/78/37 94/207/37 95/79/37
f 93/81/38 94/207/38 59/78/38
f 55/83/39 92/85/39 93/81/39
f 53/84/40 91/206/40 92/85/40
f 90/86/41 91/206/41 53/84/41
f 89/88/42 90/86/42 51/87/42
f 47/90/43 88/92/43 89/88/43
f 45/91/44 87/205/44 88/92/44
f 86/93/45 87/205/45 45/91/45
f 85/95/46 86/93/46 43/94/46
f 84/97/47 85/95/47 41/96/47
f 37/99/48 83/101/48 84/97/48
f 35/100/49 82/103/49 83/101/49
f 33/102/50 81/204/50 82/103/50
f 80/104/51 81/204/51 33/102/51
f 79/106/52 80/104/52 31/105/52
f 27/108/53 78/203/53 79/109/53
f 77/111/54 78/203/54 27/108/54
f 76/113/55 77/111/55 25/112/55
f 75/115/56 76/113/56 23/114/56
f 74/117/57 75/115/57 21/116/57
f 17/119/58 73/121/58 74/117/58
f 15/120/59 72/202/59 73/121/59
f 71/122/60 72/202/60 15/120/60
f 11/124/61 70/126/61 71/122/61
f 9/125/62 69/128/62 70/126/62
f 7/127/63 68/130/63 69/128/63
f 5/129/64 67/201/64 68/130/64
f 66/131/65 67/201/65 5/129/65
f 65/133/66 66/131/66 3/132/66
f 159/135/195 128/139/195 97/136/195
f 158/138/196 127/210/196 128/139/196
f 157/140/197 126/144/197 127/141/197
f 156/143/198 125/146/198 126/144/198
f 155/145/199 124/211/199 125/146/199
f 123/147/200 124/211/200 155/145/200
f 122/149/73 123/147/73 154/148/73
f 121/151/74 122/149/74 153/150/74
f 120/153/75 121/151/75 152/152/75
f 119/155/76 120/153/76 151/154/76
f 118/157/77 119/155/77 150/156/77
f 117/159/78 118/157/78 149/158/78
f 116/161/79 117/159/79 148/160/79
f 115/163/80 116/161/80 147/162/80
f 114/165/81 115/163/81 146/164/81
f 113/167/82 114/165/82 145/166/82
f 112/169/83 113/167/83 144/168/83
f 111/171/201 112/169/201 143/170/201
f 110/173/202 111/212/202 142/174/202
f 109/176/203 110/173/203 141/175/203
f 108/178/204 109/176/204 140/177/204
f 138/180/205 107/182/205 108/178/205
f 137/181/206 106/184/206 107/182/206
f 136/183/207 105/186/207 106/184/207
f 135/185/208 104/188/208 105/186/208
f 134/187/209 103/190/209 104/188/209
f 133/189/210 102/192/210 103/190/210
f 132/191/211 101/194/211 102/192/211
f 131/193/212 100/196/212 101/194/212
f 130/195/213 99/198/213 100/196/213
f 129/197/214 98/200/214 99/198/214
f 160/199/215 97/213/215 98/200/215
f 65/133/216 160/199/216 129/197/216
f 66/131/217 129/197/217 130/195/217
f 67/201/218 130/195/218 131/193/218
f 68/130/219 131/193/219 132/191/219
f 69/128/220 132/191/220 133/189/220
f 70/126/221 133/189/221 134/187/221
f 134/187/92 135/185/92 72/202/92
f 135/185/222 136/183/222 73/121/222
f 136/183/223 137/181/223 74/117/223
f 137/181/224 138/180/224 75/115/224
f 138/180/225 139/179/225 76/113/225
f 139/179/226 140/177/226 77/111/226
f 140/177/227 141/175/227 78/203/227
f 141/175/228 142/174/228 79/109/228
f 142/172/229 143/170/229 80/104/229
f 143/170/230 144/168/230 81/204/230
f 144/168/231 145/166/231 82/103/231
f 145/166/232 146/164/232 83/101/232
f 146/164/233 147/162/233 84/97/233
f 147/162/234 148/160/234 85/95/234
f 148/160/235 149/158/235 86/93/235
f 149/158/236 150/156/236 87/205/236
f 150/156/237 151/154/237 88/92/237
f 151/154/238 152/152/238 89/88/238
f 152/152/239 153/150/239 90/86/239
f 153/150/240 154/148/240 91/206/240
f 91/206/241 154/148/241 155/145/241
f 92/85/242 155/145/242 156/143/242
f 93/81/243 156/143/243 157/140/243
f 94/207/244 157/140/244 158/142/244
f 95/76/245 158/138/245 159/135/245
f 96/73/246 159/135/246 160/137/246
f 192/69/247 161/68/247 97/136/247
f 191/209/248 192/69/248 128/139/248
f 190/59/249 191/61/249 127/141/249
f 189/57/250 190/59/250 126/144/250
f 188/55/251 189/57/251 125/146/251
f 123/147/252 187/54/252 188/55/252
f 122/149/253 186/52/253 187/54/253
f 121/151/254 185/50/254 186/52/254
f 120/153/255 184/48/255 185/50/255
f 119/155/256 183/46/256 184/48/256
f 118/157/257 182/44/257 183/46/257
f 117/159/258 181/42/258 182/44/258
f 116/161/259 180/40/259 181/42/259
f 115/163/260 179/38/260 180/40/260
f 114/165/261 178/36/261 179/38/261
f 113/167/262 177/34/262 178/36/262
f 112/169/263 176/32/263 177/34/263
f 111/171/264 175/30/264 176/32/264
f 110/173/265 174/27/265 175/29/265
f 109/176/266 173/25/266 174/27/266
f 108/178/267 172/23/267 173/25/267
f 107/182/268 171/21/268 172/23/268
f 106/184/269 170/19/269 171/21/269
f 169/17/270 170/19/270 106/184/270
f 168/15/271 169/17/271 105/186/271
f 167/13/272 168/15/272 104/188/272
f 166/11/273 167/13/273 103/190/273
f 165/9/274 166/11/274 102/192/274
f 164/7/275 165/9/275 101/194/275
f 163/5/276 164/7/276 100/196/276
f 162/2/277 163/5/277 99/198/277
f 161/3/278 162/2/278 98/200/278
f 207/348/164 195/216/164 209/219/164
f 195/216/164 193/215/164 209/219/164
f 193/215/164 196/217/164 209/219/164
f 193/215/165 202/221/165 201/220/165
f 202/221/166 193/215/166 198/222/166
f 198/222/167 193/215/167 204/224/167
f 204/224/168 193/215/168 200/226/168
f 205/230/169 200/226/169 211/228/169
f 200/226/169 193/215/169 211/228/169
f 211/228/170 193/215/170 194/214/170
f 223/349/171 212/248/171 225/234/171
f 212/248/171 213/239/171 225/234/171
f 213/239/171 214/232/171 225/234/171
f 214/232/172 213/239/172 222/235/172
f 222/235/173 213/239/173 216/237/173
f 233/350/174 216/237/174 236/241/174
f 216/237/174 213/239/174 236/241/174
f 213/239/174 217/242/174 235/240/174
f 217/242/174 234/351/174 235/240/174
f 217/242/175 213/239/175 226/243/175
f 229/245/176 213/239/176 220/246/176
f 230/352/177 220/246/177 232/250/177
f 220/246/177 213/239/177 232/250/177
f 213/239/177 212/248/177 232/250/177
f 228/251/178 227/353/178 226/243/178
f 226/243/178 213/239/178 229/245/178
f 253/252/179 238/255/179 239/253/179
f 238/255/180 247/257/180 246/256/180
f 247/257/181 238/255/181 241/258/181
f 238/255/182 249/261/182 248/260/182
f 249/261/183 238/255/183 243/262/183
f 243/262/184 238/255/184 251/264/184
f 251/264/185 238/255/185 245/266/185
f 238/255/186 253/252/186 252/268/186
f 266/269/187 255/272/187 256/270/187
f 255/272/188 268/274/188 267/273/188
f 268/274/189 255/272/189 258/275/189
f 255/272/190 270/278/190 269/277/190
f 270/278/191 255/272/191 260/279/191
f 255/272/192 264/282/192 263/281/192
f 264/282/193 255/272/193 262/283/193
f 262/283/194 255/272/194 266/269/194
