# Blender 4.3.2
# www.blender.org
mtllib pine_3_stack_2.mtl
o Pine
v 1.792426 0.571810 -0.093585
v 0.107209 -0.143522 11.906416
v 1.904800 0.212676 -0.093585
v 0.112409 -0.160142 11.906416
v 1.944951 -0.161480 -0.093585
v 0.114267 -0.177456 11.906416
v 1.911336 -0.536280 -0.093585
v 0.112712 -0.194800 11.906416
v 1.805247 -0.897320 -0.093585
v 0.107802 -0.211507 11.906416
v 1.630761 -1.230726 -0.093585
v 0.099728 -0.226936 11.906416
v 1.394584 -1.523685 -0.093585
v 0.088799 -0.240493 11.906416
v 1.105791 -1.764939 -0.093585
v 0.075435 -0.251657 11.906416
v 0.775481 -1.945217 -0.093585
v 0.060149 -0.260000 11.906416
v 0.416348 -2.057591 -0.093585
v 0.043530 -0.265200 11.906416
v 0.042192 -2.097742 -0.093585
v 0.026216 -0.267058 11.906416
v -0.332608 -2.064127 -0.093585
v 0.008872 -0.265502 11.906416
v -0.693648 -1.958038 -0.093585
v -0.007836 -0.260593 11.906416
v -1.027054 -1.783552 -0.093585
v -0.023264 -0.252518 11.906416
v -1.320013 -1.547375 -0.093585
v -0.036821 -0.241589 11.906416
v -1.561267 -1.258582 -0.093585
v -0.047985 -0.228225 11.906416
v -1.741545 -0.928272 -0.093585
v -0.056328 -0.212940 11.906416
v -1.853919 -0.569138 -0.093585
v -0.061528 -0.196321 11.906416
v -1.894070 -0.194982 -0.093585
v -0.063386 -0.179006 11.906416
v -1.860455 0.179817 -0.093585
v -0.061831 -0.161662 11.906416
v -1.754367 0.540858 -0.093585
v -0.056921 -0.144955 11.906416
v -1.579881 0.874264 -0.093585
v -0.048847 -0.129526 11.906416
v -1.343703 1.167223 -0.093585
v -0.037918 -0.115969 11.906416
v -1.054910 1.408477 -0.093585
v -0.024553 -0.104805 11.906416
v -0.724600 1.588755 -0.093585
v -0.009268 -0.096463 11.906416
v -0.365467 1.701128 -0.093585
v 0.007351 -0.091263 11.906416
v 0.008689 1.741279 -0.093585
v 0.024665 -0.089405 11.906416
v 0.383489 1.707664 -0.093585
v 0.042009 -0.090960 11.906416
v 0.744529 1.601576 -0.093585
v 0.058717 -0.095869 11.906416
v 1.077935 1.427090 -0.093585
v 0.074145 -0.103944 11.906416
v 1.370894 1.190913 -0.093585
v 0.087702 -0.114873 11.906416
v 1.612148 0.902120 -0.093585
v 0.098867 -0.128237 11.906416
v 0.869320 0.179975 1.002708
v 0.922988 0.008459 1.002708
v 0.942163 -0.170231 1.002708
v 0.926109 -0.349229 1.002708
v 0.875443 -0.521655 1.002708
v 0.792112 -0.680883 1.002708
v 0.679318 -0.820795 1.002708
v 0.541396 -0.936014 1.002708
v 0.383646 -1.022111 1.002708
v 0.212131 -1.075778 1.002708
v 0.033441 -1.094954 1.002708
v -0.145557 -1.078900 1.002708
v -0.317983 -1.028234 1.002708
v -0.477211 -0.944903 1.002708
v -0.617123 -0.832109 1.002708
v -0.732342 -0.694187 1.002708
v -0.818439 -0.536437 1.002708
v -0.872107 -0.364921 1.002708
v -0.891282 -0.186231 1.002708
v -0.875228 -0.007234 1.002708
v -0.824562 0.165192 1.002708
v -0.741231 0.324421 1.002708
v -0.628437 0.464333 1.002708
v -0.490515 0.579551 1.002708
v -0.332765 0.665649 1.002708
v -0.161250 0.719316 1.002708
v 0.017440 0.738492 1.002708
v 0.196438 0.722438 1.002708
v 0.368864 0.671772 1.002708
v 0.528092 0.588441 1.002708
v 0.668004 0.475647 1.002708
v 0.783223 0.337725 1.002708
v 0.515779 0.304019 6.384987
v 0.536367 0.209263 6.402660
v 0.537755 0.112345 6.420550
v 0.519890 0.016990 6.437968
v 0.483458 -0.073137 6.454244
v 0.429861 -0.154573 6.468752
v 0.361156 -0.224188 6.480936
v 0.279986 -0.279307 6.490327
v 0.189468 -0.317813 6.496564
v 0.093081 -0.338224 6.499408
v -0.005469 -0.339757 6.498749
v -0.102397 -0.322353 6.494613
v -0.193977 -0.286680 6.487158
v -0.276691 -0.234111 6.476671
v -0.347358 -0.166663 6.463554
v -0.399056 -0.106302 6.461817
v -0.441093 -0.018915 6.444170
v -0.464930 0.074822 6.425194
v -0.469651 0.171309 6.405620
v -0.455074 0.266835 6.386199
v -0.421760 0.357732 6.367677
v -0.370989 0.440505 6.350767
v -0.304711 0.511973 6.336119
v -0.225474 0.569390 6.324294
v -0.136324 0.610550 6.315748
v -0.040685 0.633871 6.310810
v 0.057767 0.638456 6.309668
v 0.175916 0.628395 6.321908
v 0.267496 0.592722 6.329363
v 0.350209 0.540153 6.339849
v 0.420877 0.472705 6.352965
v 0.476783 0.392973 6.368206
v 0.724293 0.030762 3.158546
v 0.731352 -0.113515 3.187816
v 0.709555 -0.256357 3.216856
v 0.659739 -0.392276 3.244552
v 0.583820 -0.516047 3.269837
v 0.484715 -0.622914 3.291741
v 0.366231 -0.708771 3.309422
v 0.232923 -0.770318 3.322201
v 0.089913 -0.805190 3.329586
v -0.057303 -0.812046 3.331294
v -0.203067 -0.790624 3.327258
v -0.341778 -0.741746 3.317635
v -0.468105 -0.667291 3.302793
v -0.577194 -0.570120 3.283303
v -0.664852 -0.453968 3.259915
v -0.727711 -0.323297 3.233527
v -0.763355 -0.183130 3.205153
v -0.770414 -0.038853 3.175883
v -0.748617 0.103990 3.146842
v -0.698802 0.239908 3.119147
v -0.622882 0.363679 3.093861
v -0.523777 0.470546 3.071957
v -0.405293 0.556403 3.054276
v -0.271985 0.617950 3.041497
v -0.128975 0.652822 3.034112
v 0.018241 0.659678 3.032404
v 0.164005 0.638256 3.036440
v 0.302716 0.589378 3.046064
v 0.429043 0.514923 3.060905
v 0.538132 0.417752 3.080395
v 0.625790 0.301600 3.103783
v 0.688649 0.170929 3.130172
v 0.309658 0.078433 9.180488
v 0.326975 0.023089 9.180488
v 0.333163 -0.034569 9.180488
v 0.327982 -0.092326 9.180488
v 0.311634 -0.147963 9.180488
v 0.284745 -0.199342 9.180488
v 0.248350 -0.244488 9.180488
v 0.203846 -0.281666 9.180488
v 0.152945 -0.309447 9.180488
v 0.097602 -0.326764 9.180488
v 0.039943 -0.332951 9.180488
v -0.017814 -0.327771 9.180488
v -0.073451 -0.311422 9.180488
v -0.124830 -0.284534 9.180488
v -0.169975 -0.248138 9.180488
v -0.207153 -0.203635 9.180488
v -0.234934 -0.152733 9.180488
v -0.252251 -0.097390 9.180488
v -0.258439 -0.039732 9.180488
v -0.253259 0.018026 9.180488
v -0.236910 0.073663 9.180488
v -0.210022 0.125041 9.180488
v -0.173626 0.170187 9.180488
v -0.129123 0.207365 9.180488
v -0.078221 0.235146 9.180488
v -0.022878 0.252463 9.180488
v 0.034781 0.258650 9.180488
v 0.092538 0.253470 9.180488
v 0.148175 0.237122 9.180488
v 0.199554 0.210233 9.180488
v 0.244699 0.173838 9.180488
v 0.281877 0.129334 9.180488
v 0.180975 -0.215793 8.178049
v 2.962526 -1.339612 4.257680
v 1.353168 -2.977308 4.257680
v -0.942845 -2.997344 4.257680
v -2.580541 -1.387986 4.257680
v -2.600577 0.908028 4.257680
v -0.991219 2.545722 4.257680
v 1.304794 2.565759 4.257680
v -2.217950 -1.744302 4.257680
v -2.261923 -1.252741 4.710004
v -1.417633 2.111800 4.257680
v -0.790566 2.073014 4.928758
v 2.504677 1.386638 4.257680
v 2.806687 0.898757 4.450472
v 0.511211 -2.984655 4.257680
v -0.234602 -2.991164 4.257680
v 0.098246 -2.511406 4.932144
v 2.948512 0.266246 4.257680
v 2.378917 0.717179 5.057753
v 3.955788 1.323544 1.297109
v 0.262964 -0.289151 5.587607
v 3.935156 -1.735294 1.422269
v 1.763404 -3.876300 1.690930
v -1.287287 -3.845297 1.945714
v -3.429861 -1.660450 2.037371
v -3.409229 1.398388 1.912211
v -1.237477 3.539392 1.643550
v 1.813213 3.508390 1.388767
v 2.080166 -3.564022 1.651744
v 1.571474 -3.417447 2.189377
v 3.950948 0.606042 1.326467
v 3.946750 -0.016369 1.351934
v 3.519310 0.259019 1.833225
v -2.730791 1.086616 2.591240
v -3.136826 1.666935 1.878512
v -2.204224 2.586333 1.763143
v -0.888365 2.648594 2.561225
v 2.399418 2.910621 1.363689
v 3.427461 1.862294 1.319710
v 2.184027 1.554506 2.583649
v -1.576503 -3.550374 1.958086
v -2.665759 -2.439628 2.004683
v -1.842111 -2.127392 2.801135
v -1.518994 -2.987903 2.403987
v 1.878576 0.700698 6.735405
v 0.053676 -0.080764 10.494667
v 1.891817 -0.829977 6.737168
v 0.828300 -1.921774 6.595544
v -0.688982 -1.935132 6.393493
v -1.771225 -0.862226 6.249375
v -1.784465 0.668450 6.247611
v -0.720948 1.760246 6.389236
v 0.796333 1.773604 6.591287
v 1.266749 -1.471666 6.653931
v 0.705513 -1.629952 7.213601
v -1.404576 -1.225711 6.298201
v -1.504261 -0.747907 6.870415
v -0.936429 1.539036 6.360541
v -0.570778 1.403345 7.185122
v 1.351831 1.222898 6.665261
v 1.791806 0.663542 6.914150
v 1.296942 0.412302 8.643918
v 0.008235 -0.134722 12.646194
v 1.306292 -0.659171 8.643918
v 0.555259 -1.423429 8.643918
v -0.516214 -1.432779 8.643918
v -1.280472 -0.681746 8.643918
v -1.289823 0.389727 8.643918
v -0.538789 1.153985 8.643918
v 0.532684 1.163336 8.643918
v -0.977179 0.707876 8.643918
v -0.428073 0.893155 9.453966
v 0.985658 0.718200 8.643918
v 1.038009 0.302391 9.448072
v 1.071490 -0.898108 8.643918
v 0.415370 -1.093872 9.667407
v -0.891741 -1.063750 8.643918
v -1.147310 -0.625222 9.057474
vn 0.8928 0.3631 0.2664
vn 0.9760 0.1991 0.0877
vn 0.9173 0.3858 0.0985
vn 0.9500 0.1811 0.2543
vn 0.9971 0.0045 0.0763
vn 0.9703 -0.0087 0.2418
vn 0.9796 -0.1904 0.0645
vn 0.9528 -0.1987 0.2294
vn 0.9243 -0.3780 0.0530
vn 0.8984 -0.3815 0.2176
vn 0.8334 -0.5511 0.0421
vn 0.8093 -0.5498 0.2069
vn 0.7106 -0.7028 0.0324
vn 0.6891 -0.6972 0.1977
vn 0.5608 -0.8276 0.0243
vn 0.5427 -0.8181 0.1901
vn 0.3896 -0.9208 0.0182
vn 0.3759 -0.9082 0.1843
vn 0.2067 -0.9783 0.0149
vn 0.1950 -0.9641 0.1804
vn 0.0096 -0.9999 0.0140
vn -0.1816 -0.9670 0.1786
vn -0.1847 -0.9827 0.0147
vn -0.3632 -0.9140 0.1806
vn -0.3721 -0.9280 0.0178
vn -0.5313 -0.8268 0.1846
vn -0.5454 -0.8379 0.0231
vn -0.6795 -0.7086 0.1904
vn -0.6979 -0.7155 0.0305
vn -0.8020 -0.5635 0.1981
vn -0.8226 -0.5672 0.0399
vn -0.8940 -0.3970 0.2075
vn -0.9178 -0.3936 0.0510
vn -0.9518 -0.2155 0.2182
vn -0.9765 -0.2065 0.0621
vn -0.9728 -0.0260 0.2300
vn -0.9972 -0.0115 0.0734
vn -0.9562 0.1641 0.2424
vn -0.9793 0.1837 0.0846
vn -0.9025 0.3472 0.2550
vn -0.9236 0.3714 0.0952
vn -0.8138 0.5162 0.2670
vn -0.8322 0.5444 0.1048
vn -0.6938 0.6643 0.2781
vn -0.7090 0.6961 0.1132
vn -0.5473 0.7860 0.2876
vn -0.5587 0.8206 0.1199
vn -0.3801 0.8766 0.2951
vn -0.3873 0.9134 0.1250
vn -0.1986 0.9329 0.3003
vn -0.2013 0.9711 0.1282
vn -0.0098 0.9530 0.3029
vn -0.0077 0.9916 0.1294
vn 0.1850 0.9742 0.1292
vn 0.1793 0.9360 0.3028
vn 0.3726 0.9193 0.1269
vn 0.3616 0.8827 0.3001
vn 0.5455 0.8291 0.1225
vn 0.5302 0.7950 0.2948
vn 0.6977 0.7069 0.1161
vn 0.0068 -0.9839 0.1785
vn 0.6786 0.6760 0.2871
vn 0.8233 0.5572 0.1080
vn 0.8011 0.5302 0.2775
vn -0.0000 -0.0000 -1.0000
vn 0.8131 0.5405 0.2162
vn 0.6792 0.2883 0.6750
vn 0.6099 0.4153 0.6750
vn 0.6930 0.6903 0.2079
vn 0.5172 0.5263 0.6750
vn 0.4046 0.6171 0.6750
vn 0.3757 0.9064 0.1933
vn 0.2764 0.6841 0.6750
vn 0.1376 0.7249 0.6750
vn -0.0064 0.7378 0.6750
vn 0.1905 0.9636 0.1874
vn -0.1963 0.9647 0.1759
vn -0.1503 0.7224 0.6750
vn -0.3829 0.9073 0.1736
vn -0.2883 0.6792 0.6750
vn -0.4153 0.6099 0.6750
vn -0.5263 0.5172 0.6750
vn -0.5548 0.8138 0.1731
vn -0.8262 0.5347 0.1774
vn -0.6171 0.4046 0.6750
vn -0.9147 0.3607 0.1824
vn -0.6841 0.2764 0.6750
vn -0.9666 0.1731 0.1890
vn -0.7249 0.1376 0.6750
vn -0.7378 -0.0064 0.6750
vn -0.7224 -0.1503 0.6750
vn -0.9801 -0.0203 0.1973
vn -0.6792 -0.2883 0.6750
vn -0.9553 -0.2116 0.2067
vn -0.7979 -0.5583 0.2273
vn -0.6099 -0.4153 0.6750
vn -0.6727 -0.7008 0.2374
vn -0.5172 -0.5263 0.6750
vn -0.4046 -0.6171 0.6750
vn -0.3546 -0.8996 0.2549
vn -0.2764 -0.6841 0.6750
vn -0.1739 -0.9494 0.2615
vn -0.1376 -0.7249 0.6750
vn 0.0126 -0.9638 0.2663
vn 0.0064 -0.7378 0.6750
vn 0.1981 -0.9425 0.2691
vn 0.1503 -0.7224 0.6750
vn 0.2883 -0.6792 0.6750
vn 0.4153 -0.6099 0.6750
vn 0.3761 -0.8864 0.2700
vn 0.6870 -0.6757 0.2673
vn 0.5263 -0.5172 0.6750
vn 0.6171 -0.4046 0.6750
vn 0.6841 -0.2764 0.6750
vn 0.8033 -0.5339 0.2640
vn 0.7249 -0.1376 0.6750
vn 0.8930 -0.3690 0.2578
vn 0.7378 0.0064 0.6750
vn 0.9494 -0.1893 0.2505
vn 0.9540 0.1877 0.2337
vn 0.7224 0.1503 0.6750
vn 0.9011 0.3707 0.2249
vn 0.8499 0.5248 0.0478
vn 0.9389 0.3382 0.0639
vn 0.9358 0.3478 0.0578
vn 0.7312 0.6810 0.0390
vn 0.8557 0.5137 0.0619
vn 0.5849 0.8105 0.0317
vn 0.7415 0.6683 0.0601
vn 0.4169 0.9086 0.0260
vn 0.6011 0.7970 0.0588
vn 0.2318 0.9725 0.0227
vn 0.4404 0.8959 0.0582
vn 0.0219 0.9980 0.0597
vn 0.0476 0.9986 0.0223
vn -0.1343 0.9890 0.0618
vn -0.1490 0.9886 0.0232
vn -0.3156 0.9467 0.0645
vn -0.3357 0.9416 0.0252
vn -0.4868 0.8709 0.0679
vn -0.5101 0.8596 0.0291
vn -0.6421 0.7633 0.0717
vn -0.6656 0.7455 0.0347
vn -0.7756 0.6267 0.0757
vn -0.7965 0.6031 0.0419
vn -0.8816 0.4652 0.0794
vn -0.8977 0.4377 0.0504
vn -0.9553 0.2840 0.0823
vn -0.9650 0.2553 0.0599
vn -0.9924 0.0898 0.0840
vn -0.9956 0.0627 0.0702
vn -0.9904 -0.1098 0.0844
vn -0.9879 -0.1326 0.0808
vn -0.9483 -0.3061 0.0833
vn -0.9420 -0.3230 0.0913
vn -0.8525 -0.5164 0.0809
vn -0.8590 -0.5017 0.1019
vn -0.7357 -0.6730 0.0765
vn -0.7440 -0.6588 0.1116
vn -0.6321 -0.7713 0.0750
vn -0.5998 -0.7912 0.1197
vn -0.4647 -0.8825 0.0719
vn -0.4325 -0.8928 0.1261
vn -0.2779 -0.9581 0.0690
vn -0.2482 -0.9598 0.1308
vn -0.0556 -0.9895 0.1334
vn 0.1398 -0.9811 0.1335
vn -0.0823 -0.9944 0.0667
vn 0.3300 -0.9348 0.1313
vn 0.1195 -0.9906 0.0660
vn 0.5077 -0.8521 0.1269
vn 0.3123 -0.9477 0.0661
vn 0.6686 -0.7340 0.1197
vn 0.4948 -0.8665 0.0663
vn 0.7990 -0.5911 0.1108
vn 0.6576 -0.7504 0.0669
vn 0.9008 -0.4221 0.1013
vn 0.7940 -0.6041 0.0675
vn 0.9675 -0.2362 0.0908
vn 0.8986 -0.4336 0.0680
vn 0.9960 -0.0406 0.0797
vn 0.9669 -0.2460 0.0679
vn 0.9853 0.1567 0.0686
vn 0.9965 -0.0493 0.0671
vn 0.9868 0.1481 0.0657
vn 0.9702 -0.0014 0.2423
vn 0.5403 -0.7974 0.2689
vn -0.5229 -0.8159 0.2468
vn -0.8935 -0.3932 0.2169
vn -0.7046 0.6879 0.1743
vn 0.0033 0.9835 0.1810
vn 0.5454 0.8139 0.2002
vn 0.2221 0.9733 0.0582
vn 0.7363 -0.2975 0.6077
vn -0.0000 -0.0000 1.0000
vn 0.3103 -0.7310 0.6077
vn -0.2975 -0.7363 0.6077
vn 0.0071 -0.8165 0.5773
vn -0.5723 -0.5824 0.5773
vn -0.7600 -0.2354 0.6058
vn -0.7363 0.2975 0.6077
vn -0.8165 -0.0071 0.5773
vn -0.2465 0.7561 0.6063
vn -0.5824 0.5723 0.5773
vn 0.2975 0.7363 0.6077
vn -0.0071 0.8165 0.5773
vn 0.7038 0.3701 0.6064
vn 0.5723 0.5824 0.5773
vn 0.8165 0.0071 0.5773
vn 0.6873 -0.2347 0.6874
vn 0.7537 0.0218 0.6569
vn 0.2797 -0.6503 0.7063
vn 0.5636 -0.4881 0.6664
vn -0.2277 -0.6464 0.7282
vn 0.0500 -0.7251 0.6868
vn 0.0811 0.0072 0.9967
vn -0.4900 -0.5102 0.7068
vn -0.6237 -0.2435 0.7428
vn -0.6114 0.2807 0.7398
vn -0.6992 0.0339 0.7141
vn -0.1322 0.6856 0.7158
vn 0.3182 0.6417 0.6978
vn 0.0644 0.7282 0.6824
vn 0.6730 0.2802 0.6845
vn 0.5481 0.5096 0.6633
vn -0.4527 0.5475 0.7037
vn 0.8589 0.2196 0.4626
vn 0.8112 -0.3520 0.4670
vn 0.8989 0.0083 0.4381
vn -0.1175 -0.0000 0.9931
vn 0.6170 -0.6572 0.4329
vn 0.1960 -0.8711 0.4503
vn -0.3883 -0.8112 0.4371
vn -0.0478 -0.9069 0.4187
vn -0.6708 -0.6226 0.4030
vn -0.8739 -0.2438 0.4205
vn -0.8482 0.3183 0.4233
vn -0.9182 -0.0075 0.3961
vn -0.3554 0.8260 0.4375
vn -0.6812 0.6114 0.4027
vn 0.2809 0.8451 0.4549
vn -0.0637 0.9061 0.4183
vn 0.6050 0.6684 0.4326
vn 0.9010 0.2830 0.3288
vn 0.8752 -0.3536 0.3302
vn 0.9515 0.0083 0.3075
vn 0.0001 -0.0000 1.0000
vn 0.6787 -0.6669 0.3075
vn 0.2671 -0.9060 0.3282
vn -0.3536 -0.8752 0.3302
vn 0.0083 -0.9515 0.3075
vn -0.6669 -0.6787 0.3075
vn -0.9137 -0.2410 0.3272
vn -0.8752 0.3536 0.3302
vn -0.9515 -0.0083 0.3075
vn -0.6787 0.6669 0.3075
vn -0.2634 0.9072 0.3281
vn 0.3536 0.8752 0.3302
vn -0.0083 0.9515 0.3075
vn 0.6669 0.6787 0.3075
vt 0.471658 0.353698
vt 0.465312 0.337736
vt 0.465802 0.337745
vt 0.471533 0.353691
vt 0.465166 0.337735
vt 0.471493 0.353685
vt 0.465368 0.337741
vt 0.471539 0.353682
vt 0.465908 0.337755
vt 0.471671 0.353680
vt 0.466763 0.337775
vt 0.471881 0.353681
vt 0.467900 0.337802
vt 0.472164 0.353683
vt 0.469273 0.337833
vt 0.472506 0.353688
vt 0.470831 0.337868
vt 0.472896 0.353694
vt 0.472516 0.337905
vt 0.473318 0.353702
vt 0.474263 0.337944
vt 0.474195 0.353721
vt 0.476010 0.337981
vt 0.474616 0.353732
vt 0.477689 0.338017
vt 0.475004 0.353743
vt 0.479240 0.338050
vt 0.475345 0.353753
vt 0.480603 0.338079
vt 0.310845 0.331108
vt 0.307190 0.348755
vt 0.311932 0.331131
vt 0.307391 0.348764
vt 0.312745 0.331147
vt 0.307515 0.348772
vt 0.313252 0.331156
vt 0.307557 0.348778
vt 0.313432 0.331158
vt 0.307516 0.348783
vt 0.313274 0.331152
vt 0.307391 0.348785
vt 0.312784 0.331139
vt 0.307189 0.348785
vt 0.311978 0.331118
vt 0.306917 0.348783
vt 0.310885 0.331092
vt 0.306585 0.348779
vt 0.309548 0.331060
vt 0.306206 0.348773
vt 0.308018 0.331024
vt 0.305795 0.348765
vt 0.306355 0.330986
vt 0.305368 0.348756
vt 0.304625 0.330947
vt 0.302897 0.330908
vt 0.304940 0.348746
vt 0.301239 0.330871
vt 0.304530 0.348735
vt 0.299717 0.330838
vt 0.304153 0.348724
vt 0.298391 0.330809
vt 0.473738 0.353758
vt 0.476003 0.353784
vt 0.473757 0.353711
vt 0.303823 0.348713
vt 0.297311 0.330787
vt 0.471864 0.353707
vt 0.466620 0.337761
vt 0.515901 0.313372
vt 0.504465 0.310594
vt 0.429646 0.309514
vt 0.453137 0.313412
vt 0.425313 0.309748
vt 0.456196 0.313356
vt 0.435876 0.309354
vt 0.273311 0.297549
vt 0.285578 0.302274
vt 0.265671 0.297665
vt 0.293504 0.302245
vt 0.282279 0.297533
vt 0.292191 0.297621
vt 0.302601 0.297809
vt 0.298162 0.302294
vt 0.307907 0.302513
vt 0.313027 0.298089
vt 0.312585 0.302673
vt 0.322987 0.298448
vt 0.332033 0.298868
vt 0.339774 0.299330
vt 0.316870 0.302859
vt 0.323592 0.303271
vt 0.345903 0.299812
vt 0.325772 0.303482
vt 0.350207 0.300292
vt 0.327054 0.303684
vt 0.352569 0.300752
vt 0.352966 0.301174
vt 0.351456 0.301542
vt 0.327404 0.303870
vt 0.348165 0.301846
vt 0.326825 0.304033
vt 0.323066 0.304268
vt 0.343273 0.302076
vt 0.320053 0.304333
vt 0.337000 0.302226
vt 0.501735 0.313516
vt 0.491741 0.315226
vt 0.509402 0.313480
vt 0.483766 0.315213
vt 0.493178 0.313478
vt 0.479205 0.315156
vt 0.484020 0.313369
vt 0.474476 0.315067
vt 0.474556 0.313194
vt 0.469742 0.314951
vt 0.465084 0.312959
vt 0.455904 0.312670
vt 0.447311 0.312335
vt 0.465170 0.314810
vt 0.457149 0.314476
vt 0.439594 0.311967
vt 0.433032 0.311575
vt 0.427883 0.311172
vt 0.453995 0.314294
vt 0.409735 0.298496
vt 0.451583 0.314112
vt 0.420637 0.306042
vt 0.450013 0.313934
vt 0.449666 0.313624
vt 0.407967 0.297256
vt 0.450936 0.313503
vt 0.457138 0.319202
vt 0.459736 0.328778
vt 0.455479 0.319330
vt 0.459533 0.319107
vt 0.460820 0.328718
vt 0.292133 0.308911
vt 0.292641 0.320174
vt 0.289195 0.308990
vt 0.295588 0.308878
vt 0.294638 0.320143
vt 0.299423 0.308891
vt 0.297006 0.320135
vt 0.303093 0.320180
vt 0.303480 0.308950
vt 0.305969 0.320251
vt 0.307593 0.309052
vt 0.308767 0.320342
vt 0.311594 0.309195
vt 0.311376 0.320449
vt 0.315317 0.309371
vt 0.313692 0.320569
vt 0.318612 0.309573
vt 0.315623 0.320696
vt 0.321349 0.309793
vt 0.317096 0.320825
vt 0.323424 0.310022
vt 0.318057 0.320952
vt 0.324763 0.310250
vt 0.318473 0.321070
vt 0.325323 0.310470
vt 0.318334 0.321177
vt 0.325093 0.310671
vt 0.317650 0.321267
vt 0.324093 0.310847
vt 0.316453 0.321338
vt 0.322371 0.310992
vt 0.314983 0.321336
vt 0.320001 0.311101
vt 0.483405 0.329758
vt 0.491280 0.321010
vt 0.488249 0.321059
vt 0.480994 0.329755
vt 0.484761 0.321071
vt 0.478328 0.329732
vt 0.480946 0.321046
vt 0.476942 0.320984
vt 0.472892 0.320888
vt 0.475507 0.329689
vt 0.468942 0.320761
vt 0.472633 0.329628
vt 0.465232 0.320608
vt 0.469812 0.329552
vt 0.461899 0.320434
vt 0.467147 0.329463
vt 0.459066 0.320246
vt 0.464736 0.329363
vt 0.456844 0.320049
vt 0.462670 0.329258
vt 0.455321 0.319852
vt 0.461028 0.329151
vt 0.454564 0.319661
vt 0.459876 0.329045
vt 0.454614 0.319485
vt 0.459260 0.328945
vt 0.459212 0.328855
vt 0.449360 0.313770
vt 0.460921 0.314650
vt 0.487995 0.315237
vt 0.325356 0.304167
vt 0.320588 0.303061
vt 0.303031 0.302385
vt 0.289252 0.302238
vt 0.467735 0.337783
vt 0.462426 0.328676
vt 0.299653 0.320151
vt 0.485472 0.329741
vt 0.606641 0.711742
vt 0.506466 0.699910
vt 0.606486 0.687964
vt 0.547658 0.671146
vt 0.565911 0.676266
vt 0.562251 0.682325
vt 0.483021 0.671146
vt 0.469555 0.674589
vt 0.406288 0.688109
vt 0.464493 0.671226
vt 0.228509 0.655534
vt 0.278719 0.717750
vt 0.228406 0.705539
vt 0.423803 0.709813
vt 0.465275 0.728651
vt 0.406423 0.711969
vt 0.539564 0.722683
vt 0.545941 0.727244
vt 0.525859 0.728681
vt 0.565996 0.723551
vt 0.453531 0.747551
vt 0.408785 0.734785
vt 0.413019 0.729501
vt 0.558684 0.742673
vt 0.549088 0.747607
vt 0.644538 0.724812
vt 0.565642 0.747590
vt 0.512625 0.709489
vt 0.614729 0.707791
vt 0.628491 0.716636
vt 0.644346 0.692553
vt 0.555334 0.677120
vt 0.565326 0.669710
vt 0.467012 0.678997
vt 0.373923 0.692451
vt 0.452745 0.669658
vt 0.374045 0.724736
vt 0.373854 0.716805
vt 0.414818 0.709871
vt 0.655771 0.624032
vt 0.402583 0.629411
vt 0.505658 0.602585
vt 0.611985 0.708202
vt 0.617132 0.686278
vt 0.616683 0.708744
vt 0.523508 0.697341
vt 0.585340 0.676715
vt 0.555936 0.674671
vt 0.484552 0.670108
vt 0.561954 0.670115
vt 0.447488 0.680467
vt 0.443435 0.687677
vt 0.428802 0.708413
vt 0.428802 0.686040
vt 0.293049 0.713737
vt 0.472103 0.744210
vt 0.415822 0.750428
vt 0.491263 0.719043
vt 0.561016 0.724604
vt 0.483629 0.724616
vt 0.589928 0.716592
vt 0.487361 0.707211
vt 0.537604 0.711637
vt 0.481693 0.711583
vt 0.510605 0.691886
vt 0.550793 0.708225
vt 0.560032 0.698044
vt 0.579205 0.684138
vt 0.579333 0.700068
vt 0.527548 0.666360
vt 0.670364 0.627266
vt 0.724201 0.644150
vt 0.602109 0.616838
vt 0.449961 0.609936
vt 0.610634 0.610393
vt 0.466110 0.676760
vt 0.483539 0.672203
vt 0.375356 0.647526
vt 0.331544 0.688625
vt 0.331544 0.642898
vt 0.460916 0.710292
vt 0.395780 0.708492
vt 0.306919 0.348744
vt 0.472143 0.353716
vt 0.472483 0.353727
vt 0.472873 0.353737
vt 0.473297 0.353748
vt 0.474180 0.353767
vt 0.474605 0.353775
vt 0.474997 0.353781
vt 0.475340 0.353786
vt 0.475621 0.353789
vt 0.475830 0.353789
vt 0.475959 0.353787
vt 0.475960 0.353778
vt 0.475832 0.353771
vt 0.475624 0.353763
vt 0.303553 0.348703
vt 0.520977 0.313191
vt 0.524400 0.312942
vt 0.442517 0.347763
vt 0.442132 0.347401
vt 0.523183 0.311870
vt 0.518759 0.311445
vt 0.512446 0.311014
vt 0.495131 0.310206
vt 0.484847 0.309868
vt 0.474076 0.309595
vt 0.463317 0.309401
vt 0.453067 0.309295
vt 0.443787 0.309279
vt 0.585162 0.681771
vt 0.515684 0.689363
vt 0.392562 0.730112
vt 0.644606 0.720464
vt 0.644606 0.704024
vt 0.373811 0.701249
vt 0.643321 0.602672
vt 0.533339 0.716821
vt 0.564538 0.681998
vt 0.334997 0.654295
vt 0.346614 0.633627
vt 0.672059 0.760152
vt 0.399996 0.622999
s 1
usemtl Pine_tree
f 2/1/1 162/2/2 161/3/3
f 4/4/4 163/5/5 162/2/2
f 6/6/6 164/7/7 163/5/5
f 8/8/8 165/9/9 164/7/7
f 10/10/10 166/11/11 165/9/9
f 12/12/12 167/13/13 166/11/11
f 14/14/14 168/15/15 167/13/13
f 16/16/16 169/17/17 168/15/15
f 18/18/18 170/19/19 169/17/17
f 20/20/20 171/21/21 170/19/19
f 171/21/21 24/22/22 172/23/23
f 172/23/23 26/24/24 173/25/25
f 173/25/25 28/26/26 174/27/27
f 174/27/27 30/28/28 175/29/29
f 175/30/29 32/31/30 176/32/31
f 176/32/31 34/33/32 177/34/33
f 177/34/33 36/35/34 178/36/35
f 178/36/35 38/37/36 179/38/37
f 179/38/37 40/39/38 180/40/39
f 180/40/39 42/41/40 181/42/41
f 181/42/41 44/43/42 182/44/43
f 182/44/43 46/45/44 183/46/45
f 183/46/45 48/47/46 184/48/47
f 184/48/47 50/49/48 185/50/49
f 185/50/49 52/51/50 186/52/51
f 186/52/51 54/53/52 187/54/53
f 54/53/52 188/55/54 187/54/53
f 56/56/55 189/57/56 188/55/54
f 58/58/57 190/59/58 189/57/56
f 60/60/59 191/61/60 190/59/58
f 54/62/52 38/63/36 22/64/61
f 62/65/62 192/66/63 191/61/60
f 64/67/64 161/3/3 192/68/63
f 31/69/65 47/70/65 63/71/65
f 96/72/66 1/73/67 63/71/68
f 95/74/69 63/71/68 61/75/70
f 59/76/71 95/77/69 61/78/70
f 93/79/72 59/76/71 57/80/73
f 55/81/74 93/79/72 57/80/73
f 53/82/75 92/83/76 55/81/74
f 90/84/77 53/82/75 51/85/78
f 89/86/79 51/85/78 49/87/80
f 47/88/81 89/86/79 49/87/80
f 45/89/82 88/90/83 47/88/81
f 86/91/84 45/89/82 43/92/85
f 85/93/86 43/92/85 41/94/87
f 84/95/88 41/94/87 39/96/89
f 37/97/90 84/95/88 39/96/89
f 35/98/91 83/99/92 37/97/90
f 33/100/93 82/101/94 35/98/91
f 80/102/95 33/100/93 31/103/96
f 79/104/97 31/103/96 29/105/98
f 27/106/99 79/107/97 29/108/98
f 77/109/100 27/106/99 25/110/101
f 76/111/102 25/110/101 23/112/103
f 75/113/104 23/112/103 21/114/105
f 74/115/106 21/114/105 19/116/107
f 17/117/108 74/115/106 19/116/107
f 15/118/109 73/119/110 17/117/108
f 71/120/111 15/118/109 13/121/112
f 11/122/113 71/120/111 13/121/112
f 9/123/114 70/124/115 11/122/113
f 7/125/116 69/126/117 9/123/114
f 5/127/118 68/128/119 7/125/116
f 66/129/120 5/127/118 3/130/121
f 65/131/122 3/130/121 1/73/67
f 159/132/123 97/133/124 160/134/125
f 158/135/126 128/136/127 159/132/123
f 157/137/128 127/138/129 158/139/126
f 156/140/130 126/141/131 157/137/128
f 155/142/132 125/143/133 156/140/130
f 123/144/134 155/142/132 154/145/135
f 122/146/136 154/145/135 153/147/137
f 121/148/138 153/147/137 152/149/139
f 120/150/140 152/149/139 151/151/141
f 119/152/142 151/151/141 150/153/143
f 118/154/144 150/153/143 149/155/145
f 117/156/146 149/155/145 148/157/147
f 116/158/148 148/157/147 147/159/149
f 115/160/150 147/159/149 146/161/151
f 114/162/152 146/161/151 145/163/153
f 113/164/154 145/163/153 144/165/155
f 112/166/156 144/165/155 143/167/157
f 111/168/158 143/167/157 142/169/159
f 110/170/160 142/171/159 141/172/161
f 109/173/162 141/172/161 140/174/163
f 108/175/164 140/174/163 139/176/165
f 138/177/166 108/175/164 139/176/165
f 137/178/167 107/179/168 138/177/166
f 136/180/169 106/181/170 137/178/167
f 135/182/171 105/183/172 136/180/169
f 134/184/173 104/185/174 135/182/171
f 133/186/175 103/187/176 134/184/173
f 132/188/177 102/189/178 133/186/175
f 131/190/179 101/191/180 132/188/177
f 130/192/181 100/193/182 131/190/179
f 129/194/183 99/195/184 130/192/181
f 160/134/125 98/196/185 129/194/183
f 65/131/122 129/194/183 66/129/120
f 66/129/120 130/192/181 67/197/186
f 67/197/186 131/190/179 68/128/119
f 68/128/119 132/188/177 69/126/117
f 69/126/117 133/186/175 70/124/115
f 70/124/115 134/184/173 71/120/111
f 134/184/173 72/198/187 71/120/111
f 135/182/171 73/119/110 72/198/187
f 136/180/169 74/115/106 73/119/110
f 137/178/167 75/113/104 74/115/106
f 138/177/166 76/111/102 75/113/104
f 139/176/165 77/109/100 76/111/102
f 140/174/163 78/199/188 77/109/100
f 141/172/161 79/107/97 78/199/188
f 142/169/159 80/102/95 79/104/97
f 143/167/157 81/200/189 80/102/95
f 144/165/155 82/101/94 81/200/189
f 145/163/153 83/99/92 82/101/94
f 146/161/151 84/95/88 83/99/92
f 147/159/149 85/93/86 84/95/88
f 148/157/147 86/91/84 85/93/86
f 149/155/145 87/201/190 86/91/84
f 150/153/143 88/90/83 87/201/190
f 151/151/141 89/86/79 88/90/83
f 152/149/139 90/84/77 89/86/79
f 153/147/137 91/202/191 90/84/77
f 91/202/191 155/142/132 92/83/76
f 92/83/76 156/140/130 93/79/72
f 93/79/72 157/137/128 94/203/192
f 94/203/192 158/139/126 95/77/69
f 95/74/69 159/132/123 96/72/66
f 96/72/66 160/134/125 65/131/122
f 192/68/63 97/133/124 128/136/127
f 191/204/60 128/136/127 127/205/129
f 190/59/58 127/138/129 126/141/131
f 189/57/56 126/141/131 125/143/133
f 188/55/54 125/143/133 124/206/193
f 123/144/134 188/55/54 124/206/193
f 122/146/136 187/54/53 123/144/134
f 121/148/138 186/52/51 122/146/136
f 120/150/140 185/50/49 121/148/138
f 119/152/142 184/48/47 120/150/140
f 118/154/144 183/46/45 119/152/142
f 117/156/146 182/44/43 118/154/144
f 116/158/148 181/42/41 117/156/146
f 115/160/150 180/40/39 116/158/148
f 114/162/152 179/38/37 115/160/150
f 113/164/154 178/36/35 114/162/152
f 112/166/156 177/34/33 113/164/154
f 111/168/158 176/32/31 112/166/156
f 110/170/160 175/29/29 111/207/158
f 109/173/162 174/27/27 110/170/160
f 108/175/164 173/25/25 109/173/162
f 107/179/168 172/23/23 108/175/164
f 106/181/170 171/21/21 107/179/168
f 169/17/17 106/181/170 105/183/172
f 168/15/15 105/183/172 104/185/174
f 167/13/13 104/185/174 103/187/176
f 166/11/11 103/187/176 102/189/178
f 165/9/9 102/189/178 101/191/180
f 164/7/7 101/191/180 100/193/182
f 163/5/5 100/193/182 99/195/184
f 162/2/2 99/195/184 98/196/185
f 161/3/3 98/196/185 97/133/124
f 194/208/194 193/209/195 195/210/196
f 196/211/197 208/212/198 209/213/198
f 193/209/195 201/214/199 196/211/197
f 202/215/200 198/216/201 197/217/202
f 198/218/201 204/219/203 203/220/204
f 204/221/203 200/222/205 199/223/206
f 211/224/207 206/225/208 205/226/208
f 211/224/207 194/208/194 210/227/209
f 214/228/210 224/229/211 225/230/211
f 214/228/210 222/231/212 221/232/213
f 222/231/212 216/233/214 215/234/215
f 213/235/216 235/236/217 236/237/217
f 217/238/218 226/239/219 218/240/220
f 229/241/221 220/242/222 219/243/223
f 212/244/224 231/245/225 232/246/225
f 226/247/219 229/248/221 228/249/226
f 253/250/227 239/251/228 237/252/229
f 238/253/230 246/254/231 239/251/228
f 247/255/232 241/256/233 240/257/234
f 238/253/230 248/258/235 241/256/233
f 249/259/236 243/260/237 242/261/238
f 243/262/237 251/263/239 250/264/240
f 251/265/239 245/266/241 244/267/242
f 238/253/230 252/268/243 245/266/241
f 266/269/244 256/270/245 254/271/246
f 255/272/247 267/273/248 256/270/245
f 268/274/249 258/275/250 257/276/251
f 255/277/247 269/278/252 258/279/250
f 270/280/253 260/281/254 259/282/255
f 255/272/247 263/283/256 260/284/254
f 264/285/257 262/286/258 261/287/259
f 262/286/258 266/288/244 265/289/260
f 2/1/1 4/4/4 162/2/2
f 4/4/4 6/6/6 163/5/5
f 6/6/6 8/8/8 164/7/7
f 8/8/8 10/10/10 165/9/9
f 10/10/10 12/12/12 166/11/11
f 12/12/12 14/14/14 167/13/13
f 14/14/14 16/16/16 168/15/15
f 16/16/16 18/18/18 169/17/17
f 18/18/18 20/20/20 170/19/19
f 20/20/20 22/64/61 171/21/21
f 171/21/21 22/64/61 24/22/22
f 172/23/23 24/22/22 26/24/24
f 173/25/25 26/24/24 28/26/26
f 174/27/27 28/26/26 30/28/28
f 175/30/29 30/290/28 32/31/30
f 176/32/31 32/31/30 34/33/32
f 177/34/33 34/33/32 36/35/34
f 178/36/35 36/35/34 38/37/36
f 179/38/37 38/37/36 40/39/38
f 180/40/39 40/39/38 42/41/40
f 181/42/41 42/41/40 44/43/42
f 182/44/43 44/43/42 46/45/44
f 183/46/45 46/45/44 48/47/46
f 184/48/47 48/47/46 50/49/48
f 185/50/49 50/49/48 52/51/50
f 186/52/51 52/51/50 54/53/52
f 54/53/52 56/56/55 188/55/54
f 56/56/55 58/58/57 189/57/56
f 58/58/57 60/60/59 190/59/58
f 60/60/59 62/65/62 191/61/60
f 6/6/6 4/4/4 62/291/62
f 4/4/4 2/1/1 62/291/62
f 2/1/1 64/67/64 62/291/62
f 62/291/62 60/292/59 54/62/52
f 60/292/59 58/293/57 54/62/52
f 58/293/57 56/294/55 54/62/52
f 54/62/52 52/295/50 50/296/48
f 50/296/48 48/297/46 46/298/44
f 46/298/44 44/299/42 42/300/40
f 42/300/40 40/301/38 46/298/44
f 40/301/38 38/63/36 46/298/44
f 38/63/36 36/302/34 34/303/32
f 34/303/32 32/304/30 30/28/28
f 30/28/28 28/26/26 22/64/61
f 28/26/26 26/24/24 22/64/61
f 26/24/24 24/22/22 22/64/61
f 22/64/61 20/20/20 18/18/18
f 18/18/18 16/16/16 14/14/14
f 14/14/14 12/12/12 10/10/10
f 10/10/10 8/8/8 14/14/14
f 8/8/8 6/6/6 14/14/14
f 54/62/52 50/296/48 46/298/44
f 38/63/36 34/303/32 30/28/28
f 22/64/61 18/18/18 14/14/14
f 6/6/6 62/291/62 54/62/52
f 54/62/52 46/298/44 38/63/36
f 38/63/36 30/28/28 22/64/61
f 22/64/61 14/14/14 6/6/6
f 6/6/6 54/62/52 22/64/61
f 62/65/62 64/305/64 192/66/63
f 64/67/64 2/1/1 161/3/3
f 63/71/65 1/73/65 3/130/65
f 3/130/65 5/127/65 7/125/65
f 7/125/65 9/123/65 15/118/65
f 9/123/65 11/122/65 15/118/65
f 11/122/65 13/121/65 15/118/65
f 15/118/65 17/117/65 19/116/65
f 19/116/65 21/114/65 23/112/65
f 23/112/65 25/110/65 31/69/65
f 25/110/65 27/106/65 31/69/65
f 27/106/65 29/108/65 31/69/65
f 31/69/65 33/306/65 35/307/65
f 35/307/65 37/308/65 39/309/65
f 39/309/65 41/310/65 43/311/65
f 43/311/65 45/312/65 39/309/65
f 45/312/65 47/70/65 39/309/65
f 47/70/65 49/313/65 51/314/65
f 51/314/65 53/315/65 55/316/65
f 55/316/65 57/317/65 59/318/65
f 59/318/65 61/75/65 63/71/65
f 63/71/65 3/130/65 15/118/65
f 3/130/65 7/125/65 15/118/65
f 15/118/65 19/116/65 31/69/65
f 19/116/65 23/112/65 31/69/65
f 31/69/65 35/307/65 47/70/65
f 35/307/65 39/309/65 47/70/65
f 47/70/65 51/314/65 63/71/65
f 51/314/65 55/316/65 63/71/65
f 55/316/65 59/318/65 63/71/65
f 63/71/65 15/118/65 31/69/65
f 96/72/66 65/131/122 1/73/67
f 95/74/69 96/72/66 63/71/68
f 59/76/71 94/203/192 95/77/69
f 93/79/72 94/203/192 59/76/71
f 55/81/74 92/83/76 93/79/72
f 53/82/75 91/202/191 92/83/76
f 90/84/77 91/202/191 53/82/75
f 89/86/79 90/84/77 51/85/78
f 47/88/81 88/90/83 89/86/79
f 45/89/82 87/201/190 88/90/83
f 86/91/84 87/201/190 45/89/82
f 85/93/86 86/91/84 43/92/85
f 84/95/88 85/93/86 41/94/87
f 37/97/90 83/99/92 84/95/88
f 35/98/91 82/101/94 83/99/92
f 33/100/93 81/200/189 82/101/94
f 80/102/95 81/200/189 33/100/93
f 79/104/97 80/102/95 31/103/96
f 27/106/99 78/199/188 79/107/97
f 77/109/100 78/199/188 27/106/99
f 76/111/102 77/109/100 25/110/101
f 75/113/104 76/111/102 23/112/103
f 74/115/106 75/113/104 21/114/105
f 17/117/108 73/119/110 74/115/106
f 15/118/109 72/198/187 73/119/110
f 71/120/111 72/198/187 15/118/109
f 11/122/113 70/124/115 71/120/111
f 9/123/114 69/126/117 70/124/115
f 7/125/116 68/128/119 69/126/117
f 5/127/118 67/197/186 68/128/119
f 66/129/120 67/197/186 5/127/118
f 65/131/122 66/129/120 3/130/121
f 159/132/123 128/136/127 97/133/124
f 158/135/126 127/205/129 128/136/127
f 157/137/128 126/141/131 127/138/129
f 156/140/130 125/143/133 126/141/131
f 155/142/132 124/206/193 125/143/133
f 123/144/134 124/206/193 155/142/132
f 122/146/136 123/144/134 154/145/135
f 121/148/138 122/146/136 153/147/137
f 120/150/140 121/148/138 152/149/139
f 119/152/142 120/150/140 151/151/141
f 118/154/144 119/152/142 150/153/143
f 117/156/146 118/154/144 149/155/145
f 116/158/148 117/156/146 148/157/147
f 115/160/150 116/158/148 147/159/149
f 114/162/152 115/160/150 146/161/151
f 113/164/154 114/162/152 145/163/153
f 112/166/156 113/164/154 144/165/155
f 111/168/158 112/166/156 143/167/157
f 110/170/160 111/207/158 142/171/159
f 109/173/162 110/170/160 141/172/161
f 108/175/164 109/173/162 140/174/163
f 138/177/166 107/179/168 108/175/164
f 137/178/167 106/181/170 107/179/168
f 136/180/169 105/183/172 106/181/170
f 135/182/171 104/185/174 105/183/172
f 134/184/173 103/187/176 104/185/174
f 133/186/175 102/189/178 103/187/176
f 132/188/177 101/191/180 102/189/178
f 131/190/179 100/193/182 101/191/180
f 130/192/181 99/195/184 100/193/182
f 129/194/183 98/196/185 99/195/184
f 160/134/125 97/133/124 98/196/185
f 65/131/122 160/134/125 129/194/183
f 66/129/120 129/194/183 130/192/181
f 67/197/186 130/192/181 131/190/179
f 68/128/119 131/190/179 132/188/177
f 69/126/117 132/188/177 133/186/175
f 70/124/115 133/186/175 134/184/173
f 134/184/173 135/182/171 72/198/187
f 135/182/171 136/180/169 73/119/110
f 136/180/169 137/178/167 74/115/106
f 137/178/167 138/177/166 75/113/104
f 138/177/166 139/176/165 76/111/102
f 139/176/165 140/174/163 77/109/100
f 140/174/163 141/172/161 78/199/188
f 141/172/161 142/171/159 79/107/97
f 142/169/159 143/167/157 80/102/95
f 143/167/157 144/165/155 81/200/189
f 144/165/155 145/163/153 82/101/94
f 145/163/153 146/161/151 83/99/92
f 146/161/151 147/159/149 84/95/88
f 147/159/149 148/157/147 85/93/86
f 148/157/147 149/155/145 86/91/84
f 149/155/145 150/153/143 87/201/190
f 150/153/143 151/151/141 88/90/83
f 151/151/141 152/149/139 89/86/79
f 152/149/139 153/147/137 90/84/77
f 153/147/137 154/145/135 91/202/191
f 91/202/191 154/145/135 155/142/132
f 92/83/76 155/142/132 156/140/130
f 93/79/72 156/140/130 157/137/128
f 94/203/192 157/137/128 158/139/126
f 95/74/69 158/135/126 159/132/123
f 96/72/66 159/132/123 160/134/125
f 192/68/63 161/3/3 97/133/124
f 191/204/60 192/68/63 128/136/127
f 190/59/58 191/61/60 127/138/129
f 189/57/56 190/59/58 126/141/131
f 188/55/54 189/57/56 125/143/133
f 123/144/134 187/54/53 188/55/54
f 122/146/136 186/52/51 187/54/53
f 121/148/138 185/50/49 186/52/51
f 120/150/140 184/48/47 185/50/49
f 119/152/142 183/46/45 184/48/47
f 118/154/144 182/44/43 183/46/45
f 117/156/146 181/42/41 182/44/43
f 116/158/148 180/40/39 181/42/41
f 115/160/150 179/38/37 180/40/39
f 114/162/152 178/36/35 179/38/37
f 113/164/154 177/34/33 178/36/35
f 112/166/156 176/32/31 177/34/33
f 111/168/158 175/30/29 176/32/31
f 110/170/160 174/27/27 175/29/29
f 109/173/162 173/25/25 174/27/27
f 108/175/164 172/23/23 173/25/25
f 107/179/168 171/21/21 172/23/23
f 106/181/170 170/19/19 171/21/21
f 169/17/17 170/19/19 106/181/170
f 168/15/15 169/17/17 105/183/172
f 167/13/13 168/15/15 104/185/174
f 166/11/11 167/13/13 103/187/176
f 165/9/9 166/11/11 102/189/178
f 164/7/7 165/9/9 101/191/180
f 163/5/5 164/7/7 100/193/182
f 162/2/2 163/5/5 99/195/184
f 161/3/3 162/2/2 98/196/185
f 207/319/198 195/210/196 209/213/198
f 195/210/196 193/209/195 209/213/198
f 193/209/195 196/211/197 209/213/198
f 193/209/195 202/215/200 201/214/199
f 202/215/200 193/209/195 198/216/201
f 198/218/201 193/320/195 204/219/203
f 204/221/203 193/209/195 200/222/205
f 205/226/208 200/222/205 211/224/207
f 200/222/205 193/209/195 211/224/207
f 211/224/207 193/209/195 194/208/194
f 223/321/211 212/244/224 225/230/211
f 212/244/224 213/235/216 225/230/211
f 213/235/216 214/228/210 225/230/211
f 214/228/210 213/235/216 222/231/212
f 222/231/212 213/235/216 216/233/214
f 233/322/217 216/233/214 236/237/217
f 216/233/214 213/235/216 236/237/217
f 213/235/216 217/238/218 235/236/217
f 217/238/218 234/323/217 235/236/217
f 217/238/218 213/235/216 226/239/219
f 229/241/221 213/235/216 220/242/222
f 230/324/225 220/242/222 232/246/225
f 220/242/222 213/235/216 232/246/225
f 213/235/216 212/244/224 232/246/225
f 228/249/226 227/325/226 226/247/219
f 226/247/219 213/326/216 229/248/221
f 253/250/227 238/253/230 239/251/228
f 238/253/230 247/255/232 246/254/231
f 247/255/232 238/253/230 241/256/233
f 238/327/230 249/328/236 248/329/235
f 249/328/236 238/327/230 243/262/237
f 243/262/237 238/327/230 251/263/239
f 251/263/239 238/327/230 245/330/241
f 238/253/230 253/250/227 252/268/243
f 266/269/244 255/272/247 256/270/245
f 255/272/247 268/274/249 267/273/248
f 268/274/249 255/272/247 258/275/250
f 255/277/247 270/280/253 269/278/252
f 270/280/253 255/277/247 260/281/254
f 255/277/247 264/285/257 263/331/256
f 264/285/257 255/277/247 262/286/258
f 262/286/258 255/277/247 266/288/244
