# Blender 4.3.2
# www.blender.org
mtllib Tree.mtl
o Cube
v 1.111415 -1.412113 3.166964
v 2.727209 -2.733307 1.000000
v -0.614114 -0.707616 3.095417
v -3.022533 -3.473183 1.000000
v 0.909611 1.228402 2.837114
v 3.613182 3.162533 1.000000
v -1.751298 1.031405 2.888067
v -3.022533 3.162533 1.000000
v 2.727209 0.022791 1.000000
v -0.665059 -0.041021 3.012146
v -3.022533 -0.120179 1.000000
v 1.009444 -0.077870 3.000292
v 1.533187 -0.223286 5.970049
v 0.243357 -0.560220 5.991651
v 1.196795 1.066485 6.001411
v -0.093036 0.729551 6.023014
v 0.073379 0.091497 6.007499
v 1.363209 0.428431 5.985896
v -0.484233 -0.498747 11.393713
v -1.728066 -0.969045 11.406726
v -1.340929 0.741964 12.054176
v -2.269711 0.390284 12.066844
v -1.963103 -0.368174 11.600609
v -1.175008 0.298982 11.921288
v 0.626101 -2.062729 15.582603
v -0.551267 -2.846681 15.397680
v 0.681020 -0.877611 16.110128
v -0.526835 -1.619062 15.947930
v -0.535811 -2.232378 15.673853
v 0.642987 -1.490154 15.868484
v 1.013572 -2.347133 19.125978
v -0.555429 -2.785865 19.332846
v 1.072987 -1.371863 19.820234
v -0.020583 -1.622776 19.827551
v -0.320933 -2.151044 19.571096
v 1.034617 -1.893498 19.418398
v 8.196577 -1.688284 20.542273
v 7.619105 -0.748148 21.290819
v 7.904782 -1.213236 20.920509
v -5.458977 0.625736 20.974293
v -3.976539 2.200581 21.437931
v -5.031975 1.826964 21.364643
v -5.243216 1.232712 21.171534
v -3.910831 1.620381 21.131178
v -1.139666 -1.907863 13.402203
v -1.249457 -1.300276 13.637231
v -1.677783 -0.286667 13.631618
v -0.169391 -0.057874 13.957734
v -0.041478 -0.661886 13.716767
v 0.068312 -1.269473 13.481739
v 0.851770 -1.662559 17.673834
v 0.860185 -2.290200 17.347080
v -0.342910 -2.522956 17.985775
v -0.408859 -2.224772 17.617443
v -0.281470 -1.634841 17.856354
v 0.842482 -1.076799 17.974026
v 0.735129 -2.165061 16.463202
v -0.675741 -1.256998 16.591721
v -0.639046 -0.950258 16.722851
v 0.759201 -0.951881 17.038076
v 0.733858 -1.557841 16.781326
v -0.611395 -0.623342 16.853310
v -0.470457 -1.984960 14.818962
v -0.938812 -1.168190 14.905787
v -0.892634 -1.766327 14.655542
v 0.253861 -0.457020 15.038014
v 0.300040 -1.055156 14.787771
v 0.347207 -1.666101 14.532171
v -2.764880 0.869525 12.540536
v -3.160512 1.594351 13.215476
v -3.637801 1.368204 13.220491
v -2.928551 1.326630 12.667572
v -3.365765 1.047950 13.974453
v -2.907905 1.295971 13.997311
v -5.938103 3.276631 15.631647
v -6.093294 3.220349 15.633533
v -5.997434 3.108063 15.894676
v -5.845689 3.182744 15.905404
v 2.584565 -4.918844 15.760633
v 1.711338 -5.540133 16.058880
v 2.089652 -5.339676 16.372238
v 1.713145 -5.537288 16.349403
v 2.781713 -6.292091 18.753937
v 2.143023 -6.552190 18.817457
v 2.794524 -6.401418 18.008699
v 2.272223 -6.752417 18.019039
v 5.899911 -10.542486 20.064346
v 5.603315 -10.680840 20.090670
v 5.929202 -10.627064 19.718590
v 5.691487 -10.807220 19.726933
v -0.707419 1.382694 16.720760
v -1.261365 0.934525 16.623266
v -0.688954 1.086771 16.570219
v -0.641437 1.308663 17.181173
v -0.572145 1.628713 17.364906
v -1.187138 0.917673 17.103018
v -3.024346 3.330006 17.984989
v -3.210806 3.121345 17.929432
v -3.000072 3.225300 17.908516
v -2.981428 3.281397 18.160208
v -2.972376 3.400108 18.249723
v -3.168231 3.094369 18.115419
v -4.108521 1.775333 15.093225
v -4.307718 1.411357 14.339556
v -3.965558 2.310578 14.411989
v -4.491666 1.627626 13.832004
v 4.361863 -8.514240 18.863644
v 3.981855 -8.779819 18.872986
v 4.340812 -8.417289 19.409142
v 3.873169 -8.616514 19.454063
v 4.323690 -1.027372 20.554855
v 4.483382 -1.544964 20.204700
v 4.605074 -2.017708 19.834126
v -1.772261 2.514410 17.807314
v -1.811433 2.295030 17.670691
v -2.177685 2.006021 17.609219
v -2.236085 2.027935 17.276348
v -1.865882 2.356350 17.352875
v -1.844513 2.156035 17.239368
v -1.739154 5.299668 14.675827
v -1.662311 5.196073 14.918571
v -2.151577 5.438783 15.222449
v -2.203579 5.508720 15.059026
v 0.809012 -0.262869 1.474262
v -0.309013 -0.951058 2.000000
v 0.499995 0.162456 1.149346
v 0.499997 0.688189 1.474264
v 0.000000 0.000000 3.000000
v 0.000000 -0.894426 2.447216
v -0.809012 -0.262869 1.474262
v 0.000000 0.525730 1.149348
v 0.850649 -0.276388 2.447220
v 0.525725 0.723607 2.447220
v -0.499997 0.688189 1.474264
v -0.309011 -0.425323 1.149346
v 0.000000 -0.850648 1.474264
v 0.309011 -0.425323 1.149346
v -0.499995 0.162456 1.149346
v 0.499995 -0.162456 2.850654
v 0.000000 -0.525730 2.850652
v 0.499997 -0.688189 2.525736
v -0.309011 0.425323 2.850654
v -0.525725 0.723607 2.447220
v -0.850649 -0.276388 2.447220
v 0.525725 -0.723607 1.552781
v -0.309013 0.951058 2.000000
v 1.000000 0.000000 2.000000
v 0.309013 -0.951058 2.000000
v -0.809017 0.587786 2.000000
v -0.499997 -0.688189 2.525736
v -0.809012 0.262869 2.525738
v 0.850649 0.276388 1.552780
v 0.000000 0.894426 1.552784
v -0.850649 0.276388 1.552780
v -0.525725 -0.723607 1.552781
v -0.499995 -0.162456 2.850654
v 0.309011 0.425323 2.850654
v -1.000000 0.000000 2.000000
v 0.000000 0.000000 1.000000
v -0.809017 -0.587786 2.000000
v 0.309013 0.951058 2.000000
v 0.809017 0.587786 2.000000
v 0.000000 0.850648 2.525736
v 0.809017 -0.587786 2.000000
v 0.809012 0.262869 2.525738
v 4.028053 -2.721824 23.547403
v 2.922734 -2.898654 23.624256
v 2.561880 -3.366731 23.331451
v 3.915845 -3.181141 23.087530
vn -0.6874 -0.6615 0.2999
vn -0.8295 -0.0000 0.5585
vn -0.0000 0.6887 0.7251
vn -0.0000 -0.0000 -1.0000
vn 0.1046 -0.8126 0.5734
vn 0.8017 -0.0000 0.5978
vn 0.6377 -0.1799 0.7490
vn -0.6564 -0.0000 0.7544
vn 0.9838 0.0538 -0.1709
vn 0.9086 0.2285 0.3496
vn 0.8943 0.2238 0.3873
vn 0.9548 0.2528 -0.1560
vn -0.9695 -0.0440 0.2410
vn -0.2510 0.9653 0.0722
vn -0.3788 -0.9118 0.1586
vn -0.5045 0.7164 0.4820
vn -0.3515 -0.8918 -0.2850
vn 0.3536 -0.9336 0.0582
vn -0.9053 -0.2414 -0.3495
vn -0.2532 0.9659 -0.0544
vn -0.9252 -0.1635 -0.3424
vn 0.9067 0.4192 -0.0459
vn 0.9948 0.0570 -0.0840
vn -0.9382 -0.1927 0.2875
vn 0.9568 0.1719 -0.2344
vn 0.9676 0.1573 -0.1975
vn 0.4614 -0.5241 -0.7159
vn 0.1122 -0.2867 0.9514
vn 0.2322 -0.4158 0.8793
vn -0.9865 -0.1561 0.0503
vn -0.2188 0.9589 0.1806
vn -0.8865 0.4484 0.1146
vn 0.9933 0.0647 -0.0955
vn 0.0935 0.6547 -0.7501
vn -0.1001 -0.6297 0.7704
vn 0.1293 -0.3477 0.9286
vn -0.0769 0.3327 -0.9399
vn -0.0789 0.3165 -0.9453
vn -0.0629 0.3286 -0.9424
vn -0.1506 -0.5963 0.7885
vn 0.3063 -0.8234 -0.4777
vn 0.9572 0.2371 -0.1658
vn 0.8677 0.3315 -0.3704
vn -0.8843 -0.4448 0.1421
vn -0.9071 -0.3985 0.1355
vn -0.2294 0.5776 -0.7834
vn 0.9915 0.0134 -0.1294
vn -0.9586 -0.0319 0.2831
vn -0.4523 0.8778 0.1574
vn 0.9892 0.1259 -0.0752
vn 0.9890 0.0702 -0.1300
vn -0.1918 -0.7489 -0.6343
vn -0.0372 -0.0445 0.9983
vn 0.9924 0.0303 -0.1193
vn -0.8521 0.2886 -0.4366
vn -0.4878 -0.3528 0.7985
vn -0.9295 0.2018 -0.3088
vn 0.8202 0.4093 -0.3997
vn 0.4641 -0.8451 -0.2652
vn 0.9549 0.1743 -0.2405
vn -0.8907 -0.3749 0.2571
vn -0.9433 -0.2534 0.2145
vn -0.4909 0.7369 0.4646
vn -0.3598 -0.7994 0.4812
vn -0.6322 -0.7685 -0.0983
vn 0.0520 -0.1863 0.9811
vn 0.1955 0.9112 -0.3625
vn -0.3120 0.1491 -0.9383
vn 0.4420 0.8911 0.1024
vn -0.4247 0.8027 0.4187
vn 0.6417 0.7656 0.0459
vn -0.7228 -0.6904 -0.0322
vn -0.1053 0.6896 -0.7165
vn 0.4644 -0.8856 0.0058
vn 0.2008 -0.0711 -0.9770
vn 0.8252 0.5636 -0.0367
vn -0.7384 -0.4410 0.5101
vn 0.1614 -0.2644 -0.9508
vn 0.1157 -0.0417 0.9924
vn -0.8053 -0.5450 -0.2334
vn -0.4125 -0.2619 -0.8725
vn 0.4178 -0.8220 0.3869
vn 0.8146 0.5756 -0.0709
vn -0.7712 -0.6357 0.0344
vn -0.0395 0.2678 0.9627
vn -0.7195 -0.6897 0.0808
vn -0.0790 -0.5168 0.8525
vn -0.0211 -0.1676 0.9856
vn -0.0276 0.2449 -0.9692
vn -0.8994 -0.3335 0.2828
vn -0.1935 -0.3496 0.9167
vn -0.7042 0.6208 0.3447
vn -0.9974 0.0245 0.0684
vn -0.1665 0.3899 -0.9057
vn 0.1106 -0.3346 0.9358
vn 0.4225 0.7923 -0.4402
vn 0.0529 -0.4880 0.8712
vn -0.3347 0.6921 -0.6395
vn -0.4244 -0.8784 -0.2200
vn -0.5665 0.4810 -0.6691
vn -0.1572 -0.8724 0.4629
vn -0.0258 0.2772 0.9605
vn -0.7712 -0.6357 0.0346
vn 0.8146 0.5758 -0.0705
vn 0.1598 -0.2657 -0.9507
vn -0.1114 -0.6307 0.7680
vn 0.1196 0.6003 -0.7907
vn 0.1022 -0.4460 0.8892
vn 0.3689 0.7642 -0.5291
vn 0.1084 -0.3364 0.9355
vn -0.1609 0.3956 -0.9042
vn -0.0483 -0.4894 0.8707
vn -0.7174 -0.6913 0.0867
vn 0.5273 0.8289 0.1869
vn 0.4166 -0.2533 0.8731
vn 0.9059 -0.2013 -0.3727
vn -0.8275 0.3705 0.4219
vn -0.9342 0.3035 0.1876
vn -0.3151 -0.8897 0.3304
vn -0.9435 0.0247 0.3304
vn -0.7779 0.5346 0.3304
vn -0.7488 0.5746 -0.3304
vn -0.5773 -0.7947 0.1876
vn 0.9435 0.0247 0.3304
vn -0.0000 0.6071 0.7947
vn -0.9435 0.3066 -0.1256
vn -0.3151 0.8897 -0.3304
vn -0.7488 -0.5746 0.3304
vn -0.7488 -0.0385 0.6617
vn -0.0000 0.3313 0.9435
vn -0.5831 -0.8026 -0.1256
vn -0.3568 0.4911 -0.7947
vn -0.3568 -0.4911 0.7947
vn 0.5831 0.4713 0.6617
vn 0.2680 0.9050 0.3304
vn 0.9435 0.3066 -0.1256
vn 0.6284 0.4089 -0.6617
vn 0.2680 -0.9050 -0.3304
vn -0.5831 0.4713 0.6617
vn 0.2680 0.7002 0.6617
vn 0.7488 0.0385 -0.6617
vn 0.5831 -0.8026 -0.1256
vn -0.6284 -0.4089 0.6617
vn -0.0000 -0.9921 0.1256
vn 0.1947 -0.7240 0.6617
vn 0.5773 0.1876 0.7947
vn -0.0000 -0.9822 -0.1876
vn -0.2680 0.9050 0.3304
vn -0.1947 -0.2680 0.9435
vn -0.7488 0.0385 -0.6617
vn 0.9435 -0.3066 0.1256
vn -0.5773 -0.1876 -0.7947
vn 0.3568 0.4911 -0.7947
vn -0.1947 0.7240 -0.6617
vn 0.7488 -0.0385 0.6617
vn 0.1947 0.2680 -0.9435
vn -0.3151 -0.1024 -0.9435
vn -0.2680 -0.9050 -0.3304
vn -0.0000 0.9822 0.1876
vn 0.9342 -0.3035 -0.1876
vn 0.3151 0.1024 0.9435
vn 0.1947 -0.2680 0.9435
vn 0.9435 -0.0247 -0.3304
vn 0.6284 -0.4089 0.6617
vn -0.1947 -0.7240 0.6617
vn -0.6284 0.4089 -0.6617
vn -0.5831 -0.4713 -0.6617
vn 0.3151 -0.1024 -0.9435
vn -0.2680 -0.7002 -0.6617
vn 0.7488 0.5746 -0.3304
vn -0.9435 -0.0247 -0.3304
vn -0.1947 0.2680 -0.9435
vn 0.5773 -0.7947 0.1876
vn 0.3568 -0.4911 0.7947
vn -0.9435 -0.3066 0.1256
vn -0.3151 0.1024 0.9435
vn 0.3151 -0.8897 0.3304
vn -0.0000 -0.6071 -0.7947
vn 0.7779 0.5346 0.3304
vn 0.1947 0.7240 -0.6617
vn 0.5773 0.7947 -0.1876
vn 0.3151 0.8897 -0.3304
vn 0.5831 0.8026 0.1256
vn -0.7779 -0.5346 -0.3304
vn 0.7779 -0.5346 -0.3304
vn -0.0000 0.9921 -0.1256
vn -0.9342 -0.3035 -0.1876
vn 0.7488 -0.5746 0.3304
vn -0.2680 0.7002 0.6617
vn 0.5773 -0.1876 -0.7947
vn -0.5773 0.1876 0.7947
vn 0.2680 -0.7002 -0.6617
vn -0.0000 -0.3313 -0.9435
vn -0.5773 0.7947 -0.1876
vn 0.9342 0.3035 0.1876
vn 0.5831 -0.4713 -0.6617
vn -0.5831 0.8026 0.1256
vn 0.1287 -0.9105 -0.3930
vn 0.1973 -0.8729 -0.4463
vn 0.7661 -0.1300 -0.6294
vn -0.7953 -0.3207 0.5144
vn -0.9374 -0.2504 0.2422
vn -0.5575 -0.4869 0.6724
vn -0.0337 0.6514 0.7580
vn -0.2227 -0.4581 0.8606
vn 0.7479 0.1383 0.6492
vn -0.6494 0.0452 0.7591
vn 0.8100 0.4656 0.3565
vn 0.8955 0.2193 0.3872
vn 0.9941 0.0651 -0.0869
vn -0.9253 -0.2483 0.2866
vn -0.0707 0.9887 0.1326
vn 0.2424 -0.9057 0.3477
vn -0.4834 0.7175 0.5015
vn -0.9968 0.0525 -0.0610
vn 0.2532 -0.9664 0.0451
vn -0.9091 -0.2286 -0.3482
vn -0.3540 0.9322 -0.0752
vn -0.9086 -0.2285 -0.3496
vn 0.9083 0.4132 -0.0651
vn 0.9946 0.0194 -0.1017
vn -0.9527 -0.1123 0.2824
vn 0.9362 0.0771 -0.3428
vn 0.9593 0.1030 -0.2630
vn 0.2108 -0.8947 -0.3938
vn 0.1549 -0.2482 0.9563
vn 0.1946 -0.5378 0.8203
vn -0.9261 0.3699 -0.0739
vn -0.4486 0.8921 0.0539
vn -0.9798 0.1967 0.0367
vn 0.9925 0.0200 -0.1207
vn 0.1298 0.5827 -0.8022
vn -0.0884 -0.6531 0.7521
vn 0.1001 -0.4562 0.8842
vn -0.0544 0.3684 -0.9281
vn -0.0548 0.3389 -0.9392
vn 0.0056 0.4342 -0.9008
vn -0.0514 -0.4713 0.8805
vn 0.4469 -0.7943 -0.4115
vn 0.7228 0.6852 -0.0896
vn 0.8415 0.4179 -0.3423
vn -0.9119 -0.3845 0.1435
vn -0.9562 -0.2385 0.1698
vn -0.2701 0.5525 -0.7886
vn 0.9951 0.0572 -0.0809
vn -0.9393 0.0666 0.3365
vn 0.0776 0.7147 0.6952
vn -0.9700 0.0123 0.2427
vn 0.9896 0.0766 -0.1217
vn -0.5434 -0.8384 -0.0418
vn 0.0850 -0.0090 0.9963
vn 0.9941 0.0519 -0.0951
vn -0.9325 0.1673 -0.3200
vn 0.4431 0.3340 -0.8319
vn -0.9612 0.1242 -0.2463
vn 0.8812 0.4698 -0.0529
vn 0.9450 0.2516 -0.2090
vn 0.9215 0.2956 -0.2518
vn -0.9512 -0.1787 0.2515
vn -0.5095 -0.8381 0.1951
vn -0.2490 0.7229 0.6445
vn 0.1217 -0.3791 0.9173
vn -0.6293 -0.7713 -0.0956
vn -0.1509 -0.3324 0.9310
vn -0.3004 0.1691 -0.9387
vn -0.1959 0.4172 -0.8874
vn 0.5016 0.8497 0.1622
vn -0.2965 0.8331 0.4670
vn 0.6172 0.5506 0.5621
vn -0.7226 -0.6906 -0.0317
vn -0.2328 0.6166 -0.7521
vn 0.5454 -0.8283 -0.1286
vn -0.1922 -0.1918 -0.9624
vn 0.6557 0.2594 0.7091
vn -0.7670 -0.6416 0.0111
vn 0.1653 -0.2621 -0.9508
vn 0.1402 -0.0349 0.9895
vn -0.8505 -0.5259 -0.0057
vn 0.0664 -0.1280 -0.9895
vn 0.5919 -0.7699 0.2385
vn 0.8146 0.5755 -0.0718
vn -0.7711 -0.6359 0.0340
vn -0.0250 0.2754 0.9610
vn -0.7226 -0.6882 0.0656
vn -0.1415 -0.5891 0.7956
vn -0.1710 -0.1674 0.9709
vn -0.0231 0.2494 -0.9681
vn -0.9218 -0.3654 0.1298
vn -0.3561 -0.4413 0.8237
vn -0.7534 0.6040 0.2601
vn 0.9369 0.3200 -0.1407
vn -0.1632 0.3946 -0.9042
vn 0.1081 -0.3361 0.9356
vn 0.3933 0.7541 -0.5259
vn -0.0676 -0.5986 0.7982
vn -0.2383 0.7288 -0.6420
vn -0.4243 -0.8783 -0.2205
vn -0.4617 0.4132 -0.7849
vn 0.3324 -0.6745 0.6592
vn -0.0187 0.2803 0.9597
vn -0.7711 -0.6358 0.0344
vn 0.8146 0.5757 -0.0709
vn 0.1617 -0.2648 -0.9507
vn -0.1161 -0.5343 0.8373
vn 0.1202 0.5814 -0.8047
vn 0.0664 -0.4865 0.8711
vn 0.3636 0.7439 -0.5607
vn 0.1074 -0.3369 0.9354
vn -0.0685 -0.5185 0.8523
vn -0.7182 -0.6911 0.0805
vn 0.5273 0.8289 0.1868
vn 0.5494 -0.3542 0.7568
vn 0.9068 -0.2020 -0.3701
vn -0.8706 0.4588 0.1778
vn 0.0599 -0.9263 -0.3721
vn 0.1151 -0.9013 -0.4177
vn 0.7482 -0.1768 -0.6395
vn -0.7949 -0.3325 0.5075
vt 0.776259 0.759385
vt 0.775112 0.764567
vt 0.774203 0.758832
vt 0.775831 0.755125
vt 0.770289 0.755323
vt 0.774560 0.759734
vt 0.772216 0.757928
vt 0.781290 0.757297
vt 0.776913 0.757441
vt 0.778897 0.760204
vt 0.781561 0.754921
vt 0.777378 0.759506
vt 0.776702 0.759966
vt 0.777060 0.764922
vt 0.775958 0.764925
vt 0.777081 0.773521
vt 0.774877 0.764928
vt 0.775548 0.774332
vt 0.776211 0.764565
vt 0.777332 0.764562
vt 0.777189 0.779993
vt 0.779033 0.781518
vt 0.778009 0.781916
vt 0.779669 0.779502
vt 0.780098 0.781018
vt 0.779201 0.779166
vt 0.777608 0.773290
vt 0.776508 0.773602
vt 0.774742 0.774546
vt 0.775108 0.774391
vt 0.780486 0.784108
vt 0.787674 0.786649
vt 0.787832 0.785336
vt 0.779407 0.784693
vt 0.780640 0.787297
vt 0.778150 0.779617
vt 0.779050 0.781479
vt 0.778223 0.779549
vt 0.780026 0.780967
vt 0.779278 0.779095
vt 0.781165 0.780514
vt 0.780050 0.788101
vt 0.772344 0.791116
vt 0.772641 0.791259
vt 0.781125 0.787662
vt 0.780678 0.785202
vt 0.780136 0.784532
vt 0.778398 0.785232
vt 0.779183 0.788570
vt 0.778971 0.788548
vt 0.779130 0.784974
vt 0.779862 0.787824
vt 0.779936 0.789188
vt 0.779236 0.790951
vt 0.780026 0.790326
vt 0.780737 0.788547
vt 0.771595 0.791626
vt 0.773718 0.790881
vt 0.771251 0.791711
vt 0.779385 0.776898
vt 0.777468 0.777635
vt 0.778531 0.777227
vt 0.776404 0.778051
vt 0.776436 0.777261
vt 0.778304 0.777312
vt 0.772734 0.776327
vt 0.778159 0.783563
vt 0.779193 0.783101
vt 0.777847 0.782910
vt 0.777283 0.783151
vt 0.780235 0.782531
vt 0.778374 0.782668
vt 0.786181 0.782367
vt 0.785885 0.782437
vt 0.773376 0.784094
vt 0.773913 0.783756
vt 0.774290 0.782652
vt 0.772094 0.779643
vt 0.769009 0.780969
vt 0.772700 0.778212
vt 0.773634 0.777664
vt 0.772993 0.776254
vt 0.773326 0.777776
vt 0.773281 0.775371
vt 0.774132 0.775160
vt 0.768728 0.780475
vt 0.768927 0.781006
vt 0.768774 0.780461
vt 0.772261 0.777250
vt 0.771191 0.778409
vt 0.786176 0.781856
vt 0.785206 0.781416
vt 0.791569 0.786862
vt 0.795512 0.788363
vt 0.792008 0.786872
vt 0.788069 0.786751
vt 0.788393 0.785335
vt 0.795086 0.788943
vt 0.795324 0.788993
vt 0.791432 0.787812
vt 0.795206 0.788347
vt 0.791757 0.787890
vt 0.772240 0.784461
vt 0.769917 0.785016
vt 0.772189 0.783845
vt 0.771466 0.784847
vt 0.769704 0.785457
vt 0.771842 0.784593
vt 0.774446 0.783580
vt 0.774399 0.782705
vt 0.773771 0.782924
vt 0.769607 0.785128
vt 0.769975 0.785365
vt 0.769804 0.784986
vt 0.769493 0.785625
vt 0.771723 0.784008
vt 0.772083 0.783800
vt 0.766720 0.779219
vt 0.766919 0.779659
vt 0.766171 0.779855
vt 0.766306 0.780154
vt 0.775186 0.757714
vt 0.776113 0.757608
vt 0.775722 0.758553
vt 0.777843 0.757824
vt 0.777817 0.758668
vt 0.777369 0.758619
vt 0.776607 0.758380
vt 0.775030 0.758556
vt 0.775099 0.756989
vt 0.775692 0.756955
vt 0.777133 0.757650
vt 0.776573 0.758369
vt 0.776103 0.759151
vt 0.776989 0.759013
vt 0.775721 0.759501
vt 0.774951 0.758886
vt 0.775573 0.759276
vt 0.774884 0.757322
vt 0.774712 0.757926
vt 0.776499 0.759176
vt 0.776346 0.759610
vt 0.777419 0.757028
vt 0.775487 0.756656
vt 0.775964 0.756436
vt 0.777211 0.759341
vt 0.775287 0.758946
vt 0.774866 0.758160
vt 0.776091 0.757616
vt 0.775577 0.758328
vt 0.776196 0.756832
vt 0.775342 0.757379
vt 0.777740 0.757101
vt 0.777644 0.757438
vt 0.777973 0.758060
vt 0.776956 0.757446
vt 0.777485 0.758267
vt 0.777585 0.758990
vt 0.776726 0.759540
vt 0.776593 0.756814
vt 0.776973 0.756480
vt 0.776346 0.756388
vt 0.777110 0.756725
vt 0.782749 0.794851
vt 0.782005 0.795343
vt 0.782635 0.794292
vt 0.781883 0.795097
vt 0.779050 0.789797
vt 0.780826 0.789692
s 0
usemtl Material
f 10/1/1 16/2/1 7/3/1
f 11/4/2 7/3/2 8/5/2
f 8/5/3 5/6/3 6/7/3
f 2/8/4 11/4/4 9/9/4
f 1/10/5 4/11/5 2/8/5
f 9/9/6 1/10/6 2/8/6
f 5/6/7 9/9/7 6/7/7
f 9/9/4 8/5/4 6/7/4
f 3/12/8 11/4/8 4/11/8
f 12/13/9 13/14/9 1/10/9
f 18/15/10 19/16/10 13/14/10
f 15/17/11 24/18/11 18/15/11
f 12/13/12 15/17/12 18/15/12
f 3/12/13 17/19/13 10/1/13
f 5/6/14 16/2/14 15/17/14
f 1/10/15 14/20/15 3/12/15
f 66/21/16 28/22/16 27/23/16
f 63/24/17 29/25/17 65/26/17
f 14/20/18 19/16/18 20/27/18
f 17/19/19 20/27/19 23/28/19
f 16/2/20 21/29/20 15/17/20
f 16/2/21 23/28/21 22/30/21
f 52/31/22 83/32/22 85/33/22
f 51/34/23 31/35/23 52/31/23
f 65/26/24 28/22/24 64/36/24
f 66/21/25 30/37/25 67/38/25
f 67/38/26 25/39/26 68/40/26
f 63/24/27 25/39/27 26/41/27
f 35/42/28 44/43/28 43/44/28
f 31/35/29 35/42/29 32/45/29
f 53/46/30 35/42/30 54/47/30
f 56/48/31 34/49/31 33/50/31
f 55/51/32 35/42/32 34/49/32
f 56/48/33 36/52/33 51/34/33
f 112/53/34 38/54/34 39/55/34
f 113/56/35 39/55/35 112/53/35
f 44/43/36 42/57/36 43/44/36
f 35/42/37 40/58/37 43/44/37
f 34/49/38 41/59/38 33/50/38
f 34/49/39 43/44/39 42/57/39
f 33/50/40 44/43/40 36/52/40
f 19/16/41 45/60/41 20/27/41
f 19/16/42 49/61/42 50/62/42
f 24/18/43 48/63/43 49/61/43
f 23/28/44 47/64/44 22/30/44
f 20/27/45 46/65/45 23/28/45
f 22/30/46 70/66/46 21/29/46
f 60/67/47 51/34/47 61/68/47
f 59/69/48 55/51/48 62/70/48
f 60/67/49 55/51/49 56/48/49
f 59/69/50 53/46/50 54/47/50
f 61/68/51 52/31/51 57/71/51
f 58/72/52 52/31/52 53/46/52
f 57/71/53 82/73/53 81/74/53
f 30/37/54 57/71/54 25/39/54
f 29/25/55 58/72/55 59/69/55
f 60/67/56 95/75/56 94/76/56
f 28/22/57 59/69/57 62/70/57
f 61/68/58 93/77/58 95/75/58
f 50/62/59 63/24/59 45/60/59
f 50/62/26 67/38/26 68/40/26
f 49/61/60 66/21/60 67/38/60
f 46/65/61 64/36/61 47/64/61
f 45/60/62 65/26/62 46/65/62
f 48/63/63 64/36/63 66/21/63
f 103/78/64 77/79/64 104/80/64
f 22/30/65 73/81/65 71/82/65
f 47/64/66 74/83/66 73/81/66
f 21/29/67 72/84/67 70/66/67
f 24/18/68 69/85/68 72/84/68
f 21/29/69 74/83/69 48/63/69
f 75/86/70 77/79/70 78/87/70
f 103/78/71 75/86/71 78/87/71
f 104/80/72 76/88/72 106/89/72
f 106/89/73 75/86/73 105/90/73
f 80/91/74 81/74/74 82/73/74
f 25/39/75 80/91/75 26/41/75
f 57/71/76 79/92/76 25/39/76
f 26/41/77 82/73/77 58/72/77
f 107/93/78 90/94/78 108/95/78
f 31/35/79 84/96/79 83/32/79
f 53/46/80 84/96/80 32/45/80
f 52/31/81 86/97/81 53/46/81
f 90/94/82 87/98/82 88/99/82
f 109/100/83 89/101/83 107/93/83
f 108/95/84 88/99/84 110/102/84
f 109/100/85 88/99/85 87/98/85
f 116/103/86 98/104/86 117/105/86
f 114/106/87 100/107/87 115/108/87
f 62/70/88 94/76/88 96/109/88
f 27/23/89 92/110/89 91/111/89
f 62/70/90 92/110/90 28/22/90
f 27/23/91 93/77/91 30/37/91
f 97/112/92 102/113/92 100/107/92
f 99/114/93 100/107/93 101/115/93
f 118/116/94 98/104/94 97/112/94
f 116/103/95 100/107/95 102/113/95
f 114/106/96 99/114/96 101/115/96
f 118/116/97 99/114/97 119/117/97
f 71/82/98 105/90/98 70/66/98
f 73/81/99 106/89/99 71/82/99
f 105/90/100 120/118/100 70/66/100
f 73/81/101 103/78/101 104/80/101
f 83/32/102 110/102/102 109/100/102
f 86/97/103 110/102/103 84/96/103
f 83/32/104 107/93/104 85/33/104
f 85/33/105 108/95/105 86/97/105
f 36/52/106 113/56/106 112/53/106
f 33/50/107 112/53/107 36/52/107
f 91/111/108 119/117/108 93/77/108
f 95/75/109 119/117/109 114/106/109
f 96/109/110 115/108/110 116/103/110
f 92/110/111 118/116/111 91/111/111
f 95/75/112 115/108/112 94/76/112
f 96/109/113 117/105/113 92/110/113
f 121/119/114 123/120/114 122/121/114
f 103/78/115 121/119/115 122/121/115
f 74/83/116 120/118/116 121/119/116
f 105/90/117 122/121/117 123/120/117
f 149/122/118 158/123/118 151/124/118
f 125/125/119 129/126/119 150/127/119
f 158/123/120 144/128/120 151/124/120
f 149/122/121 151/124/121 143/129/121
f 134/130/122 154/131/122 149/122/122
f 160/132/123 125/125/123 150/127/123
f 147/133/124 165/134/124 132/135/124
f 157/136/125 163/137/125 142/138/125
f 154/131/126 158/123/126 149/122/126
f 153/139/127 134/130/127 146/140/127
f 160/132/128 150/127/128 144/128/128
f 151/124/129 144/128/129 156/141/129
f 157/136/130 142/138/130 128/142/130
f 155/143/131 125/125/131 160/132/131
f 131/144/132 138/145/132 134/130/132
f 156/141/133 150/127/133 140/146/133
f 165/134/134 133/147/134 157/136/134
f 161/148/135 163/137/135 133/147/135
f 152/149/136 162/150/136 147/133/136
f 126/151/137 127/152/137 152/149/137
f 136/153/138 145/154/138 148/155/138
f 143/129/139 151/124/139 142/138/139
f 133/147/140 163/137/140 157/136/140
f 126/151/141 152/149/141 124/156/141
f 145/154/142 164/157/142 148/155/142
f 144/128/143 150/127/143 156/141/143
f 125/125/144 148/155/144 129/126/144
f 129/126/145 141/158/145 140/146/145
f 139/159/146 165/134/146 157/136/146
f 125/125/147 136/153/147 148/155/147
f 146/140/148 143/129/148 163/137/148
f 156/141/149 140/146/149 128/142/149
f 138/145/150 130/160/150 154/131/150
f 164/157/151 147/133/151 132/135/151
f 138/145/152 135/161/152 130/160/152
f 126/151/153 131/144/153 127/152/153
f 131/144/154 134/130/154 153/139/154
f 132/135/155 165/134/155 139/159/155
f 159/162/156 131/144/156 126/151/156
f 159/162/157 135/161/157 138/145/157
f 155/143/158 136/153/158 125/125/158
f 161/148/159 146/140/159 163/137/159
f 164/157/160 124/156/160 147/133/160
f 139/159/161 157/136/161 128/142/161
f 140/146/162 139/159/162 128/142/162
f 124/156/163 152/149/163 147/133/163
f 141/158/164 132/135/164 139/159/164
f 150/127/165 129/126/165 140/146/165
f 138/145/166 154/131/166 134/130/166
f 135/161/167 155/143/167 130/160/167
f 159/162/168 126/151/168 137/163/168
f 155/143/169 135/161/169 136/153/169
f 152/149/170 127/152/170 162/150/170
f 154/131/171 130/160/171 158/123/171
f 159/162/172 138/145/172 131/144/172
f 148/155/173 164/157/173 141/158/173
f 140/146/174 141/158/174 139/159/174
f 158/123/175 160/132/175 144/128/175
f 142/138/176 156/141/176 128/142/176
f 148/155/177 141/158/177 129/126/177
f 136/153/178 135/161/178 137/163/178
f 162/150/179 133/147/179 165/134/179
f 131/144/180 153/139/180 127/152/180
f 162/150/181 127/152/181 161/148/181
f 127/152/182 153/139/182 161/148/182
f 162/150/183 161/148/183 133/147/183
f 130/160/184 155/143/184 160/132/184
f 145/154/185 124/156/185 164/157/185
f 153/139/186 146/140/186 161/148/186
f 158/123/187 130/160/187 160/132/187
f 164/157/188 132/135/188 141/158/188
f 163/137/189 143/129/189 142/138/189
f 137/163/190 126/151/190 124/156/190
f 142/138/191 151/124/191 156/141/191
f 136/153/192 137/163/192 145/154/192
f 135/161/193 159/162/193 137/163/193
f 146/140/194 134/130/194 149/122/194
f 147/133/195 162/150/195 165/134/195
f 137/163/196 124/156/196 145/154/196
f 146/140/197 149/122/197 143/129/197
f 36/52/198 168/164/198 35/42/198
f 33/50/199 167/165/199 34/49/199
f 34/49/200 168/164/200 35/42/200
f 33/50/201 169/166/201 166/167/201
f 10/1/202 17/19/202 16/2/202
f 11/4/203 10/1/203 7/3/203
f 8/5/204 7/3/204 5/6/204
f 2/8/4 4/11/4 11/4/4
f 1/10/205 3/12/205 4/11/205
f 9/9/206 12/13/206 1/10/206
f 5/6/206 12/13/206 9/9/206
f 9/9/4 11/4/4 8/5/4
f 3/12/207 10/1/207 11/4/207
f 12/13/12 18/15/12 13/14/12
f 18/15/208 24/18/208 19/16/208
f 15/17/209 21/29/209 24/18/209
f 12/13/210 5/6/210 15/17/210
f 3/12/211 14/20/211 17/19/211
f 5/6/212 7/3/212 16/2/212
f 1/10/213 13/14/213 14/20/213
f 66/21/214 64/36/214 28/22/214
f 63/24/215 26/41/215 29/25/215
f 14/20/216 13/14/216 19/16/216
f 17/19/217 14/20/217 20/27/217
f 16/2/218 22/30/218 21/29/218
f 16/2/219 17/19/219 23/28/219
f 52/31/220 31/35/220 83/32/220
f 51/34/221 36/52/221 31/35/221
f 65/26/222 29/25/222 28/22/222
f 66/21/223 27/23/223 30/37/223
f 67/38/224 30/37/224 25/39/224
f 63/24/225 68/40/225 25/39/225
f 35/42/226 36/52/226 44/43/226
f 31/35/227 36/52/227 35/42/227
f 53/46/228 32/45/228 35/42/228
f 56/48/229 55/51/229 34/49/229
f 55/51/230 54/47/230 35/42/230
f 56/48/231 33/50/231 36/52/231
f 112/53/232 111/168/232 38/54/232
f 113/56/233 37/169/233 39/55/233
f 44/43/234 41/59/234 42/57/234
f 35/42/235 32/45/235 40/58/235
f 34/49/236 42/57/236 41/59/236
f 34/49/237 35/42/237 43/44/237
f 33/50/238 41/59/238 44/43/238
f 19/16/239 50/62/239 45/60/239
f 19/16/240 24/18/240 49/61/240
f 24/18/241 21/29/241 48/63/241
f 23/28/242 46/65/242 47/64/242
f 20/27/243 45/60/243 46/65/243
f 22/30/244 71/82/244 70/66/244
f 60/67/245 56/48/245 51/34/245
f 59/69/246 54/47/246 55/51/246
f 60/67/247 62/70/247 55/51/247
f 59/69/248 58/72/248 53/46/248
f 61/68/249 51/34/249 52/31/249
f 58/72/250 57/71/250 52/31/250
f 57/71/251 58/72/251 82/73/251
f 30/37/252 61/68/252 57/71/252
f 29/25/253 26/41/253 58/72/253
f 60/67/254 61/68/254 95/75/254
f 28/22/255 29/25/255 59/69/255
f 61/68/256 30/37/256 93/77/256
f 50/62/225 68/40/225 63/24/225
f 50/62/257 49/61/257 67/38/257
f 49/61/258 48/63/258 66/21/258
f 46/65/259 65/26/259 64/36/259
f 45/60/260 63/24/260 65/26/260
f 48/63/261 47/64/261 64/36/261
f 103/78/262 78/87/262 77/79/262
f 22/30/263 47/64/263 73/81/263
f 47/64/264 48/63/264 74/83/264
f 21/29/265 24/18/265 72/84/265
f 24/18/266 19/16/266 69/85/266
f 21/29/267 70/66/267 74/83/267
f 75/86/268 76/88/268 77/79/268
f 103/78/269 105/90/269 75/86/269
f 104/80/270 77/79/270 76/88/270
f 106/89/271 76/88/271 75/86/271
f 80/91/272 79/92/272 81/74/272
f 25/39/273 79/92/273 80/91/273
f 57/71/274 81/74/274 79/92/274
f 26/41/275 80/91/275 82/73/275
f 107/93/276 89/101/276 90/94/276
f 31/35/277 32/45/277 84/96/277
f 53/46/278 86/97/278 84/96/278
f 52/31/279 85/33/279 86/97/279
f 90/94/280 89/101/280 87/98/280
f 109/100/281 87/98/281 89/101/281
f 108/95/282 90/94/282 88/99/282
f 109/100/283 110/102/283 88/99/283
f 116/103/284 102/113/284 98/104/284
f 114/106/285 101/115/285 100/107/285
f 62/70/286 60/67/286 94/76/286
f 27/23/287 28/22/287 92/110/287
f 62/70/288 96/109/288 92/110/288
f 27/23/289 91/111/289 93/77/289
f 97/112/290 98/104/290 102/113/290
f 99/114/291 97/112/291 100/107/291
f 118/116/292 117/105/292 98/104/292
f 116/103/293 115/108/293 100/107/293
f 114/106/294 119/117/294 99/114/294
f 118/116/295 97/112/295 99/114/295
f 71/82/296 106/89/296 105/90/296
f 73/81/297 104/80/297 106/89/297
f 105/90/298 123/120/298 120/118/298
f 73/81/299 74/83/299 103/78/299
f 83/32/300 84/96/300 110/102/300
f 86/97/301 108/95/301 110/102/301
f 83/32/302 109/100/302 107/93/302
f 85/33/303 107/93/303 108/95/303
f 36/52/304 31/35/304 113/56/304
f 33/50/305 111/168/305 112/53/305
f 91/111/306 118/116/306 119/117/306
f 95/75/307 93/77/307 119/117/307
f 96/109/308 94/76/308 115/108/308
f 92/110/292 117/105/292 118/116/292
f 95/75/309 114/106/309 115/108/309
f 96/109/310 116/103/310 117/105/310
f 121/119/311 120/118/311 123/120/311
f 103/78/312 74/83/312 121/119/312
f 74/83/313 70/66/313 120/118/313
f 105/90/314 103/78/314 122/121/314
f 36/52/315 169/166/315 168/164/315
f 33/50/316 166/167/316 167/165/316
f 34/49/317 167/165/317 168/164/317
f 33/50/318 36/52/318 169/166/318
o Icosphere.007
v -4.317628 1.790986 18.742001
v -6.954070 -1.837807 20.405851
v -8.583520 3.177035 20.405851
v -4.317628 6.276413 20.405863
v -0.051736 3.177035 20.405851
v -1.681186 -1.837807 20.405851
v -8.583520 0.404937 23.098085
v -6.954070 5.419780 23.098085
v -1.681186 5.419780 23.098085
v -0.051736 0.404937 23.098085
v -4.317628 -2.694441 23.098074
v -4.317628 1.790986 24.761936
v -6.825037 2.605679 19.191525
v -5.867279 -0.341950 19.191526
v -8.374713 0.472734 20.169516
v -4.317628 -2.474899 20.169519
v -2.767977 -0.341950 19.191526
v -4.317628 4.427450 19.191534
v -6.825046 5.242164 20.169519
v -1.810219 2.605679 19.191525
v -1.810210 5.242164 20.169519
v -0.260543 0.472734 20.169516
v -5.867285 -2.978442 21.751968
v -2.767971 -2.978442 21.751968
v -9.332493 1.790986 21.751968
v -8.374739 -1.156680 21.751968
v -5.867285 6.560414 21.751968
v -8.374739 4.738652 21.751968
v -0.260518 4.738652 21.751968
v -2.767971 6.560414 21.751968
v -0.260518 -1.156680 21.751968
v 0.697237 1.790986 21.751968
v -6.825046 -1.660191 23.334417
v -8.374713 3.109238 23.334421
v -4.317628 6.056871 23.334417
v -0.260543 3.109238 23.334421
v -1.810210 -1.660191 23.334417
v -6.825037 0.976293 24.312410
v -4.317628 -0.845478 24.312403
v -5.867279 3.923922 24.312410
v -2.767977 3.923922 24.312410
v -1.810219 0.976293 24.312410
v -2.844013 5.301766 12.694953
v -3.752484 3.702219 13.820332
v -4.313964 5.912727 13.820330
v -2.844013 7.278912 13.820339
v -1.374062 5.912727 13.820330
v -1.935541 3.702219 13.820332
v -4.313964 4.690806 15.641275
v -3.752484 6.901314 15.641274
v -1.935541 6.901314 15.641274
v -1.374062 4.690806 15.641275
v -2.844013 3.324621 15.641266
v -2.844013 5.301766 16.766653
v -3.708022 5.660877 12.998998
v -3.377995 4.361583 12.998998
v -4.242013 4.720690 13.660480
v -2.844013 3.421394 13.660483
v -2.310030 4.361583 12.998998
v -2.844013 6.463902 12.999003
v -3.708025 6.823022 13.660482
v -1.980004 5.660877 12.998998
v -1.980001 6.823022 13.660482
v -1.446013 4.720690 13.660480
v -3.377997 3.199436 14.730803
v -2.310028 3.199436 14.730803
v -4.572047 5.301766 14.730803
v -4.242022 4.002456 14.730803
v -3.377997 7.404098 14.730803
v -4.242022 6.601078 14.730803
v -1.446004 6.601078 14.730803
v -2.310028 7.404098 14.730803
v -1.446004 4.002456 14.730803
v -1.115978 5.301766 14.730803
v -3.708025 3.780512 15.801123
v -4.242013 5.882843 15.801126
v -2.844013 7.182139 15.801123
v -1.446013 5.882843 15.801126
v -1.980001 3.780512 15.801123
v -3.708022 4.942656 16.462608
v -2.844013 4.139631 16.462603
v -3.377995 6.241950 16.462606
v -2.310030 6.241950 16.462606
v -1.980004 4.942656 16.462608
v 2.160777 -6.231483 14.919840
v 1.419619 -8.151437 15.699139
v 0.961547 -5.498139 15.699139
v 2.160777 -3.858292 15.699144
v 3.360007 -5.498139 15.699139
v 2.901935 -8.151437 15.699139
v 0.961547 -6.964826 16.960104
v 1.419619 -4.311528 16.960104
v 2.901935 -4.311528 16.960104
v 3.360007 -6.964826 16.960104
v 2.160777 -8.604672 16.960098
v 2.160777 -6.231483 17.739403
v 1.455893 -5.800437 15.130384
v 1.725138 -7.359996 15.130384
v 1.020247 -6.928955 15.588446
v 2.160777 -8.488516 15.588449
v 2.596416 -7.359996 15.130384
v 2.160777 -4.836558 15.130387
v 1.455890 -4.405502 15.588448
v 2.865661 -5.800437 15.130384
v 2.865664 -4.405502 15.588448
v 3.301307 -6.928955 15.588446
v 1.725136 -8.754933 16.329620
v 2.596417 -8.754933 16.329620
v 0.750995 -6.231483 16.329620
v 1.020239 -7.791059 16.329620
v 1.725136 -3.708031 16.329620
v 1.020239 -4.671905 16.329620
v 3.301314 -4.671905 16.329620
v 2.596417 -3.708031 16.329620
v 3.301314 -7.791059 16.329620
v 3.570559 -6.231483 16.329620
v 1.455890 -8.057463 17.070795
v 1.020247 -5.534010 17.070797
v 2.160777 -3.974450 17.070795
v 3.301307 -5.534010 17.070797
v 2.865664 -8.057463 17.070795
v 1.455893 -6.662528 17.528858
v 2.160777 -7.626407 17.528854
v 1.725138 -5.102970 17.528858
v 2.596416 -5.102970 17.528858
v 2.865661 -6.662528 17.528858
v 5.817461 -10.614206 16.605494
v 4.189143 -14.399594 18.317608
v 3.182763 -9.168345 18.317608
v 5.817461 -5.935218 18.317621
v 8.452159 -9.168345 18.317608
v 7.445779 -14.399594 18.317608
v 3.182763 -12.060068 21.087936
v 4.189143 -6.828818 21.087936
v 7.445779 -6.828818 21.087936
v 8.452159 -12.060068 21.087936
v 5.817461 -15.293195 21.087923
v 5.817461 -10.614206 22.800051
v 4.268836 -9.764358 17.068058
v 4.860367 -12.839186 17.068058
v 3.311727 -11.989345 18.074417
v 5.817461 -15.064178 18.074421
v 6.774555 -12.839186 17.068058
v 5.817461 -7.863970 17.068066
v 4.268831 -7.014099 18.074421
v 7.366086 -9.764358 17.068058
v 7.366091 -7.014099 18.074421
v 8.323196 -11.989345 18.074417
v 4.860363 -15.589450 19.702772
v 6.774559 -15.589450 19.702772
v 2.720182 -10.614206 19.702772
v 3.311711 -13.689075 19.702772
v 4.860363 -5.638963 19.702772
v 3.311711 -7.539339 19.702772
v 8.323212 -7.539339 19.702772
v 6.774559 -5.638963 19.702772
v 8.323212 -13.689075 19.702772
v 8.914740 -10.614206 19.702772
v 4.268831 -14.214313 21.331123
v 3.311727 -9.239068 21.331127
v 5.817461 -6.164235 21.331123
v 8.323196 -9.239068 21.331127
v 7.366091 -14.214313 21.331123
v 4.268836 -11.464056 22.337486
v 5.817461 -13.364443 22.337477
v 4.860367 -8.389228 22.337484
v 6.774555 -8.389228 22.337484
v 7.366086 -11.464056 22.337486
v -6.481447 2.982427 14.360026
v -7.708765 1.894352 15.191233
v -8.467308 3.398026 15.191231
v -6.481447 4.327359 15.191238
v -4.495588 3.398026 15.191231
v -5.254130 1.894352 15.191233
v -8.467308 2.566828 16.536182
v -7.708765 4.070502 16.536182
v -5.254130 4.070502 16.536182
v -4.495588 2.566828 16.536182
v -6.481447 1.637495 16.536177
v -6.481447 2.982427 17.367390
v -7.648698 3.226708 14.584595
v -7.202842 2.342877 14.584595
v -8.370104 2.587156 15.073166
v -6.481447 1.703324 15.073168
v -5.760054 2.342877 14.584595
v -6.481447 3.772957 14.584599
v -7.648702 4.017244 15.073168
v -5.314198 3.226708 14.584595
v -5.314193 4.017244 15.073168
v -4.592792 2.587156 15.073166
v -7.202845 1.552339 15.863708
v -5.760051 1.552339 15.863708
v -8.815969 2.982427 15.863708
v -8.370115 2.098585 15.863708
v -7.202845 4.412515 15.863708
v -8.370115 3.866269 15.863708
v -4.592780 3.866269 15.863708
v -5.760051 4.412515 15.863708
v -4.592780 2.098585 15.863708
v -4.146925 2.982427 15.863708
v -7.648702 1.947610 16.654247
v -8.370104 3.377698 16.654249
v -6.481447 4.261530 16.654247
v -4.592792 3.377698 16.654249
v -5.314193 1.947610 16.654247
v -7.648698 2.738146 17.142820
v -6.481447 2.191897 17.142817
v -7.202842 3.621977 17.142820
v -5.760054 3.621977 17.142820
v -5.314198 2.738146 17.142820
v 3.593604 -3.407228 21.165695
v 1.109581 -5.796311 22.990770
v -0.425666 -2.494697 22.990770
v 3.593604 -0.454163 22.990784
v 7.612873 -2.494697 22.990770
v 6.077627 -5.796311 22.990770
v -0.425666 -4.319759 25.943878
v 1.109581 -1.018144 25.943878
v 6.077627 -1.018144 25.943878
v 7.612873 -4.319759 25.943878
v 3.593604 -6.360292 25.943865
v 3.593604 -3.407228 27.768955
v 1.231154 -2.870860 21.658777
v 2.133543 -4.811486 21.658779
v -0.228930 -4.275124 22.731533
v 3.593604 -6.215753 22.731539
v 5.053665 -4.811486 21.658779
v 3.593604 -1.671463 21.658787
v 1.231147 -1.135081 22.731537
v 5.956054 -2.870860 21.658777
v 5.956061 -1.135081 22.731537
v 7.416138 -4.275124 22.731533
v 2.133537 -6.547270 24.467323
v 5.053671 -6.547270 24.467323
v -1.131339 -3.407228 24.467323
v -0.228954 -5.347878 24.467323
v 2.133537 -0.267186 24.467323
v -0.228954 -1.466577 24.467323
v 7.416162 -1.466577 24.467323
v 5.053671 -0.267186 24.467323
v 7.416162 -5.347878 24.467323
v 8.318547 -3.407228 24.467323
v 1.231147 -5.679374 26.203110
v -0.228930 -2.539332 26.203115
v 3.593604 -0.598703 26.203110
v 7.416138 -2.539332 26.203115
v 5.956061 -5.679374 26.203110
v 1.231154 -3.943596 27.275871
v 3.593604 -5.142993 27.275860
v 2.133543 -2.002970 27.275869
v 5.053665 -2.002970 27.275869
v 5.956054 -3.943596 27.275871
v 7.031810 0.791420 16.751961
v 4.394207 -1.696812 18.572918
v 2.764039 1.741821 18.572916
v 7.031810 3.867038 18.572929
v 11.299582 1.741821 18.572916
v 9.669413 -1.696812 18.572918
v 2.764039 -0.158982 21.519360
v 4.394207 3.279652 21.519358
v 9.669413 3.279652 21.519358
v 11.299582 -0.158982 21.519360
v 7.031810 -2.284199 21.519344
v 7.031810 0.791420 23.340315
v 4.523296 1.350047 17.243931
v 5.481476 -0.671116 17.243933
v 2.972937 -0.112494 18.314264
v 7.031810 -2.133660 18.314270
v 8.582144 -0.671116 17.243933
v 7.031810 2.599220 17.243940
v 4.523288 3.157862 18.314270
v 9.540323 1.350047 17.243931
v 9.540332 3.157862 18.314270
v 11.090683 -0.112494 18.314264
v 5.481470 -2.478935 20.046137
v 8.582150 -2.478935 20.046137
v 2.014735 0.791420 20.046137
v 2.972912 -1.229769 20.046137
v 5.481470 4.061774 20.046137
v 2.972912 2.812608 20.046137
v 11.090708 2.812608 20.046137
v 8.582150 4.061774 20.046137
v 11.090708 -1.229769 20.046137
v 12.048884 0.791420 20.046137
v 4.523288 -1.575023 21.778006
v 2.972937 1.695333 21.778009
v 7.031810 3.716500 21.778004
v 11.090683 1.695333 21.778009
v 9.540332 -1.575023 21.778006
v 4.523296 0.232792 22.848343
v 7.031810 -1.016381 22.848335
v 5.481476 2.253955 22.848343
v 8.582144 2.253955 22.848343
v 9.540323 0.232792 22.848343
v -2.456884 2.676589 15.746678
v -3.702741 0.961794 16.784286
v -4.472742 3.331569 16.784286
v -2.456884 4.796187 16.784294
v -0.441027 3.331569 16.784286
v -1.211028 0.961794 16.784286
v -4.472742 2.021608 18.463213
v -3.702741 4.391383 18.463211
v -1.211028 4.391383 18.463211
v -0.441027 2.021608 18.463213
v -2.456884 0.556989 18.463205
v -2.456884 2.676589 19.500820
v -3.641767 3.061574 16.027010
v -3.189176 1.668664 16.027012
v -4.374069 2.053645 16.636902
v -2.456884 0.660735 16.636906
v -1.724593 1.668664 16.027012
v -2.456884 3.922456 16.027016
v -3.641770 4.307450 16.636906
v -1.272002 3.061574 16.027010
v -1.271998 4.307450 16.636906
v -0.539700 2.053645 16.636902
v -3.189178 0.422784 17.623749
v -1.724590 0.422784 17.623749
v -4.826671 2.676589 17.623749
v -4.374081 1.283662 17.623749
v -3.189178 4.930392 17.623749
v -4.374081 4.069515 17.623749
v -0.539688 4.069515 17.623749
v -1.724590 4.930392 17.623749
v -0.539688 1.283662 17.623749
v -0.087098 2.676589 17.623749
v -3.641770 1.045726 18.610594
v -4.374069 3.299531 18.610596
v -2.456884 4.692442 18.610594
v -0.539700 3.299531 18.610596
v -1.271998 1.045726 18.610594
v -3.641767 2.291603 19.220488
v -2.456884 1.430721 19.220484
v -3.189176 3.684512 19.220488
v -1.724593 3.684512 19.220488
v -1.272002 2.291603 19.220488
vn -0.1961 -0.0637 -0.9785
vn -0.2010 -0.5252 -0.8269
vn -0.1212 0.1668 -0.9785
vn 0.1212 0.1668 -0.9785
vn 0.1961 -0.0637 -0.9785
vn -0.2453 -0.8283 -0.5038
vn -0.8635 -0.0226 -0.5038
vn -0.2884 0.8143 -0.5038
vn 0.6853 0.5259 -0.5038
vn 0.7119 -0.4893 -0.5038
vn -0.5751 -0.7916 -0.2064
vn -0.9306 0.3024 -0.2064
vn -0.0000 0.9785 -0.2064
vn 0.9306 0.3024 -0.2064
vn 0.5751 -0.7916 -0.2064
vn -0.4713 -0.3067 0.8269
vn -0.4374 0.3535 0.8269
vn 0.2010 0.5252 0.8269
vn 0.5616 -0.0289 0.8269
vn 0.1461 -0.5431 0.8269
vn 0.1212 -0.1668 0.9785
vn 0.2450 -0.3372 0.9090
vn 0.4713 -0.3067 0.8269
vn 0.1961 0.0637 0.9785
vn 0.3964 0.1288 0.9090
vn 0.4374 0.3535 0.8269
vn -0.0000 0.2062 0.9785
vn -0.0000 0.4168 0.9090
vn -0.2010 0.5252 0.8269
vn -0.1961 0.0637 0.9785
vn -0.3964 0.1288 0.9090
vn -0.5616 -0.0289 0.8269
vn -0.1212 -0.1668 0.9785
vn -0.2450 -0.3372 0.9090
vn -0.1461 -0.5431 0.8269
vn 0.2884 -0.8143 0.5038
vn 0.5601 -0.7709 0.3032
vn 0.6853 -0.5259 0.5038
vn 0.8635 0.0226 0.5038
vn 0.9063 0.2945 0.3032
vn 0.7119 0.4893 0.5038
vn 0.2453 0.8283 0.5038
vn -0.0000 0.9529 0.3032
vn -0.2453 0.8283 0.5038
vn -0.7119 0.4893 0.5038
vn -0.9063 0.2945 0.3032
vn -0.8635 0.0226 0.5038
vn -0.6853 -0.5259 0.5038
vn -0.5601 -0.7709 0.3032
vn -0.2884 -0.8143 0.5038
vn 0.9306 -0.3024 0.2064
vn 0.9063 -0.2945 -0.3032
vn 0.8635 -0.0226 -0.5038
vn 0.5751 0.7916 0.2064
vn 0.5601 0.7709 -0.3032
vn 0.2884 0.8143 -0.5038
vn -0.5751 0.7916 0.2064
vn -0.5601 0.7709 -0.3032
vn -0.6853 0.5259 -0.5038
vn -0.9306 -0.3024 0.2064
vn -0.9063 -0.2945 -0.3032
vn -0.7119 -0.4893 -0.5038
vn -0.0000 -0.9785 0.2064
vn -0.0000 -0.9529 -0.3032
vn 0.2453 -0.8283 -0.5038
vn 0.4374 -0.3535 -0.8269
vn 0.3964 -0.1288 -0.9090
vn 0.5616 0.0289 -0.8269
vn 0.4713 0.3067 -0.8269
vn 0.2450 0.3372 -0.9090
vn 0.1461 0.5431 -0.8269
vn -0.1461 0.5431 -0.8269
vn -0.2450 0.3372 -0.9090
vn -0.4713 0.3067 -0.8269
vn 0.2010 -0.5252 -0.8269
vn -0.0000 -0.4168 -0.9090
vn -0.0000 -0.2062 -0.9785
vn -0.5616 0.0289 -0.8269
vn -0.3964 -0.1288 -0.9090
vn -0.4374 -0.3535 -0.8269
vn -0.3645 -0.0926 -0.9266
vn -0.3234 -0.6604 -0.6777
vn -0.2290 0.2464 -0.9417
vn 0.2290 0.2464 -0.9417
vn 0.3645 -0.0926 -0.9266
vn -0.3322 -0.8768 -0.3476
vn -0.9584 -0.0196 -0.2848
vn -0.3874 0.8550 -0.3448
vn 0.8165 0.4898 -0.3058
vn 0.8396 -0.4511 -0.3027
vn -0.6756 -0.7269 -0.1235
vn -0.9635 0.2447 -0.1089
vn -0.0000 0.9907 -0.1362
vn 0.9635 0.2447 -0.1089
vn 0.6756 -0.7269 -0.1235
vn -0.6971 -0.3546 0.6231
vn -0.6556 0.4142 0.6314
vn 0.3234 0.6605 0.6777
vn 0.7996 -0.0322 0.5997
vn 0.2372 -0.6896 0.6843
vn 0.2290 -0.2464 0.9417
vn 0.4177 -0.4494 0.7896
vn 0.6971 -0.3546 0.6231
vn 0.3645 0.0926 0.9266
vn 0.6416 0.1630 0.7495
vn 0.6556 0.4142 0.6314
vn -0.0000 0.3077 0.9515
vn -0.0000 0.5754 0.8179
vn -0.3234 0.6605 0.6777
vn -0.3645 0.0926 0.9266
vn -0.6416 0.1630 0.7495
vn -0.7996 -0.0322 0.5997
vn -0.2290 -0.2464 0.9417
vn -0.4177 -0.4494 0.7896
vn -0.2372 -0.6896 0.6843
vn 0.3874 -0.8550 0.3448
vn 0.6691 -0.7199 0.1845
vn 0.8165 -0.4898 0.3058
vn 0.9584 0.0196 0.2848
vn 0.9563 0.2429 0.1630
vn 0.8396 0.4511 0.3027
vn 0.3322 0.8768 0.3476
vn -0.0000 0.9792 0.2031
vn -0.3322 0.8768 0.3476
vn -0.8396 0.4511 0.3027
vn -0.9563 0.2429 0.1630
vn -0.9584 0.0196 0.2848
vn -0.8165 -0.4898 0.3058
vn -0.6691 -0.7199 0.1845
vn -0.3874 -0.8550 0.3448
vn 0.9635 -0.2447 0.1089
vn 0.9563 -0.2429 -0.1630
vn 0.9584 -0.0196 -0.2848
vn 0.6756 0.7269 0.1235
vn 0.6691 0.7199 -0.1845
vn 0.3874 0.8550 -0.3448
vn -0.6756 0.7269 0.1235
vn -0.6691 0.7199 -0.1845
vn -0.8165 0.4898 -0.3058
vn -0.9635 -0.2447 0.1089
vn -0.9563 -0.2429 -0.1630
vn -0.8396 -0.4511 -0.3027
vn -0.0000 -0.9907 0.1362
vn -0.0000 -0.9792 -0.2031
vn 0.3322 -0.8768 -0.3476
vn 0.6556 -0.4142 -0.6314
vn 0.6416 -0.1630 -0.7495
vn 0.7996 0.0322 -0.5997
vn 0.6971 0.3546 -0.6231
vn 0.4177 0.4494 -0.7896
vn 0.2372 0.6896 -0.6843
vn -0.2372 0.6896 -0.6843
vn -0.4177 0.4494 -0.7896
vn -0.6971 0.3546 -0.6231
vn 0.3234 -0.6605 -0.6777
vn -0.0000 -0.5754 -0.8179
vn -0.0000 -0.3077 -0.9515
vn -0.7996 0.0322 -0.5997
vn -0.6416 -0.1630 -0.7495
vn -0.6556 -0.4142 -0.6314
vn -0.3163 -0.0546 -0.9471
vn -0.3329 -0.4621 -0.8219
vn -0.2000 0.1462 -0.9688
vn 0.2000 0.1462 -0.9688
vn 0.3163 -0.0546 -0.9471
vn -0.4175 -0.7489 -0.5146
vn -0.9437 -0.0132 -0.3305
vn -0.4795 0.7193 -0.5027
vn 0.8572 0.3495 -0.3782
vn 0.8725 -0.3186 -0.3706
vn -0.7952 -0.5816 -0.1713
vn -0.9770 0.1687 -0.1301
vn -0.0000 0.9728 -0.2318
vn 0.9770 0.1687 -0.1301
vn 0.7952 -0.5816 -0.1713
vn -0.6699 -0.2316 0.7054
vn -0.6360 0.2731 0.7217
vn 0.3329 0.4621 0.8219
vn 0.7492 -0.0205 0.6621
vn 0.2466 -0.4871 0.8378
vn 0.2000 -0.1462 0.9688
vn 0.3924 -0.2870 0.8739
vn 0.6699 -0.2316 0.7054
vn 0.3163 0.0546 0.9471
vn 0.5848 0.1010 0.8049
vn 0.6360 0.2731 0.7217
vn -0.0000 0.1834 0.9830
vn -0.0000 0.3761 0.9266
vn -0.3329 0.4621 0.8219
vn -0.3163 0.0546 0.9471
vn -0.5848 0.1010 0.8049
vn -0.7492 -0.0205 0.6621
vn -0.2000 -0.1462 0.9688
vn -0.3924 -0.2870 0.8739
vn -0.2466 -0.4871 0.8378
vn 0.4795 -0.7193 0.5027
vn 0.7808 -0.5710 0.2537
vn 0.8572 -0.3495 0.3782
vn 0.9437 0.0132 0.3305
vn 0.9667 0.1669 0.1941
vn 0.8725 0.3186 0.3706
vn 0.4175 0.7489 0.5146
vn -0.0000 0.9411 0.3383
vn -0.4175 0.7489 0.5146
vn -0.8725 0.3186 0.3706
vn -0.9667 0.1669 0.1941
vn -0.9437 0.0132 0.3305
vn -0.8572 -0.3495 0.3782
vn -0.7808 -0.5710 0.2537
vn -0.4795 -0.7193 0.5027
vn 0.9770 -0.1687 0.1301
vn 0.9667 -0.1669 -0.1941
vn 0.9437 -0.0132 -0.3305
vn 0.7952 0.5816 0.1713
vn 0.7808 0.5710 -0.2537
vn 0.4795 0.7193 -0.5027
vn -0.7952 0.5816 0.1713
vn -0.7808 0.5710 -0.2537
vn -0.8572 0.3495 -0.3782
vn -0.9770 -0.1687 0.1301
vn -0.9667 -0.1669 -0.1941
vn -0.8725 -0.3186 -0.3706
vn -0.0000 -0.9728 0.2318
vn -0.0000 -0.9411 -0.3383
vn 0.4175 -0.7489 -0.5146
vn 0.6360 -0.2731 -0.7217
vn 0.5848 -0.1010 -0.8049
vn 0.7492 0.0205 -0.6621
vn 0.6699 0.2316 -0.7054
vn 0.3924 0.2870 -0.8739
vn 0.2466 0.4871 -0.8378
vn -0.2466 0.4871 -0.8378
vn -0.3924 0.2870 -0.8739
vn -0.6699 0.2316 -0.7054
vn 0.3329 -0.4621 -0.8219
vn -0.0000 -0.3761 -0.9266
vn -0.0000 -0.1834 -0.9830
vn -0.7492 0.0205 -0.6621
vn -0.5848 -0.1010 -0.8049
vn -0.6360 -0.2731 -0.7217
vn -0.3162 -0.0608 -0.9468
vn -0.3247 -0.5022 -0.8015
vn -0.1994 0.1625 -0.9663
vn 0.1994 0.1625 -0.9663
vn 0.3162 -0.0608 -0.9468
vn -0.3918 -0.7832 -0.4829
vn -0.9437 -0.0147 -0.3305
vn -0.4520 0.7557 -0.4740
vn 0.8448 0.3838 -0.3728
vn 0.8620 -0.3507 -0.3661
vn -0.7646 -0.6231 -0.1647
vn -0.9737 0.1873 -0.1296
vn -0.0000 0.9779 -0.2091
vn 0.9737 0.1873 -0.1296
vn 0.7646 -0.6231 -0.1647
vn -0.6656 -0.2565 0.7009
vn -0.6304 0.3016 0.7153
vn 0.3247 0.5022 0.8015
vn 0.7491 -0.0228 0.6620
vn 0.2398 -0.5279 0.8148
vn 0.1994 -0.1625 0.9663
vn 0.3885 -0.3166 0.8653
vn 0.6656 -0.2565 0.7009
vn 0.3162 0.0608 0.9468
vn 0.5841 0.1124 0.8039
vn 0.6304 0.3016 0.7153
vn -0.0000 0.2035 0.9791
vn -0.0000 0.4121 0.9111
vn -0.3247 0.5022 0.8015
vn -0.3162 0.0608 0.9468
vn -0.5841 0.1124 0.8039
vn -0.7491 -0.0228 0.6620
vn -0.1994 -0.1625 0.9663
vn -0.3885 -0.3166 0.8653
vn -0.2398 -0.5279 0.8148
vn 0.4520 -0.7557 0.4740
vn 0.7517 -0.6126 0.2443
vn 0.8448 -0.3838 0.3728
vn 0.9437 0.0147 0.3305
vn 0.9634 0.1853 0.1935
vn 0.8620 0.3507 0.3661
vn 0.3918 0.7832 0.4829
vn -0.0000 0.9517 0.3070
vn -0.3918 0.7832 0.4829
vn -0.8620 0.3507 0.3661
vn -0.9634 0.1853 0.1935
vn -0.9437 0.0147 0.3305
vn -0.8448 -0.3838 0.3728
vn -0.7517 -0.6126 0.2443
vn -0.4520 -0.7557 0.4740
vn 0.9737 -0.1873 0.1296
vn 0.9634 -0.1853 -0.1935
vn 0.9437 -0.0147 -0.3305
vn 0.7646 0.6231 0.1647
vn 0.7517 0.6126 -0.2443
vn 0.4520 0.7557 -0.4740
vn -0.7646 0.6231 0.1647
vn -0.7517 0.6126 -0.2443
vn -0.8448 0.3838 -0.3728
vn -0.9737 -0.1873 0.1296
vn -0.9634 -0.1853 -0.1935
vn -0.8620 -0.3507 -0.3661
vn -0.0000 -0.9779 0.2091
vn -0.0000 -0.9517 -0.3070
vn 0.3918 -0.7832 -0.4829
vn 0.6304 -0.3016 -0.7153
vn 0.5841 -0.1124 -0.8039
vn 0.7491 0.0228 -0.6620
vn 0.6656 0.2565 -0.7009
vn 0.3885 0.3166 -0.8653
vn 0.2398 0.5279 -0.8148
vn -0.2398 0.5279 -0.8148
vn -0.3885 0.3166 -0.8653
vn -0.6656 0.2565 -0.7009
vn 0.3247 -0.5022 -0.8015
vn -0.0000 -0.4121 -0.9111
vn -0.0000 -0.2035 -0.9791
vn -0.7491 0.0228 -0.6620
vn -0.5841 -0.1124 -0.8039
vn -0.6304 -0.3016 -0.7153
vn -0.2091 -0.1055 -0.9722
vn -0.1764 -0.7154 -0.6761
vn -0.1268 0.2711 -0.9542
vn 0.1268 0.2711 -0.9542
vn 0.2091 -0.1055 -0.9722
vn -0.1764 -0.9246 -0.3376
vn -0.8780 -0.0358 -0.4773
vn -0.2091 0.9167 -0.3404
vn 0.5884 0.7010 -0.4031
vn 0.6234 -0.6651 -0.4111
vn -0.4197 -0.8968 -0.1404
vn -0.8780 0.4429 -0.1815
vn -0.0000 0.9921 -0.1256
vn 0.8780 0.4429 -0.1815
vn 0.4197 -0.8968 -0.1404
vn -0.4616 -0.4664 0.7546
vn -0.4197 0.5266 0.7393
vn 0.1764 0.7154 0.6761
vn 0.5884 -0.0470 0.8072
vn 0.1268 -0.7322 0.6692
vn 0.1268 -0.2711 0.9542
vn 0.2389 -0.5105 0.8260
vn 0.4616 -0.4664 0.7546
vn 0.2091 0.1055 0.9722
vn 0.4145 0.2091 0.8857
vn 0.4197 0.5266 0.7393
vn -0.0000 0.3313 0.9435
vn -0.0000 0.6071 0.7947
vn -0.1764 0.7154 0.6761
vn -0.2091 0.1055 0.9722
vn -0.4145 0.2091 0.8857
vn -0.5884 -0.0470 0.8072
vn -0.1268 -0.2711 0.9542
vn -0.2389 -0.5105 0.8260
vn -0.1268 -0.7322 0.6692
vn 0.2091 -0.9167 0.3404
vn 0.4145 -0.8857 0.2091
vn 0.5884 -0.7010 0.4031
vn 0.8780 0.0358 0.4773
vn 0.8601 0.4339 0.2682
vn 0.6234 0.6651 0.4111
vn 0.1764 0.9246 0.3376
vn -0.0000 0.9822 0.1876
vn -0.1764 0.9246 0.3376
vn -0.6234 0.6651 0.4111
vn -0.8601 0.4339 0.2682
vn -0.8780 0.0358 0.4773
vn -0.5884 -0.7010 0.4031
vn -0.4145 -0.8857 0.2091
vn -0.2091 -0.9167 0.3404
vn 0.8780 -0.4429 0.1815
vn 0.8601 -0.4339 -0.2682
vn 0.8780 -0.0358 -0.4773
vn 0.4197 0.8968 0.1404
vn 0.4145 0.8857 -0.2091
vn 0.2091 0.9167 -0.3404
vn -0.4197 0.8968 0.1404
vn -0.4145 0.8857 -0.2091
vn -0.5884 0.7010 -0.4031
vn -0.8780 -0.4429 0.1815
vn -0.8601 -0.4339 -0.2682
vn -0.6234 -0.6651 -0.4111
vn -0.0000 -0.9921 0.1256
vn -0.0000 -0.9822 -0.1876
vn 0.1764 -0.9246 -0.3376
vn 0.4197 -0.5266 -0.7393
vn 0.4145 -0.2091 -0.8857
vn 0.5884 0.0470 -0.8072
vn 0.4616 0.4664 -0.7546
vn 0.2389 0.5105 -0.8260
vn 0.1268 0.7322 -0.6692
vn -0.1268 0.7322 -0.6692
vn -0.2389 0.5105 -0.8260
vn -0.4616 0.4664 -0.7546
vn 0.1764 -0.7154 -0.6761
vn -0.0000 -0.6071 -0.7947
vn -0.0000 -0.3313 -0.9435
vn -0.5884 0.0470 -0.8072
vn -0.4145 -0.2091 -0.8857
vn -0.4197 -0.5266 -0.7393
vn -0.2260 -0.1051 -0.9684
vn -0.1908 -0.7135 -0.6742
vn -0.1374 0.2707 -0.9528
vn 0.1374 0.2707 -0.9528
vn 0.2260 -0.1051 -0.9684
vn -0.1908 -0.9221 -0.3366
vn -0.8935 -0.0335 -0.4478
vn -0.2260 0.9132 -0.3391
vn 0.6196 0.6804 -0.3912
vn 0.6542 -0.6434 -0.3976
vn -0.4483 -0.8831 -0.1382
vn -0.8935 0.4155 -0.1703
vn 0.8935 0.4155 -0.1703
vn 0.4483 -0.8831 -0.1382
vn -0.4916 -0.4578 0.7408
vn -0.4483 0.5186 0.7281
vn 0.1908 0.7135 0.6742
vn 0.6196 -0.0456 0.7836
vn 0.1374 -0.7312 0.6682
vn 0.1374 -0.2707 0.9528
vn 0.2579 -0.5079 0.8219
vn 0.4916 -0.4578 0.7408
vn 0.2260 0.1051 0.9684
vn 0.4430 0.2060 0.8726
vn 0.4483 0.5186 0.7281
vn -0.1908 0.7135 0.6742
vn -0.2260 0.1051 0.9684
vn -0.4430 0.2060 0.8726
vn -0.6196 -0.0456 0.7836
vn -0.1374 -0.2707 0.9528
vn -0.2579 -0.5079 0.8219
vn -0.1374 -0.7312 0.6682
vn 0.2260 -0.9132 0.3391
vn 0.4430 -0.8725 0.2060
vn 0.6196 -0.6804 0.3912
vn 0.8935 0.0335 0.4478
vn 0.8775 0.4080 0.2522
vn 0.6542 0.6434 0.3976
vn 0.1908 0.9221 0.3366
vn -0.1908 0.9221 0.3366
vn -0.6542 0.6434 0.3976
vn -0.8775 0.4080 0.2522
vn -0.8935 0.0335 0.4478
vn -0.6196 -0.6804 0.3912
vn -0.4430 -0.8725 0.2060
vn -0.2260 -0.9132 0.3391
vn 0.8935 -0.4155 0.1703
vn 0.8775 -0.4080 -0.2522
vn 0.8935 -0.0335 -0.4478
vn 0.4483 0.8831 0.1382
vn 0.4430 0.8725 -0.2060
vn 0.2260 0.9132 -0.3391
vn -0.4483 0.8831 0.1382
vn -0.4430 0.8725 -0.2060
vn -0.6196 0.6804 -0.3912
vn -0.8935 -0.4155 0.1703
vn -0.8775 -0.4080 -0.2522
vn -0.6542 -0.6434 -0.3976
vn 0.1908 -0.9221 -0.3366
vn 0.4483 -0.5186 -0.7281
vn 0.4430 -0.2060 -0.8726
vn 0.6196 0.0456 -0.7836
vn 0.4916 0.4578 -0.7408
vn 0.2579 0.5079 -0.8219
vn 0.1374 0.7312 -0.6682
vn -0.1374 0.7312 -0.6682
vn -0.2579 0.5079 -0.8219
vn -0.4916 0.4578 -0.7408
vn 0.1908 -0.7135 -0.6742
vn -0.6196 0.0456 -0.7836
vn -0.4430 -0.2060 -0.8726
vn -0.4483 -0.5186 -0.7281
vn -0.2131 -0.1010 -0.9718
vn -0.1836 -0.6998 -0.6903
vn -0.1297 0.2604 -0.9568
vn 0.1297 0.2604 -0.9568
vn 0.2131 -0.1010 -0.9718
vn -0.1864 -0.9181 -0.3499
vn -0.8819 -0.0337 -0.4703
vn -0.2207 0.9094 -0.3525
vn 0.6080 0.6807 -0.4086
vn 0.6423 -0.6440 -0.4155
vn -0.4411 -0.8857 -0.1447
vn -0.8888 0.4214 -0.1802
vn -0.0000 0.9914 -0.1310
vn 0.8888 0.4214 -0.1802
vn 0.4411 -0.8857 -0.1447
vn -0.4728 -0.4489 0.7582
vn -0.4312 0.5085 0.7453
vn 0.1836 0.6998 0.6903
vn 0.5958 -0.0447 0.8019
vn 0.1322 -0.7172 0.6842
vn 0.1297 -0.2604 0.9568
vn 0.2459 -0.4938 0.8341
vn 0.4728 -0.4489 0.7582
vn 0.2131 0.1010 0.9718
vn 0.4219 0.2000 0.8843
vn 0.4312 0.5085 0.7453
vn -0.0000 0.3188 0.9478
vn -0.0000 0.5906 0.8070
vn -0.1836 0.6998 0.6903
vn -0.2131 0.1010 0.9718
vn -0.4219 0.2000 0.8843
vn -0.5958 -0.0447 0.8019
vn -0.1297 -0.2604 0.9568
vn -0.2459 -0.4938 0.8341
vn -0.1322 -0.7172 0.6842
vn 0.2207 -0.9094 0.3525
vn 0.4353 -0.8741 0.2154
vn 0.6080 -0.6807 0.4086
vn 0.8819 0.0337 0.4703
vn 0.8710 0.4129 0.2664
vn 0.6423 0.6440 0.4155
vn 0.1864 0.9181 0.3499
vn -0.0000 0.9807 0.1955
vn -0.1864 0.9181 0.3499
vn -0.6423 0.6440 0.4155
vn -0.8710 0.4129 0.2664
vn -0.8819 0.0337 0.4703
vn -0.6080 -0.6807 0.4086
vn -0.4353 -0.8741 0.2154
vn -0.2207 -0.9094 0.3525
vn 0.8888 -0.4214 0.1802
vn 0.8710 -0.4129 -0.2664
vn 0.8819 -0.0337 -0.4703
vn 0.4411 0.8857 0.1447
vn 0.4353 0.8741 -0.2154
vn 0.2207 0.9094 -0.3525
vn -0.4411 0.8857 0.1447
vn -0.4353 0.8741 -0.2154
vn -0.6080 0.6807 -0.4086
vn -0.8888 -0.4214 0.1802
vn -0.8710 -0.4129 -0.2664
vn -0.6423 -0.6440 -0.4155
vn -0.0000 -0.9914 0.1310
vn -0.0000 -0.9807 -0.1955
vn 0.1864 -0.9181 -0.3499
vn 0.4312 -0.5085 -0.7453
vn 0.4219 -0.2000 -0.8843
vn 0.5958 0.0447 -0.8019
vn 0.4728 0.4489 -0.7582
vn 0.2459 0.4938 -0.8341
vn 0.1322 0.7172 -0.6842
vn -0.1322 0.7172 -0.6842
vn -0.2459 0.4938 -0.8341
vn -0.4728 0.4489 -0.7582
vn 0.1836 -0.6998 -0.6903
vn -0.0000 -0.5906 -0.8070
vn -0.0000 -0.3188 -0.9478
vn -0.5958 0.0447 -0.8019
vn -0.4219 -0.2000 -0.8843
vn -0.4312 -0.5085 -0.7453
vn -0.2548 -0.0828 -0.9634
vn -0.2388 -0.6238 -0.7442
vn -0.1575 0.2168 -0.9634
vn 0.1575 0.2168 -0.9634
vn 0.2548 -0.0828 -0.9634
vn -0.2597 -0.8770 -0.4042
vn -0.9144 -0.0240 -0.4042
vn -0.3054 0.8622 -0.4042
vn 0.7256 0.5568 -0.4042
vn 0.7538 -0.5180 -0.4042
vn -0.5804 -0.7989 -0.1579
vn -0.9391 0.3051 -0.1579
vn -0.0000 0.9875 -0.1579
vn 0.9391 0.3051 -0.1579
vn 0.5804 -0.7989 -0.1579
vn -0.5598 -0.3643 0.7442
vn -0.5195 0.4199 0.7442
vn 0.2388 0.6238 0.7442
vn 0.6671 -0.0343 0.7442
vn 0.1735 -0.6450 0.7442
vn 0.1575 -0.2168 0.9634
vn 0.3043 -0.4188 0.8556
vn 0.5598 -0.3643 0.7442
vn 0.2548 0.0828 0.9634
vn 0.4924 0.1600 0.8556
vn 0.5195 0.4199 0.7442
vn -0.0000 0.2680 0.9634
vn -0.0000 0.5177 0.8556
vn -0.2388 0.6238 0.7442
vn -0.2548 0.0828 0.9634
vn -0.4924 0.1600 0.8556
vn -0.6671 -0.0343 0.7442
vn -0.1575 -0.2168 0.9634
vn -0.3043 -0.4188 0.8556
vn -0.1735 -0.6450 0.7442
vn 0.3054 -0.8622 0.4042
vn 0.5714 -0.7865 0.2344
vn 0.7256 -0.5568 0.4042
vn 0.9144 0.0240 0.4042
vn 0.9246 0.3004 0.2344
vn 0.7538 0.5180 0.4042
vn 0.2597 0.8770 0.4042
vn -0.0000 0.9721 0.2344
vn -0.2597 0.8770 0.4042
vn -0.7538 0.5180 0.4042
vn -0.9246 0.3004 0.2344
vn -0.9144 0.0240 0.4042
vn -0.7256 -0.5568 0.4042
vn -0.5714 -0.7865 0.2344
vn -0.3054 -0.8622 0.4042
vn 0.9391 -0.3051 0.1579
vn 0.9246 -0.3004 -0.2344
vn 0.9144 -0.0240 -0.4042
vn 0.5804 0.7989 0.1579
vn 0.5714 0.7865 -0.2344
vn 0.3054 0.8622 -0.4042
vn -0.5804 0.7989 0.1579
vn -0.5714 0.7865 -0.2344
vn -0.7256 0.5568 -0.4042
vn -0.9391 -0.3051 0.1579
vn -0.9246 -0.3004 -0.2344
vn -0.7538 -0.5180 -0.4042
vn -0.0000 -0.9875 0.1579
vn -0.0000 -0.9721 -0.2344
vn 0.2597 -0.8770 -0.4042
vn 0.5195 -0.4199 -0.7442
vn 0.4924 -0.1600 -0.8556
vn 0.6671 0.0343 -0.7442
vn 0.5598 0.3643 -0.7442
vn 0.3043 0.4188 -0.8556
vn 0.1735 0.6450 -0.7442
vn -0.1735 0.6450 -0.7442
vn -0.3043 0.4188 -0.8556
vn -0.5598 0.3643 -0.7442
vn 0.2388 -0.6238 -0.7442
vn -0.0000 -0.5177 -0.8556
vn -0.0000 -0.2680 -0.9634
vn -0.6671 0.0343 -0.7442
vn -0.4924 -0.1600 -0.8556
vn -0.5195 -0.4199 -0.7442
vt 0.527246 0.709226
vt 0.529994 0.709572
vt 0.526608 0.709356
vt 0.532008 0.710946
vt 0.532204 0.711024
vt 0.524147 0.709712
vt 0.525992 0.710115
vt 0.529465 0.710035
vt 0.533165 0.712790
vt 0.526114 0.710615
vt 0.529461 0.710395
vt 0.527966 0.712307
vt 0.521911 0.711157
vt 0.523358 0.710531
vt 0.521605 0.712646
vt 0.525141 0.711739
vt 0.522963 0.711215
vt 0.523373 0.713264
vt 0.530972 0.711626
vt 0.528171 0.711485
vt 0.529979 0.713340
vt 0.531500 0.712473
vt 0.524085 0.712377
vt 0.521432 0.712986
vt 0.526578 0.713393
vt 0.532494 0.713118
vt 0.529599 0.714204
vt 0.531821 0.714698
vt 0.528578 0.715951
vt 0.523053 0.714293
vt 0.526128 0.714506
vt 0.524786 0.715988
vt 0.522654 0.714744
vt 0.522064 0.714820
vt 0.524470 0.716182
vt 0.528210 0.714920
vt 0.525184 0.715159
vt 0.527807 0.716262
vt 0.532521 0.714619
vt 0.530831 0.715093
vt 0.530355 0.716127
vt 0.527197 0.716680
vt 0.523197 0.702474
vt 0.524288 0.702713
vt 0.522846 0.702590
vt 0.525051 0.703567
vt 0.525277 0.703604
vt 0.521883 0.702773
vt 0.522726 0.703002
vt 0.524193 0.702966
vt 0.525564 0.704695
vt 0.522573 0.703366
vt 0.523941 0.703239
vt 0.523269 0.704371
vt 0.520930 0.703665
vt 0.521498 0.703299
vt 0.520772 0.704573
vt 0.522381 0.704034
vt 0.521409 0.703696
vt 0.521589 0.705007
vt 0.524871 0.703976
vt 0.523707 0.703878
vt 0.524474 0.705078
vt 0.524738 0.704483
vt 0.521741 0.704406
vt 0.520727 0.704803
vt 0.523011 0.705110
vt 0.525450 0.704922
vt 0.523930 0.705500
vt 0.524917 0.705834
vt 0.523565 0.706569
vt 0.521331 0.705555
vt 0.522537 0.705667
vt 0.522042 0.706599
vt 0.521241 0.705921
vt 0.520958 0.705916
vt 0.521978 0.706801
vt 0.523683 0.706088
vt 0.522353 0.706223
vt 0.523427 0.706895
vt 0.525350 0.705836
vt 0.524748 0.706174
vt 0.524410 0.706754
vt 0.523076 0.707076
vt 0.534775 0.706231
vt 0.536031 0.706402
vt 0.534490 0.706317
vt 0.536937 0.706967
vt 0.537095 0.706984
vt 0.533354 0.706419
vt 0.534194 0.706564
vt 0.535831 0.706554
vt 0.537506 0.707700
vt 0.534299 0.706827
vt 0.535768 0.706753
vt 0.535129 0.707486
vt 0.532360 0.706995
vt 0.533059 0.706770
vt 0.532297 0.707590
vt 0.533803 0.707232
vt 0.532787 0.707010
vt 0.532991 0.707863
vt 0.536581 0.707215
vt 0.535255 0.707138
vt 0.536149 0.707928
vt 0.536689 0.707564
vt 0.533441 0.707496
vt 0.532136 0.707731
vt 0.534517 0.707937
vt 0.537290 0.707838
vt 0.535868 0.708216
vt 0.536888 0.708434
vt 0.535459 0.708900
vt 0.532998 0.708232
vt 0.534363 0.708315
vt 0.533777 0.708909
vt 0.532711 0.708459
vt 0.532506 0.708458
vt 0.533599 0.709035
vt 0.535323 0.708580
vt 0.533886 0.708660
vt 0.535143 0.709104
vt 0.537271 0.708434
vt 0.536548 0.708645
vt 0.536292 0.709021
vt 0.534861 0.709220
vt 0.538347 0.708639
vt 0.540789 0.709018
vt 0.537920 0.708878
vt 0.542593 0.710247
vt 0.542729 0.710208
vt 0.535683 0.709058
vt 0.537176 0.709299
vt 0.540263 0.709275
vt 0.543648 0.711788
vt 0.537649 0.710031
vt 0.540445 0.709839
vt 0.539310 0.711483
vt 0.533817 0.710308
vt 0.535210 0.709877
vt 0.533745 0.711646
vt 0.536409 0.710671
vt 0.534560 0.710265
vt 0.534920 0.712031
vt 0.541634 0.710636
vt 0.539105 0.710458
vt 0.540797 0.712112
vt 0.542250 0.711595
vt 0.536014 0.711503
vt 0.533370 0.711849
vt 0.537732 0.712129
vt 0.543053 0.711984
vt 0.540731 0.713052
vt 0.542590 0.713438
vt 0.539888 0.714495
vt 0.535136 0.713081
vt 0.537825 0.713295
vt 0.536617 0.714508
vt 0.534446 0.713368
vt 0.534123 0.713478
vt 0.536172 0.714645
vt 0.539287 0.713509
vt 0.536616 0.713718
vt 0.539054 0.714715
vt 0.543156 0.713325
vt 0.541663 0.713695
vt 0.541345 0.714625
vt 0.538640 0.715094
vt 0.526176 0.703568
vt 0.527023 0.703680
vt 0.526025 0.703543
vt 0.527624 0.704299
vt 0.527674 0.704448
vt 0.525240 0.703807
vt 0.525750 0.704096
vt 0.526832 0.704021
vt 0.527955 0.705234
vt 0.525908 0.704071
vt 0.526883 0.703977
vt 0.526451 0.704826
vt 0.524570 0.704508
vt 0.525065 0.704104
vt 0.524524 0.705149
vt 0.525451 0.704976
vt 0.524821 0.704641
vt 0.524907 0.705724
vt 0.527280 0.704855
vt 0.526397 0.704842
vt 0.526951 0.705772
vt 0.527469 0.704956
vt 0.525312 0.704902
vt 0.524383 0.705464
vt 0.525879 0.705839
vt 0.527744 0.705545
vt 0.526906 0.705748
vt 0.527542 0.706086
vt 0.526580 0.706664
vt 0.524976 0.705868
vt 0.525897 0.705891
vt 0.525453 0.706730
vt 0.524721 0.706376
vt 0.524615 0.706264
vt 0.525291 0.707013
vt 0.526390 0.706565
vt 0.525459 0.706663
vt 0.526283 0.707121
vt 0.527744 0.706193
vt 0.527215 0.706560
vt 0.527081 0.706910
vt 0.526134 0.707162
vt 0.531722 0.713068
vt 0.533491 0.713499
vt 0.531591 0.713394
vt 0.534803 0.714940
vt 0.534685 0.714828
vt 0.529910 0.713591
vt 0.530771 0.713803
vt 0.532910 0.713750
vt 0.535422 0.716707
vt 0.531508 0.714794
vt 0.533434 0.714523
vt 0.532698 0.716521
vt 0.528626 0.715064
vt 0.529717 0.714604
vt 0.528635 0.716666
vt 0.530141 0.715343
vt 0.529002 0.714945
vt 0.529137 0.716915
vt 0.533742 0.715275
vt 0.531955 0.715070
vt 0.533063 0.716937
vt 0.534668 0.716581
vt 0.530341 0.716555
vt 0.528224 0.716804
vt 0.530958 0.716964
vt 0.534764 0.716842
vt 0.533610 0.718344
vt 0.534752 0.718701
vt 0.532870 0.719982
vt 0.529625 0.718374
vt 0.531571 0.718658
vt 0.530554 0.719985
vt 0.528868 0.718498
vt 0.528782 0.718737
vt 0.530066 0.719998
vt 0.532017 0.718544
vt 0.530241 0.718819
vt 0.531951 0.720004
vt 0.534938 0.718456
vt 0.533728 0.718799
vt 0.533682 0.719994
vt 0.531828 0.720571
vt 0.526939 0.708743
vt 0.528591 0.709059
vt 0.526652 0.708885
vt 0.529794 0.710329
vt 0.529838 0.710391
vt 0.525131 0.709212
vt 0.526122 0.709563
vt 0.528190 0.709475
vt 0.530434 0.712032
vt 0.526426 0.710059
vt 0.528356 0.709839
vt 0.527518 0.711607
vt 0.523829 0.710561
vt 0.524768 0.709987
vt 0.523711 0.711940
vt 0.525561 0.711079
vt 0.524346 0.710603
vt 0.524525 0.712510
vt 0.529042 0.710951
vt 0.527352 0.710828
vt 0.528411 0.712560
vt 0.529532 0.711745
vt 0.525245 0.711685
vt 0.523485 0.712256
vt 0.526377 0.712621
vt 0.529960 0.712341
vt 0.528430 0.713343
vt 0.529665 0.713800
vt 0.527773 0.714963
vt 0.524587 0.713449
vt 0.526416 0.713630
vt 0.525541 0.715010
vt 0.524150 0.713886
vt 0.523908 0.713947
vt 0.525243 0.715212
vt 0.527354 0.714045
vt 0.525579 0.714274
vt 0.527163 0.715289
vt 0.530008 0.713736
vt 0.528946 0.714193
vt 0.528731 0.715142
vt 0.526884 0.715658
vt 0.526035 0.706049
vt 0.527256 0.706252
vt 0.525729 0.706127
vt 0.528125 0.707045
vt 0.528285 0.707111
vt 0.524629 0.706335
vt 0.525473 0.706580
vt 0.527067 0.706531
vt 0.528660 0.708123
vt 0.525497 0.706841
vt 0.526967 0.706719
vt 0.526289 0.707785
vt 0.523622 0.707179
vt 0.524287 0.706801
vt 0.523504 0.708020
vt 0.525077 0.707568
vt 0.524076 0.707235
vt 0.524253 0.708478
vt 0.527776 0.707490
vt 0.526492 0.707416
vt 0.527328 0.708538
vt 0.527849 0.707899
vt 0.524610 0.707833
vt 0.523388 0.708267
vt 0.525746 0.708580
vt 0.528442 0.708366
vt 0.527000 0.708863
vt 0.528014 0.709192
vt 0.526571 0.709891
vt 0.524151 0.708936
vt 0.525491 0.709028
vt 0.524905 0.709930
vt 0.523932 0.709324
vt 0.523691 0.709300
vt 0.524760 0.710140
vt 0.526495 0.709486
vt 0.525088 0.709614
vt 0.526283 0.710230
vt 0.528398 0.709213
vt 0.527682 0.709551
vt 0.527405 0.710079
vt 0.525981 0.710386
s 0
usemtl Material.001
f 170/170/319 183/171/319 182/172/319
f 171/173/320 183/171/320 185/174/320
f 170/170/321 182/172/321 187/175/321
f 170/170/322 187/175/322 189/176/322
f 170/170/323 189/176/323 186/177/323
f 171/173/324 185/174/324 192/178/324
f 172/179/325 184/180/325 194/181/325
f 173/182/326 188/183/326 196/184/326
f 174/185/327 190/186/327 198/187/327
f 175/188/328 191/189/328 200/190/328
f 171/173/329 192/178/329 195/191/329
f 172/179/330 194/181/330 197/192/330
f 173/182/331 196/184/331 199/193/331
f 174/185/332 198/187/332 201/194/332
f 175/188/333 200/190/333 193/195/333
f 176/196/334 202/197/334 207/198/334
f 177/199/335 203/200/335 209/201/335
f 178/202/336 204/203/336 210/204/336
f 179/205/337 205/206/337 211/207/337
f 180/208/338 206/209/338 208/210/338
f 208/210/339 211/207/339 181/211/339
f 208/210/340 206/209/340 211/207/340
f 206/209/341 179/205/341 211/207/341
f 211/207/342 210/204/342 181/211/342
f 211/207/343 205/206/343 210/204/343
f 205/206/344 178/202/344 210/204/344
f 210/204/345 209/201/345 181/211/345
f 210/204/346 204/203/346 209/201/346
f 204/203/347 177/199/347 209/201/347
f 209/201/348 207/198/348 181/211/348
f 209/201/349 203/200/349 207/198/349
f 203/200/350 176/196/350 207/198/350
f 207/198/351 208/210/351 181/211/351
f 207/198/352 202/197/352 208/210/352
f 202/197/353 180/208/353 208/210/353
f 193/195/354 206/209/354 180/208/354
f 193/195/355 200/190/355 206/209/355
f 200/190/356 179/205/356 206/209/356
f 201/194/357 205/206/357 179/205/357
f 201/194/358 198/187/358 205/206/358
f 198/187/359 178/202/359 205/206/359
f 199/193/360 204/203/360 178/202/360
f 199/193/361 196/184/361 204/203/361
f 196/184/362 177/199/362 204/203/362
f 197/192/363 203/200/363 177/199/363
f 197/192/364 194/181/364 203/200/364
f 194/181/365 176/196/365 203/200/365
f 195/191/366 202/197/366 176/196/366
f 195/191/367 192/178/367 202/197/367
f 192/178/368 180/208/368 202/197/368
f 200/190/369 201/194/369 179/205/369
f 200/190/370 191/189/370 201/194/370
f 191/189/371 174/185/371 201/194/371
f 198/187/372 199/193/372 178/202/372
f 198/187/373 190/186/373 199/193/373
f 190/186/374 173/182/374 199/193/374
f 196/184/375 197/192/375 177/199/375
f 196/184/376 188/183/376 197/192/376
f 188/183/377 172/179/377 197/192/377
f 194/181/378 195/191/378 176/196/378
f 194/181/379 184/180/379 195/191/379
f 184/180/380 171/173/380 195/191/380
f 192/178/381 193/195/381 180/208/381
f 192/178/382 185/174/382 193/195/382
f 185/174/383 175/188/383 193/195/383
f 186/177/384 191/189/384 175/188/384
f 186/177/385 189/176/385 191/189/385
f 189/176/386 174/185/386 191/189/386
f 189/176/387 190/186/387 174/185/387
f 189/176/388 187/175/388 190/186/388
f 187/175/389 173/182/389 190/186/389
f 187/175/390 188/183/390 173/182/390
f 187/175/391 182/172/391 188/183/391
f 182/172/392 172/179/392 188/183/392
f 185/174/393 186/177/393 175/188/393
f 185/174/394 183/171/394 186/177/394
f 183/171/395 170/170/395 186/177/395
f 182/172/396 184/180/396 172/179/396
f 182/172/397 183/171/397 184/180/397
f 183/171/398 171/173/398 184/180/398
f 212/212/399 225/213/399 224/214/399
f 213/215/400 225/213/400 227/216/400
f 212/212/401 224/214/401 229/217/401
f 212/212/402 229/217/402 231/218/402
f 212/212/403 231/218/403 228/219/403
f 213/215/404 227/216/404 234/220/404
f 214/221/405 226/222/405 236/223/405
f 215/224/406 230/225/406 238/226/406
f 216/227/407 232/228/407 240/229/407
f 217/230/408 233/231/408 242/232/408
f 213/215/409 234/220/409 237/233/409
f 214/221/410 236/223/410 239/234/410
f 215/224/411 238/226/411 241/235/411
f 216/227/412 240/229/412 243/236/412
f 217/230/413 242/232/413 235/237/413
f 218/238/414 244/239/414 249/240/414
f 219/241/415 245/242/415 251/243/415
f 220/244/416 246/245/416 252/246/416
f 221/247/417 247/248/417 253/249/417
f 222/250/418 248/251/418 250/252/418
f 250/252/419 253/249/419 223/253/419
f 250/252/420 248/251/420 253/249/420
f 248/251/421 221/247/421 253/249/421
f 253/249/422 252/246/422 223/253/422
f 253/249/423 247/248/423 252/246/423
f 247/248/424 220/244/424 252/246/424
f 252/246/425 251/243/425 223/253/425
f 252/246/426 246/245/426 251/243/426
f 246/245/427 219/241/427 251/243/427
f 251/243/428 249/240/428 223/253/428
f 251/243/429 245/242/429 249/240/429
f 245/242/430 218/238/430 249/240/430
f 249/240/431 250/252/431 223/253/431
f 249/240/432 244/239/432 250/252/432
f 244/239/433 222/250/433 250/252/433
f 235/237/434 248/251/434 222/250/434
f 235/237/435 242/232/435 248/251/435
f 242/232/436 221/247/436 248/251/436
f 243/236/437 247/248/437 221/247/437
f 243/236/438 240/229/438 247/248/438
f 240/229/439 220/244/439 247/248/439
f 241/235/440 246/245/440 220/244/440
f 241/235/441 238/226/441 246/245/441
f 238/226/442 219/241/442 246/245/442
f 239/234/443 245/242/443 219/241/443
f 239/234/444 236/223/444 245/242/444
f 236/223/445 218/238/445 245/242/445
f 237/233/446 244/239/446 218/238/446
f 237/233/447 234/220/447 244/239/447
f 234/220/448 222/250/448 244/239/448
f 242/232/449 243/236/449 221/247/449
f 242/232/450 233/231/450 243/236/450
f 233/231/451 216/227/451 243/236/451
f 240/229/452 241/235/452 220/244/452
f 240/229/453 232/228/453 241/235/453
f 232/228/454 215/224/454 241/235/454
f 238/226/455 239/234/455 219/241/455
f 238/226/456 230/225/456 239/234/456
f 230/225/457 214/221/457 239/234/457
f 236/223/458 237/233/458 218/238/458
f 236/223/459 226/222/459 237/233/459
f 226/222/460 213/215/460 237/233/460
f 234/220/461 235/237/461 222/250/461
f 234/220/462 227/216/462 235/237/462
f 227/216/463 217/230/463 235/237/463
f 228/219/464 233/231/464 217/230/464
f 228/219/465 231/218/465 233/231/465
f 231/218/466 216/227/466 233/231/466
f 231/218/467 232/228/467 216/227/467
f 231/218/468 229/217/468 232/228/468
f 229/217/469 215/224/469 232/228/469
f 229/217/470 230/225/470 215/224/470
f 229/217/471 224/214/471 230/225/471
f 224/214/472 214/221/472 230/225/472
f 227/216/473 228/219/473 217/230/473
f 227/216/474 225/213/474 228/219/474
f 225/213/475 212/212/475 228/219/475
f 224/214/476 226/222/476 214/221/476
f 224/214/477 225/213/477 226/222/477
f 225/213/478 213/215/478 226/222/478
f 254/254/479 267/255/479 266/256/479
f 255/257/480 267/255/480 269/258/480
f 254/254/481 266/256/481 271/259/481
f 254/254/482 271/259/482 273/260/482
f 254/254/483 273/260/483 270/261/483
f 255/257/484 269/258/484 276/262/484
f 256/263/485 268/264/485 278/265/485
f 257/266/486 272/267/486 280/268/486
f 258/269/487 274/270/487 282/271/487
f 259/272/488 275/273/488 284/274/488
f 255/257/489 276/262/489 279/275/489
f 256/263/490 278/265/490 281/276/490
f 257/266/491 280/268/491 283/277/491
f 258/269/492 282/271/492 285/278/492
f 259/272/493 284/274/493 277/279/493
f 260/280/494 286/281/494 291/282/494
f 261/283/495 287/284/495 293/285/495
f 262/286/496 288/287/496 294/288/496
f 263/289/497 289/290/497 295/291/497
f 264/292/498 290/293/498 292/294/498
f 292/294/499 295/291/499 265/295/499
f 292/294/500 290/293/500 295/291/500
f 290/293/501 263/289/501 295/291/501
f 295/291/502 294/288/502 265/295/502
f 295/291/503 289/290/503 294/288/503
f 289/290/504 262/286/504 294/288/504
f 294/288/505 293/285/505 265/295/505
f 294/288/506 288/287/506 293/285/506
f 288/287/507 261/283/507 293/285/507
f 293/285/508 291/282/508 265/295/508
f 293/285/509 287/284/509 291/282/509
f 287/284/510 260/280/510 291/282/510
f 291/282/511 292/294/511 265/295/511
f 291/282/512 286/281/512 292/294/512
f 286/281/513 264/292/513 292/294/513
f 277/279/514 290/293/514 264/292/514
f 277/279/515 284/274/515 290/293/515
f 284/274/516 263/289/516 290/293/516
f 285/278/517 289/290/517 263/289/517
f 285/278/518 282/271/518 289/290/518
f 282/271/519 262/286/519 289/290/519
f 283/277/520 288/287/520 262/286/520
f 283/277/521 280/268/521 288/287/521
f 280/268/522 261/283/522 288/287/522
f 281/276/523 287/284/523 261/283/523
f 281/276/524 278/265/524 287/284/524
f 278/265/525 260/280/525 287/284/525
f 279/275/526 286/281/526 260/280/526
f 279/275/527 276/262/527 286/281/527
f 276/262/528 264/292/528 286/281/528
f 284/274/529 285/278/529 263/289/529
f 284/274/530 275/273/530 285/278/530
f 275/273/531 258/269/531 285/278/531
f 282/271/532 283/277/532 262/286/532
f 282/271/533 274/270/533 283/277/533
f 274/270/534 257/266/534 283/277/534
f 280/268/535 281/276/535 261/283/535
f 280/268/536 272/267/536 281/276/536
f 272/267/537 256/263/537 281/276/537
f 278/265/538 279/275/538 260/280/538
f 278/265/539 268/264/539 279/275/539
f 268/264/540 255/257/540 279/275/540
f 276/262/541 277/279/541 264/292/541
f 276/262/542 269/258/542 277/279/542
f 269/258/543 259/272/543 277/279/543
f 270/261/544 275/273/544 259/272/544
f 270/261/545 273/260/545 275/273/545
f 273/260/546 258/269/546 275/273/546
f 273/260/547 274/270/547 258/269/547
f 273/260/548 271/259/548 274/270/548
f 271/259/549 257/266/549 274/270/549
f 271/259/550 272/267/550 257/266/550
f 271/259/551 266/256/551 272/267/551
f 266/256/552 256/263/552 272/267/552
f 269/258/553 270/261/553 259/272/553
f 269/258/554 267/255/554 270/261/554
f 267/255/555 254/254/555 270/261/555
f 266/256/556 268/264/556 256/263/556
f 266/256/557 267/255/557 268/264/557
f 267/255/558 255/257/558 268/264/558
f 296/296/559 309/297/559 308/298/559
f 297/299/560 309/297/560 311/300/560
f 296/296/561 308/298/561 313/301/561
f 296/296/562 313/301/562 315/302/562
f 296/296/563 315/302/563 312/303/563
f 297/299/564 311/300/564 318/304/564
f 298/305/565 310/306/565 320/307/565
f 299/308/566 314/309/566 322/310/566
f 300/311/567 316/312/567 324/313/567
f 301/314/568 317/315/568 326/316/568
f 297/299/569 318/304/569 321/317/569
f 298/305/570 320/307/570 323/318/570
f 299/308/571 322/310/571 325/319/571
f 300/311/572 324/313/572 327/320/572
f 301/314/573 326/316/573 319/321/573
f 302/322/574 328/323/574 333/324/574
f 303/325/575 329/326/575 335/327/575
f 304/328/576 330/329/576 336/330/576
f 305/331/577 331/332/577 337/333/577
f 306/334/578 332/335/578 334/336/578
f 334/336/579 337/333/579 307/337/579
f 334/336/580 332/335/580 337/333/580
f 332/335/581 305/331/581 337/333/581
f 337/333/582 336/330/582 307/337/582
f 337/333/583 331/332/583 336/330/583
f 331/332/584 304/328/584 336/330/584
f 336/330/585 335/327/585 307/337/585
f 336/330/586 330/329/586 335/327/586
f 330/329/587 303/325/587 335/327/587
f 335/327/588 333/324/588 307/337/588
f 335/327/589 329/326/589 333/324/589
f 329/326/590 302/322/590 333/324/590
f 333/324/591 334/336/591 307/337/591
f 333/324/592 328/323/592 334/336/592
f 328/323/593 306/334/593 334/336/593
f 319/321/594 332/335/594 306/334/594
f 319/321/595 326/316/595 332/335/595
f 326/316/596 305/331/596 332/335/596
f 327/320/597 331/332/597 305/331/597
f 327/320/598 324/313/598 331/332/598
f 324/313/599 304/328/599 331/332/599
f 325/319/600 330/329/600 304/328/600
f 325/319/601 322/310/601 330/329/601
f 322/310/602 303/325/602 330/329/602
f 323/318/603 329/326/603 303/325/603
f 323/318/604 320/307/604 329/326/604
f 320/307/605 302/322/605 329/326/605
f 321/317/606 328/323/606 302/322/606
f 321/317/607 318/304/607 328/323/607
f 318/304/608 306/334/608 328/323/608
f 326/316/609 327/320/609 305/331/609
f 326/316/610 317/315/610 327/320/610
f 317/315/611 300/311/611 327/320/611
f 324/313/612 325/319/612 304/328/612
f 324/313/613 316/312/613 325/319/613
f 316/312/614 299/308/614 325/319/614
f 322/310/615 323/318/615 303/325/615
f 322/310/616 314/309/616 323/318/616
f 314/309/617 298/305/617 323/318/617
f 320/307/618 321/317/618 302/322/618
f 320/307/619 310/306/619 321/317/619
f 310/306/620 297/299/620 321/317/620
f 318/304/621 319/321/621 306/334/621
f 318/304/622 311/300/622 319/321/622
f 311/300/623 301/314/623 319/321/623
f 312/303/624 317/315/624 301/314/624
f 312/303/625 315/302/625 317/315/625
f 315/302/626 300/311/626 317/315/626
f 315/302/627 316/312/627 300/311/627
f 315/302/628 313/301/628 316/312/628
f 313/301/629 299/308/629 316/312/629
f 313/301/630 314/309/630 299/308/630
f 313/301/631 308/298/631 314/309/631
f 308/298/632 298/305/632 314/309/632
f 311/300/633 312/303/633 301/314/633
f 311/300/634 309/297/634 312/303/634
f 309/297/635 296/296/635 312/303/635
f 308/298/636 310/306/636 298/305/636
f 308/298/637 309/297/637 310/306/637
f 309/297/638 297/299/638 310/306/638
f 338/338/639 351/339/639 350/340/639
f 339/341/640 351/339/640 353/342/640
f 338/338/641 350/340/641 355/343/641
f 338/338/642 355/343/642 357/344/642
f 338/338/643 357/344/643 354/345/643
f 339/341/644 353/342/644 360/346/644
f 340/347/645 352/348/645 362/349/645
f 341/350/646 356/351/646 364/352/646
f 342/353/647 358/354/647 366/355/647
f 343/356/648 359/357/648 368/358/648
f 339/341/649 360/346/649 363/359/649
f 340/347/650 362/349/650 365/360/650
f 341/350/651 364/352/651 367/361/651
f 342/353/652 366/355/652 369/362/652
f 343/356/653 368/358/653 361/363/653
f 344/364/654 370/365/654 375/366/654
f 345/367/655 371/368/655 377/369/655
f 346/370/656 372/371/656 378/372/656
f 347/373/657 373/374/657 379/375/657
f 348/376/658 374/377/658 376/378/658
f 376/378/659 379/375/659 349/379/659
f 376/378/660 374/377/660 379/375/660
f 374/377/661 347/373/661 379/375/661
f 379/375/662 378/372/662 349/379/662
f 379/375/663 373/374/663 378/372/663
f 373/374/664 346/370/664 378/372/664
f 378/372/665 377/369/665 349/379/665
f 378/372/666 372/371/666 377/369/666
f 372/371/667 345/367/667 377/369/667
f 377/369/668 375/366/668 349/379/668
f 377/369/669 371/368/669 375/366/669
f 371/368/670 344/364/670 375/366/670
f 375/366/671 376/378/671 349/379/671
f 375/366/672 370/365/672 376/378/672
f 370/365/673 348/376/673 376/378/673
f 361/363/674 374/377/674 348/376/674
f 361/363/675 368/358/675 374/377/675
f 368/358/676 347/373/676 374/377/676
f 369/362/677 373/374/677 347/373/677
f 369/362/678 366/355/678 373/374/678
f 366/355/679 346/370/679 373/374/679
f 367/361/680 372/371/680 346/370/680
f 367/361/681 364/352/681 372/371/681
f 364/352/682 345/367/682 372/371/682
f 365/360/683 371/368/683 345/367/683
f 365/360/684 362/349/684 371/368/684
f 362/349/685 344/364/685 371/368/685
f 363/359/686 370/365/686 344/364/686
f 363/359/687 360/346/687 370/365/687
f 360/346/688 348/376/688 370/365/688
f 368/358/689 369/362/689 347/373/689
f 368/358/690 359/357/690 369/362/690
f 359/357/691 342/353/691 369/362/691
f 366/355/692 367/361/692 346/370/692
f 366/355/693 358/354/693 367/361/693
f 358/354/694 341/350/694 367/361/694
f 364/352/695 365/360/695 345/367/695
f 364/352/696 356/351/696 365/360/696
f 356/351/697 340/347/697 365/360/697
f 362/349/698 363/359/698 344/364/698
f 362/349/699 352/348/699 363/359/699
f 352/348/700 339/341/700 363/359/700
f 360/346/701 361/363/701 348/376/701
f 360/346/702 353/342/702 361/363/702
f 353/342/703 343/356/703 361/363/703
f 354/345/704 359/357/704 343/356/704
f 354/345/705 357/344/705 359/357/705
f 357/344/706 342/353/706 359/357/706
f 357/344/707 358/354/707 342/353/707
f 357/344/708 355/343/708 358/354/708
f 355/343/709 341/350/709 358/354/709
f 355/343/710 356/351/710 341/350/710
f 355/343/711 350/340/711 356/351/711
f 350/340/712 340/347/712 356/351/712
f 353/342/713 354/345/713 343/356/713
f 353/342/714 351/339/714 354/345/714
f 351/339/715 338/338/715 354/345/715
f 350/340/716 352/348/716 340/347/716
f 350/340/717 351/339/717 352/348/717
f 351/339/718 339/341/718 352/348/718
f 380/380/719 393/381/719 392/382/719
f 381/383/720 393/381/720 395/384/720
f 380/380/721 392/382/721 397/385/721
f 380/380/722 397/385/722 399/386/722
f 380/380/723 399/386/723 396/387/723
f 381/383/724 395/384/724 402/388/724
f 382/389/725 394/390/725 404/391/725
f 383/392/726 398/393/726 406/394/726
f 384/395/727 400/396/727 408/397/727
f 385/398/728 401/399/728 410/400/728
f 381/383/729 402/388/729 405/401/729
f 382/389/730 404/391/730 407/402/730
f 383/392/651 406/394/651 409/403/651
f 384/395/731 408/397/731 411/404/731
f 385/398/732 410/400/732 403/405/732
f 386/406/733 412/407/733 417/408/733
f 387/409/734 413/410/734 419/411/734
f 388/412/735 414/413/735 420/414/735
f 389/415/736 415/416/736 421/417/736
f 390/418/737 416/419/737 418/420/737
f 418/420/738 421/417/738 391/421/738
f 418/420/739 416/419/739 421/417/739
f 416/419/740 389/415/740 421/417/740
f 421/417/741 420/414/741 391/421/741
f 421/417/742 415/416/742 420/414/742
f 415/416/743 388/412/743 420/414/743
f 420/414/665 419/411/665 391/421/665
f 420/414/666 414/413/666 419/411/666
f 414/413/744 387/409/744 419/411/744
f 419/411/745 417/408/745 391/421/745
f 419/411/746 413/410/746 417/408/746
f 413/410/747 386/406/747 417/408/747
f 417/408/748 418/420/748 391/421/748
f 417/408/749 412/407/749 418/420/749
f 412/407/750 390/418/750 418/420/750
f 403/405/751 416/419/751 390/418/751
f 403/405/752 410/400/752 416/419/752
f 410/400/753 389/415/753 416/419/753
f 411/404/754 415/416/754 389/415/754
f 411/404/755 408/397/755 415/416/755
f 408/397/756 388/412/756 415/416/756
f 409/403/757 414/413/757 388/412/757
f 409/403/681 406/394/681 414/413/681
f 406/394/758 387/409/758 414/413/758
f 407/402/759 413/410/759 387/409/759
f 407/402/760 404/391/760 413/410/760
f 404/391/761 386/406/761 413/410/761
f 405/401/762 412/407/762 386/406/762
f 405/401/763 402/388/763 412/407/763
f 402/388/764 390/418/764 412/407/764
f 410/400/765 411/404/765 389/415/765
f 410/400/766 401/399/766 411/404/766
f 401/399/767 384/395/767 411/404/767
f 408/397/768 409/403/768 388/412/768
f 408/397/769 400/396/769 409/403/769
f 400/396/770 383/392/770 409/403/770
f 406/394/771 407/402/771 387/409/771
f 406/394/772 398/393/772 407/402/772
f 398/393/773 382/389/773 407/402/773
f 404/391/774 405/401/774 386/406/774
f 404/391/775 394/390/775 405/401/775
f 394/390/776 381/383/776 405/401/776
f 402/388/701 403/405/701 390/418/701
f 402/388/702 395/384/702 403/405/702
f 395/384/777 385/398/777 403/405/777
f 396/387/778 401/399/778 385/398/778
f 396/387/779 399/386/779 401/399/779
f 399/386/780 384/395/780 401/399/780
f 399/386/781 400/396/781 384/395/781
f 399/386/782 397/385/782 400/396/782
f 397/385/783 383/392/783 400/396/783
f 397/385/784 398/393/784 383/392/784
f 397/385/785 392/382/785 398/393/785
f 392/382/786 382/389/786 398/393/786
f 395/384/787 396/387/787 385/398/787
f 395/384/714 393/381/714 396/387/714
f 393/381/715 380/380/715 396/387/715
f 392/382/788 394/390/788 382/389/788
f 392/382/789 393/381/789 394/390/789
f 393/381/790 381/383/790 394/390/790
f 422/422/791 435/423/791 434/424/791
f 423/425/792 435/423/792 437/426/792
f 422/422/793 434/424/793 439/427/793
f 422/422/794 439/427/794 441/428/794
f 422/422/795 441/428/795 438/429/795
f 423/425/796 437/426/796 444/430/796
f 424/431/797 436/432/797 446/433/797
f 425/434/798 440/435/798 448/436/798
f 426/437/799 442/438/799 450/439/799
f 427/440/800 443/441/800 452/442/800
f 423/425/801 444/430/801 447/443/801
f 424/431/802 446/433/802 449/444/802
f 425/434/803 448/436/803 451/445/803
f 426/437/804 450/439/804 453/446/804
f 427/440/805 452/442/805 445/447/805
f 428/448/806 454/449/806 459/450/806
f 429/451/807 455/452/807 461/453/807
f 430/454/808 456/455/808 462/456/808
f 431/457/809 457/458/809 463/459/809
f 432/460/810 458/461/810 460/462/810
f 460/462/811 463/459/811 433/463/811
f 460/462/812 458/461/812 463/459/812
f 458/461/813 431/457/813 463/459/813
f 463/459/814 462/456/814 433/463/814
f 463/459/815 457/458/815 462/456/815
f 457/458/816 430/454/816 462/456/816
f 462/456/817 461/453/817 433/463/817
f 462/456/818 456/455/818 461/453/818
f 456/455/819 429/451/819 461/453/819
f 461/453/820 459/450/820 433/463/820
f 461/453/821 455/452/821 459/450/821
f 455/452/822 428/448/822 459/450/822
f 459/450/823 460/462/823 433/463/823
f 459/450/824 454/449/824 460/462/824
f 454/449/825 432/460/825 460/462/825
f 445/447/826 458/461/826 432/460/826
f 445/447/827 452/442/827 458/461/827
f 452/442/828 431/457/828 458/461/828
f 453/446/829 457/458/829 431/457/829
f 453/446/830 450/439/830 457/458/830
f 450/439/831 430/454/831 457/458/831
f 451/445/832 456/455/832 430/454/832
f 451/445/833 448/436/833 456/455/833
f 448/436/834 429/451/834 456/455/834
f 449/444/835 455/452/835 429/451/835
f 449/444/836 446/433/836 455/452/836
f 446/433/837 428/448/837 455/452/837
f 447/443/838 454/449/838 428/448/838
f 447/443/839 444/430/839 454/449/839
f 444/430/840 432/460/840 454/449/840
f 452/442/841 453/446/841 431/457/841
f 452/442/842 443/441/842 453/446/842
f 443/441/843 426/437/843 453/446/843
f 450/439/844 451/445/844 430/454/844
f 450/439/845 442/438/845 451/445/845
f 442/438/846 425/434/846 451/445/846
f 448/436/847 449/444/847 429/451/847
f 448/436/848 440/435/848 449/444/848
f 440/435/849 424/431/849 449/444/849
f 446/433/850 447/443/850 428/448/850
f 446/433/851 436/432/851 447/443/851
f 436/432/852 423/425/852 447/443/852
f 444/430/853 445/447/853 432/460/853
f 444/430/854 437/426/854 445/447/854
f 437/426/855 427/440/855 445/447/855
f 438/429/856 443/441/856 427/440/856
f 438/429/857 441/428/857 443/441/857
f 441/428/858 426/437/858 443/441/858
f 441/428/859 442/438/859 426/437/859
f 441/428/860 439/427/860 442/438/860
f 439/427/861 425/434/861 442/438/861
f 439/427/862 440/435/862 425/434/862
f 439/427/863 434/424/863 440/435/863
f 434/424/864 424/431/864 440/435/864
f 437/426/865 438/429/865 427/440/865
f 437/426/866 435/423/866 438/429/866
f 435/423/867 422/422/867 438/429/867
f 434/424/868 436/432/868 424/431/868
f 434/424/869 435/423/869 436/432/869
f 435/423/870 423/425/870 436/432/870
f 464/464/871 477/465/871 476/466/871
f 465/467/872 477/465/872 479/468/872
f 464/464/873 476/466/873 481/469/873
f 464/464/874 481/469/874 483/470/874
f 464/464/875 483/470/875 480/471/875
f 465/467/876 479/468/876 486/472/876
f 466/473/877 478/474/877 488/475/877
f 467/476/878 482/477/878 490/478/878
f 468/479/879 484/480/879 492/481/879
f 469/482/880 485/483/880 494/484/880
f 465/467/881 486/472/881 489/485/881
f 466/473/882 488/475/882 491/486/882
f 467/476/883 490/478/883 493/487/883
f 468/479/884 492/481/884 495/488/884
f 469/482/885 494/484/885 487/489/885
f 470/490/886 496/491/886 501/492/886
f 471/493/887 497/494/887 503/495/887
f 472/496/888 498/497/888 504/498/888
f 473/499/889 499/500/889 505/501/889
f 474/502/890 500/503/890 502/504/890
f 502/504/891 505/501/891 475/505/891
f 502/504/892 500/503/892 505/501/892
f 500/503/893 473/499/893 505/501/893
f 505/501/894 504/498/894 475/505/894
f 505/501/895 499/500/895 504/498/895
f 499/500/896 472/496/896 504/498/896
f 504/498/897 503/495/897 475/505/897
f 504/498/898 498/497/898 503/495/898
f 498/497/899 471/493/899 503/495/899
f 503/495/900 501/492/900 475/505/900
f 503/495/901 497/494/901 501/492/901
f 497/494/902 470/490/902 501/492/902
f 501/492/903 502/504/903 475/505/903
f 501/492/904 496/491/904 502/504/904
f 496/491/905 474/502/905 502/504/905
f 487/489/906 500/503/906 474/502/906
f 487/489/907 494/484/907 500/503/907
f 494/484/908 473/499/908 500/503/908
f 495/488/909 499/500/909 473/499/909
f 495/488/910 492/481/910 499/500/910
f 492/481/911 472/496/911 499/500/911
f 493/487/912 498/497/912 472/496/912
f 493/487/913 490/478/913 498/497/913
f 490/478/914 471/493/914 498/497/914
f 491/486/915 497/494/915 471/493/915
f 491/486/916 488/475/916 497/494/916
f 488/475/917 470/490/917 497/494/917
f 489/485/918 496/491/918 470/490/918
f 489/485/919 486/472/919 496/491/919
f 486/472/920 474/502/920 496/491/920
f 494/484/921 495/488/921 473/499/921
f 494/484/922 485/483/922 495/488/922
f 485/483/923 468/479/923 495/488/923
f 492/481/924 493/487/924 472/496/924
f 492/481/925 484/480/925 493/487/925
f 484/480/926 467/476/926 493/487/926
f 490/478/927 491/486/927 471/493/927
f 490/478/928 482/477/928 491/486/928
f 482/477/929 466/473/929 491/486/929
f 488/475/930 489/485/930 470/490/930
f 488/475/931 478/474/931 489/485/931
f 478/474/932 465/467/932 489/485/932
f 486/472/933 487/489/933 474/502/933
f 486/472/934 479/468/934 487/489/934
f 479/468/935 469/482/935 487/489/935
f 480/471/936 485/483/936 469/482/936
f 480/471/937 483/470/937 485/483/937
f 483/470/938 468/479/938 485/483/938
f 483/470/939 484/480/939 468/479/939
f 483/470/940 481/469/940 484/480/940
f 481/469/941 467/476/941 484/480/941
f 481/469/942 482/477/942 467/476/942
f 481/469/943 476/466/943 482/477/943
f 476/466/944 466/473/944 482/477/944
f 479/468/945 480/471/945 469/482/945
f 479/468/946 477/465/946 480/471/946
f 477/465/947 464/464/947 480/471/947
f 476/466/948 478/474/948 466/473/948
f 476/466/949 477/465/949 478/474/949
f 477/465/950 465/467/950 478/474/950
